G04 EAGLE Gerber RS-274X export*
G75*
%MOMM*%
%FSLAX34Y34*%
%LPD*%
%INTop Copper*%
%IPPOS*%
%AMOC8*
5,1,8,0,0,1.08239X$1,22.5*%
G01*
%ADD10C,0.000000*%
%ADD11C,1.320800*%
%ADD12C,2.184400*%
%ADD13C,1.524000*%
%ADD14R,1.300000X1.600000*%
%ADD15R,1.600000X1.300000*%
%ADD16C,0.304800*%
%ADD17C,1.006400*%

G36*
X751098Y10164D02*
X751098Y10164D01*
X751117Y10162D01*
X751219Y10184D01*
X751321Y10200D01*
X751338Y10210D01*
X751358Y10214D01*
X751447Y10267D01*
X751538Y10316D01*
X751552Y10330D01*
X751569Y10340D01*
X751636Y10419D01*
X751708Y10494D01*
X751716Y10512D01*
X751729Y10527D01*
X751768Y10623D01*
X751811Y10717D01*
X751813Y10737D01*
X751821Y10755D01*
X751839Y10922D01*
X751839Y878078D01*
X751836Y878098D01*
X751838Y878117D01*
X751816Y878219D01*
X751800Y878321D01*
X751790Y878338D01*
X751786Y878358D01*
X751733Y878447D01*
X751684Y878538D01*
X751670Y878552D01*
X751660Y878569D01*
X751581Y878636D01*
X751506Y878708D01*
X751488Y878716D01*
X751473Y878729D01*
X751377Y878768D01*
X751283Y878811D01*
X751263Y878813D01*
X751245Y878821D01*
X751078Y878839D01*
X10922Y878839D01*
X10902Y878836D01*
X10883Y878838D01*
X10781Y878816D01*
X10679Y878800D01*
X10662Y878790D01*
X10642Y878786D01*
X10553Y878733D01*
X10462Y878684D01*
X10448Y878670D01*
X10431Y878660D01*
X10364Y878581D01*
X10292Y878506D01*
X10284Y878488D01*
X10271Y878473D01*
X10232Y878377D01*
X10189Y878283D01*
X10187Y878263D01*
X10179Y878245D01*
X10161Y878078D01*
X10161Y10922D01*
X10164Y10902D01*
X10162Y10883D01*
X10184Y10781D01*
X10200Y10679D01*
X10210Y10662D01*
X10214Y10642D01*
X10267Y10553D01*
X10316Y10462D01*
X10330Y10448D01*
X10340Y10431D01*
X10419Y10364D01*
X10494Y10292D01*
X10512Y10284D01*
X10527Y10271D01*
X10623Y10232D01*
X10717Y10189D01*
X10737Y10187D01*
X10755Y10179D01*
X10922Y10161D01*
X751078Y10161D01*
X751098Y10164D01*
G37*
%LPC*%
G36*
X447122Y37337D02*
X447122Y37337D01*
X442174Y39387D01*
X438387Y43174D01*
X436337Y48122D01*
X436337Y53478D01*
X438387Y58426D01*
X442174Y62213D01*
X445265Y63494D01*
X445365Y63555D01*
X445465Y63615D01*
X445469Y63620D01*
X445474Y63623D01*
X445549Y63713D01*
X445625Y63802D01*
X445627Y63808D01*
X445631Y63813D01*
X445673Y63921D01*
X445702Y63993D01*
X445707Y64004D01*
X445707Y64007D01*
X445717Y64030D01*
X445718Y64038D01*
X445719Y64042D01*
X445720Y64061D01*
X445735Y64197D01*
X445735Y115698D01*
X445732Y115718D01*
X445734Y115737D01*
X445712Y115839D01*
X445696Y115941D01*
X445686Y115958D01*
X445682Y115978D01*
X445629Y116067D01*
X445580Y116158D01*
X445566Y116172D01*
X445556Y116189D01*
X445477Y116256D01*
X445402Y116328D01*
X445384Y116336D01*
X445369Y116349D01*
X445273Y116388D01*
X445179Y116431D01*
X445159Y116433D01*
X445141Y116441D01*
X444974Y116459D01*
X433748Y116459D01*
X432338Y117869D01*
X432322Y117880D01*
X432310Y117896D01*
X432222Y117952D01*
X432139Y118012D01*
X432120Y118018D01*
X432103Y118029D01*
X432002Y118054D01*
X431903Y118084D01*
X431884Y118084D01*
X431864Y118089D01*
X431761Y118081D01*
X431658Y118078D01*
X431639Y118071D01*
X431619Y118070D01*
X431524Y118029D01*
X431427Y117994D01*
X431411Y117981D01*
X431393Y117973D01*
X431262Y117869D01*
X429852Y116459D01*
X414748Y116459D01*
X413259Y117948D01*
X413259Y122174D01*
X413256Y122194D01*
X413258Y122213D01*
X413236Y122315D01*
X413220Y122417D01*
X413210Y122434D01*
X413206Y122454D01*
X413153Y122543D01*
X413104Y122634D01*
X413090Y122648D01*
X413080Y122665D01*
X413001Y122732D01*
X412926Y122804D01*
X412908Y122812D01*
X412893Y122825D01*
X412797Y122864D01*
X412703Y122907D01*
X412683Y122909D01*
X412665Y122917D01*
X412498Y122935D01*
X405740Y122935D01*
X405650Y122921D01*
X405559Y122913D01*
X405529Y122901D01*
X405497Y122896D01*
X405417Y122853D01*
X405333Y122817D01*
X405301Y122791D01*
X405280Y122780D01*
X405258Y122757D01*
X405202Y122712D01*
X403070Y120580D01*
X400286Y119427D01*
X397274Y119427D01*
X394490Y120580D01*
X392360Y122710D01*
X391207Y125494D01*
X391207Y128506D01*
X392360Y131290D01*
X394490Y133420D01*
X397274Y134573D01*
X400286Y134573D01*
X403070Y133420D01*
X405202Y131288D01*
X405276Y131235D01*
X405345Y131175D01*
X405375Y131163D01*
X405402Y131144D01*
X405488Y131117D01*
X405573Y131083D01*
X405614Y131079D01*
X405637Y131072D01*
X405669Y131073D01*
X405740Y131065D01*
X412498Y131065D01*
X412518Y131068D01*
X412537Y131066D01*
X412639Y131088D01*
X412741Y131104D01*
X412758Y131114D01*
X412778Y131118D01*
X412867Y131171D01*
X412958Y131220D01*
X412972Y131234D01*
X412989Y131244D01*
X413056Y131323D01*
X413128Y131398D01*
X413136Y131416D01*
X413149Y131431D01*
X413188Y131527D01*
X413231Y131621D01*
X413233Y131641D01*
X413241Y131659D01*
X413259Y131826D01*
X413259Y136052D01*
X414748Y137541D01*
X429852Y137541D01*
X431262Y136131D01*
X431278Y136120D01*
X431290Y136104D01*
X431378Y136048D01*
X431461Y135988D01*
X431480Y135982D01*
X431497Y135971D01*
X431598Y135946D01*
X431697Y135916D01*
X431716Y135916D01*
X431736Y135911D01*
X431839Y135919D01*
X431942Y135922D01*
X431961Y135929D01*
X431981Y135930D01*
X432076Y135971D01*
X432173Y136006D01*
X432189Y136019D01*
X432207Y136027D01*
X432338Y136131D01*
X433748Y137541D01*
X445777Y137541D01*
X445867Y137555D01*
X445958Y137563D01*
X445988Y137575D01*
X446020Y137580D01*
X446100Y137623D01*
X446184Y137659D01*
X446216Y137685D01*
X446237Y137696D01*
X446259Y137719D01*
X446315Y137764D01*
X515816Y207265D01*
X564421Y207265D01*
X564511Y207279D01*
X564602Y207287D01*
X564632Y207299D01*
X564664Y207304D01*
X564744Y207347D01*
X564828Y207383D01*
X564860Y207409D01*
X564881Y207420D01*
X564903Y207443D01*
X564959Y207488D01*
X656112Y298641D01*
X656165Y298715D01*
X656225Y298784D01*
X656237Y298814D01*
X656256Y298840D01*
X656283Y298927D01*
X656317Y299012D01*
X656321Y299053D01*
X656328Y299076D01*
X656327Y299108D01*
X656335Y299179D01*
X656335Y447581D01*
X656321Y447671D01*
X656313Y447762D01*
X656301Y447792D01*
X656296Y447824D01*
X656253Y447904D01*
X656217Y447988D01*
X656191Y448020D01*
X656180Y448041D01*
X656157Y448063D01*
X656112Y448119D01*
X648779Y455452D01*
X648705Y455505D01*
X648636Y455565D01*
X648606Y455577D01*
X648580Y455596D01*
X648493Y455623D01*
X648408Y455657D01*
X648367Y455661D01*
X648344Y455668D01*
X648312Y455667D01*
X648241Y455675D01*
X554576Y455675D01*
X478535Y531716D01*
X478535Y566757D01*
X478517Y566871D01*
X478499Y566988D01*
X478497Y566994D01*
X478496Y567000D01*
X478441Y567102D01*
X478388Y567207D01*
X478383Y567212D01*
X478380Y567217D01*
X478296Y567297D01*
X478212Y567380D01*
X478206Y567383D01*
X478202Y567387D01*
X478185Y567394D01*
X478065Y567460D01*
X476844Y567966D01*
X473986Y570824D01*
X472439Y574559D01*
X472439Y593841D01*
X473986Y597576D01*
X476844Y600434D01*
X480579Y601981D01*
X484621Y601981D01*
X488356Y600434D01*
X491214Y597576D01*
X492761Y593841D01*
X492761Y574559D01*
X491214Y570824D01*
X488356Y567966D01*
X487135Y567460D01*
X487035Y567399D01*
X486935Y567339D01*
X486931Y567334D01*
X486926Y567331D01*
X486851Y567240D01*
X486775Y567152D01*
X486773Y567146D01*
X486769Y567141D01*
X486727Y567033D01*
X486683Y566924D01*
X486682Y566916D01*
X486681Y566912D01*
X486680Y566893D01*
X486665Y566757D01*
X486665Y535399D01*
X486666Y535389D01*
X486666Y535384D01*
X486672Y535357D01*
X486679Y535309D01*
X486687Y535218D01*
X486699Y535188D01*
X486704Y535156D01*
X486747Y535076D01*
X486783Y534992D01*
X486809Y534960D01*
X486820Y534939D01*
X486843Y534917D01*
X486888Y534861D01*
X557721Y464028D01*
X557795Y463975D01*
X557864Y463915D01*
X557894Y463903D01*
X557920Y463884D01*
X558007Y463857D01*
X558092Y463823D01*
X558133Y463819D01*
X558156Y463812D01*
X558188Y463813D01*
X558259Y463805D01*
X651924Y463805D01*
X664465Y451264D01*
X664465Y295496D01*
X568104Y199135D01*
X519499Y199135D01*
X519409Y199121D01*
X519318Y199113D01*
X519288Y199101D01*
X519256Y199096D01*
X519176Y199053D01*
X519092Y199017D01*
X519060Y198991D01*
X519039Y198980D01*
X519017Y198957D01*
X518961Y198912D01*
X450564Y130515D01*
X450511Y130441D01*
X450451Y130372D01*
X450439Y130342D01*
X450420Y130316D01*
X450393Y130229D01*
X450359Y130144D01*
X450355Y130103D01*
X450348Y130080D01*
X450349Y130048D01*
X450341Y129977D01*
X450341Y124023D01*
X450355Y123933D01*
X450363Y123842D01*
X450375Y123812D01*
X450380Y123780D01*
X450423Y123700D01*
X450459Y123616D01*
X450485Y123584D01*
X450496Y123563D01*
X450519Y123541D01*
X450564Y123485D01*
X451261Y122788D01*
X451335Y122735D01*
X451404Y122675D01*
X451434Y122663D01*
X451460Y122644D01*
X451547Y122617D01*
X451632Y122583D01*
X451673Y122579D01*
X451696Y122572D01*
X451728Y122573D01*
X451799Y122565D01*
X485384Y122565D01*
X544801Y63147D01*
X544895Y63080D01*
X544990Y63009D01*
X544996Y63007D01*
X545001Y63004D01*
X545112Y62970D01*
X545224Y62933D01*
X545230Y62933D01*
X545236Y62931D01*
X545353Y62934D01*
X545470Y62936D01*
X545477Y62938D01*
X545482Y62938D01*
X545499Y62944D01*
X545631Y62982D01*
X548722Y64263D01*
X554078Y64263D01*
X559026Y62213D01*
X562813Y58426D01*
X564863Y53478D01*
X564863Y48122D01*
X562813Y43174D01*
X559026Y39387D01*
X554078Y37337D01*
X548722Y37337D01*
X543774Y39387D01*
X539987Y43174D01*
X537937Y48122D01*
X537937Y53478D01*
X539218Y56569D01*
X539244Y56683D01*
X539273Y56796D01*
X539272Y56803D01*
X539274Y56809D01*
X539263Y56925D01*
X539254Y57042D01*
X539251Y57047D01*
X539251Y57054D01*
X539203Y57161D01*
X539158Y57268D01*
X539153Y57274D01*
X539151Y57278D01*
X539138Y57292D01*
X539053Y57399D01*
X482239Y114212D01*
X482165Y114265D01*
X482096Y114325D01*
X482066Y114337D01*
X482040Y114356D01*
X481953Y114383D01*
X481868Y114417D01*
X481827Y114421D01*
X481804Y114428D01*
X481772Y114427D01*
X481701Y114435D01*
X454626Y114435D01*
X454606Y114432D01*
X454587Y114434D01*
X454485Y114412D01*
X454383Y114396D01*
X454366Y114386D01*
X454346Y114382D01*
X454257Y114329D01*
X454166Y114280D01*
X454152Y114266D01*
X454135Y114256D01*
X454068Y114177D01*
X453996Y114102D01*
X453988Y114084D01*
X453975Y114069D01*
X453936Y113973D01*
X453893Y113879D01*
X453891Y113859D01*
X453883Y113841D01*
X453865Y113674D01*
X453865Y64197D01*
X453867Y64182D01*
X453866Y64170D01*
X453879Y64107D01*
X453884Y64082D01*
X453901Y63966D01*
X453903Y63960D01*
X453904Y63954D01*
X453959Y63852D01*
X454012Y63747D01*
X454017Y63742D01*
X454020Y63737D01*
X454104Y63657D01*
X454188Y63574D01*
X454194Y63571D01*
X454198Y63567D01*
X454215Y63560D01*
X454335Y63494D01*
X457426Y62213D01*
X461213Y58426D01*
X463263Y53478D01*
X463263Y48122D01*
X461213Y43174D01*
X457426Y39387D01*
X452478Y37337D01*
X447122Y37337D01*
G37*
%LPD*%
%LPC*%
G36*
X158122Y37337D02*
X158122Y37337D01*
X153174Y39387D01*
X149387Y43174D01*
X147337Y48122D01*
X147337Y53478D01*
X149387Y58426D01*
X153174Y62213D01*
X156265Y63494D01*
X156365Y63555D01*
X156465Y63615D01*
X156469Y63620D01*
X156474Y63623D01*
X156549Y63713D01*
X156625Y63802D01*
X156627Y63808D01*
X156631Y63813D01*
X156673Y63921D01*
X156702Y63993D01*
X156707Y64004D01*
X156707Y64007D01*
X156717Y64030D01*
X156718Y64038D01*
X156719Y64042D01*
X156720Y64061D01*
X156735Y64197D01*
X156735Y81041D01*
X156721Y81131D01*
X156713Y81222D01*
X156701Y81252D01*
X156696Y81284D01*
X156653Y81364D01*
X156617Y81448D01*
X156591Y81480D01*
X156580Y81501D01*
X156557Y81523D01*
X156512Y81579D01*
X138175Y99916D01*
X138175Y136304D01*
X285336Y283465D01*
X479204Y283465D01*
X505424Y257244D01*
X505518Y257177D01*
X505613Y257106D01*
X505619Y257104D01*
X505624Y257100D01*
X505735Y257066D01*
X505847Y257030D01*
X505853Y257030D01*
X505859Y257028D01*
X505976Y257031D01*
X506093Y257032D01*
X506100Y257034D01*
X506105Y257034D01*
X506123Y257041D01*
X506150Y257049D01*
X509819Y257049D01*
X513180Y255657D01*
X515753Y253084D01*
X517145Y249723D01*
X517145Y232877D01*
X515753Y229516D01*
X513180Y226943D01*
X509819Y225551D01*
X506181Y225551D01*
X502820Y226943D01*
X500247Y229516D01*
X498855Y232877D01*
X498855Y249723D01*
X499420Y251087D01*
X499447Y251200D01*
X499475Y251314D01*
X499475Y251320D01*
X499476Y251326D01*
X499465Y251443D01*
X499456Y251559D01*
X499454Y251565D01*
X499453Y251571D01*
X499405Y251679D01*
X499360Y251785D01*
X499355Y251791D01*
X499353Y251796D01*
X499341Y251810D01*
X499255Y251916D01*
X476059Y275112D01*
X475985Y275165D01*
X475916Y275225D01*
X475886Y275237D01*
X475860Y275256D01*
X475773Y275283D01*
X475688Y275317D01*
X475647Y275321D01*
X475624Y275328D01*
X475592Y275327D01*
X475521Y275335D01*
X289019Y275335D01*
X288929Y275321D01*
X288838Y275313D01*
X288808Y275301D01*
X288776Y275296D01*
X288696Y275253D01*
X288612Y275217D01*
X288580Y275191D01*
X288559Y275180D01*
X288537Y275157D01*
X288481Y275112D01*
X146528Y133159D01*
X146475Y133085D01*
X146415Y133016D01*
X146403Y132986D01*
X146384Y132960D01*
X146357Y132873D01*
X146323Y132788D01*
X146319Y132747D01*
X146312Y132724D01*
X146313Y132692D01*
X146305Y132621D01*
X146305Y103599D01*
X146319Y103509D01*
X146327Y103418D01*
X146339Y103388D01*
X146344Y103356D01*
X146387Y103276D01*
X146423Y103192D01*
X146449Y103160D01*
X146460Y103139D01*
X146483Y103117D01*
X146528Y103061D01*
X164865Y84724D01*
X164865Y64197D01*
X164867Y64182D01*
X164866Y64170D01*
X164879Y64107D01*
X164884Y64082D01*
X164901Y63966D01*
X164903Y63960D01*
X164904Y63954D01*
X164959Y63852D01*
X165012Y63747D01*
X165017Y63742D01*
X165020Y63737D01*
X165104Y63657D01*
X165188Y63574D01*
X165194Y63571D01*
X165198Y63567D01*
X165215Y63560D01*
X165335Y63494D01*
X168426Y62213D01*
X172213Y58426D01*
X174263Y53478D01*
X174263Y48122D01*
X172213Y43174D01*
X168426Y39387D01*
X163478Y37337D01*
X158122Y37337D01*
G37*
%LPD*%
%LPC*%
G36*
X633316Y529335D02*
X633316Y529335D01*
X605535Y557116D01*
X605535Y566757D01*
X605517Y566871D01*
X605499Y566988D01*
X605497Y566994D01*
X605496Y567000D01*
X605441Y567102D01*
X605388Y567207D01*
X605383Y567212D01*
X605380Y567217D01*
X605296Y567297D01*
X605212Y567380D01*
X605206Y567383D01*
X605202Y567387D01*
X605185Y567394D01*
X605065Y567460D01*
X603844Y567966D01*
X600986Y570824D01*
X599439Y574559D01*
X599439Y593841D01*
X600986Y597576D01*
X603844Y600434D01*
X607579Y601981D01*
X611621Y601981D01*
X615356Y600434D01*
X618214Y597576D01*
X619761Y593841D01*
X619761Y574559D01*
X618214Y570824D01*
X615356Y567966D01*
X614135Y567460D01*
X614035Y567399D01*
X613935Y567339D01*
X613931Y567334D01*
X613926Y567331D01*
X613851Y567241D01*
X613775Y567152D01*
X613773Y567146D01*
X613769Y567141D01*
X613727Y567033D01*
X613683Y566924D01*
X613682Y566916D01*
X613681Y566912D01*
X613680Y566893D01*
X613665Y566757D01*
X613665Y560799D01*
X613679Y560709D01*
X613687Y560618D01*
X613699Y560588D01*
X613704Y560556D01*
X613747Y560476D01*
X613783Y560392D01*
X613809Y560360D01*
X613820Y560339D01*
X613843Y560317D01*
X613888Y560261D01*
X636461Y537688D01*
X636535Y537635D01*
X636604Y537575D01*
X636634Y537563D01*
X636660Y537544D01*
X636747Y537517D01*
X636832Y537483D01*
X636873Y537479D01*
X636896Y537472D01*
X636928Y537473D01*
X636999Y537465D01*
X658401Y537465D01*
X658491Y537479D01*
X658582Y537487D01*
X658612Y537499D01*
X658644Y537504D01*
X658724Y537547D01*
X658808Y537583D01*
X658840Y537609D01*
X658861Y537620D01*
X658883Y537643D01*
X658939Y537688D01*
X681512Y560261D01*
X681565Y560335D01*
X681625Y560404D01*
X681637Y560434D01*
X681656Y560460D01*
X681683Y560547D01*
X681717Y560632D01*
X681721Y560673D01*
X681728Y560696D01*
X681727Y560728D01*
X681735Y560799D01*
X681735Y624601D01*
X681721Y624691D01*
X681713Y624782D01*
X681701Y624812D01*
X681696Y624844D01*
X681653Y624924D01*
X681617Y625008D01*
X681591Y625040D01*
X681580Y625061D01*
X681557Y625083D01*
X681512Y625139D01*
X480799Y825853D01*
X480705Y825920D01*
X480610Y825991D01*
X480604Y825993D01*
X480599Y825996D01*
X480488Y826030D01*
X480376Y826067D01*
X480370Y826067D01*
X480364Y826069D01*
X480247Y826066D01*
X480130Y826064D01*
X480123Y826062D01*
X480118Y826062D01*
X480101Y826056D01*
X479969Y826018D01*
X476878Y824737D01*
X471522Y824737D01*
X466574Y826787D01*
X462787Y830574D01*
X460737Y835522D01*
X460737Y840878D01*
X462787Y845826D01*
X466574Y849613D01*
X471522Y851663D01*
X476878Y851663D01*
X481826Y849613D01*
X485613Y845826D01*
X487663Y840878D01*
X487663Y835522D01*
X486382Y832431D01*
X486356Y832317D01*
X486327Y832204D01*
X486328Y832197D01*
X486326Y832191D01*
X486337Y832075D01*
X486346Y831958D01*
X486349Y831953D01*
X486349Y831946D01*
X486397Y831839D01*
X486442Y831732D01*
X486447Y831726D01*
X486449Y831722D01*
X486462Y831708D01*
X486547Y831601D01*
X687261Y630888D01*
X689865Y628284D01*
X689865Y557116D01*
X662084Y529335D01*
X633316Y529335D01*
G37*
%LPD*%
%LPC*%
G36*
X193122Y37337D02*
X193122Y37337D01*
X188174Y39387D01*
X184387Y43174D01*
X182337Y48122D01*
X182337Y53478D01*
X184387Y58426D01*
X188174Y62213D01*
X191265Y63494D01*
X191365Y63555D01*
X191465Y63615D01*
X191469Y63620D01*
X191474Y63623D01*
X191549Y63713D01*
X191625Y63802D01*
X191627Y63808D01*
X191631Y63813D01*
X191673Y63921D01*
X191702Y63993D01*
X191707Y64004D01*
X191707Y64007D01*
X191717Y64030D01*
X191718Y64038D01*
X191719Y64042D01*
X191720Y64061D01*
X191735Y64197D01*
X191735Y115698D01*
X191732Y115718D01*
X191734Y115737D01*
X191712Y115839D01*
X191696Y115941D01*
X191686Y115958D01*
X191682Y115978D01*
X191629Y116067D01*
X191580Y116158D01*
X191566Y116172D01*
X191556Y116189D01*
X191477Y116256D01*
X191402Y116328D01*
X191384Y116336D01*
X191369Y116349D01*
X191273Y116388D01*
X191179Y116431D01*
X191159Y116433D01*
X191141Y116441D01*
X190974Y116459D01*
X179748Y116459D01*
X178338Y117869D01*
X178322Y117880D01*
X178310Y117896D01*
X178222Y117952D01*
X178139Y118012D01*
X178120Y118018D01*
X178103Y118029D01*
X178002Y118054D01*
X177903Y118084D01*
X177884Y118084D01*
X177864Y118089D01*
X177761Y118081D01*
X177658Y118078D01*
X177639Y118071D01*
X177619Y118070D01*
X177524Y118029D01*
X177427Y117994D01*
X177411Y117981D01*
X177393Y117973D01*
X177262Y117869D01*
X175852Y116459D01*
X173126Y116459D01*
X173106Y116456D01*
X173087Y116458D01*
X172985Y116436D01*
X172883Y116420D01*
X172866Y116410D01*
X172846Y116406D01*
X172757Y116353D01*
X172666Y116304D01*
X172652Y116290D01*
X172635Y116280D01*
X172568Y116201D01*
X172496Y116126D01*
X172488Y116108D01*
X172475Y116093D01*
X172436Y115997D01*
X172393Y115903D01*
X172391Y115883D01*
X172383Y115865D01*
X172365Y115698D01*
X172365Y110440D01*
X172379Y110350D01*
X172387Y110259D01*
X172399Y110229D01*
X172404Y110197D01*
X172447Y110117D01*
X172483Y110033D01*
X172509Y110001D01*
X172520Y109980D01*
X172543Y109958D01*
X172588Y109902D01*
X174060Y108430D01*
X175213Y105646D01*
X175213Y102634D01*
X174060Y99850D01*
X171930Y97720D01*
X169146Y96567D01*
X166134Y96567D01*
X163350Y97720D01*
X161220Y99850D01*
X160067Y102634D01*
X160067Y105646D01*
X161220Y108430D01*
X163350Y110560D01*
X163765Y110732D01*
X163865Y110794D01*
X163965Y110853D01*
X163969Y110858D01*
X163974Y110861D01*
X164049Y110952D01*
X164125Y111040D01*
X164127Y111046D01*
X164131Y111051D01*
X164173Y111159D01*
X164217Y111268D01*
X164218Y111276D01*
X164219Y111280D01*
X164220Y111299D01*
X164235Y111435D01*
X164235Y115698D01*
X164232Y115718D01*
X164234Y115737D01*
X164212Y115839D01*
X164196Y115941D01*
X164186Y115958D01*
X164182Y115978D01*
X164129Y116067D01*
X164080Y116158D01*
X164066Y116172D01*
X164056Y116189D01*
X163977Y116256D01*
X163902Y116328D01*
X163884Y116336D01*
X163869Y116349D01*
X163773Y116388D01*
X163679Y116431D01*
X163659Y116433D01*
X163641Y116441D01*
X163474Y116459D01*
X160748Y116459D01*
X159259Y117948D01*
X159259Y136052D01*
X160748Y137541D01*
X175852Y137541D01*
X177262Y136131D01*
X177278Y136120D01*
X177290Y136104D01*
X177378Y136048D01*
X177461Y135988D01*
X177480Y135982D01*
X177497Y135971D01*
X177598Y135946D01*
X177697Y135916D01*
X177716Y135916D01*
X177736Y135911D01*
X177839Y135919D01*
X177942Y135922D01*
X177961Y135929D01*
X177981Y135930D01*
X178076Y135971D01*
X178173Y136006D01*
X178189Y136019D01*
X178207Y136027D01*
X178338Y136131D01*
X179748Y137541D01*
X191777Y137541D01*
X191867Y137555D01*
X191958Y137563D01*
X191988Y137575D01*
X192020Y137580D01*
X192100Y137623D01*
X192184Y137659D01*
X192216Y137685D01*
X192237Y137696D01*
X192259Y137719D01*
X192315Y137764D01*
X320172Y265621D01*
X322776Y268225D01*
X423324Y268225D01*
X435015Y256533D01*
X435068Y256495D01*
X435115Y256449D01*
X435188Y256409D01*
X435215Y256390D01*
X435234Y256384D01*
X435262Y256368D01*
X436980Y255657D01*
X439553Y253084D01*
X440945Y249723D01*
X440945Y232877D01*
X439553Y229516D01*
X436980Y226943D01*
X433619Y225551D01*
X429981Y225551D01*
X426620Y226943D01*
X424047Y229516D01*
X422655Y232877D01*
X422655Y249723D01*
X424047Y253084D01*
X424969Y254006D01*
X424981Y254022D01*
X424996Y254034D01*
X425027Y254082D01*
X425038Y254094D01*
X425048Y254115D01*
X425052Y254122D01*
X425113Y254206D01*
X425119Y254225D01*
X425129Y254241D01*
X425155Y254342D01*
X425185Y254441D01*
X425185Y254461D01*
X425189Y254480D01*
X425181Y254583D01*
X425179Y254687D01*
X425172Y254705D01*
X425170Y254725D01*
X425130Y254820D01*
X425094Y254918D01*
X425082Y254933D01*
X425074Y254951D01*
X424969Y255082D01*
X420179Y259872D01*
X420105Y259925D01*
X420036Y259985D01*
X420006Y259997D01*
X419980Y260016D01*
X419892Y260043D01*
X419808Y260077D01*
X419767Y260081D01*
X419744Y260088D01*
X419712Y260087D01*
X419641Y260095D01*
X326459Y260095D01*
X326369Y260081D01*
X326278Y260073D01*
X326248Y260061D01*
X326216Y260056D01*
X326136Y260013D01*
X326052Y259977D01*
X326020Y259951D01*
X325999Y259940D01*
X325977Y259917D01*
X325921Y259872D01*
X196564Y130515D01*
X196511Y130441D01*
X196451Y130372D01*
X196439Y130342D01*
X196420Y130316D01*
X196393Y130229D01*
X196359Y130144D01*
X196355Y130103D01*
X196348Y130081D01*
X196349Y130048D01*
X196341Y129977D01*
X196341Y124023D01*
X196355Y123933D01*
X196363Y123842D01*
X196375Y123812D01*
X196380Y123780D01*
X196423Y123700D01*
X196459Y123616D01*
X196485Y123583D01*
X196496Y123563D01*
X196519Y123541D01*
X196564Y123485D01*
X199865Y120184D01*
X199865Y64197D01*
X199867Y64182D01*
X199866Y64170D01*
X199879Y64107D01*
X199884Y64082D01*
X199901Y63966D01*
X199903Y63960D01*
X199904Y63954D01*
X199959Y63852D01*
X200012Y63747D01*
X200017Y63742D01*
X200020Y63737D01*
X200104Y63657D01*
X200188Y63574D01*
X200194Y63571D01*
X200198Y63567D01*
X200215Y63560D01*
X200335Y63494D01*
X203426Y62213D01*
X207213Y58426D01*
X209263Y53478D01*
X209263Y48122D01*
X207213Y43174D01*
X203426Y39387D01*
X198478Y37337D01*
X193122Y37337D01*
G37*
%LPD*%
%LPC*%
G36*
X310522Y37337D02*
X310522Y37337D01*
X305574Y39387D01*
X301787Y43174D01*
X299737Y48122D01*
X299737Y53478D01*
X301787Y58426D01*
X305574Y62213D01*
X308665Y63494D01*
X308765Y63555D01*
X308865Y63615D01*
X308869Y63620D01*
X308874Y63623D01*
X308949Y63713D01*
X309025Y63802D01*
X309027Y63808D01*
X309031Y63813D01*
X309073Y63921D01*
X309102Y63993D01*
X309107Y64004D01*
X309107Y64007D01*
X309117Y64030D01*
X309118Y64038D01*
X309119Y64042D01*
X309120Y64061D01*
X309135Y64197D01*
X309135Y115698D01*
X309132Y115718D01*
X309134Y115737D01*
X309112Y115839D01*
X309096Y115941D01*
X309086Y115958D01*
X309082Y115978D01*
X309029Y116067D01*
X308980Y116158D01*
X308966Y116172D01*
X308956Y116189D01*
X308877Y116256D01*
X308802Y116328D01*
X308784Y116336D01*
X308769Y116349D01*
X308673Y116388D01*
X308579Y116431D01*
X308559Y116433D01*
X308541Y116441D01*
X308374Y116459D01*
X306748Y116459D01*
X305338Y117869D01*
X305322Y117880D01*
X305310Y117896D01*
X305222Y117952D01*
X305139Y118012D01*
X305120Y118018D01*
X305103Y118029D01*
X305002Y118054D01*
X304903Y118084D01*
X304884Y118084D01*
X304864Y118089D01*
X304761Y118081D01*
X304658Y118078D01*
X304639Y118071D01*
X304619Y118070D01*
X304524Y118029D01*
X304427Y117994D01*
X304411Y117981D01*
X304393Y117973D01*
X304262Y117869D01*
X302852Y116459D01*
X287748Y116459D01*
X286259Y117948D01*
X286259Y136052D01*
X287748Y137541D01*
X290474Y137541D01*
X290494Y137544D01*
X290513Y137542D01*
X290615Y137564D01*
X290717Y137580D01*
X290734Y137590D01*
X290754Y137594D01*
X290843Y137647D01*
X290934Y137696D01*
X290948Y137710D01*
X290965Y137720D01*
X291032Y137799D01*
X291104Y137874D01*
X291112Y137892D01*
X291125Y137907D01*
X291164Y138003D01*
X291207Y138097D01*
X291209Y138117D01*
X291217Y138135D01*
X291235Y138302D01*
X291235Y155265D01*
X291216Y155380D01*
X291199Y155496D01*
X291197Y155502D01*
X291196Y155508D01*
X291141Y155610D01*
X291088Y155715D01*
X291083Y155720D01*
X291080Y155725D01*
X290996Y155805D01*
X290912Y155887D01*
X290906Y155891D01*
X290902Y155894D01*
X290885Y155902D01*
X290765Y155968D01*
X290350Y156140D01*
X288220Y158270D01*
X287067Y161054D01*
X287067Y164066D01*
X288220Y166850D01*
X290350Y168980D01*
X293134Y170133D01*
X296146Y170133D01*
X298930Y168980D01*
X301060Y166850D01*
X302213Y164066D01*
X302213Y161054D01*
X301060Y158270D01*
X299588Y156798D01*
X299535Y156724D01*
X299475Y156655D01*
X299463Y156625D01*
X299444Y156598D01*
X299417Y156512D01*
X299383Y156427D01*
X299379Y156386D01*
X299372Y156363D01*
X299373Y156331D01*
X299365Y156260D01*
X299365Y138302D01*
X299368Y138282D01*
X299366Y138263D01*
X299388Y138161D01*
X299404Y138059D01*
X299414Y138042D01*
X299418Y138022D01*
X299471Y137933D01*
X299520Y137842D01*
X299534Y137828D01*
X299544Y137811D01*
X299623Y137744D01*
X299698Y137672D01*
X299716Y137664D01*
X299731Y137651D01*
X299827Y137612D01*
X299921Y137569D01*
X299941Y137567D01*
X299959Y137559D01*
X300126Y137541D01*
X302852Y137541D01*
X304262Y136131D01*
X304278Y136120D01*
X304290Y136104D01*
X304378Y136048D01*
X304461Y135988D01*
X304480Y135982D01*
X304497Y135971D01*
X304598Y135946D01*
X304697Y135916D01*
X304716Y135916D01*
X304736Y135911D01*
X304839Y135919D01*
X304942Y135922D01*
X304961Y135929D01*
X304981Y135930D01*
X305076Y135971D01*
X305173Y136006D01*
X305189Y136019D01*
X305207Y136027D01*
X305338Y136131D01*
X306748Y137541D01*
X318777Y137541D01*
X318867Y137555D01*
X318958Y137563D01*
X318988Y137575D01*
X319020Y137580D01*
X319100Y137623D01*
X319184Y137659D01*
X319216Y137685D01*
X319237Y137696D01*
X319259Y137719D01*
X319315Y137764D01*
X402112Y220561D01*
X402165Y220635D01*
X402225Y220704D01*
X402237Y220734D01*
X402256Y220760D01*
X402283Y220847D01*
X402317Y220932D01*
X402321Y220973D01*
X402328Y220996D01*
X402327Y221028D01*
X402335Y221099D01*
X402335Y225973D01*
X402316Y226088D01*
X402299Y226204D01*
X402297Y226209D01*
X402296Y226216D01*
X402241Y226318D01*
X402188Y226423D01*
X402183Y226427D01*
X402180Y226433D01*
X402096Y226513D01*
X402012Y226595D01*
X402006Y226599D01*
X402002Y226602D01*
X401985Y226610D01*
X401865Y226676D01*
X401220Y226943D01*
X398647Y229516D01*
X397255Y232877D01*
X397255Y249723D01*
X398647Y253084D01*
X401220Y255657D01*
X404581Y257049D01*
X408219Y257049D01*
X411580Y255657D01*
X414153Y253084D01*
X415545Y249723D01*
X415545Y232877D01*
X414153Y229516D01*
X411580Y226943D01*
X410935Y226676D01*
X410835Y226615D01*
X410735Y226555D01*
X410731Y226550D01*
X410726Y226547D01*
X410651Y226456D01*
X410575Y226368D01*
X410573Y226362D01*
X410569Y226357D01*
X410527Y226249D01*
X410483Y226140D01*
X410482Y226132D01*
X410481Y226127D01*
X410480Y226109D01*
X410465Y225973D01*
X410465Y223926D01*
X410468Y223906D01*
X410466Y223887D01*
X410488Y223785D01*
X410504Y223683D01*
X410514Y223666D01*
X410518Y223646D01*
X410571Y223557D01*
X410620Y223466D01*
X410634Y223452D01*
X410644Y223435D01*
X410723Y223368D01*
X410798Y223296D01*
X410816Y223288D01*
X410831Y223275D01*
X410927Y223236D01*
X411021Y223193D01*
X411041Y223191D01*
X411059Y223183D01*
X411226Y223165D01*
X476181Y223165D01*
X476271Y223179D01*
X476362Y223187D01*
X476392Y223199D01*
X476424Y223204D01*
X476504Y223247D01*
X476588Y223283D01*
X476620Y223309D01*
X476641Y223320D01*
X476663Y223343D01*
X476719Y223388D01*
X478312Y224981D01*
X478365Y225055D01*
X478425Y225124D01*
X478437Y225154D01*
X478456Y225180D01*
X478483Y225267D01*
X478517Y225352D01*
X478521Y225393D01*
X478528Y225416D01*
X478527Y225448D01*
X478535Y225519D01*
X478535Y225973D01*
X478516Y226088D01*
X478499Y226204D01*
X478497Y226209D01*
X478496Y226216D01*
X478441Y226318D01*
X478388Y226423D01*
X478383Y226427D01*
X478380Y226433D01*
X478296Y226513D01*
X478212Y226595D01*
X478206Y226599D01*
X478202Y226602D01*
X478185Y226610D01*
X478065Y226676D01*
X477420Y226943D01*
X474847Y229516D01*
X473455Y232877D01*
X473455Y249723D01*
X474847Y253084D01*
X477420Y255657D01*
X480781Y257049D01*
X484419Y257049D01*
X487780Y255657D01*
X490353Y253084D01*
X491745Y249723D01*
X491745Y232877D01*
X490353Y229516D01*
X487780Y226943D01*
X487135Y226676D01*
X487035Y226615D01*
X486935Y226555D01*
X486931Y226550D01*
X486926Y226547D01*
X486851Y226456D01*
X486775Y226368D01*
X486773Y226362D01*
X486769Y226357D01*
X486727Y226249D01*
X486683Y226140D01*
X486682Y226132D01*
X486681Y226127D01*
X486680Y226109D01*
X486665Y225973D01*
X486665Y221836D01*
X479864Y215035D01*
X408399Y215035D01*
X408309Y215021D01*
X408218Y215013D01*
X408188Y215001D01*
X408156Y214996D01*
X408076Y214953D01*
X407992Y214917D01*
X407960Y214891D01*
X407939Y214880D01*
X407917Y214857D01*
X407861Y214812D01*
X323564Y130515D01*
X323511Y130441D01*
X323451Y130372D01*
X323439Y130342D01*
X323420Y130316D01*
X323393Y130229D01*
X323359Y130144D01*
X323355Y130103D01*
X323348Y130081D01*
X323349Y130048D01*
X323341Y129977D01*
X323341Y117948D01*
X321852Y116459D01*
X318026Y116459D01*
X318006Y116456D01*
X317987Y116458D01*
X317885Y116436D01*
X317783Y116420D01*
X317766Y116410D01*
X317746Y116406D01*
X317657Y116353D01*
X317566Y116304D01*
X317552Y116290D01*
X317535Y116280D01*
X317468Y116201D01*
X317396Y116126D01*
X317388Y116108D01*
X317375Y116093D01*
X317336Y115997D01*
X317293Y115903D01*
X317291Y115883D01*
X317283Y115865D01*
X317265Y115698D01*
X317265Y64197D01*
X317267Y64182D01*
X317266Y64170D01*
X317279Y64107D01*
X317284Y64082D01*
X317301Y63966D01*
X317303Y63960D01*
X317304Y63954D01*
X317359Y63852D01*
X317412Y63747D01*
X317417Y63742D01*
X317420Y63737D01*
X317504Y63657D01*
X317588Y63574D01*
X317594Y63571D01*
X317598Y63567D01*
X317615Y63560D01*
X317735Y63494D01*
X320826Y62213D01*
X324613Y58426D01*
X326663Y53478D01*
X326663Y48122D01*
X324613Y43174D01*
X320826Y39387D01*
X315878Y37337D01*
X310522Y37337D01*
G37*
%LPD*%
%LPC*%
G36*
X302779Y566419D02*
X302779Y566419D01*
X299044Y567966D01*
X296186Y570824D01*
X294639Y574559D01*
X294639Y593841D01*
X296186Y597576D01*
X299044Y600434D01*
X300265Y600940D01*
X300365Y601001D01*
X300465Y601061D01*
X300469Y601066D01*
X300474Y601069D01*
X300549Y601160D01*
X300625Y601248D01*
X300627Y601254D01*
X300631Y601259D01*
X300673Y601367D01*
X300691Y601413D01*
X300707Y601447D01*
X300708Y601454D01*
X300717Y601476D01*
X300718Y601484D01*
X300719Y601488D01*
X300720Y601507D01*
X300735Y601643D01*
X300735Y615698D01*
X300732Y615718D01*
X300734Y615737D01*
X300712Y615839D01*
X300696Y615941D01*
X300686Y615958D01*
X300682Y615978D01*
X300629Y616067D01*
X300580Y616158D01*
X300566Y616172D01*
X300556Y616189D01*
X300477Y616256D01*
X300402Y616328D01*
X300384Y616336D01*
X300369Y616349D01*
X300273Y616388D01*
X300179Y616431D01*
X300159Y616433D01*
X300141Y616441D01*
X299974Y616459D01*
X295748Y616459D01*
X294259Y617948D01*
X294259Y633052D01*
X295669Y634462D01*
X295680Y634478D01*
X295696Y634490D01*
X295752Y634578D01*
X295812Y634661D01*
X295818Y634680D01*
X295829Y634697D01*
X295854Y634798D01*
X295884Y634897D01*
X295884Y634916D01*
X295889Y634936D01*
X295881Y635039D01*
X295878Y635142D01*
X295871Y635161D01*
X295870Y635181D01*
X295829Y635276D01*
X295794Y635373D01*
X295781Y635389D01*
X295773Y635407D01*
X295669Y635538D01*
X294259Y636948D01*
X294259Y652052D01*
X295748Y653541D01*
X298993Y653541D01*
X299064Y653552D01*
X299136Y653554D01*
X299184Y653572D01*
X299236Y653580D01*
X299299Y653614D01*
X299367Y653639D01*
X299407Y653671D01*
X299453Y653696D01*
X299503Y653748D01*
X299559Y653792D01*
X299587Y653836D01*
X299623Y653874D01*
X299653Y653939D01*
X299692Y653999D01*
X299704Y654050D01*
X299726Y654097D01*
X299734Y654168D01*
X299752Y654238D01*
X299748Y654290D01*
X299753Y654341D01*
X299738Y654412D01*
X299732Y654483D01*
X299712Y654531D01*
X299701Y654582D01*
X299664Y654643D01*
X299636Y654709D01*
X299591Y654765D01*
X299575Y654793D01*
X299557Y654808D01*
X299531Y654840D01*
X293179Y661192D01*
X290575Y663796D01*
X290575Y673489D01*
X290564Y673560D01*
X290562Y673632D01*
X290544Y673681D01*
X290536Y673732D01*
X290502Y673795D01*
X290477Y673863D01*
X290445Y673903D01*
X290420Y673949D01*
X290369Y673999D01*
X290324Y674055D01*
X290280Y674083D01*
X290242Y674119D01*
X290177Y674149D01*
X290117Y674188D01*
X290066Y674200D01*
X290019Y674222D01*
X289948Y674230D01*
X289878Y674248D01*
X289826Y674244D01*
X289775Y674249D01*
X289704Y674234D01*
X289633Y674228D01*
X289585Y674208D01*
X289534Y674197D01*
X289473Y674160D01*
X289407Y674132D01*
X289351Y674087D01*
X289323Y674071D01*
X289308Y674053D01*
X289276Y674027D01*
X281588Y666339D01*
X278984Y663735D01*
X64197Y663735D01*
X64082Y663716D01*
X63966Y663699D01*
X63960Y663697D01*
X63954Y663696D01*
X63852Y663641D01*
X63747Y663588D01*
X63742Y663583D01*
X63737Y663580D01*
X63657Y663496D01*
X63574Y663412D01*
X63571Y663406D01*
X63567Y663402D01*
X63560Y663385D01*
X63494Y663265D01*
X62213Y660174D01*
X58426Y656387D01*
X53478Y654337D01*
X48122Y654337D01*
X43174Y656387D01*
X39387Y660174D01*
X37337Y665122D01*
X37337Y670478D01*
X39387Y675426D01*
X43174Y679213D01*
X48122Y681263D01*
X53478Y681263D01*
X58426Y679213D01*
X62213Y675426D01*
X63494Y672335D01*
X63555Y672235D01*
X63615Y672135D01*
X63620Y672131D01*
X63623Y672126D01*
X63713Y672051D01*
X63802Y671975D01*
X63808Y671973D01*
X63813Y671969D01*
X63921Y671927D01*
X64030Y671883D01*
X64038Y671882D01*
X64042Y671881D01*
X64061Y671880D01*
X64197Y671865D01*
X275301Y671865D01*
X275391Y671879D01*
X275482Y671887D01*
X275512Y671899D01*
X275544Y671904D01*
X275624Y671947D01*
X275708Y671983D01*
X275740Y672009D01*
X275761Y672020D01*
X275783Y672043D01*
X275839Y672088D01*
X286036Y682285D01*
X286089Y682359D01*
X286149Y682428D01*
X286161Y682458D01*
X286180Y682484D01*
X286207Y682571D01*
X286241Y682656D01*
X286245Y682697D01*
X286252Y682719D01*
X286251Y682752D01*
X286259Y682823D01*
X286259Y694852D01*
X287748Y696341D01*
X302852Y696341D01*
X304358Y694836D01*
X304453Y694767D01*
X304550Y694696D01*
X304554Y694694D01*
X304557Y694692D01*
X304670Y694657D01*
X304784Y694621D01*
X304788Y694621D01*
X304792Y694620D01*
X304911Y694623D01*
X305030Y694625D01*
X305034Y694626D01*
X305038Y694626D01*
X305150Y694667D01*
X305262Y694706D01*
X305265Y694709D01*
X305269Y694710D01*
X305362Y694785D01*
X305456Y694858D01*
X305459Y694862D01*
X305461Y694864D01*
X305469Y694876D01*
X305555Y694993D01*
X305767Y695360D01*
X306240Y695833D01*
X306819Y696168D01*
X307466Y696341D01*
X312777Y696341D01*
X312777Y686562D01*
X312780Y686542D01*
X312778Y686523D01*
X312800Y686421D01*
X312817Y686319D01*
X312826Y686302D01*
X312830Y686282D01*
X312883Y686193D01*
X312932Y686102D01*
X312946Y686088D01*
X312956Y686071D01*
X313035Y686004D01*
X313110Y685933D01*
X313128Y685924D01*
X313143Y685911D01*
X313239Y685872D01*
X313333Y685829D01*
X313353Y685827D01*
X313371Y685819D01*
X313538Y685801D01*
X314301Y685801D01*
X314301Y685799D01*
X313538Y685799D01*
X313518Y685796D01*
X313499Y685798D01*
X313397Y685776D01*
X313295Y685759D01*
X313278Y685750D01*
X313258Y685746D01*
X313169Y685693D01*
X313078Y685644D01*
X313064Y685630D01*
X313047Y685620D01*
X312980Y685541D01*
X312909Y685466D01*
X312900Y685448D01*
X312887Y685433D01*
X312848Y685337D01*
X312805Y685243D01*
X312803Y685223D01*
X312795Y685205D01*
X312777Y685038D01*
X312777Y675259D01*
X307466Y675259D01*
X306819Y675432D01*
X306240Y675767D01*
X305767Y676240D01*
X305555Y676607D01*
X305479Y676699D01*
X305406Y676792D01*
X305402Y676794D01*
X305399Y676797D01*
X305298Y676861D01*
X305199Y676925D01*
X305195Y676926D01*
X305191Y676928D01*
X305075Y676956D01*
X304960Y676985D01*
X304956Y676984D01*
X304952Y676985D01*
X304833Y676975D01*
X304715Y676966D01*
X304711Y676964D01*
X304707Y676964D01*
X304597Y676916D01*
X304489Y676869D01*
X304485Y676866D01*
X304482Y676865D01*
X304471Y676855D01*
X304358Y676764D01*
X302852Y675259D01*
X299466Y675259D01*
X299446Y675256D01*
X299427Y675258D01*
X299325Y675236D01*
X299223Y675220D01*
X299206Y675210D01*
X299186Y675206D01*
X299097Y675153D01*
X299006Y675104D01*
X298992Y675090D01*
X298975Y675080D01*
X298908Y675001D01*
X298836Y674926D01*
X298828Y674908D01*
X298815Y674893D01*
X298776Y674797D01*
X298733Y674703D01*
X298731Y674683D01*
X298723Y674665D01*
X298705Y674498D01*
X298705Y667479D01*
X298719Y667389D01*
X298727Y667298D01*
X298739Y667268D01*
X298744Y667236D01*
X298787Y667156D01*
X298823Y667072D01*
X298849Y667040D01*
X298860Y667019D01*
X298883Y666997D01*
X298928Y666941D01*
X308865Y657004D01*
X308865Y654302D01*
X308868Y654282D01*
X308866Y654263D01*
X308888Y654161D01*
X308904Y654059D01*
X308914Y654042D01*
X308918Y654022D01*
X308971Y653933D01*
X309020Y653842D01*
X309034Y653828D01*
X309044Y653811D01*
X309123Y653744D01*
X309198Y653672D01*
X309216Y653664D01*
X309231Y653651D01*
X309327Y653612D01*
X309421Y653569D01*
X309441Y653567D01*
X309459Y653559D01*
X309626Y653541D01*
X313852Y653541D01*
X315341Y652052D01*
X315341Y636948D01*
X313931Y635538D01*
X313920Y635522D01*
X313904Y635510D01*
X313848Y635422D01*
X313788Y635339D01*
X313782Y635320D01*
X313771Y635303D01*
X313746Y635202D01*
X313716Y635103D01*
X313716Y635084D01*
X313711Y635064D01*
X313719Y634961D01*
X313722Y634858D01*
X313729Y634839D01*
X313730Y634819D01*
X313771Y634724D01*
X313806Y634627D01*
X313819Y634611D01*
X313827Y634593D01*
X313931Y634462D01*
X315341Y633052D01*
X315341Y617948D01*
X313852Y616459D01*
X309626Y616459D01*
X309606Y616456D01*
X309587Y616458D01*
X309485Y616436D01*
X309383Y616420D01*
X309366Y616410D01*
X309346Y616406D01*
X309257Y616353D01*
X309166Y616304D01*
X309152Y616290D01*
X309135Y616280D01*
X309068Y616201D01*
X308996Y616126D01*
X308988Y616108D01*
X308975Y616093D01*
X308936Y615997D01*
X308893Y615903D01*
X308891Y615883D01*
X308883Y615865D01*
X308865Y615698D01*
X308865Y601643D01*
X308867Y601627D01*
X308866Y601613D01*
X308882Y601539D01*
X308884Y601528D01*
X308901Y601412D01*
X308903Y601406D01*
X308904Y601400D01*
X308917Y601376D01*
X308918Y601372D01*
X308929Y601354D01*
X308959Y601298D01*
X309012Y601193D01*
X309017Y601188D01*
X309020Y601183D01*
X309104Y601103D01*
X309188Y601020D01*
X309194Y601017D01*
X309198Y601013D01*
X309215Y601006D01*
X309335Y600940D01*
X310556Y600434D01*
X313414Y597576D01*
X314961Y593841D01*
X314961Y574559D01*
X313414Y570824D01*
X310556Y567966D01*
X306821Y566419D01*
X302779Y566419D01*
G37*
%LPD*%
%LPC*%
G36*
X632979Y566419D02*
X632979Y566419D01*
X629244Y567966D01*
X626386Y570824D01*
X624839Y574559D01*
X624839Y593841D01*
X626386Y597576D01*
X629244Y600434D01*
X630465Y600940D01*
X630565Y601001D01*
X630665Y601061D01*
X630669Y601066D01*
X630674Y601069D01*
X630749Y601159D01*
X630825Y601248D01*
X630827Y601254D01*
X630831Y601259D01*
X630873Y601367D01*
X630891Y601413D01*
X630907Y601447D01*
X630908Y601454D01*
X630917Y601476D01*
X630918Y601484D01*
X630919Y601488D01*
X630920Y601507D01*
X630935Y601643D01*
X630935Y640401D01*
X630921Y640491D01*
X630913Y640582D01*
X630901Y640612D01*
X630896Y640644D01*
X630853Y640724D01*
X630817Y640808D01*
X630791Y640840D01*
X630780Y640861D01*
X630757Y640883D01*
X630712Y640939D01*
X445799Y825853D01*
X445705Y825920D01*
X445610Y825991D01*
X445604Y825993D01*
X445599Y825996D01*
X445488Y826030D01*
X445376Y826067D01*
X445370Y826067D01*
X445364Y826069D01*
X445247Y826066D01*
X445130Y826064D01*
X445123Y826062D01*
X445118Y826062D01*
X445101Y826056D01*
X444969Y826018D01*
X441878Y824737D01*
X436522Y824737D01*
X431574Y826787D01*
X427787Y830574D01*
X425737Y835522D01*
X425737Y840878D01*
X427787Y845826D01*
X431574Y849613D01*
X436522Y851663D01*
X441878Y851663D01*
X446826Y849613D01*
X450613Y845826D01*
X452663Y840878D01*
X452663Y835522D01*
X451382Y832431D01*
X451356Y832317D01*
X451327Y832204D01*
X451328Y832197D01*
X451326Y832191D01*
X451337Y832075D01*
X451346Y831958D01*
X451349Y831953D01*
X451349Y831946D01*
X451397Y831839D01*
X451442Y831732D01*
X451447Y831726D01*
X451449Y831722D01*
X451462Y831708D01*
X451547Y831601D01*
X639065Y644084D01*
X639065Y601643D01*
X639067Y601627D01*
X639066Y601613D01*
X639082Y601539D01*
X639084Y601528D01*
X639101Y601412D01*
X639103Y601406D01*
X639104Y601400D01*
X639117Y601376D01*
X639118Y601372D01*
X639129Y601354D01*
X639159Y601298D01*
X639212Y601193D01*
X639217Y601188D01*
X639220Y601183D01*
X639304Y601103D01*
X639388Y601020D01*
X639394Y601017D01*
X639398Y601013D01*
X639415Y601006D01*
X639535Y600940D01*
X640756Y600434D01*
X643614Y597576D01*
X645161Y593841D01*
X645161Y574559D01*
X643614Y570824D01*
X640756Y567966D01*
X637021Y566419D01*
X632979Y566419D01*
G37*
%LPD*%
%LPC*%
G36*
X429779Y566419D02*
X429779Y566419D01*
X426044Y567966D01*
X423186Y570824D01*
X421639Y574559D01*
X421639Y593841D01*
X423186Y597576D01*
X426044Y600434D01*
X427265Y600940D01*
X427365Y601001D01*
X427465Y601061D01*
X427469Y601066D01*
X427474Y601069D01*
X427549Y601160D01*
X427625Y601248D01*
X427627Y601254D01*
X427631Y601259D01*
X427673Y601367D01*
X427691Y601413D01*
X427707Y601447D01*
X427708Y601454D01*
X427717Y601476D01*
X427718Y601484D01*
X427719Y601488D01*
X427720Y601507D01*
X427735Y601643D01*
X427735Y675401D01*
X427721Y675491D01*
X427713Y675582D01*
X427701Y675612D01*
X427696Y675644D01*
X427653Y675724D01*
X427617Y675808D01*
X427591Y675840D01*
X427580Y675861D01*
X427557Y675883D01*
X427512Y675939D01*
X277599Y825853D01*
X277505Y825920D01*
X277410Y825991D01*
X277404Y825993D01*
X277399Y825996D01*
X277288Y826030D01*
X277176Y826067D01*
X277170Y826067D01*
X277164Y826069D01*
X277047Y826066D01*
X276930Y826064D01*
X276923Y826062D01*
X276918Y826062D01*
X276901Y826056D01*
X276769Y826018D01*
X273678Y824737D01*
X268322Y824737D01*
X263374Y826787D01*
X259587Y830574D01*
X257537Y835522D01*
X257537Y840878D01*
X259587Y845826D01*
X263374Y849613D01*
X268322Y851663D01*
X273678Y851663D01*
X278626Y849613D01*
X282413Y845826D01*
X284463Y840878D01*
X284463Y835522D01*
X283182Y832431D01*
X283156Y832317D01*
X283127Y832204D01*
X283128Y832197D01*
X283126Y832191D01*
X283137Y832075D01*
X283146Y831958D01*
X283149Y831953D01*
X283149Y831946D01*
X283197Y831839D01*
X283242Y831732D01*
X283247Y831726D01*
X283249Y831722D01*
X283262Y831708D01*
X283347Y831601D01*
X435865Y679084D01*
X435865Y601643D01*
X435867Y601627D01*
X435866Y601613D01*
X435882Y601539D01*
X435884Y601528D01*
X435901Y601412D01*
X435903Y601406D01*
X435904Y601400D01*
X435917Y601376D01*
X435918Y601372D01*
X435929Y601354D01*
X435959Y601298D01*
X436012Y601193D01*
X436017Y601188D01*
X436020Y601183D01*
X436104Y601103D01*
X436188Y601020D01*
X436194Y601017D01*
X436198Y601013D01*
X436215Y601006D01*
X436335Y600940D01*
X437556Y600434D01*
X440414Y597576D01*
X441961Y593841D01*
X441961Y574559D01*
X440414Y570824D01*
X437556Y567966D01*
X433821Y566419D01*
X429779Y566419D01*
G37*
%LPD*%
%LPC*%
G36*
X671594Y264207D02*
X671594Y264207D01*
X668810Y265360D01*
X666680Y267490D01*
X665527Y270274D01*
X665527Y273286D01*
X666680Y276070D01*
X668812Y278202D01*
X668865Y278276D01*
X668925Y278345D01*
X668937Y278375D01*
X668956Y278402D01*
X668983Y278488D01*
X669017Y278573D01*
X669021Y278614D01*
X669028Y278637D01*
X669027Y278669D01*
X669035Y278740D01*
X669035Y470441D01*
X669021Y470531D01*
X669013Y470622D01*
X669001Y470652D01*
X668996Y470684D01*
X668953Y470764D01*
X668917Y470848D01*
X668891Y470880D01*
X668880Y470901D01*
X668857Y470923D01*
X668812Y470979D01*
X664019Y475772D01*
X663945Y475825D01*
X663876Y475885D01*
X663846Y475897D01*
X663820Y475916D01*
X663733Y475943D01*
X663648Y475977D01*
X663607Y475981D01*
X663584Y475988D01*
X663552Y475987D01*
X663481Y475995D01*
X569816Y475995D01*
X567212Y478599D01*
X510047Y535764D01*
X509973Y535817D01*
X509904Y535877D01*
X509874Y535889D01*
X509848Y535908D01*
X509761Y535935D01*
X509676Y535969D01*
X509635Y535973D01*
X509613Y535980D01*
X509580Y535979D01*
X509509Y535987D01*
X506494Y535987D01*
X503710Y537140D01*
X501580Y539270D01*
X500427Y542054D01*
X500427Y545066D01*
X501580Y547850D01*
X503710Y549980D01*
X506494Y551133D01*
X509506Y551133D01*
X512290Y549980D01*
X514420Y547850D01*
X515573Y545066D01*
X515573Y542051D01*
X515587Y541961D01*
X515595Y541870D01*
X515607Y541840D01*
X515612Y541808D01*
X515655Y541728D01*
X515691Y541644D01*
X515717Y541612D01*
X515728Y541591D01*
X515751Y541569D01*
X515796Y541513D01*
X572961Y484348D01*
X573035Y484295D01*
X573104Y484235D01*
X573134Y484223D01*
X573160Y484204D01*
X573247Y484177D01*
X573332Y484143D01*
X573373Y484139D01*
X573395Y484132D01*
X573428Y484133D01*
X573499Y484125D01*
X667164Y484125D01*
X677165Y474124D01*
X677165Y278740D01*
X677179Y278650D01*
X677187Y278559D01*
X677199Y278529D01*
X677204Y278497D01*
X677247Y278417D01*
X677283Y278333D01*
X677309Y278301D01*
X677320Y278280D01*
X677343Y278258D01*
X677388Y278202D01*
X679520Y276070D01*
X680673Y273286D01*
X680673Y270274D01*
X679520Y267490D01*
X677390Y265360D01*
X674606Y264207D01*
X671594Y264207D01*
G37*
%LPD*%
%LPC*%
G36*
X328179Y566419D02*
X328179Y566419D01*
X324444Y567966D01*
X321586Y570824D01*
X320039Y574559D01*
X320039Y593841D01*
X321586Y597576D01*
X324444Y600434D01*
X325665Y600940D01*
X325765Y601001D01*
X325865Y601061D01*
X325869Y601066D01*
X325874Y601069D01*
X325949Y601160D01*
X326025Y601248D01*
X326027Y601254D01*
X326031Y601259D01*
X326073Y601367D01*
X326091Y601413D01*
X326107Y601447D01*
X326108Y601454D01*
X326117Y601476D01*
X326118Y601484D01*
X326119Y601488D01*
X326120Y601507D01*
X326135Y601643D01*
X326135Y742001D01*
X326121Y742091D01*
X326113Y742182D01*
X326101Y742212D01*
X326096Y742244D01*
X326053Y742324D01*
X326017Y742408D01*
X325991Y742440D01*
X325980Y742461D01*
X325957Y742483D01*
X325912Y742539D01*
X242599Y825853D01*
X242505Y825920D01*
X242410Y825991D01*
X242404Y825993D01*
X242399Y825996D01*
X242288Y826030D01*
X242176Y826067D01*
X242170Y826067D01*
X242164Y826069D01*
X242047Y826066D01*
X241930Y826064D01*
X241923Y826062D01*
X241918Y826062D01*
X241901Y826056D01*
X241769Y826018D01*
X238678Y824737D01*
X233322Y824737D01*
X228374Y826787D01*
X224587Y830574D01*
X222537Y835522D01*
X222537Y840878D01*
X224587Y845826D01*
X228374Y849613D01*
X233322Y851663D01*
X238678Y851663D01*
X243626Y849613D01*
X247413Y845826D01*
X249463Y840878D01*
X249463Y835522D01*
X248182Y832431D01*
X248156Y832317D01*
X248127Y832204D01*
X248128Y832197D01*
X248126Y832191D01*
X248137Y832075D01*
X248146Y831958D01*
X248149Y831953D01*
X248149Y831946D01*
X248197Y831839D01*
X248242Y831732D01*
X248247Y831726D01*
X248249Y831722D01*
X248262Y831708D01*
X248347Y831601D01*
X334265Y745684D01*
X334265Y601643D01*
X334267Y601627D01*
X334266Y601613D01*
X334282Y601539D01*
X334284Y601528D01*
X334301Y601412D01*
X334303Y601406D01*
X334304Y601400D01*
X334317Y601376D01*
X334318Y601372D01*
X334329Y601354D01*
X334359Y601298D01*
X334412Y601193D01*
X334417Y601188D01*
X334420Y601183D01*
X334504Y601103D01*
X334588Y601020D01*
X334594Y601017D01*
X334598Y601013D01*
X334615Y601006D01*
X334735Y600940D01*
X335956Y600434D01*
X338814Y597576D01*
X340361Y593841D01*
X340361Y574559D01*
X338814Y570824D01*
X335956Y567966D01*
X332221Y566419D01*
X328179Y566419D01*
G37*
%LPD*%
%LPC*%
G36*
X48122Y298737D02*
X48122Y298737D01*
X43174Y300787D01*
X39387Y304574D01*
X37337Y309522D01*
X37337Y314878D01*
X39387Y319826D01*
X43174Y323613D01*
X48122Y325663D01*
X53478Y325663D01*
X58426Y323613D01*
X62213Y319826D01*
X63494Y316735D01*
X63555Y316635D01*
X63615Y316535D01*
X63620Y316531D01*
X63623Y316526D01*
X63713Y316451D01*
X63802Y316375D01*
X63808Y316373D01*
X63813Y316369D01*
X63921Y316327D01*
X64030Y316283D01*
X64038Y316282D01*
X64042Y316281D01*
X64061Y316280D01*
X64197Y316265D01*
X157801Y316265D01*
X157891Y316279D01*
X157982Y316287D01*
X158012Y316299D01*
X158044Y316304D01*
X158124Y316347D01*
X158208Y316383D01*
X158240Y316409D01*
X158261Y316420D01*
X158283Y316443D01*
X158339Y316488D01*
X269016Y427165D01*
X269069Y427239D01*
X269129Y427308D01*
X269141Y427338D01*
X269160Y427364D01*
X269187Y427451D01*
X269221Y427536D01*
X269225Y427577D01*
X269232Y427599D01*
X269231Y427632D01*
X269239Y427703D01*
X269239Y441441D01*
X270786Y445176D01*
X273644Y448034D01*
X277379Y449581D01*
X281421Y449581D01*
X285156Y448034D01*
X288014Y445176D01*
X289561Y441441D01*
X289561Y422159D01*
X288014Y418424D01*
X285156Y415566D01*
X281421Y414019D01*
X277379Y414019D01*
X273644Y415566D01*
X271818Y417393D01*
X271802Y417404D01*
X271789Y417420D01*
X271702Y417476D01*
X271618Y417536D01*
X271599Y417542D01*
X271582Y417553D01*
X271482Y417578D01*
X271383Y417609D01*
X271363Y417608D01*
X271344Y417613D01*
X271241Y417605D01*
X271137Y417602D01*
X271118Y417595D01*
X271098Y417594D01*
X271004Y417554D01*
X270906Y417518D01*
X270890Y417505D01*
X270872Y417498D01*
X270741Y417393D01*
X161484Y308135D01*
X64197Y308135D01*
X64082Y308116D01*
X63966Y308099D01*
X63960Y308097D01*
X63954Y308096D01*
X63852Y308041D01*
X63747Y307988D01*
X63742Y307983D01*
X63737Y307980D01*
X63657Y307896D01*
X63574Y307812D01*
X63571Y307806D01*
X63567Y307802D01*
X63560Y307785D01*
X63494Y307665D01*
X62213Y304574D01*
X58426Y300787D01*
X53478Y298737D01*
X48122Y298737D01*
G37*
%LPD*%
%LPC*%
G36*
X707558Y810539D02*
X707558Y810539D01*
X700523Y812424D01*
X694216Y816066D01*
X689066Y821216D01*
X685424Y827523D01*
X683539Y834558D01*
X683539Y841842D01*
X685424Y848877D01*
X689066Y855184D01*
X694216Y860334D01*
X700523Y863976D01*
X707558Y865861D01*
X714842Y865861D01*
X721877Y863976D01*
X728184Y860334D01*
X733334Y855184D01*
X736976Y848877D01*
X738861Y841842D01*
X738861Y834558D01*
X736976Y827523D01*
X733334Y821216D01*
X728184Y816066D01*
X721877Y812424D01*
X714842Y810539D01*
X707558Y810539D01*
G37*
%LPD*%
%LPC*%
G36*
X47158Y810539D02*
X47158Y810539D01*
X40123Y812424D01*
X33816Y816066D01*
X28666Y821216D01*
X25024Y827523D01*
X23139Y834558D01*
X23139Y841842D01*
X25024Y848877D01*
X28666Y855184D01*
X33816Y860334D01*
X40123Y863976D01*
X47158Y865861D01*
X54442Y865861D01*
X61477Y863976D01*
X67784Y860334D01*
X72934Y855184D01*
X76576Y848877D01*
X78461Y841842D01*
X78461Y834558D01*
X76576Y827523D01*
X72934Y821216D01*
X67784Y816066D01*
X61477Y812424D01*
X54442Y810539D01*
X47158Y810539D01*
G37*
%LPD*%
%LPC*%
G36*
X707558Y23139D02*
X707558Y23139D01*
X700523Y25024D01*
X694216Y28666D01*
X689066Y33816D01*
X685424Y40123D01*
X683539Y47158D01*
X683539Y54442D01*
X685424Y61477D01*
X689066Y67784D01*
X694216Y72934D01*
X700523Y76576D01*
X707558Y78461D01*
X714842Y78461D01*
X721877Y76576D01*
X728184Y72934D01*
X733334Y67784D01*
X736976Y61477D01*
X738861Y54442D01*
X738861Y47158D01*
X736976Y40123D01*
X733334Y33816D01*
X728184Y28666D01*
X721877Y25024D01*
X714842Y23139D01*
X707558Y23139D01*
G37*
%LPD*%
%LPC*%
G36*
X47158Y23139D02*
X47158Y23139D01*
X40123Y25024D01*
X33816Y28666D01*
X28666Y33816D01*
X25024Y40123D01*
X23139Y47158D01*
X23139Y54442D01*
X25024Y61477D01*
X28666Y67784D01*
X33816Y72934D01*
X40123Y76576D01*
X47158Y78461D01*
X54442Y78461D01*
X61477Y76576D01*
X67784Y72934D01*
X72934Y67784D01*
X76576Y61477D01*
X78461Y54442D01*
X78461Y47158D01*
X76576Y40123D01*
X72934Y33816D01*
X67784Y28666D01*
X61477Y25024D01*
X54442Y23139D01*
X47158Y23139D01*
G37*
%LPD*%
%LPC*%
G36*
X269322Y37337D02*
X269322Y37337D01*
X264374Y39387D01*
X260587Y43174D01*
X258537Y48122D01*
X258537Y53478D01*
X260587Y58426D01*
X264374Y62213D01*
X267465Y63494D01*
X267565Y63555D01*
X267665Y63615D01*
X267669Y63620D01*
X267674Y63623D01*
X267749Y63713D01*
X267825Y63802D01*
X267827Y63808D01*
X267831Y63813D01*
X267873Y63921D01*
X267902Y63993D01*
X267907Y64004D01*
X267907Y64007D01*
X267917Y64030D01*
X267918Y64038D01*
X267919Y64042D01*
X267920Y64061D01*
X267935Y64197D01*
X267935Y115698D01*
X267932Y115718D01*
X267934Y115737D01*
X267912Y115839D01*
X267896Y115941D01*
X267886Y115958D01*
X267882Y115978D01*
X267829Y116067D01*
X267780Y116158D01*
X267766Y116172D01*
X267756Y116189D01*
X267677Y116256D01*
X267602Y116328D01*
X267584Y116336D01*
X267569Y116349D01*
X267473Y116388D01*
X267379Y116431D01*
X267359Y116433D01*
X267341Y116441D01*
X267174Y116459D01*
X255948Y116459D01*
X254538Y117869D01*
X254522Y117880D01*
X254510Y117896D01*
X254422Y117952D01*
X254339Y118012D01*
X254320Y118018D01*
X254303Y118029D01*
X254202Y118054D01*
X254103Y118084D01*
X254084Y118084D01*
X254064Y118089D01*
X253961Y118081D01*
X253858Y118078D01*
X253839Y118071D01*
X253819Y118070D01*
X253724Y118029D01*
X253627Y117994D01*
X253611Y117981D01*
X253593Y117973D01*
X253462Y117869D01*
X252052Y116459D01*
X249326Y116459D01*
X249306Y116456D01*
X249287Y116458D01*
X249185Y116436D01*
X249083Y116420D01*
X249066Y116410D01*
X249046Y116406D01*
X248957Y116353D01*
X248866Y116304D01*
X248852Y116290D01*
X248835Y116280D01*
X248768Y116201D01*
X248696Y116126D01*
X248688Y116108D01*
X248675Y116093D01*
X248636Y115997D01*
X248593Y115903D01*
X248591Y115883D01*
X248583Y115865D01*
X248565Y115698D01*
X248565Y107900D01*
X248579Y107810D01*
X248587Y107719D01*
X248599Y107689D01*
X248604Y107657D01*
X248647Y107577D01*
X248683Y107493D01*
X248709Y107461D01*
X248720Y107440D01*
X248743Y107418D01*
X248788Y107362D01*
X250260Y105890D01*
X251413Y103106D01*
X251413Y100094D01*
X250260Y97310D01*
X248130Y95180D01*
X245346Y94027D01*
X242334Y94027D01*
X239550Y95180D01*
X237420Y97310D01*
X236267Y100094D01*
X236267Y103106D01*
X237420Y105890D01*
X239550Y108020D01*
X239965Y108192D01*
X240065Y108254D01*
X240165Y108313D01*
X240169Y108318D01*
X240174Y108321D01*
X240249Y108412D01*
X240325Y108500D01*
X240327Y108506D01*
X240331Y108511D01*
X240373Y108619D01*
X240417Y108728D01*
X240418Y108736D01*
X240419Y108740D01*
X240420Y108759D01*
X240435Y108895D01*
X240435Y115698D01*
X240432Y115718D01*
X240434Y115737D01*
X240412Y115839D01*
X240396Y115941D01*
X240386Y115958D01*
X240382Y115978D01*
X240329Y116067D01*
X240280Y116158D01*
X240266Y116172D01*
X240256Y116189D01*
X240177Y116256D01*
X240102Y116328D01*
X240084Y116336D01*
X240069Y116349D01*
X239973Y116388D01*
X239879Y116431D01*
X239859Y116433D01*
X239841Y116441D01*
X239674Y116459D01*
X236948Y116459D01*
X235459Y117948D01*
X235459Y136052D01*
X236948Y137541D01*
X252052Y137541D01*
X253462Y136131D01*
X253478Y136120D01*
X253490Y136104D01*
X253578Y136048D01*
X253661Y135988D01*
X253680Y135982D01*
X253697Y135971D01*
X253798Y135946D01*
X253897Y135916D01*
X253916Y135916D01*
X253936Y135911D01*
X254039Y135919D01*
X254142Y135922D01*
X254161Y135929D01*
X254181Y135930D01*
X254276Y135971D01*
X254373Y136006D01*
X254389Y136019D01*
X254407Y136027D01*
X254538Y136131D01*
X255948Y137541D01*
X271052Y137541D01*
X272541Y136052D01*
X272541Y124023D01*
X272555Y123933D01*
X272563Y123842D01*
X272575Y123812D01*
X272580Y123780D01*
X272623Y123700D01*
X272659Y123616D01*
X272685Y123584D01*
X272696Y123563D01*
X272719Y123541D01*
X272764Y123485D01*
X276065Y120184D01*
X276065Y64197D01*
X276067Y64182D01*
X276066Y64170D01*
X276079Y64107D01*
X276084Y64082D01*
X276101Y63966D01*
X276103Y63960D01*
X276104Y63954D01*
X276159Y63852D01*
X276212Y63747D01*
X276217Y63742D01*
X276220Y63737D01*
X276304Y63657D01*
X276388Y63574D01*
X276394Y63571D01*
X276398Y63567D01*
X276415Y63560D01*
X276535Y63494D01*
X279626Y62213D01*
X283413Y58426D01*
X285463Y53478D01*
X285463Y48122D01*
X283413Y43174D01*
X279626Y39387D01*
X274678Y37337D01*
X269322Y37337D01*
G37*
%LPD*%
%LPC*%
G36*
X505979Y566419D02*
X505979Y566419D01*
X502244Y567966D01*
X499386Y570824D01*
X497839Y574559D01*
X497839Y593841D01*
X499386Y597576D01*
X502244Y600434D01*
X505979Y601981D01*
X510021Y601981D01*
X513756Y600434D01*
X516614Y597576D01*
X518161Y593841D01*
X518161Y574559D01*
X516614Y570824D01*
X513756Y567966D01*
X510021Y566419D01*
X505979Y566419D01*
G37*
%LPD*%
%LPC*%
G36*
X404379Y566419D02*
X404379Y566419D01*
X400644Y567966D01*
X397786Y570824D01*
X396239Y574559D01*
X396239Y593841D01*
X397786Y597576D01*
X400644Y600434D01*
X404379Y601981D01*
X408421Y601981D01*
X412156Y600434D01*
X415014Y597576D01*
X416561Y593841D01*
X416561Y574559D01*
X415014Y570824D01*
X412156Y567966D01*
X408421Y566419D01*
X404379Y566419D01*
G37*
%LPD*%
%LPC*%
G36*
X328179Y414019D02*
X328179Y414019D01*
X324444Y415566D01*
X321586Y418424D01*
X320039Y422159D01*
X320039Y441441D01*
X321586Y445176D01*
X324444Y448034D01*
X328179Y449581D01*
X332221Y449581D01*
X335956Y448034D01*
X338814Y445176D01*
X340361Y441441D01*
X340361Y422159D01*
X338814Y418424D01*
X335956Y415566D01*
X332221Y414019D01*
X328179Y414019D01*
G37*
%LPD*%
%LPC*%
G36*
X353579Y414019D02*
X353579Y414019D01*
X349844Y415566D01*
X346986Y418424D01*
X345439Y422159D01*
X345439Y441441D01*
X346986Y445176D01*
X349844Y448034D01*
X353579Y449581D01*
X357621Y449581D01*
X361356Y448034D01*
X364214Y445176D01*
X365761Y441441D01*
X365761Y422159D01*
X364214Y418424D01*
X361356Y415566D01*
X357621Y414019D01*
X353579Y414019D01*
G37*
%LPD*%
%LPC*%
G36*
X378979Y414019D02*
X378979Y414019D01*
X375244Y415566D01*
X372386Y418424D01*
X370839Y422159D01*
X370839Y441441D01*
X372386Y445176D01*
X375244Y448034D01*
X378979Y449581D01*
X383021Y449581D01*
X386756Y448034D01*
X389614Y445176D01*
X391161Y441441D01*
X391161Y422159D01*
X389614Y418424D01*
X386756Y415566D01*
X383021Y414019D01*
X378979Y414019D01*
G37*
%LPD*%
%LPC*%
G36*
X277379Y566419D02*
X277379Y566419D01*
X273644Y567966D01*
X270786Y570824D01*
X269239Y574559D01*
X269239Y593841D01*
X270786Y597576D01*
X273644Y600434D01*
X277379Y601981D01*
X281421Y601981D01*
X285156Y600434D01*
X288014Y597576D01*
X289561Y593841D01*
X289561Y574559D01*
X288014Y570824D01*
X285156Y567966D01*
X281421Y566419D01*
X277379Y566419D01*
G37*
%LPD*%
%LPC*%
G36*
X455179Y414019D02*
X455179Y414019D01*
X451444Y415566D01*
X448586Y418424D01*
X447039Y422159D01*
X447039Y441441D01*
X448586Y445176D01*
X451444Y448034D01*
X455179Y449581D01*
X459221Y449581D01*
X462956Y448034D01*
X465814Y445176D01*
X467361Y441441D01*
X467361Y422159D01*
X465814Y418424D01*
X462956Y415566D01*
X459221Y414019D01*
X455179Y414019D01*
G37*
%LPD*%
%LPC*%
G36*
X404379Y414019D02*
X404379Y414019D01*
X400644Y415566D01*
X397786Y418424D01*
X396239Y422159D01*
X396239Y441441D01*
X397786Y445176D01*
X400644Y448034D01*
X404379Y449581D01*
X408421Y449581D01*
X412156Y448034D01*
X415014Y445176D01*
X416561Y441441D01*
X416561Y422159D01*
X415014Y418424D01*
X412156Y415566D01*
X408421Y414019D01*
X404379Y414019D01*
G37*
%LPD*%
%LPC*%
G36*
X582179Y414019D02*
X582179Y414019D01*
X578444Y415566D01*
X575586Y418424D01*
X574039Y422159D01*
X574039Y441441D01*
X575586Y445176D01*
X578444Y448034D01*
X582179Y449581D01*
X586221Y449581D01*
X589956Y448034D01*
X592814Y445176D01*
X594361Y441441D01*
X594361Y422159D01*
X592814Y418424D01*
X589956Y415566D01*
X586221Y414019D01*
X582179Y414019D01*
G37*
%LPD*%
%LPC*%
G36*
X556779Y414019D02*
X556779Y414019D01*
X553044Y415566D01*
X550186Y418424D01*
X548639Y422159D01*
X548639Y441441D01*
X550186Y445176D01*
X553044Y448034D01*
X556779Y449581D01*
X560821Y449581D01*
X564556Y448034D01*
X567414Y445176D01*
X568961Y441441D01*
X568961Y422159D01*
X567414Y418424D01*
X564556Y415566D01*
X560821Y414019D01*
X556779Y414019D01*
G37*
%LPD*%
%LPC*%
G36*
X505979Y414019D02*
X505979Y414019D01*
X502244Y415566D01*
X499386Y418424D01*
X497839Y422159D01*
X497839Y441441D01*
X499386Y445176D01*
X502244Y448034D01*
X505979Y449581D01*
X510021Y449581D01*
X513756Y448034D01*
X516614Y445176D01*
X518161Y441441D01*
X518161Y422159D01*
X516614Y418424D01*
X513756Y415566D01*
X510021Y414019D01*
X505979Y414019D01*
G37*
%LPD*%
%LPC*%
G36*
X480579Y414019D02*
X480579Y414019D01*
X476844Y415566D01*
X473986Y418424D01*
X472439Y422159D01*
X472439Y441441D01*
X473986Y445176D01*
X476844Y448034D01*
X480579Y449581D01*
X484621Y449581D01*
X488356Y448034D01*
X491214Y445176D01*
X492761Y441441D01*
X492761Y422159D01*
X491214Y418424D01*
X488356Y415566D01*
X484621Y414019D01*
X480579Y414019D01*
G37*
%LPD*%
%LPC*%
G36*
X429779Y414019D02*
X429779Y414019D01*
X426044Y415566D01*
X423186Y418424D01*
X421639Y422159D01*
X421639Y441441D01*
X423186Y445176D01*
X426044Y448034D01*
X429779Y449581D01*
X433821Y449581D01*
X437556Y448034D01*
X440414Y445176D01*
X441961Y441441D01*
X441961Y422159D01*
X440414Y418424D01*
X437556Y415566D01*
X433821Y414019D01*
X429779Y414019D01*
G37*
%LPD*%
%LPC*%
G36*
X531379Y414019D02*
X531379Y414019D01*
X527644Y415566D01*
X524786Y418424D01*
X523239Y422159D01*
X523239Y441441D01*
X524786Y445176D01*
X527644Y448034D01*
X531379Y449581D01*
X535421Y449581D01*
X539156Y448034D01*
X542014Y445176D01*
X543561Y441441D01*
X543561Y422159D01*
X542014Y418424D01*
X539156Y415566D01*
X535421Y414019D01*
X531379Y414019D01*
G37*
%LPD*%
%LPC*%
G36*
X302779Y414019D02*
X302779Y414019D01*
X299044Y415566D01*
X296186Y418424D01*
X294639Y422159D01*
X294639Y441441D01*
X296186Y445176D01*
X299044Y448034D01*
X302779Y449581D01*
X306821Y449581D01*
X310556Y448034D01*
X313414Y445176D01*
X314961Y441441D01*
X314961Y422159D01*
X313414Y418424D01*
X310556Y415566D01*
X306821Y414019D01*
X302779Y414019D01*
G37*
%LPD*%
%LPC*%
G36*
X632979Y414019D02*
X632979Y414019D01*
X629244Y415566D01*
X626386Y418424D01*
X624839Y422159D01*
X624839Y441441D01*
X626386Y445176D01*
X629244Y448034D01*
X632979Y449581D01*
X637021Y449581D01*
X640756Y448034D01*
X643614Y445176D01*
X645161Y441441D01*
X645161Y422159D01*
X643614Y418424D01*
X640756Y415566D01*
X637021Y414019D01*
X632979Y414019D01*
G37*
%LPD*%
%LPC*%
G36*
X531379Y566419D02*
X531379Y566419D01*
X527644Y567966D01*
X524786Y570824D01*
X523239Y574559D01*
X523239Y593841D01*
X524786Y597576D01*
X527644Y600434D01*
X531379Y601981D01*
X535421Y601981D01*
X539156Y600434D01*
X542014Y597576D01*
X543561Y593841D01*
X543561Y574559D01*
X542014Y570824D01*
X539156Y567966D01*
X535421Y566419D01*
X531379Y566419D01*
G37*
%LPD*%
%LPC*%
G36*
X378979Y566419D02*
X378979Y566419D01*
X375244Y567966D01*
X372386Y570824D01*
X370839Y574559D01*
X370839Y593841D01*
X372386Y597576D01*
X375244Y600434D01*
X378979Y601981D01*
X383021Y601981D01*
X386756Y600434D01*
X389614Y597576D01*
X391161Y593841D01*
X391161Y574559D01*
X389614Y570824D01*
X386756Y567966D01*
X383021Y566419D01*
X378979Y566419D01*
G37*
%LPD*%
%LPC*%
G36*
X353579Y566419D02*
X353579Y566419D01*
X349844Y567966D01*
X346986Y570824D01*
X345439Y574559D01*
X345439Y593841D01*
X346986Y597576D01*
X349844Y600434D01*
X353579Y601981D01*
X357621Y601981D01*
X361356Y600434D01*
X364214Y597576D01*
X365761Y593841D01*
X365761Y574559D01*
X364214Y570824D01*
X361356Y567966D01*
X357621Y566419D01*
X353579Y566419D01*
G37*
%LPD*%
%LPC*%
G36*
X455179Y566419D02*
X455179Y566419D01*
X451444Y567966D01*
X448586Y570824D01*
X447039Y574559D01*
X447039Y593841D01*
X448586Y597576D01*
X451444Y600434D01*
X455179Y601981D01*
X459221Y601981D01*
X462956Y600434D01*
X465814Y597576D01*
X467361Y593841D01*
X467361Y574559D01*
X465814Y570824D01*
X462956Y567966D01*
X459221Y566419D01*
X455179Y566419D01*
G37*
%LPD*%
%LPC*%
G36*
X582179Y566419D02*
X582179Y566419D01*
X578444Y567966D01*
X575586Y570824D01*
X574039Y574559D01*
X574039Y593841D01*
X575586Y597576D01*
X578444Y600434D01*
X582179Y601981D01*
X586221Y601981D01*
X589956Y600434D01*
X592814Y597576D01*
X594361Y593841D01*
X594361Y574559D01*
X592814Y570824D01*
X589956Y567966D01*
X586221Y566419D01*
X582179Y566419D01*
G37*
%LPD*%
%LPC*%
G36*
X157122Y824737D02*
X157122Y824737D01*
X152174Y826787D01*
X148387Y830574D01*
X146337Y835522D01*
X146337Y840878D01*
X148387Y845826D01*
X152174Y849613D01*
X157122Y851663D01*
X162478Y851663D01*
X167426Y849613D01*
X171213Y845826D01*
X173263Y840878D01*
X173263Y835522D01*
X171213Y830574D01*
X167426Y826787D01*
X162478Y824737D01*
X157122Y824737D01*
G37*
%LPD*%
%LPC*%
G36*
X360322Y824737D02*
X360322Y824737D01*
X355374Y826787D01*
X351587Y830574D01*
X349537Y835522D01*
X349537Y840878D01*
X351587Y845826D01*
X355374Y849613D01*
X360322Y851663D01*
X365678Y851663D01*
X370626Y849613D01*
X374413Y845826D01*
X376463Y840878D01*
X376463Y835522D01*
X374413Y830574D01*
X370626Y826787D01*
X365678Y824737D01*
X360322Y824737D01*
G37*
%LPD*%
%LPC*%
G36*
X48122Y333737D02*
X48122Y333737D01*
X43174Y335787D01*
X39387Y339574D01*
X37337Y344522D01*
X37337Y349878D01*
X39387Y354826D01*
X43174Y358613D01*
X48122Y360663D01*
X53478Y360663D01*
X58426Y358613D01*
X62213Y354826D01*
X64263Y349878D01*
X64263Y344522D01*
X62213Y339574D01*
X58426Y335787D01*
X53478Y333737D01*
X48122Y333737D01*
G37*
%LPD*%
%LPC*%
G36*
X48122Y374937D02*
X48122Y374937D01*
X43174Y376987D01*
X39387Y380774D01*
X37337Y385722D01*
X37337Y391078D01*
X39387Y396026D01*
X43174Y399813D01*
X48122Y401863D01*
X53478Y401863D01*
X58426Y399813D01*
X62213Y396026D01*
X64263Y391078D01*
X64263Y385722D01*
X62213Y380774D01*
X58426Y376987D01*
X53478Y374937D01*
X48122Y374937D01*
G37*
%LPD*%
%LPC*%
G36*
X48122Y476537D02*
X48122Y476537D01*
X43174Y478587D01*
X39387Y482374D01*
X37337Y487322D01*
X37337Y492678D01*
X39387Y497626D01*
X43174Y501413D01*
X48122Y503463D01*
X53478Y503463D01*
X58426Y501413D01*
X62213Y497626D01*
X64263Y492678D01*
X64263Y487322D01*
X62213Y482374D01*
X58426Y478587D01*
X53478Y476537D01*
X48122Y476537D01*
G37*
%LPD*%
%LPC*%
G36*
X589922Y37337D02*
X589922Y37337D01*
X584974Y39387D01*
X581187Y43174D01*
X579137Y48122D01*
X579137Y53478D01*
X581187Y58426D01*
X584974Y62213D01*
X589922Y64263D01*
X595278Y64263D01*
X600226Y62213D01*
X604013Y58426D01*
X606063Y53478D01*
X606063Y48122D01*
X604013Y43174D01*
X600226Y39387D01*
X595278Y37337D01*
X589922Y37337D01*
G37*
%LPD*%
%LPC*%
G36*
X48122Y578137D02*
X48122Y578137D01*
X43174Y580187D01*
X39387Y583974D01*
X37337Y588922D01*
X37337Y594278D01*
X39387Y599226D01*
X43174Y603013D01*
X48122Y605063D01*
X53478Y605063D01*
X58426Y603013D01*
X62213Y599226D01*
X64263Y594278D01*
X64263Y588922D01*
X62213Y583974D01*
X58426Y580187D01*
X53478Y578137D01*
X48122Y578137D01*
G37*
%LPD*%
%LPC*%
G36*
X624922Y37337D02*
X624922Y37337D01*
X619974Y39387D01*
X616187Y43174D01*
X614137Y48122D01*
X614137Y53478D01*
X616187Y58426D01*
X619974Y62213D01*
X624922Y64263D01*
X630278Y64263D01*
X635226Y62213D01*
X639013Y58426D01*
X641063Y53478D01*
X641063Y48122D01*
X639013Y43174D01*
X635226Y39387D01*
X630278Y37337D01*
X624922Y37337D01*
G37*
%LPD*%
%LPC*%
G36*
X429981Y301751D02*
X429981Y301751D01*
X426620Y303143D01*
X424047Y305716D01*
X422655Y309077D01*
X422655Y325923D01*
X424047Y329284D01*
X426620Y331857D01*
X429981Y333249D01*
X433619Y333249D01*
X436980Y331857D01*
X439553Y329284D01*
X440945Y325923D01*
X440945Y309077D01*
X439553Y305716D01*
X436980Y303143D01*
X433619Y301751D01*
X429981Y301751D01*
G37*
%LPD*%
%LPC*%
G36*
X455381Y301751D02*
X455381Y301751D01*
X452020Y303143D01*
X449447Y305716D01*
X448055Y309077D01*
X448055Y325923D01*
X449447Y329284D01*
X452020Y331857D01*
X455381Y333249D01*
X459019Y333249D01*
X462380Y331857D01*
X464953Y329284D01*
X466345Y325923D01*
X466345Y309077D01*
X464953Y305716D01*
X462380Y303143D01*
X459019Y301751D01*
X455381Y301751D01*
G37*
%LPD*%
%LPC*%
G36*
X480781Y301751D02*
X480781Y301751D01*
X477420Y303143D01*
X474847Y305716D01*
X473455Y309077D01*
X473455Y325923D01*
X474847Y329284D01*
X477420Y331857D01*
X480781Y333249D01*
X484419Y333249D01*
X487780Y331857D01*
X490353Y329284D01*
X491745Y325923D01*
X491745Y309077D01*
X490353Y305716D01*
X487780Y303143D01*
X484419Y301751D01*
X480781Y301751D01*
G37*
%LPD*%
%LPC*%
G36*
X506181Y301751D02*
X506181Y301751D01*
X502820Y303143D01*
X500247Y305716D01*
X498855Y309077D01*
X498855Y325923D01*
X500247Y329284D01*
X502820Y331857D01*
X506181Y333249D01*
X509819Y333249D01*
X513180Y331857D01*
X515753Y329284D01*
X517145Y325923D01*
X517145Y309077D01*
X515753Y305716D01*
X513180Y303143D01*
X509819Y301751D01*
X506181Y301751D01*
G37*
%LPD*%
%LPC*%
G36*
X404581Y301751D02*
X404581Y301751D01*
X401220Y303143D01*
X398647Y305716D01*
X397255Y309077D01*
X397255Y325923D01*
X398647Y329284D01*
X401220Y331857D01*
X404581Y333249D01*
X408219Y333249D01*
X411580Y331857D01*
X414153Y329284D01*
X415545Y325923D01*
X415545Y309077D01*
X414153Y305716D01*
X411580Y303143D01*
X408219Y301751D01*
X404581Y301751D01*
G37*
%LPD*%
%LPC*%
G36*
X531581Y301751D02*
X531581Y301751D01*
X528220Y303143D01*
X525647Y305716D01*
X524255Y309077D01*
X524255Y325923D01*
X525647Y329284D01*
X528220Y331857D01*
X531581Y333249D01*
X535219Y333249D01*
X538580Y331857D01*
X541153Y329284D01*
X542545Y325923D01*
X542545Y309077D01*
X541153Y305716D01*
X538580Y303143D01*
X535219Y301751D01*
X531581Y301751D01*
G37*
%LPD*%
%LPC*%
G36*
X556981Y301751D02*
X556981Y301751D01*
X553620Y303143D01*
X551047Y305716D01*
X549655Y309077D01*
X549655Y325923D01*
X551047Y329284D01*
X553620Y331857D01*
X556981Y333249D01*
X560619Y333249D01*
X563980Y331857D01*
X566553Y329284D01*
X567945Y325923D01*
X567945Y309077D01*
X566553Y305716D01*
X563980Y303143D01*
X560619Y301751D01*
X556981Y301751D01*
G37*
%LPD*%
%LPC*%
G36*
X531581Y225551D02*
X531581Y225551D01*
X528220Y226943D01*
X525647Y229516D01*
X524255Y232877D01*
X524255Y249723D01*
X525647Y253084D01*
X528220Y255657D01*
X531581Y257049D01*
X535219Y257049D01*
X538580Y255657D01*
X541153Y253084D01*
X542545Y249723D01*
X542545Y232877D01*
X541153Y229516D01*
X538580Y226943D01*
X535219Y225551D01*
X531581Y225551D01*
G37*
%LPD*%
%LPC*%
G36*
X455381Y225551D02*
X455381Y225551D01*
X452020Y226943D01*
X449447Y229516D01*
X448055Y232877D01*
X448055Y249723D01*
X449447Y253084D01*
X452020Y255657D01*
X455381Y257049D01*
X459019Y257049D01*
X462380Y255657D01*
X464953Y253084D01*
X466345Y249723D01*
X466345Y232877D01*
X464953Y229516D01*
X462380Y226943D01*
X459019Y225551D01*
X455381Y225551D01*
G37*
%LPD*%
%LPC*%
G36*
X560323Y585723D02*
X560323Y585723D01*
X560323Y601866D01*
X561179Y601731D01*
X562700Y601236D01*
X564125Y600510D01*
X565419Y599570D01*
X566550Y598439D01*
X567490Y597145D01*
X568216Y595720D01*
X568711Y594199D01*
X568961Y592620D01*
X568961Y585723D01*
X560323Y585723D01*
G37*
%LPD*%
%LPC*%
G36*
X611123Y433323D02*
X611123Y433323D01*
X611123Y449466D01*
X611979Y449331D01*
X613500Y448836D01*
X614925Y448110D01*
X616219Y447170D01*
X617350Y446039D01*
X618290Y444745D01*
X619016Y443320D01*
X619511Y441799D01*
X619761Y440220D01*
X619761Y433323D01*
X611123Y433323D01*
G37*
%LPD*%
%LPC*%
G36*
X560323Y582677D02*
X560323Y582677D01*
X568961Y582677D01*
X568961Y575780D01*
X568711Y574201D01*
X568216Y572680D01*
X567490Y571255D01*
X566550Y569961D01*
X565419Y568830D01*
X564125Y567890D01*
X562700Y567164D01*
X561179Y566669D01*
X560323Y566534D01*
X560323Y582677D01*
G37*
%LPD*%
%LPC*%
G36*
X611123Y430277D02*
X611123Y430277D01*
X619761Y430277D01*
X619761Y423380D01*
X619511Y421801D01*
X619016Y420280D01*
X618290Y418855D01*
X617350Y417561D01*
X616219Y416430D01*
X614925Y415490D01*
X613500Y414764D01*
X611979Y414269D01*
X611123Y414134D01*
X611123Y430277D01*
G37*
%LPD*%
%LPC*%
G36*
X599439Y433323D02*
X599439Y433323D01*
X599439Y440220D01*
X599689Y441799D01*
X600184Y443320D01*
X600910Y444745D01*
X601850Y446039D01*
X602981Y447170D01*
X604275Y448110D01*
X605700Y448836D01*
X607221Y449331D01*
X608077Y449466D01*
X608077Y433323D01*
X599439Y433323D01*
G37*
%LPD*%
%LPC*%
G36*
X548639Y585723D02*
X548639Y585723D01*
X548639Y592620D01*
X548889Y594199D01*
X549384Y595720D01*
X550110Y597145D01*
X551050Y598439D01*
X552181Y599570D01*
X553475Y600510D01*
X554900Y601236D01*
X556421Y601731D01*
X557277Y601866D01*
X557277Y585723D01*
X548639Y585723D01*
G37*
%LPD*%
%LPC*%
G36*
X556421Y566669D02*
X556421Y566669D01*
X554900Y567164D01*
X553475Y567890D01*
X552181Y568830D01*
X551050Y569961D01*
X550110Y571255D01*
X549384Y572680D01*
X548889Y574201D01*
X548639Y575780D01*
X548639Y582677D01*
X557277Y582677D01*
X557277Y566534D01*
X556421Y566669D01*
G37*
%LPD*%
%LPC*%
G36*
X607221Y414269D02*
X607221Y414269D01*
X605700Y414764D01*
X604275Y415490D01*
X602981Y416430D01*
X601850Y417561D01*
X600910Y418855D01*
X600184Y420280D01*
X599689Y421801D01*
X599439Y423380D01*
X599439Y430277D01*
X608077Y430277D01*
X608077Y414134D01*
X607221Y414269D01*
G37*
%LPD*%
%LPC*%
G36*
X196323Y839723D02*
X196323Y839723D01*
X196323Y851589D01*
X197952Y851331D01*
X199968Y850676D01*
X201856Y849714D01*
X203570Y848469D01*
X205069Y846970D01*
X206314Y845256D01*
X207276Y843368D01*
X207931Y841352D01*
X208189Y839723D01*
X196323Y839723D01*
G37*
%LPD*%
%LPC*%
G36*
X399523Y839723D02*
X399523Y839723D01*
X399523Y851589D01*
X401152Y851331D01*
X403168Y850676D01*
X405056Y849714D01*
X406770Y848469D01*
X408269Y846970D01*
X409514Y845256D01*
X410476Y843368D01*
X411131Y841352D01*
X411389Y839723D01*
X399523Y839723D01*
G37*
%LPD*%
%LPC*%
G36*
X52323Y704323D02*
X52323Y704323D01*
X52323Y716189D01*
X53952Y715931D01*
X55968Y715276D01*
X57856Y714314D01*
X59570Y713069D01*
X61069Y711570D01*
X62314Y709856D01*
X63276Y707968D01*
X63931Y705952D01*
X64189Y704323D01*
X52323Y704323D01*
G37*
%LPD*%
%LPC*%
G36*
X52323Y628123D02*
X52323Y628123D01*
X52323Y639989D01*
X53952Y639731D01*
X55968Y639076D01*
X57856Y638114D01*
X59570Y636869D01*
X61069Y635370D01*
X62314Y633656D01*
X63276Y631768D01*
X63931Y629752D01*
X64189Y628123D01*
X52323Y628123D01*
G37*
%LPD*%
%LPC*%
G36*
X52323Y526523D02*
X52323Y526523D01*
X52323Y538389D01*
X53952Y538131D01*
X55968Y537476D01*
X57856Y536514D01*
X59570Y535269D01*
X61069Y533770D01*
X62314Y532056D01*
X63276Y530168D01*
X63931Y528152D01*
X64189Y526523D01*
X52323Y526523D01*
G37*
%LPD*%
%LPC*%
G36*
X349723Y52323D02*
X349723Y52323D01*
X349723Y64189D01*
X351352Y63931D01*
X353368Y63276D01*
X355256Y62314D01*
X356970Y61069D01*
X358469Y59570D01*
X359714Y57856D01*
X360676Y55968D01*
X361331Y53952D01*
X361589Y52323D01*
X349723Y52323D01*
G37*
%LPD*%
%LPC*%
G36*
X52323Y424923D02*
X52323Y424923D01*
X52323Y436789D01*
X53952Y436531D01*
X55968Y435876D01*
X57856Y434914D01*
X59570Y433669D01*
X61069Y432170D01*
X62314Y430456D01*
X63276Y428568D01*
X63931Y426552D01*
X64189Y424923D01*
X52323Y424923D01*
G37*
%LPD*%
%LPC*%
G36*
X238523Y52323D02*
X238523Y52323D01*
X238523Y64189D01*
X240152Y63931D01*
X242168Y63276D01*
X244056Y62314D01*
X245770Y61069D01*
X247269Y59570D01*
X248514Y57856D01*
X249476Y55968D01*
X250131Y53952D01*
X250389Y52323D01*
X238523Y52323D01*
G37*
%LPD*%
%LPC*%
G36*
X416323Y52323D02*
X416323Y52323D01*
X416323Y64189D01*
X417952Y63931D01*
X419968Y63276D01*
X421856Y62314D01*
X423570Y61069D01*
X425069Y59570D01*
X426314Y57856D01*
X427276Y55968D01*
X427931Y53952D01*
X428189Y52323D01*
X416323Y52323D01*
G37*
%LPD*%
%LPC*%
G36*
X517923Y52323D02*
X517923Y52323D01*
X517923Y64189D01*
X519552Y63931D01*
X521568Y63276D01*
X523456Y62314D01*
X525170Y61069D01*
X526669Y59570D01*
X527914Y57856D01*
X528876Y55968D01*
X529531Y53952D01*
X529789Y52323D01*
X517923Y52323D01*
G37*
%LPD*%
%LPC*%
G36*
X37411Y628123D02*
X37411Y628123D01*
X37669Y629752D01*
X38324Y631768D01*
X39286Y633656D01*
X40531Y635370D01*
X42030Y636869D01*
X43744Y638114D01*
X45632Y639076D01*
X47648Y639731D01*
X49277Y639989D01*
X49277Y628123D01*
X37411Y628123D01*
G37*
%LPD*%
%LPC*%
G36*
X399523Y836677D02*
X399523Y836677D01*
X411389Y836677D01*
X411131Y835048D01*
X410476Y833032D01*
X409514Y831144D01*
X408269Y829430D01*
X406770Y827931D01*
X405056Y826686D01*
X403168Y825724D01*
X401152Y825069D01*
X399523Y824811D01*
X399523Y836677D01*
G37*
%LPD*%
%LPC*%
G36*
X238523Y49277D02*
X238523Y49277D01*
X250389Y49277D01*
X250131Y47648D01*
X249476Y45632D01*
X248514Y43744D01*
X247269Y42030D01*
X245770Y40531D01*
X244056Y39286D01*
X242168Y38324D01*
X240152Y37669D01*
X238523Y37411D01*
X238523Y49277D01*
G37*
%LPD*%
%LPC*%
G36*
X503011Y52323D02*
X503011Y52323D01*
X503269Y53952D01*
X503924Y55968D01*
X504886Y57856D01*
X506131Y59570D01*
X507630Y61069D01*
X509344Y62314D01*
X511232Y63276D01*
X513248Y63931D01*
X514877Y64189D01*
X514877Y52323D01*
X503011Y52323D01*
G37*
%LPD*%
%LPC*%
G36*
X52323Y421877D02*
X52323Y421877D01*
X64189Y421877D01*
X63931Y420248D01*
X63276Y418232D01*
X62314Y416344D01*
X61069Y414630D01*
X59570Y413131D01*
X57856Y411886D01*
X55968Y410924D01*
X53952Y410269D01*
X52323Y410011D01*
X52323Y421877D01*
G37*
%LPD*%
%LPC*%
G36*
X349723Y49277D02*
X349723Y49277D01*
X361589Y49277D01*
X361331Y47648D01*
X360676Y45632D01*
X359714Y43744D01*
X358469Y42030D01*
X356970Y40531D01*
X355256Y39286D01*
X353368Y38324D01*
X351352Y37669D01*
X349723Y37411D01*
X349723Y49277D01*
G37*
%LPD*%
%LPC*%
G36*
X37411Y424923D02*
X37411Y424923D01*
X37669Y426552D01*
X38324Y428568D01*
X39286Y430456D01*
X40531Y432170D01*
X42030Y433669D01*
X43744Y434914D01*
X45632Y435876D01*
X47648Y436531D01*
X49277Y436789D01*
X49277Y424923D01*
X37411Y424923D01*
G37*
%LPD*%
%LPC*%
G36*
X52323Y701277D02*
X52323Y701277D01*
X64189Y701277D01*
X63931Y699648D01*
X63276Y697632D01*
X62314Y695744D01*
X61069Y694030D01*
X59570Y692531D01*
X57856Y691286D01*
X55968Y690324D01*
X53952Y689669D01*
X52323Y689411D01*
X52323Y701277D01*
G37*
%LPD*%
%LPC*%
G36*
X416323Y49277D02*
X416323Y49277D01*
X428189Y49277D01*
X427931Y47648D01*
X427276Y45632D01*
X426314Y43744D01*
X425069Y42030D01*
X423570Y40531D01*
X421856Y39286D01*
X419968Y38324D01*
X417952Y37669D01*
X416323Y37411D01*
X416323Y49277D01*
G37*
%LPD*%
%LPC*%
G36*
X37411Y704323D02*
X37411Y704323D01*
X37669Y705952D01*
X38324Y707968D01*
X39286Y709856D01*
X40531Y711570D01*
X42030Y713069D01*
X43744Y714314D01*
X45632Y715276D01*
X47648Y715931D01*
X49277Y716189D01*
X49277Y704323D01*
X37411Y704323D01*
G37*
%LPD*%
%LPC*%
G36*
X401411Y52323D02*
X401411Y52323D01*
X401669Y53952D01*
X402324Y55968D01*
X403286Y57856D01*
X404531Y59570D01*
X406030Y61069D01*
X407744Y62314D01*
X409632Y63276D01*
X411648Y63931D01*
X413277Y64189D01*
X413277Y52323D01*
X401411Y52323D01*
G37*
%LPD*%
%LPC*%
G36*
X196323Y836677D02*
X196323Y836677D01*
X208189Y836677D01*
X207931Y835048D01*
X207276Y833032D01*
X206314Y831144D01*
X205069Y829430D01*
X203570Y827931D01*
X201856Y826686D01*
X199968Y825724D01*
X197952Y825069D01*
X196323Y824811D01*
X196323Y836677D01*
G37*
%LPD*%
%LPC*%
G36*
X52323Y625077D02*
X52323Y625077D01*
X64189Y625077D01*
X63931Y623448D01*
X63276Y621432D01*
X62314Y619544D01*
X61069Y617830D01*
X59570Y616331D01*
X57856Y615086D01*
X55968Y614124D01*
X53952Y613469D01*
X52323Y613211D01*
X52323Y625077D01*
G37*
%LPD*%
%LPC*%
G36*
X517923Y49277D02*
X517923Y49277D01*
X529789Y49277D01*
X529531Y47648D01*
X528876Y45632D01*
X527914Y43744D01*
X526669Y42030D01*
X525170Y40531D01*
X523456Y39286D01*
X521568Y38324D01*
X519552Y37669D01*
X517923Y37411D01*
X517923Y49277D01*
G37*
%LPD*%
%LPC*%
G36*
X334811Y52323D02*
X334811Y52323D01*
X335069Y53952D01*
X335724Y55968D01*
X336686Y57856D01*
X337931Y59570D01*
X339430Y61069D01*
X341144Y62314D01*
X343032Y63276D01*
X345048Y63931D01*
X346677Y64189D01*
X346677Y52323D01*
X334811Y52323D01*
G37*
%LPD*%
%LPC*%
G36*
X384611Y839723D02*
X384611Y839723D01*
X384869Y841352D01*
X385524Y843368D01*
X386486Y845256D01*
X387731Y846970D01*
X389230Y848469D01*
X390944Y849714D01*
X392832Y850676D01*
X394848Y851331D01*
X396477Y851589D01*
X396477Y839723D01*
X384611Y839723D01*
G37*
%LPD*%
%LPC*%
G36*
X181411Y839723D02*
X181411Y839723D01*
X181669Y841352D01*
X182324Y843368D01*
X183286Y845256D01*
X184531Y846970D01*
X186030Y848469D01*
X187744Y849714D01*
X189632Y850676D01*
X191648Y851331D01*
X193277Y851589D01*
X193277Y839723D01*
X181411Y839723D01*
G37*
%LPD*%
%LPC*%
G36*
X52323Y523477D02*
X52323Y523477D01*
X64189Y523477D01*
X63931Y521848D01*
X63276Y519832D01*
X62314Y517944D01*
X61069Y516230D01*
X59570Y514731D01*
X57856Y513486D01*
X55968Y512524D01*
X53952Y511869D01*
X52323Y511611D01*
X52323Y523477D01*
G37*
%LPD*%
%LPC*%
G36*
X37411Y526523D02*
X37411Y526523D01*
X37669Y528152D01*
X38324Y530168D01*
X39286Y532056D01*
X40531Y533770D01*
X42030Y535269D01*
X43744Y536514D01*
X45632Y537476D01*
X47648Y538131D01*
X49277Y538389D01*
X49277Y526523D01*
X37411Y526523D01*
G37*
%LPD*%
%LPC*%
G36*
X223611Y52323D02*
X223611Y52323D01*
X223869Y53952D01*
X224524Y55968D01*
X225486Y57856D01*
X226731Y59570D01*
X228230Y61069D01*
X229944Y62314D01*
X231832Y63276D01*
X233848Y63931D01*
X235477Y64189D01*
X235477Y52323D01*
X223611Y52323D01*
G37*
%LPD*%
%LPC*%
G36*
X233848Y37669D02*
X233848Y37669D01*
X231832Y38324D01*
X229944Y39286D01*
X228230Y40531D01*
X226731Y42030D01*
X225486Y43744D01*
X224524Y45632D01*
X223869Y47648D01*
X223611Y49277D01*
X235477Y49277D01*
X235477Y37411D01*
X233848Y37669D01*
G37*
%LPD*%
%LPC*%
G36*
X47648Y410269D02*
X47648Y410269D01*
X45632Y410924D01*
X43744Y411886D01*
X42030Y413131D01*
X40531Y414630D01*
X39286Y416344D01*
X38324Y418232D01*
X37669Y420248D01*
X37411Y421877D01*
X49277Y421877D01*
X49277Y410011D01*
X47648Y410269D01*
G37*
%LPD*%
%LPC*%
G36*
X191648Y825069D02*
X191648Y825069D01*
X189632Y825724D01*
X187744Y826686D01*
X186030Y827931D01*
X184531Y829430D01*
X183286Y831144D01*
X182324Y833032D01*
X181669Y835048D01*
X181411Y836677D01*
X193277Y836677D01*
X193277Y824811D01*
X191648Y825069D01*
G37*
%LPD*%
%LPC*%
G36*
X394848Y825069D02*
X394848Y825069D01*
X392832Y825724D01*
X390944Y826686D01*
X389230Y827931D01*
X387731Y829430D01*
X386486Y831144D01*
X385524Y833032D01*
X384869Y835048D01*
X384611Y836677D01*
X396477Y836677D01*
X396477Y824811D01*
X394848Y825069D01*
G37*
%LPD*%
%LPC*%
G36*
X47648Y689669D02*
X47648Y689669D01*
X45632Y690324D01*
X43744Y691286D01*
X42030Y692531D01*
X40531Y694030D01*
X39286Y695744D01*
X38324Y697632D01*
X37669Y699648D01*
X37411Y701277D01*
X49277Y701277D01*
X49277Y689411D01*
X47648Y689669D01*
G37*
%LPD*%
%LPC*%
G36*
X47648Y613469D02*
X47648Y613469D01*
X45632Y614124D01*
X43744Y615086D01*
X42030Y616331D01*
X40531Y617830D01*
X39286Y619544D01*
X38324Y621432D01*
X37669Y623448D01*
X37411Y625077D01*
X49277Y625077D01*
X49277Y613211D01*
X47648Y613469D01*
G37*
%LPD*%
%LPC*%
G36*
X47648Y511869D02*
X47648Y511869D01*
X45632Y512524D01*
X43744Y513486D01*
X42030Y514731D01*
X40531Y516230D01*
X39286Y517944D01*
X38324Y519832D01*
X37669Y521848D01*
X37411Y523477D01*
X49277Y523477D01*
X49277Y511611D01*
X47648Y511869D01*
G37*
%LPD*%
%LPC*%
G36*
X513248Y37669D02*
X513248Y37669D01*
X511232Y38324D01*
X509344Y39286D01*
X507630Y40531D01*
X506131Y42030D01*
X504886Y43744D01*
X503924Y45632D01*
X503269Y47648D01*
X503011Y49277D01*
X514877Y49277D01*
X514877Y37411D01*
X513248Y37669D01*
G37*
%LPD*%
%LPC*%
G36*
X411648Y37669D02*
X411648Y37669D01*
X409632Y38324D01*
X407744Y39286D01*
X406030Y40531D01*
X404531Y42030D01*
X403286Y43744D01*
X402324Y45632D01*
X401669Y47648D01*
X401411Y49277D01*
X413277Y49277D01*
X413277Y37411D01*
X411648Y37669D01*
G37*
%LPD*%
%LPC*%
G36*
X345048Y37669D02*
X345048Y37669D01*
X343032Y38324D01*
X341144Y39286D01*
X339430Y40531D01*
X337931Y42030D01*
X336686Y43744D01*
X335724Y45632D01*
X335069Y47648D01*
X334811Y49277D01*
X346677Y49277D01*
X346677Y37411D01*
X345048Y37669D01*
G37*
%LPD*%
%LPC*%
G36*
X560323Y242823D02*
X560323Y242823D01*
X560323Y256925D01*
X561467Y256697D01*
X563132Y256008D01*
X564630Y255007D01*
X565903Y253734D01*
X566904Y252236D01*
X567593Y250571D01*
X567945Y248805D01*
X567945Y242823D01*
X560323Y242823D01*
G37*
%LPD*%
%LPC*%
G36*
X560323Y239777D02*
X560323Y239777D01*
X567945Y239777D01*
X567945Y233795D01*
X567593Y232029D01*
X566904Y230364D01*
X565903Y228866D01*
X564630Y227593D01*
X563132Y226592D01*
X561467Y225903D01*
X560323Y225675D01*
X560323Y239777D01*
G37*
%LPD*%
%LPC*%
G36*
X549655Y242823D02*
X549655Y242823D01*
X549655Y248805D01*
X550007Y250571D01*
X550696Y252236D01*
X551697Y253734D01*
X552970Y255007D01*
X554468Y256008D01*
X556133Y256697D01*
X557277Y256925D01*
X557277Y242823D01*
X549655Y242823D01*
G37*
%LPD*%
%LPC*%
G36*
X556133Y225903D02*
X556133Y225903D01*
X554468Y226592D01*
X552970Y227593D01*
X551697Y228866D01*
X550696Y230364D01*
X550007Y232029D01*
X549655Y233795D01*
X549655Y239777D01*
X557277Y239777D01*
X557277Y225675D01*
X556133Y225903D01*
G37*
%LPD*%
%LPC*%
G36*
X315823Y687323D02*
X315823Y687323D01*
X315823Y696341D01*
X321134Y696341D01*
X321781Y696168D01*
X322360Y695833D01*
X322833Y695360D01*
X323168Y694781D01*
X323341Y694134D01*
X323341Y687323D01*
X315823Y687323D01*
G37*
%LPD*%
%LPC*%
G36*
X315823Y675259D02*
X315823Y675259D01*
X315823Y684277D01*
X323341Y684277D01*
X323341Y677466D01*
X323168Y676819D01*
X322833Y676240D01*
X322360Y675767D01*
X321781Y675432D01*
X321134Y675259D01*
X315823Y675259D01*
G37*
%LPD*%
%LPC*%
G36*
X558799Y241299D02*
X558799Y241299D01*
X558799Y241301D01*
X558801Y241301D01*
X558801Y241299D01*
X558799Y241299D01*
G37*
%LPD*%
%LPC*%
G36*
X609599Y431799D02*
X609599Y431799D01*
X609599Y431801D01*
X609601Y431801D01*
X609601Y431799D01*
X609599Y431799D01*
G37*
%LPD*%
%LPC*%
G36*
X194799Y838199D02*
X194799Y838199D01*
X194799Y838201D01*
X194801Y838201D01*
X194801Y838199D01*
X194799Y838199D01*
G37*
%LPD*%
%LPC*%
G36*
X516399Y50799D02*
X516399Y50799D01*
X516399Y50801D01*
X516401Y50801D01*
X516401Y50799D01*
X516399Y50799D01*
G37*
%LPD*%
%LPC*%
G36*
X414799Y50799D02*
X414799Y50799D01*
X414799Y50801D01*
X414801Y50801D01*
X414801Y50799D01*
X414799Y50799D01*
G37*
%LPD*%
%LPC*%
G36*
X348199Y50799D02*
X348199Y50799D01*
X348199Y50801D01*
X348201Y50801D01*
X348201Y50799D01*
X348199Y50799D01*
G37*
%LPD*%
%LPC*%
G36*
X236999Y50799D02*
X236999Y50799D01*
X236999Y50801D01*
X237001Y50801D01*
X237001Y50799D01*
X236999Y50799D01*
G37*
%LPD*%
%LPC*%
G36*
X397999Y838199D02*
X397999Y838199D01*
X397999Y838201D01*
X398001Y838201D01*
X398001Y838199D01*
X397999Y838199D01*
G37*
%LPD*%
%LPC*%
G36*
X558799Y584199D02*
X558799Y584199D01*
X558799Y584201D01*
X558801Y584201D01*
X558801Y584199D01*
X558799Y584199D01*
G37*
%LPD*%
%LPC*%
G36*
X50799Y702799D02*
X50799Y702799D01*
X50799Y702801D01*
X50801Y702801D01*
X50801Y702799D01*
X50799Y702799D01*
G37*
%LPD*%
%LPC*%
G36*
X50799Y626599D02*
X50799Y626599D01*
X50799Y626601D01*
X50801Y626601D01*
X50801Y626599D01*
X50799Y626599D01*
G37*
%LPD*%
%LPC*%
G36*
X50799Y423399D02*
X50799Y423399D01*
X50799Y423401D01*
X50801Y423401D01*
X50801Y423399D01*
X50799Y423399D01*
G37*
%LPD*%
%LPC*%
G36*
X50799Y524999D02*
X50799Y524999D01*
X50799Y525001D01*
X50801Y525001D01*
X50801Y524999D01*
X50799Y524999D01*
G37*
%LPD*%
D10*
X0Y0D02*
X762000Y0D01*
X762000Y889000D01*
X0Y889000D01*
X0Y0D01*
X33300Y50800D02*
X33305Y51229D01*
X33321Y51659D01*
X33347Y52087D01*
X33384Y52515D01*
X33432Y52942D01*
X33489Y53368D01*
X33558Y53792D01*
X33636Y54214D01*
X33725Y54634D01*
X33824Y55052D01*
X33934Y55467D01*
X34054Y55880D01*
X34183Y56289D01*
X34323Y56696D01*
X34473Y57098D01*
X34632Y57497D01*
X34801Y57892D01*
X34980Y58282D01*
X35169Y58668D01*
X35366Y59049D01*
X35573Y59426D01*
X35790Y59797D01*
X36015Y60162D01*
X36249Y60522D01*
X36492Y60877D01*
X36744Y61225D01*
X37004Y61567D01*
X37272Y61902D01*
X37549Y62231D01*
X37833Y62552D01*
X38126Y62867D01*
X38426Y63174D01*
X38733Y63474D01*
X39048Y63767D01*
X39369Y64051D01*
X39698Y64328D01*
X40033Y64596D01*
X40375Y64856D01*
X40723Y65108D01*
X41078Y65351D01*
X41438Y65585D01*
X41803Y65810D01*
X42174Y66027D01*
X42551Y66234D01*
X42932Y66431D01*
X43318Y66620D01*
X43708Y66799D01*
X44103Y66968D01*
X44502Y67127D01*
X44904Y67277D01*
X45311Y67417D01*
X45720Y67546D01*
X46133Y67666D01*
X46548Y67776D01*
X46966Y67875D01*
X47386Y67964D01*
X47808Y68042D01*
X48232Y68111D01*
X48658Y68168D01*
X49085Y68216D01*
X49513Y68253D01*
X49941Y68279D01*
X50371Y68295D01*
X50800Y68300D01*
X51229Y68295D01*
X51659Y68279D01*
X52087Y68253D01*
X52515Y68216D01*
X52942Y68168D01*
X53368Y68111D01*
X53792Y68042D01*
X54214Y67964D01*
X54634Y67875D01*
X55052Y67776D01*
X55467Y67666D01*
X55880Y67546D01*
X56289Y67417D01*
X56696Y67277D01*
X57098Y67127D01*
X57497Y66968D01*
X57892Y66799D01*
X58282Y66620D01*
X58668Y66431D01*
X59049Y66234D01*
X59426Y66027D01*
X59797Y65810D01*
X60162Y65585D01*
X60522Y65351D01*
X60877Y65108D01*
X61225Y64856D01*
X61567Y64596D01*
X61902Y64328D01*
X62231Y64051D01*
X62552Y63767D01*
X62867Y63474D01*
X63174Y63174D01*
X63474Y62867D01*
X63767Y62552D01*
X64051Y62231D01*
X64328Y61902D01*
X64596Y61567D01*
X64856Y61225D01*
X65108Y60877D01*
X65351Y60522D01*
X65585Y60162D01*
X65810Y59797D01*
X66027Y59426D01*
X66234Y59049D01*
X66431Y58668D01*
X66620Y58282D01*
X66799Y57892D01*
X66968Y57497D01*
X67127Y57098D01*
X67277Y56696D01*
X67417Y56289D01*
X67546Y55880D01*
X67666Y55467D01*
X67776Y55052D01*
X67875Y54634D01*
X67964Y54214D01*
X68042Y53792D01*
X68111Y53368D01*
X68168Y52942D01*
X68216Y52515D01*
X68253Y52087D01*
X68279Y51659D01*
X68295Y51229D01*
X68300Y50800D01*
X68295Y50371D01*
X68279Y49941D01*
X68253Y49513D01*
X68216Y49085D01*
X68168Y48658D01*
X68111Y48232D01*
X68042Y47808D01*
X67964Y47386D01*
X67875Y46966D01*
X67776Y46548D01*
X67666Y46133D01*
X67546Y45720D01*
X67417Y45311D01*
X67277Y44904D01*
X67127Y44502D01*
X66968Y44103D01*
X66799Y43708D01*
X66620Y43318D01*
X66431Y42932D01*
X66234Y42551D01*
X66027Y42174D01*
X65810Y41803D01*
X65585Y41438D01*
X65351Y41078D01*
X65108Y40723D01*
X64856Y40375D01*
X64596Y40033D01*
X64328Y39698D01*
X64051Y39369D01*
X63767Y39048D01*
X63474Y38733D01*
X63174Y38426D01*
X62867Y38126D01*
X62552Y37833D01*
X62231Y37549D01*
X61902Y37272D01*
X61567Y37004D01*
X61225Y36744D01*
X60877Y36492D01*
X60522Y36249D01*
X60162Y36015D01*
X59797Y35790D01*
X59426Y35573D01*
X59049Y35366D01*
X58668Y35169D01*
X58282Y34980D01*
X57892Y34801D01*
X57497Y34632D01*
X57098Y34473D01*
X56696Y34323D01*
X56289Y34183D01*
X55880Y34054D01*
X55467Y33934D01*
X55052Y33824D01*
X54634Y33725D01*
X54214Y33636D01*
X53792Y33558D01*
X53368Y33489D01*
X52942Y33432D01*
X52515Y33384D01*
X52087Y33347D01*
X51659Y33321D01*
X51229Y33305D01*
X50800Y33300D01*
X50371Y33305D01*
X49941Y33321D01*
X49513Y33347D01*
X49085Y33384D01*
X48658Y33432D01*
X48232Y33489D01*
X47808Y33558D01*
X47386Y33636D01*
X46966Y33725D01*
X46548Y33824D01*
X46133Y33934D01*
X45720Y34054D01*
X45311Y34183D01*
X44904Y34323D01*
X44502Y34473D01*
X44103Y34632D01*
X43708Y34801D01*
X43318Y34980D01*
X42932Y35169D01*
X42551Y35366D01*
X42174Y35573D01*
X41803Y35790D01*
X41438Y36015D01*
X41078Y36249D01*
X40723Y36492D01*
X40375Y36744D01*
X40033Y37004D01*
X39698Y37272D01*
X39369Y37549D01*
X39048Y37833D01*
X38733Y38126D01*
X38426Y38426D01*
X38126Y38733D01*
X37833Y39048D01*
X37549Y39369D01*
X37272Y39698D01*
X37004Y40033D01*
X36744Y40375D01*
X36492Y40723D01*
X36249Y41078D01*
X36015Y41438D01*
X35790Y41803D01*
X35573Y42174D01*
X35366Y42551D01*
X35169Y42932D01*
X34980Y43318D01*
X34801Y43708D01*
X34632Y44103D01*
X34473Y44502D01*
X34323Y44904D01*
X34183Y45311D01*
X34054Y45720D01*
X33934Y46133D01*
X33824Y46548D01*
X33725Y46966D01*
X33636Y47386D01*
X33558Y47808D01*
X33489Y48232D01*
X33432Y48658D01*
X33384Y49085D01*
X33347Y49513D01*
X33321Y49941D01*
X33305Y50371D01*
X33300Y50800D01*
X693700Y50800D02*
X693705Y51229D01*
X693721Y51659D01*
X693747Y52087D01*
X693784Y52515D01*
X693832Y52942D01*
X693889Y53368D01*
X693958Y53792D01*
X694036Y54214D01*
X694125Y54634D01*
X694224Y55052D01*
X694334Y55467D01*
X694454Y55880D01*
X694583Y56289D01*
X694723Y56696D01*
X694873Y57098D01*
X695032Y57497D01*
X695201Y57892D01*
X695380Y58282D01*
X695569Y58668D01*
X695766Y59049D01*
X695973Y59426D01*
X696190Y59797D01*
X696415Y60162D01*
X696649Y60522D01*
X696892Y60877D01*
X697144Y61225D01*
X697404Y61567D01*
X697672Y61902D01*
X697949Y62231D01*
X698233Y62552D01*
X698526Y62867D01*
X698826Y63174D01*
X699133Y63474D01*
X699448Y63767D01*
X699769Y64051D01*
X700098Y64328D01*
X700433Y64596D01*
X700775Y64856D01*
X701123Y65108D01*
X701478Y65351D01*
X701838Y65585D01*
X702203Y65810D01*
X702574Y66027D01*
X702951Y66234D01*
X703332Y66431D01*
X703718Y66620D01*
X704108Y66799D01*
X704503Y66968D01*
X704902Y67127D01*
X705304Y67277D01*
X705711Y67417D01*
X706120Y67546D01*
X706533Y67666D01*
X706948Y67776D01*
X707366Y67875D01*
X707786Y67964D01*
X708208Y68042D01*
X708632Y68111D01*
X709058Y68168D01*
X709485Y68216D01*
X709913Y68253D01*
X710341Y68279D01*
X710771Y68295D01*
X711200Y68300D01*
X711629Y68295D01*
X712059Y68279D01*
X712487Y68253D01*
X712915Y68216D01*
X713342Y68168D01*
X713768Y68111D01*
X714192Y68042D01*
X714614Y67964D01*
X715034Y67875D01*
X715452Y67776D01*
X715867Y67666D01*
X716280Y67546D01*
X716689Y67417D01*
X717096Y67277D01*
X717498Y67127D01*
X717897Y66968D01*
X718292Y66799D01*
X718682Y66620D01*
X719068Y66431D01*
X719449Y66234D01*
X719826Y66027D01*
X720197Y65810D01*
X720562Y65585D01*
X720922Y65351D01*
X721277Y65108D01*
X721625Y64856D01*
X721967Y64596D01*
X722302Y64328D01*
X722631Y64051D01*
X722952Y63767D01*
X723267Y63474D01*
X723574Y63174D01*
X723874Y62867D01*
X724167Y62552D01*
X724451Y62231D01*
X724728Y61902D01*
X724996Y61567D01*
X725256Y61225D01*
X725508Y60877D01*
X725751Y60522D01*
X725985Y60162D01*
X726210Y59797D01*
X726427Y59426D01*
X726634Y59049D01*
X726831Y58668D01*
X727020Y58282D01*
X727199Y57892D01*
X727368Y57497D01*
X727527Y57098D01*
X727677Y56696D01*
X727817Y56289D01*
X727946Y55880D01*
X728066Y55467D01*
X728176Y55052D01*
X728275Y54634D01*
X728364Y54214D01*
X728442Y53792D01*
X728511Y53368D01*
X728568Y52942D01*
X728616Y52515D01*
X728653Y52087D01*
X728679Y51659D01*
X728695Y51229D01*
X728700Y50800D01*
X728695Y50371D01*
X728679Y49941D01*
X728653Y49513D01*
X728616Y49085D01*
X728568Y48658D01*
X728511Y48232D01*
X728442Y47808D01*
X728364Y47386D01*
X728275Y46966D01*
X728176Y46548D01*
X728066Y46133D01*
X727946Y45720D01*
X727817Y45311D01*
X727677Y44904D01*
X727527Y44502D01*
X727368Y44103D01*
X727199Y43708D01*
X727020Y43318D01*
X726831Y42932D01*
X726634Y42551D01*
X726427Y42174D01*
X726210Y41803D01*
X725985Y41438D01*
X725751Y41078D01*
X725508Y40723D01*
X725256Y40375D01*
X724996Y40033D01*
X724728Y39698D01*
X724451Y39369D01*
X724167Y39048D01*
X723874Y38733D01*
X723574Y38426D01*
X723267Y38126D01*
X722952Y37833D01*
X722631Y37549D01*
X722302Y37272D01*
X721967Y37004D01*
X721625Y36744D01*
X721277Y36492D01*
X720922Y36249D01*
X720562Y36015D01*
X720197Y35790D01*
X719826Y35573D01*
X719449Y35366D01*
X719068Y35169D01*
X718682Y34980D01*
X718292Y34801D01*
X717897Y34632D01*
X717498Y34473D01*
X717096Y34323D01*
X716689Y34183D01*
X716280Y34054D01*
X715867Y33934D01*
X715452Y33824D01*
X715034Y33725D01*
X714614Y33636D01*
X714192Y33558D01*
X713768Y33489D01*
X713342Y33432D01*
X712915Y33384D01*
X712487Y33347D01*
X712059Y33321D01*
X711629Y33305D01*
X711200Y33300D01*
X710771Y33305D01*
X710341Y33321D01*
X709913Y33347D01*
X709485Y33384D01*
X709058Y33432D01*
X708632Y33489D01*
X708208Y33558D01*
X707786Y33636D01*
X707366Y33725D01*
X706948Y33824D01*
X706533Y33934D01*
X706120Y34054D01*
X705711Y34183D01*
X705304Y34323D01*
X704902Y34473D01*
X704503Y34632D01*
X704108Y34801D01*
X703718Y34980D01*
X703332Y35169D01*
X702951Y35366D01*
X702574Y35573D01*
X702203Y35790D01*
X701838Y36015D01*
X701478Y36249D01*
X701123Y36492D01*
X700775Y36744D01*
X700433Y37004D01*
X700098Y37272D01*
X699769Y37549D01*
X699448Y37833D01*
X699133Y38126D01*
X698826Y38426D01*
X698526Y38733D01*
X698233Y39048D01*
X697949Y39369D01*
X697672Y39698D01*
X697404Y40033D01*
X697144Y40375D01*
X696892Y40723D01*
X696649Y41078D01*
X696415Y41438D01*
X696190Y41803D01*
X695973Y42174D01*
X695766Y42551D01*
X695569Y42932D01*
X695380Y43318D01*
X695201Y43708D01*
X695032Y44103D01*
X694873Y44502D01*
X694723Y44904D01*
X694583Y45311D01*
X694454Y45720D01*
X694334Y46133D01*
X694224Y46548D01*
X694125Y46966D01*
X694036Y47386D01*
X693958Y47808D01*
X693889Y48232D01*
X693832Y48658D01*
X693784Y49085D01*
X693747Y49513D01*
X693721Y49941D01*
X693705Y50371D01*
X693700Y50800D01*
X693700Y838200D02*
X693705Y838629D01*
X693721Y839059D01*
X693747Y839487D01*
X693784Y839915D01*
X693832Y840342D01*
X693889Y840768D01*
X693958Y841192D01*
X694036Y841614D01*
X694125Y842034D01*
X694224Y842452D01*
X694334Y842867D01*
X694454Y843280D01*
X694583Y843689D01*
X694723Y844096D01*
X694873Y844498D01*
X695032Y844897D01*
X695201Y845292D01*
X695380Y845682D01*
X695569Y846068D01*
X695766Y846449D01*
X695973Y846826D01*
X696190Y847197D01*
X696415Y847562D01*
X696649Y847922D01*
X696892Y848277D01*
X697144Y848625D01*
X697404Y848967D01*
X697672Y849302D01*
X697949Y849631D01*
X698233Y849952D01*
X698526Y850267D01*
X698826Y850574D01*
X699133Y850874D01*
X699448Y851167D01*
X699769Y851451D01*
X700098Y851728D01*
X700433Y851996D01*
X700775Y852256D01*
X701123Y852508D01*
X701478Y852751D01*
X701838Y852985D01*
X702203Y853210D01*
X702574Y853427D01*
X702951Y853634D01*
X703332Y853831D01*
X703718Y854020D01*
X704108Y854199D01*
X704503Y854368D01*
X704902Y854527D01*
X705304Y854677D01*
X705711Y854817D01*
X706120Y854946D01*
X706533Y855066D01*
X706948Y855176D01*
X707366Y855275D01*
X707786Y855364D01*
X708208Y855442D01*
X708632Y855511D01*
X709058Y855568D01*
X709485Y855616D01*
X709913Y855653D01*
X710341Y855679D01*
X710771Y855695D01*
X711200Y855700D01*
X711629Y855695D01*
X712059Y855679D01*
X712487Y855653D01*
X712915Y855616D01*
X713342Y855568D01*
X713768Y855511D01*
X714192Y855442D01*
X714614Y855364D01*
X715034Y855275D01*
X715452Y855176D01*
X715867Y855066D01*
X716280Y854946D01*
X716689Y854817D01*
X717096Y854677D01*
X717498Y854527D01*
X717897Y854368D01*
X718292Y854199D01*
X718682Y854020D01*
X719068Y853831D01*
X719449Y853634D01*
X719826Y853427D01*
X720197Y853210D01*
X720562Y852985D01*
X720922Y852751D01*
X721277Y852508D01*
X721625Y852256D01*
X721967Y851996D01*
X722302Y851728D01*
X722631Y851451D01*
X722952Y851167D01*
X723267Y850874D01*
X723574Y850574D01*
X723874Y850267D01*
X724167Y849952D01*
X724451Y849631D01*
X724728Y849302D01*
X724996Y848967D01*
X725256Y848625D01*
X725508Y848277D01*
X725751Y847922D01*
X725985Y847562D01*
X726210Y847197D01*
X726427Y846826D01*
X726634Y846449D01*
X726831Y846068D01*
X727020Y845682D01*
X727199Y845292D01*
X727368Y844897D01*
X727527Y844498D01*
X727677Y844096D01*
X727817Y843689D01*
X727946Y843280D01*
X728066Y842867D01*
X728176Y842452D01*
X728275Y842034D01*
X728364Y841614D01*
X728442Y841192D01*
X728511Y840768D01*
X728568Y840342D01*
X728616Y839915D01*
X728653Y839487D01*
X728679Y839059D01*
X728695Y838629D01*
X728700Y838200D01*
X728695Y837771D01*
X728679Y837341D01*
X728653Y836913D01*
X728616Y836485D01*
X728568Y836058D01*
X728511Y835632D01*
X728442Y835208D01*
X728364Y834786D01*
X728275Y834366D01*
X728176Y833948D01*
X728066Y833533D01*
X727946Y833120D01*
X727817Y832711D01*
X727677Y832304D01*
X727527Y831902D01*
X727368Y831503D01*
X727199Y831108D01*
X727020Y830718D01*
X726831Y830332D01*
X726634Y829951D01*
X726427Y829574D01*
X726210Y829203D01*
X725985Y828838D01*
X725751Y828478D01*
X725508Y828123D01*
X725256Y827775D01*
X724996Y827433D01*
X724728Y827098D01*
X724451Y826769D01*
X724167Y826448D01*
X723874Y826133D01*
X723574Y825826D01*
X723267Y825526D01*
X722952Y825233D01*
X722631Y824949D01*
X722302Y824672D01*
X721967Y824404D01*
X721625Y824144D01*
X721277Y823892D01*
X720922Y823649D01*
X720562Y823415D01*
X720197Y823190D01*
X719826Y822973D01*
X719449Y822766D01*
X719068Y822569D01*
X718682Y822380D01*
X718292Y822201D01*
X717897Y822032D01*
X717498Y821873D01*
X717096Y821723D01*
X716689Y821583D01*
X716280Y821454D01*
X715867Y821334D01*
X715452Y821224D01*
X715034Y821125D01*
X714614Y821036D01*
X714192Y820958D01*
X713768Y820889D01*
X713342Y820832D01*
X712915Y820784D01*
X712487Y820747D01*
X712059Y820721D01*
X711629Y820705D01*
X711200Y820700D01*
X710771Y820705D01*
X710341Y820721D01*
X709913Y820747D01*
X709485Y820784D01*
X709058Y820832D01*
X708632Y820889D01*
X708208Y820958D01*
X707786Y821036D01*
X707366Y821125D01*
X706948Y821224D01*
X706533Y821334D01*
X706120Y821454D01*
X705711Y821583D01*
X705304Y821723D01*
X704902Y821873D01*
X704503Y822032D01*
X704108Y822201D01*
X703718Y822380D01*
X703332Y822569D01*
X702951Y822766D01*
X702574Y822973D01*
X702203Y823190D01*
X701838Y823415D01*
X701478Y823649D01*
X701123Y823892D01*
X700775Y824144D01*
X700433Y824404D01*
X700098Y824672D01*
X699769Y824949D01*
X699448Y825233D01*
X699133Y825526D01*
X698826Y825826D01*
X698526Y826133D01*
X698233Y826448D01*
X697949Y826769D01*
X697672Y827098D01*
X697404Y827433D01*
X697144Y827775D01*
X696892Y828123D01*
X696649Y828478D01*
X696415Y828838D01*
X696190Y829203D01*
X695973Y829574D01*
X695766Y829951D01*
X695569Y830332D01*
X695380Y830718D01*
X695201Y831108D01*
X695032Y831503D01*
X694873Y831902D01*
X694723Y832304D01*
X694583Y832711D01*
X694454Y833120D01*
X694334Y833533D01*
X694224Y833948D01*
X694125Y834366D01*
X694036Y834786D01*
X693958Y835208D01*
X693889Y835632D01*
X693832Y836058D01*
X693784Y836485D01*
X693747Y836913D01*
X693721Y837341D01*
X693705Y837771D01*
X693700Y838200D01*
X33300Y838200D02*
X33305Y838629D01*
X33321Y839059D01*
X33347Y839487D01*
X33384Y839915D01*
X33432Y840342D01*
X33489Y840768D01*
X33558Y841192D01*
X33636Y841614D01*
X33725Y842034D01*
X33824Y842452D01*
X33934Y842867D01*
X34054Y843280D01*
X34183Y843689D01*
X34323Y844096D01*
X34473Y844498D01*
X34632Y844897D01*
X34801Y845292D01*
X34980Y845682D01*
X35169Y846068D01*
X35366Y846449D01*
X35573Y846826D01*
X35790Y847197D01*
X36015Y847562D01*
X36249Y847922D01*
X36492Y848277D01*
X36744Y848625D01*
X37004Y848967D01*
X37272Y849302D01*
X37549Y849631D01*
X37833Y849952D01*
X38126Y850267D01*
X38426Y850574D01*
X38733Y850874D01*
X39048Y851167D01*
X39369Y851451D01*
X39698Y851728D01*
X40033Y851996D01*
X40375Y852256D01*
X40723Y852508D01*
X41078Y852751D01*
X41438Y852985D01*
X41803Y853210D01*
X42174Y853427D01*
X42551Y853634D01*
X42932Y853831D01*
X43318Y854020D01*
X43708Y854199D01*
X44103Y854368D01*
X44502Y854527D01*
X44904Y854677D01*
X45311Y854817D01*
X45720Y854946D01*
X46133Y855066D01*
X46548Y855176D01*
X46966Y855275D01*
X47386Y855364D01*
X47808Y855442D01*
X48232Y855511D01*
X48658Y855568D01*
X49085Y855616D01*
X49513Y855653D01*
X49941Y855679D01*
X50371Y855695D01*
X50800Y855700D01*
X51229Y855695D01*
X51659Y855679D01*
X52087Y855653D01*
X52515Y855616D01*
X52942Y855568D01*
X53368Y855511D01*
X53792Y855442D01*
X54214Y855364D01*
X54634Y855275D01*
X55052Y855176D01*
X55467Y855066D01*
X55880Y854946D01*
X56289Y854817D01*
X56696Y854677D01*
X57098Y854527D01*
X57497Y854368D01*
X57892Y854199D01*
X58282Y854020D01*
X58668Y853831D01*
X59049Y853634D01*
X59426Y853427D01*
X59797Y853210D01*
X60162Y852985D01*
X60522Y852751D01*
X60877Y852508D01*
X61225Y852256D01*
X61567Y851996D01*
X61902Y851728D01*
X62231Y851451D01*
X62552Y851167D01*
X62867Y850874D01*
X63174Y850574D01*
X63474Y850267D01*
X63767Y849952D01*
X64051Y849631D01*
X64328Y849302D01*
X64596Y848967D01*
X64856Y848625D01*
X65108Y848277D01*
X65351Y847922D01*
X65585Y847562D01*
X65810Y847197D01*
X66027Y846826D01*
X66234Y846449D01*
X66431Y846068D01*
X66620Y845682D01*
X66799Y845292D01*
X66968Y844897D01*
X67127Y844498D01*
X67277Y844096D01*
X67417Y843689D01*
X67546Y843280D01*
X67666Y842867D01*
X67776Y842452D01*
X67875Y842034D01*
X67964Y841614D01*
X68042Y841192D01*
X68111Y840768D01*
X68168Y840342D01*
X68216Y839915D01*
X68253Y839487D01*
X68279Y839059D01*
X68295Y838629D01*
X68300Y838200D01*
X68295Y837771D01*
X68279Y837341D01*
X68253Y836913D01*
X68216Y836485D01*
X68168Y836058D01*
X68111Y835632D01*
X68042Y835208D01*
X67964Y834786D01*
X67875Y834366D01*
X67776Y833948D01*
X67666Y833533D01*
X67546Y833120D01*
X67417Y832711D01*
X67277Y832304D01*
X67127Y831902D01*
X66968Y831503D01*
X66799Y831108D01*
X66620Y830718D01*
X66431Y830332D01*
X66234Y829951D01*
X66027Y829574D01*
X65810Y829203D01*
X65585Y828838D01*
X65351Y828478D01*
X65108Y828123D01*
X64856Y827775D01*
X64596Y827433D01*
X64328Y827098D01*
X64051Y826769D01*
X63767Y826448D01*
X63474Y826133D01*
X63174Y825826D01*
X62867Y825526D01*
X62552Y825233D01*
X62231Y824949D01*
X61902Y824672D01*
X61567Y824404D01*
X61225Y824144D01*
X60877Y823892D01*
X60522Y823649D01*
X60162Y823415D01*
X59797Y823190D01*
X59426Y822973D01*
X59049Y822766D01*
X58668Y822569D01*
X58282Y822380D01*
X57892Y822201D01*
X57497Y822032D01*
X57098Y821873D01*
X56696Y821723D01*
X56289Y821583D01*
X55880Y821454D01*
X55467Y821334D01*
X55052Y821224D01*
X54634Y821125D01*
X54214Y821036D01*
X53792Y820958D01*
X53368Y820889D01*
X52942Y820832D01*
X52515Y820784D01*
X52087Y820747D01*
X51659Y820721D01*
X51229Y820705D01*
X50800Y820700D01*
X50371Y820705D01*
X49941Y820721D01*
X49513Y820747D01*
X49085Y820784D01*
X48658Y820832D01*
X48232Y820889D01*
X47808Y820958D01*
X47386Y821036D01*
X46966Y821125D01*
X46548Y821224D01*
X46133Y821334D01*
X45720Y821454D01*
X45311Y821583D01*
X44904Y821723D01*
X44502Y821873D01*
X44103Y822032D01*
X43708Y822201D01*
X43318Y822380D01*
X42932Y822569D01*
X42551Y822766D01*
X42174Y822973D01*
X41803Y823190D01*
X41438Y823415D01*
X41078Y823649D01*
X40723Y823892D01*
X40375Y824144D01*
X40033Y824404D01*
X39698Y824672D01*
X39369Y824949D01*
X39048Y825233D01*
X38733Y825526D01*
X38426Y825826D01*
X38126Y826133D01*
X37833Y826448D01*
X37549Y826769D01*
X37272Y827098D01*
X37004Y827433D01*
X36744Y827775D01*
X36492Y828123D01*
X36249Y828478D01*
X36015Y828838D01*
X35790Y829203D01*
X35573Y829574D01*
X35366Y829951D01*
X35169Y830332D01*
X34980Y830718D01*
X34801Y831108D01*
X34632Y831503D01*
X34473Y831902D01*
X34323Y832304D01*
X34183Y832711D01*
X34054Y833120D01*
X33934Y833533D01*
X33824Y833948D01*
X33725Y834366D01*
X33636Y834786D01*
X33558Y835208D01*
X33489Y835632D01*
X33432Y836058D01*
X33384Y836485D01*
X33347Y836913D01*
X33321Y837341D01*
X33305Y837771D01*
X33300Y838200D01*
D11*
X406400Y247904D02*
X406400Y234696D01*
X431800Y234696D02*
X431800Y247904D01*
X558800Y247904D02*
X558800Y234696D01*
X558800Y310896D02*
X558800Y324104D01*
X457200Y247904D02*
X457200Y234696D01*
X482600Y234696D02*
X482600Y247904D01*
X533400Y247904D02*
X533400Y234696D01*
X508000Y234696D02*
X508000Y247904D01*
X533400Y310896D02*
X533400Y324104D01*
X508000Y324104D02*
X508000Y310896D01*
X482600Y310896D02*
X482600Y324104D01*
X457200Y324104D02*
X457200Y310896D01*
X431800Y310896D02*
X431800Y324104D01*
X406400Y324104D02*
X406400Y310896D01*
D12*
X50800Y490000D03*
X50800Y525000D03*
X195800Y50800D03*
X160800Y50800D03*
X272000Y50800D03*
X237000Y50800D03*
X348200Y50800D03*
X313200Y50800D03*
X159800Y838200D03*
X194800Y838200D03*
X236000Y838200D03*
X271000Y838200D03*
X50800Y388400D03*
X50800Y423400D03*
X50800Y312200D03*
X50800Y347200D03*
D13*
X279400Y424180D02*
X279400Y439420D01*
X304800Y439420D02*
X304800Y424180D01*
X330200Y424180D02*
X330200Y439420D01*
X355600Y439420D02*
X355600Y424180D01*
X381000Y424180D02*
X381000Y439420D01*
X406400Y439420D02*
X406400Y424180D01*
X431800Y424180D02*
X431800Y439420D01*
X457200Y439420D02*
X457200Y424180D01*
X482600Y424180D02*
X482600Y439420D01*
X508000Y439420D02*
X508000Y424180D01*
X533400Y424180D02*
X533400Y439420D01*
X558800Y439420D02*
X558800Y424180D01*
X584200Y424180D02*
X584200Y439420D01*
X609600Y439420D02*
X609600Y424180D01*
X635000Y424180D02*
X635000Y439420D01*
X279400Y576580D02*
X279400Y591820D01*
X304800Y591820D02*
X304800Y576580D01*
X330200Y576580D02*
X330200Y591820D01*
X355600Y591820D02*
X355600Y576580D01*
X381000Y576580D02*
X381000Y591820D01*
X406400Y591820D02*
X406400Y576580D01*
X431800Y576580D02*
X431800Y591820D01*
X457200Y591820D02*
X457200Y576580D01*
X482600Y576580D02*
X482600Y591820D01*
X508000Y591820D02*
X508000Y576580D01*
X533400Y576580D02*
X533400Y591820D01*
X558800Y591820D02*
X558800Y576580D01*
X584200Y576580D02*
X584200Y591820D01*
X609600Y591820D02*
X609600Y576580D01*
X635000Y576580D02*
X635000Y591820D01*
D14*
X295300Y127000D03*
X314300Y127000D03*
X244500Y127000D03*
X263500Y127000D03*
X168300Y127000D03*
X187300Y127000D03*
D12*
X551400Y50800D03*
X516400Y50800D03*
X627600Y50800D03*
X592600Y50800D03*
X449800Y50800D03*
X414800Y50800D03*
D14*
X422300Y127000D03*
X441300Y127000D03*
D12*
X50800Y667800D03*
X50800Y702800D03*
X50800Y591600D03*
X50800Y626600D03*
X439200Y838200D03*
X474200Y838200D03*
X363000Y838200D03*
X398000Y838200D03*
D15*
X304800Y625500D03*
X304800Y644500D03*
D14*
X314300Y685800D03*
X295300Y685800D03*
D16*
X159800Y312200D02*
X50800Y312200D01*
X159800Y312200D02*
X279400Y431800D01*
X168300Y127000D02*
X168300Y104800D01*
X167640Y104140D01*
D17*
X167640Y104140D03*
D16*
X244500Y102260D02*
X244500Y127000D01*
X244500Y102260D02*
X243840Y101600D01*
D17*
X243840Y101600D03*
D16*
X295300Y127000D02*
X295300Y161900D01*
X294640Y162560D01*
D17*
X294640Y162560D03*
D16*
X398780Y127000D02*
X422300Y127000D01*
D17*
X398780Y127000D03*
D16*
X304800Y584200D02*
X304800Y625500D01*
X330200Y744000D02*
X236000Y838200D01*
X330200Y744000D02*
X330200Y584200D01*
X431800Y584200D02*
X431800Y677400D01*
X271000Y838200D01*
X449800Y118500D02*
X449800Y50800D01*
X449800Y118500D02*
X441300Y127000D01*
X483700Y118500D02*
X551400Y50800D01*
X483700Y118500D02*
X449800Y118500D01*
X441300Y127000D02*
X517500Y203200D01*
X566420Y203200D02*
X660400Y297180D01*
X660400Y449580D01*
X650240Y459740D01*
X556260Y459740D01*
X482600Y533400D01*
X482600Y584200D01*
X517500Y203200D02*
X566420Y203200D01*
D17*
X508000Y543560D03*
D16*
X571500Y480060D01*
X673100Y472440D02*
X673100Y271780D01*
D17*
X673100Y271780D03*
D16*
X665480Y480060D02*
X571500Y480060D01*
X665480Y480060D02*
X673100Y472440D01*
X609600Y558800D02*
X609600Y584200D01*
X609600Y558800D02*
X635000Y533400D01*
X660400Y533400D01*
X685800Y558800D01*
X685800Y626600D02*
X474200Y838200D01*
X685800Y626600D02*
X685800Y558800D01*
X635000Y584200D02*
X635000Y642400D01*
X439200Y838200D01*
X313200Y125900D02*
X313200Y50800D01*
X313200Y125900D02*
X314300Y127000D01*
X406400Y219100D01*
X406400Y241300D01*
X482600Y241300D02*
X482600Y223520D01*
X478180Y219100D02*
X406400Y219100D01*
X478180Y219100D02*
X482600Y223520D01*
X195800Y118500D02*
X195800Y50800D01*
X195800Y118500D02*
X187300Y127000D01*
X324460Y264160D01*
X421640Y264160D01*
X431800Y254000D01*
X431800Y241300D01*
X160800Y83040D02*
X160800Y50800D01*
X160800Y83040D02*
X142240Y101600D01*
X142240Y134620D01*
X287020Y279400D02*
X477520Y279400D01*
X508000Y248920D01*
X508000Y241300D01*
X287020Y279400D02*
X142240Y134620D01*
X272000Y118500D02*
X272000Y50800D01*
X272000Y118500D02*
X263500Y127000D01*
X277300Y667800D02*
X50800Y667800D01*
X277300Y667800D02*
X295300Y685800D01*
X304800Y655320D02*
X304800Y644500D01*
X304800Y655320D02*
X294640Y665480D01*
X294640Y685140D01*
X295300Y685800D01*
M02*
