G04 EAGLE Gerber RS-274X export*
G75*
%MOMM*%
%FSLAX34Y34*%
%LPD*%
%INTop Silkscreen*%
%IPPOS*%
%AMOC8*
5,1,8,0,0,1.08239X$1,22.5*%
G01*
%ADD10C,0.152400*%
%ADD11C,0.127000*%
%ADD12C,0.101600*%


D10*
X571500Y308610D02*
X393700Y308610D01*
X393700Y250190D02*
X571500Y250190D01*
X571500Y308610D01*
X393700Y308610D02*
X393700Y289560D01*
X393700Y269240D02*
X393700Y250190D01*
X393700Y269240D02*
X393947Y269243D01*
X394195Y269252D01*
X394442Y269267D01*
X394688Y269288D01*
X394934Y269315D01*
X395179Y269348D01*
X395424Y269387D01*
X395667Y269432D01*
X395909Y269483D01*
X396150Y269540D01*
X396389Y269602D01*
X396627Y269671D01*
X396863Y269745D01*
X397097Y269825D01*
X397329Y269910D01*
X397559Y270002D01*
X397787Y270098D01*
X398012Y270201D01*
X398235Y270308D01*
X398455Y270422D01*
X398672Y270540D01*
X398887Y270664D01*
X399098Y270793D01*
X399306Y270927D01*
X399511Y271066D01*
X399712Y271210D01*
X399910Y271358D01*
X400104Y271512D01*
X400294Y271670D01*
X400480Y271833D01*
X400662Y272000D01*
X400840Y272172D01*
X401014Y272348D01*
X401184Y272528D01*
X401349Y272713D01*
X401509Y272901D01*
X401665Y273093D01*
X401817Y273289D01*
X401963Y273488D01*
X402105Y273691D01*
X402241Y273898D01*
X402373Y274107D01*
X402499Y274320D01*
X402620Y274536D01*
X402736Y274754D01*
X402846Y274976D01*
X402951Y275200D01*
X403051Y275426D01*
X403145Y275655D01*
X403233Y275886D01*
X403316Y276120D01*
X403393Y276355D01*
X403464Y276592D01*
X403530Y276830D01*
X403589Y277070D01*
X403643Y277312D01*
X403691Y277555D01*
X403733Y277798D01*
X403769Y278043D01*
X403799Y278289D01*
X403823Y278535D01*
X403841Y278782D01*
X403853Y279029D01*
X403859Y279276D01*
X403859Y279524D01*
X403853Y279771D01*
X403841Y280018D01*
X403823Y280265D01*
X403799Y280511D01*
X403769Y280757D01*
X403733Y281002D01*
X403691Y281245D01*
X403643Y281488D01*
X403589Y281730D01*
X403530Y281970D01*
X403464Y282208D01*
X403393Y282445D01*
X403316Y282680D01*
X403233Y282914D01*
X403145Y283145D01*
X403051Y283374D01*
X402951Y283600D01*
X402846Y283824D01*
X402736Y284046D01*
X402620Y284264D01*
X402499Y284480D01*
X402373Y284693D01*
X402241Y284902D01*
X402105Y285109D01*
X401963Y285312D01*
X401817Y285511D01*
X401665Y285707D01*
X401509Y285899D01*
X401349Y286087D01*
X401184Y286272D01*
X401014Y286452D01*
X400840Y286628D01*
X400662Y286800D01*
X400480Y286967D01*
X400294Y287130D01*
X400104Y287288D01*
X399910Y287442D01*
X399712Y287590D01*
X399511Y287734D01*
X399306Y287873D01*
X399098Y288007D01*
X398887Y288136D01*
X398672Y288260D01*
X398455Y288378D01*
X398235Y288492D01*
X398012Y288599D01*
X397787Y288702D01*
X397559Y288798D01*
X397329Y288890D01*
X397097Y288975D01*
X396863Y289055D01*
X396627Y289129D01*
X396389Y289198D01*
X396150Y289260D01*
X395909Y289317D01*
X395667Y289368D01*
X395424Y289413D01*
X395179Y289452D01*
X394934Y289485D01*
X394688Y289512D01*
X394442Y289533D01*
X394195Y289548D01*
X393947Y289557D01*
X393700Y289560D01*
D11*
X389255Y250825D02*
X377825Y250825D01*
X389255Y249555D02*
X389255Y252095D01*
X377825Y252095D02*
X377825Y249555D01*
X389255Y259297D02*
X389255Y261837D01*
X389255Y259297D02*
X389253Y259197D01*
X389247Y259098D01*
X389237Y258998D01*
X389224Y258900D01*
X389206Y258801D01*
X389185Y258704D01*
X389160Y258608D01*
X389131Y258512D01*
X389098Y258418D01*
X389062Y258325D01*
X389022Y258234D01*
X388978Y258144D01*
X388931Y258056D01*
X388881Y257970D01*
X388827Y257886D01*
X388770Y257804D01*
X388710Y257725D01*
X388646Y257647D01*
X388580Y257573D01*
X388511Y257501D01*
X388439Y257432D01*
X388365Y257366D01*
X388287Y257302D01*
X388208Y257242D01*
X388126Y257185D01*
X388042Y257131D01*
X387956Y257081D01*
X387868Y257034D01*
X387778Y256990D01*
X387687Y256950D01*
X387594Y256914D01*
X387500Y256881D01*
X387404Y256852D01*
X387308Y256827D01*
X387211Y256806D01*
X387112Y256788D01*
X387014Y256775D01*
X386914Y256765D01*
X386815Y256759D01*
X386715Y256757D01*
X380365Y256757D01*
X380265Y256759D01*
X380166Y256765D01*
X380066Y256775D01*
X379968Y256788D01*
X379869Y256806D01*
X379772Y256827D01*
X379676Y256852D01*
X379580Y256881D01*
X379486Y256914D01*
X379393Y256950D01*
X379302Y256990D01*
X379212Y257034D01*
X379124Y257081D01*
X379038Y257131D01*
X378954Y257185D01*
X378872Y257242D01*
X378793Y257302D01*
X378715Y257366D01*
X378641Y257432D01*
X378569Y257501D01*
X378500Y257573D01*
X378434Y257647D01*
X378370Y257725D01*
X378310Y257804D01*
X378253Y257886D01*
X378199Y257970D01*
X378149Y258056D01*
X378102Y258144D01*
X378058Y258234D01*
X378018Y258325D01*
X377982Y258418D01*
X377949Y258512D01*
X377920Y258608D01*
X377895Y258704D01*
X377874Y258801D01*
X377856Y258900D01*
X377843Y258998D01*
X377833Y259098D01*
X377827Y259197D01*
X377825Y259297D01*
X377825Y261837D01*
X380365Y266319D02*
X377825Y269494D01*
X389255Y269494D01*
X389255Y266319D02*
X389255Y272669D01*
X415925Y283845D02*
X415925Y285115D01*
X422275Y285115D01*
X419100Y273685D01*
X427355Y276225D02*
X429895Y285115D01*
X427355Y276225D02*
X433705Y276225D01*
X431800Y278765D02*
X431800Y273685D01*
X439166Y273685D02*
X439166Y285115D01*
X439166Y280035D02*
X445516Y280035D01*
X445516Y285115D02*
X445516Y273685D01*
X453480Y273685D02*
X456020Y273685D01*
X453480Y273685D02*
X453380Y273687D01*
X453281Y273693D01*
X453181Y273703D01*
X453083Y273716D01*
X452984Y273734D01*
X452887Y273755D01*
X452791Y273780D01*
X452695Y273809D01*
X452601Y273842D01*
X452508Y273878D01*
X452417Y273918D01*
X452327Y273962D01*
X452239Y274009D01*
X452153Y274059D01*
X452069Y274113D01*
X451987Y274170D01*
X451908Y274230D01*
X451830Y274294D01*
X451756Y274360D01*
X451684Y274429D01*
X451615Y274501D01*
X451549Y274575D01*
X451485Y274653D01*
X451425Y274732D01*
X451368Y274814D01*
X451314Y274898D01*
X451264Y274984D01*
X451217Y275072D01*
X451173Y275162D01*
X451133Y275253D01*
X451097Y275346D01*
X451064Y275440D01*
X451035Y275536D01*
X451010Y275632D01*
X450989Y275729D01*
X450971Y275828D01*
X450958Y275926D01*
X450948Y276026D01*
X450942Y276125D01*
X450940Y276225D01*
X450940Y282575D01*
X450942Y282675D01*
X450948Y282774D01*
X450958Y282874D01*
X450971Y282972D01*
X450989Y283071D01*
X451010Y283168D01*
X451035Y283264D01*
X451064Y283360D01*
X451097Y283454D01*
X451133Y283547D01*
X451173Y283638D01*
X451217Y283728D01*
X451264Y283816D01*
X451314Y283902D01*
X451368Y283986D01*
X451425Y284068D01*
X451485Y284147D01*
X451549Y284225D01*
X451615Y284299D01*
X451684Y284371D01*
X451756Y284440D01*
X451830Y284506D01*
X451908Y284570D01*
X451987Y284630D01*
X452069Y284687D01*
X452153Y284741D01*
X452239Y284791D01*
X452327Y284838D01*
X452417Y284882D01*
X452508Y284922D01*
X452601Y284958D01*
X452695Y284991D01*
X452791Y285020D01*
X452887Y285045D01*
X452984Y285066D01*
X453083Y285084D01*
X453181Y285097D01*
X453281Y285107D01*
X453380Y285113D01*
X453480Y285115D01*
X456020Y285115D01*
X461454Y283527D02*
X461358Y283324D01*
X461267Y283119D01*
X461181Y282911D01*
X461100Y282701D01*
X461023Y282490D01*
X460952Y282277D01*
X460886Y282062D01*
X460825Y281845D01*
X460769Y281627D01*
X460719Y281408D01*
X460673Y281188D01*
X460633Y280967D01*
X460598Y280745D01*
X460569Y280522D01*
X460545Y280298D01*
X460526Y280074D01*
X460513Y279850D01*
X460505Y279625D01*
X460502Y279400D01*
X461454Y283528D02*
X461486Y283616D01*
X461522Y283703D01*
X461561Y283789D01*
X461604Y283873D01*
X461650Y283955D01*
X461699Y284035D01*
X461751Y284113D01*
X461807Y284189D01*
X461865Y284263D01*
X461927Y284334D01*
X461991Y284403D01*
X462058Y284469D01*
X462127Y284532D01*
X462199Y284593D01*
X462273Y284651D01*
X462350Y284705D01*
X462428Y284757D01*
X462509Y284805D01*
X462591Y284850D01*
X462676Y284892D01*
X462762Y284930D01*
X462849Y284965D01*
X462937Y284997D01*
X463027Y285024D01*
X463118Y285049D01*
X463210Y285069D01*
X463302Y285086D01*
X463396Y285099D01*
X463489Y285108D01*
X463583Y285114D01*
X463677Y285116D01*
X463771Y285114D01*
X463865Y285108D01*
X463958Y285099D01*
X464052Y285086D01*
X464144Y285069D01*
X464236Y285049D01*
X464327Y285024D01*
X464417Y284997D01*
X464505Y284965D01*
X464592Y284930D01*
X464678Y284892D01*
X464763Y284850D01*
X464845Y284805D01*
X464926Y284757D01*
X465004Y284705D01*
X465081Y284651D01*
X465155Y284593D01*
X465227Y284532D01*
X465296Y284469D01*
X465363Y284403D01*
X465427Y284334D01*
X465489Y284263D01*
X465547Y284189D01*
X465603Y284113D01*
X465655Y284035D01*
X465704Y283955D01*
X465750Y283873D01*
X465793Y283789D01*
X465832Y283703D01*
X465868Y283616D01*
X465900Y283528D01*
X465900Y283527D02*
X465996Y283324D01*
X466087Y283119D01*
X466173Y282911D01*
X466254Y282701D01*
X466331Y282490D01*
X466402Y282277D01*
X466468Y282062D01*
X466529Y281845D01*
X466585Y281627D01*
X466635Y281408D01*
X466681Y281188D01*
X466721Y280967D01*
X466756Y280745D01*
X466785Y280522D01*
X466809Y280298D01*
X466828Y280074D01*
X466841Y279850D01*
X466849Y279625D01*
X466852Y279400D01*
X460502Y279400D02*
X460505Y279175D01*
X460513Y278950D01*
X460526Y278726D01*
X460545Y278502D01*
X460569Y278278D01*
X460598Y278055D01*
X460633Y277833D01*
X460673Y277612D01*
X460719Y277392D01*
X460769Y277173D01*
X460825Y276955D01*
X460886Y276738D01*
X460952Y276523D01*
X461023Y276310D01*
X461100Y276099D01*
X461181Y275889D01*
X461267Y275681D01*
X461358Y275476D01*
X461454Y275273D01*
X461486Y275185D01*
X461522Y275098D01*
X461561Y275012D01*
X461604Y274928D01*
X461650Y274846D01*
X461699Y274766D01*
X461751Y274688D01*
X461807Y274612D01*
X461865Y274538D01*
X461927Y274467D01*
X461991Y274398D01*
X462058Y274332D01*
X462127Y274269D01*
X462199Y274208D01*
X462273Y274150D01*
X462350Y274096D01*
X462428Y274044D01*
X462509Y273996D01*
X462591Y273951D01*
X462676Y273909D01*
X462762Y273871D01*
X462849Y273836D01*
X462937Y273804D01*
X463027Y273777D01*
X463118Y273752D01*
X463210Y273732D01*
X463302Y273715D01*
X463396Y273702D01*
X463489Y273693D01*
X463583Y273687D01*
X463677Y273685D01*
X465900Y275273D02*
X465996Y275476D01*
X466087Y275681D01*
X466173Y275889D01*
X466254Y276099D01*
X466331Y276310D01*
X466402Y276523D01*
X466468Y276738D01*
X466529Y276955D01*
X466585Y277173D01*
X466635Y277392D01*
X466681Y277612D01*
X466721Y277833D01*
X466756Y278055D01*
X466785Y278278D01*
X466809Y278502D01*
X466828Y278726D01*
X466841Y278950D01*
X466849Y279175D01*
X466852Y279400D01*
X465900Y275273D02*
X465868Y275185D01*
X465832Y275098D01*
X465793Y275012D01*
X465750Y274928D01*
X465704Y274846D01*
X465655Y274766D01*
X465603Y274688D01*
X465547Y274612D01*
X465489Y274538D01*
X465427Y274467D01*
X465363Y274398D01*
X465296Y274332D01*
X465227Y274269D01*
X465155Y274208D01*
X465081Y274150D01*
X465004Y274096D01*
X464926Y274044D01*
X464845Y273996D01*
X464763Y273951D01*
X464678Y273909D01*
X464592Y273871D01*
X464505Y273836D01*
X464417Y273804D01*
X464327Y273777D01*
X464236Y273752D01*
X464144Y273732D01*
X464052Y273715D01*
X463958Y273702D01*
X463865Y273693D01*
X463771Y273687D01*
X463677Y273685D01*
X461137Y276225D02*
X466217Y282575D01*
X471932Y276860D02*
X471934Y276971D01*
X471940Y277081D01*
X471949Y277192D01*
X471963Y277302D01*
X471980Y277411D01*
X472001Y277520D01*
X472026Y277628D01*
X472055Y277735D01*
X472087Y277841D01*
X472123Y277946D01*
X472163Y278049D01*
X472206Y278151D01*
X472253Y278252D01*
X472304Y278351D01*
X472357Y278448D01*
X472414Y278542D01*
X472475Y278635D01*
X472538Y278726D01*
X472605Y278815D01*
X472675Y278901D01*
X472748Y278984D01*
X472823Y279066D01*
X472901Y279144D01*
X472983Y279219D01*
X473066Y279292D01*
X473152Y279362D01*
X473241Y279429D01*
X473332Y279492D01*
X473425Y279553D01*
X473520Y279610D01*
X473616Y279663D01*
X473715Y279714D01*
X473816Y279761D01*
X473918Y279804D01*
X474021Y279844D01*
X474126Y279880D01*
X474232Y279912D01*
X474339Y279941D01*
X474447Y279966D01*
X474556Y279987D01*
X474665Y280004D01*
X474775Y280018D01*
X474886Y280027D01*
X474996Y280033D01*
X475107Y280035D01*
X475218Y280033D01*
X475328Y280027D01*
X475439Y280018D01*
X475549Y280004D01*
X475658Y279987D01*
X475767Y279966D01*
X475875Y279941D01*
X475982Y279912D01*
X476088Y279880D01*
X476193Y279844D01*
X476296Y279804D01*
X476398Y279761D01*
X476499Y279714D01*
X476598Y279663D01*
X476695Y279610D01*
X476789Y279553D01*
X476882Y279492D01*
X476973Y279429D01*
X477062Y279362D01*
X477148Y279292D01*
X477231Y279219D01*
X477313Y279144D01*
X477391Y279066D01*
X477466Y278984D01*
X477539Y278901D01*
X477609Y278815D01*
X477676Y278726D01*
X477739Y278635D01*
X477800Y278542D01*
X477857Y278448D01*
X477910Y278351D01*
X477961Y278252D01*
X478008Y278151D01*
X478051Y278049D01*
X478091Y277946D01*
X478127Y277841D01*
X478159Y277735D01*
X478188Y277628D01*
X478213Y277520D01*
X478234Y277411D01*
X478251Y277302D01*
X478265Y277192D01*
X478274Y277081D01*
X478280Y276971D01*
X478282Y276860D01*
X478280Y276749D01*
X478274Y276639D01*
X478265Y276528D01*
X478251Y276418D01*
X478234Y276309D01*
X478213Y276200D01*
X478188Y276092D01*
X478159Y275985D01*
X478127Y275879D01*
X478091Y275774D01*
X478051Y275671D01*
X478008Y275569D01*
X477961Y275468D01*
X477910Y275369D01*
X477857Y275272D01*
X477800Y275178D01*
X477739Y275085D01*
X477676Y274994D01*
X477609Y274905D01*
X477539Y274819D01*
X477466Y274736D01*
X477391Y274654D01*
X477313Y274576D01*
X477231Y274501D01*
X477148Y274428D01*
X477062Y274358D01*
X476973Y274291D01*
X476882Y274228D01*
X476789Y274167D01*
X476694Y274110D01*
X476598Y274057D01*
X476499Y274006D01*
X476398Y273959D01*
X476296Y273916D01*
X476193Y273876D01*
X476088Y273840D01*
X475982Y273808D01*
X475875Y273779D01*
X475767Y273754D01*
X475658Y273733D01*
X475549Y273716D01*
X475439Y273702D01*
X475328Y273693D01*
X475218Y273687D01*
X475107Y273685D01*
X474996Y273687D01*
X474886Y273693D01*
X474775Y273702D01*
X474665Y273716D01*
X474556Y273733D01*
X474447Y273754D01*
X474339Y273779D01*
X474232Y273808D01*
X474126Y273840D01*
X474021Y273876D01*
X473918Y273916D01*
X473816Y273959D01*
X473715Y274006D01*
X473616Y274057D01*
X473520Y274110D01*
X473425Y274167D01*
X473332Y274228D01*
X473241Y274291D01*
X473152Y274358D01*
X473066Y274428D01*
X472983Y274501D01*
X472901Y274576D01*
X472823Y274654D01*
X472748Y274736D01*
X472675Y274819D01*
X472605Y274905D01*
X472538Y274994D01*
X472475Y275085D01*
X472414Y275178D01*
X472357Y275273D01*
X472304Y275369D01*
X472253Y275468D01*
X472206Y275569D01*
X472163Y275671D01*
X472123Y275774D01*
X472087Y275879D01*
X472055Y275985D01*
X472026Y276092D01*
X472001Y276200D01*
X471980Y276309D01*
X471963Y276418D01*
X471949Y276528D01*
X471940Y276639D01*
X471934Y276749D01*
X471932Y276860D01*
X472567Y282575D02*
X472569Y282675D01*
X472575Y282774D01*
X472585Y282874D01*
X472598Y282972D01*
X472616Y283071D01*
X472637Y283168D01*
X472662Y283264D01*
X472691Y283360D01*
X472724Y283454D01*
X472760Y283547D01*
X472800Y283638D01*
X472844Y283728D01*
X472891Y283816D01*
X472941Y283902D01*
X472995Y283986D01*
X473052Y284068D01*
X473112Y284147D01*
X473176Y284225D01*
X473242Y284299D01*
X473311Y284371D01*
X473383Y284440D01*
X473457Y284506D01*
X473535Y284570D01*
X473614Y284630D01*
X473696Y284687D01*
X473780Y284741D01*
X473866Y284791D01*
X473954Y284838D01*
X474044Y284882D01*
X474135Y284922D01*
X474228Y284958D01*
X474322Y284991D01*
X474418Y285020D01*
X474514Y285045D01*
X474611Y285066D01*
X474710Y285084D01*
X474808Y285097D01*
X474908Y285107D01*
X475007Y285113D01*
X475107Y285115D01*
X475207Y285113D01*
X475306Y285107D01*
X475406Y285097D01*
X475504Y285084D01*
X475603Y285066D01*
X475700Y285045D01*
X475796Y285020D01*
X475892Y284991D01*
X475986Y284958D01*
X476079Y284922D01*
X476170Y284882D01*
X476260Y284838D01*
X476348Y284791D01*
X476434Y284741D01*
X476518Y284687D01*
X476600Y284630D01*
X476679Y284570D01*
X476757Y284506D01*
X476831Y284440D01*
X476903Y284371D01*
X476972Y284299D01*
X477038Y284225D01*
X477102Y284147D01*
X477162Y284068D01*
X477219Y283986D01*
X477273Y283902D01*
X477323Y283816D01*
X477370Y283728D01*
X477414Y283638D01*
X477454Y283547D01*
X477490Y283454D01*
X477523Y283360D01*
X477552Y283264D01*
X477577Y283168D01*
X477598Y283071D01*
X477616Y282972D01*
X477629Y282874D01*
X477639Y282774D01*
X477645Y282675D01*
X477647Y282575D01*
X477645Y282475D01*
X477639Y282376D01*
X477629Y282276D01*
X477616Y282178D01*
X477598Y282079D01*
X477577Y281982D01*
X477552Y281886D01*
X477523Y281790D01*
X477490Y281696D01*
X477454Y281603D01*
X477414Y281512D01*
X477370Y281422D01*
X477323Y281334D01*
X477273Y281248D01*
X477219Y281164D01*
X477162Y281082D01*
X477102Y281003D01*
X477038Y280925D01*
X476972Y280851D01*
X476903Y280779D01*
X476831Y280710D01*
X476757Y280644D01*
X476679Y280580D01*
X476600Y280520D01*
X476518Y280463D01*
X476434Y280409D01*
X476348Y280359D01*
X476260Y280312D01*
X476170Y280268D01*
X476079Y280228D01*
X475986Y280192D01*
X475892Y280159D01*
X475796Y280130D01*
X475700Y280105D01*
X475603Y280084D01*
X475504Y280066D01*
X475406Y280053D01*
X475306Y280043D01*
X475207Y280037D01*
X475107Y280035D01*
X475007Y280037D01*
X474908Y280043D01*
X474808Y280053D01*
X474710Y280066D01*
X474611Y280084D01*
X474514Y280105D01*
X474418Y280130D01*
X474322Y280159D01*
X474228Y280192D01*
X474135Y280228D01*
X474044Y280268D01*
X473954Y280312D01*
X473866Y280359D01*
X473780Y280409D01*
X473696Y280463D01*
X473614Y280520D01*
X473535Y280580D01*
X473457Y280644D01*
X473383Y280710D01*
X473311Y280779D01*
X473242Y280851D01*
X473176Y280925D01*
X473112Y281003D01*
X473052Y281082D01*
X472995Y281164D01*
X472941Y281248D01*
X472891Y281334D01*
X472844Y281422D01*
X472800Y281512D01*
X472760Y281603D01*
X472724Y281696D01*
X472691Y281790D01*
X472662Y281886D01*
X472637Y281982D01*
X472616Y282079D01*
X472598Y282178D01*
X472585Y282276D01*
X472575Y282376D01*
X472569Y282475D01*
X472567Y282575D01*
X483743Y285115D02*
X483743Y273685D01*
X490093Y273685D02*
X483743Y285115D01*
X490093Y285115D02*
X490093Y273685D01*
X84800Y542000D02*
X28800Y542000D01*
X14800Y542000D01*
X14800Y472000D01*
X28800Y472000D01*
X84800Y472000D01*
X84800Y542000D01*
X28800Y542000D02*
X28800Y472000D01*
D12*
X89408Y475488D02*
X101092Y475488D01*
X89408Y475488D02*
X89408Y478734D01*
X89410Y478847D01*
X89416Y478960D01*
X89426Y479073D01*
X89440Y479186D01*
X89457Y479298D01*
X89479Y479409D01*
X89504Y479519D01*
X89534Y479629D01*
X89567Y479737D01*
X89604Y479844D01*
X89644Y479950D01*
X89689Y480054D01*
X89737Y480157D01*
X89788Y480258D01*
X89843Y480357D01*
X89901Y480454D01*
X89963Y480549D01*
X90028Y480642D01*
X90096Y480732D01*
X90167Y480820D01*
X90242Y480906D01*
X90319Y480989D01*
X90399Y481069D01*
X90482Y481146D01*
X90568Y481221D01*
X90656Y481292D01*
X90746Y481360D01*
X90839Y481425D01*
X90934Y481487D01*
X91031Y481545D01*
X91130Y481600D01*
X91231Y481651D01*
X91334Y481699D01*
X91438Y481744D01*
X91544Y481784D01*
X91651Y481821D01*
X91759Y481854D01*
X91869Y481884D01*
X91979Y481909D01*
X92090Y481931D01*
X92202Y481948D01*
X92315Y481962D01*
X92428Y481972D01*
X92541Y481978D01*
X92654Y481980D01*
X92767Y481978D01*
X92880Y481972D01*
X92993Y481962D01*
X93106Y481948D01*
X93218Y481931D01*
X93329Y481909D01*
X93439Y481884D01*
X93549Y481854D01*
X93657Y481821D01*
X93764Y481784D01*
X93870Y481744D01*
X93974Y481699D01*
X94077Y481651D01*
X94178Y481600D01*
X94277Y481545D01*
X94374Y481487D01*
X94469Y481425D01*
X94562Y481360D01*
X94652Y481292D01*
X94740Y481221D01*
X94826Y481146D01*
X94909Y481069D01*
X94989Y480989D01*
X95066Y480906D01*
X95141Y480820D01*
X95212Y480732D01*
X95280Y480642D01*
X95345Y480549D01*
X95407Y480454D01*
X95465Y480357D01*
X95520Y480258D01*
X95571Y480157D01*
X95619Y480054D01*
X95664Y479950D01*
X95704Y479844D01*
X95741Y479737D01*
X95774Y479629D01*
X95804Y479519D01*
X95829Y479409D01*
X95851Y479298D01*
X95868Y479186D01*
X95882Y479073D01*
X95892Y478960D01*
X95898Y478847D01*
X95900Y478734D01*
X95899Y478734D02*
X95899Y475488D01*
X97846Y486368D02*
X92654Y486368D01*
X92654Y486367D02*
X92541Y486369D01*
X92428Y486375D01*
X92315Y486385D01*
X92202Y486399D01*
X92090Y486416D01*
X91979Y486438D01*
X91869Y486463D01*
X91759Y486493D01*
X91651Y486526D01*
X91544Y486563D01*
X91438Y486603D01*
X91334Y486648D01*
X91231Y486696D01*
X91130Y486747D01*
X91031Y486802D01*
X90934Y486860D01*
X90839Y486922D01*
X90746Y486987D01*
X90656Y487055D01*
X90568Y487126D01*
X90482Y487201D01*
X90399Y487278D01*
X90319Y487358D01*
X90242Y487441D01*
X90167Y487527D01*
X90096Y487615D01*
X90028Y487705D01*
X89963Y487798D01*
X89901Y487893D01*
X89843Y487990D01*
X89788Y488089D01*
X89737Y488190D01*
X89689Y488293D01*
X89644Y488397D01*
X89604Y488503D01*
X89567Y488610D01*
X89534Y488718D01*
X89504Y488828D01*
X89479Y488938D01*
X89457Y489049D01*
X89440Y489161D01*
X89426Y489274D01*
X89416Y489387D01*
X89410Y489500D01*
X89408Y489613D01*
X89410Y489726D01*
X89416Y489839D01*
X89426Y489952D01*
X89440Y490065D01*
X89457Y490177D01*
X89479Y490288D01*
X89504Y490398D01*
X89534Y490508D01*
X89567Y490616D01*
X89604Y490723D01*
X89644Y490829D01*
X89689Y490933D01*
X89737Y491036D01*
X89788Y491137D01*
X89843Y491236D01*
X89901Y491333D01*
X89963Y491428D01*
X90028Y491521D01*
X90096Y491611D01*
X90167Y491699D01*
X90242Y491785D01*
X90319Y491868D01*
X90399Y491948D01*
X90482Y492025D01*
X90568Y492100D01*
X90656Y492171D01*
X90746Y492239D01*
X90839Y492304D01*
X90934Y492366D01*
X91031Y492424D01*
X91130Y492479D01*
X91231Y492530D01*
X91334Y492578D01*
X91438Y492623D01*
X91544Y492663D01*
X91651Y492700D01*
X91759Y492733D01*
X91869Y492763D01*
X91979Y492788D01*
X92090Y492810D01*
X92202Y492827D01*
X92315Y492841D01*
X92428Y492851D01*
X92541Y492857D01*
X92654Y492859D01*
X97846Y492859D01*
X97959Y492857D01*
X98072Y492851D01*
X98185Y492841D01*
X98298Y492827D01*
X98410Y492810D01*
X98521Y492788D01*
X98631Y492763D01*
X98741Y492733D01*
X98849Y492700D01*
X98956Y492663D01*
X99062Y492623D01*
X99166Y492578D01*
X99269Y492530D01*
X99370Y492479D01*
X99469Y492424D01*
X99566Y492366D01*
X99661Y492304D01*
X99754Y492239D01*
X99844Y492171D01*
X99932Y492100D01*
X100018Y492025D01*
X100101Y491948D01*
X100181Y491868D01*
X100258Y491785D01*
X100333Y491699D01*
X100404Y491611D01*
X100472Y491521D01*
X100537Y491428D01*
X100599Y491333D01*
X100657Y491236D01*
X100712Y491137D01*
X100763Y491036D01*
X100811Y490933D01*
X100856Y490829D01*
X100896Y490723D01*
X100933Y490616D01*
X100966Y490508D01*
X100996Y490398D01*
X101021Y490288D01*
X101043Y490177D01*
X101060Y490065D01*
X101074Y489952D01*
X101084Y489839D01*
X101090Y489726D01*
X101092Y489613D01*
X101090Y489500D01*
X101084Y489387D01*
X101074Y489274D01*
X101060Y489161D01*
X101043Y489049D01*
X101021Y488938D01*
X100996Y488828D01*
X100966Y488718D01*
X100933Y488610D01*
X100896Y488503D01*
X100856Y488397D01*
X100811Y488293D01*
X100763Y488190D01*
X100712Y488089D01*
X100657Y487990D01*
X100599Y487893D01*
X100537Y487798D01*
X100472Y487705D01*
X100404Y487615D01*
X100333Y487527D01*
X100258Y487441D01*
X100181Y487358D01*
X100101Y487278D01*
X100018Y487201D01*
X99932Y487126D01*
X99844Y487055D01*
X99754Y486987D01*
X99661Y486922D01*
X99566Y486860D01*
X99469Y486802D01*
X99370Y486747D01*
X99269Y486696D01*
X99166Y486648D01*
X99062Y486603D01*
X98956Y486563D01*
X98849Y486526D01*
X98741Y486493D01*
X98631Y486463D01*
X98521Y486438D01*
X98410Y486416D01*
X98298Y486399D01*
X98185Y486385D01*
X98072Y486375D01*
X97959Y486369D01*
X97846Y486367D01*
X89408Y497374D02*
X101092Y499971D01*
X93303Y502567D01*
X101092Y505164D01*
X89408Y507760D01*
X101092Y512679D02*
X101092Y517872D01*
X101092Y512679D02*
X89408Y512679D01*
X89408Y517872D01*
X94601Y516574D02*
X94601Y512679D01*
X89408Y522636D02*
X101092Y522636D01*
X89408Y522636D02*
X89408Y525882D01*
X89410Y525995D01*
X89416Y526108D01*
X89426Y526221D01*
X89440Y526334D01*
X89457Y526446D01*
X89479Y526557D01*
X89504Y526667D01*
X89534Y526777D01*
X89567Y526885D01*
X89604Y526992D01*
X89644Y527098D01*
X89689Y527202D01*
X89737Y527305D01*
X89788Y527406D01*
X89843Y527505D01*
X89901Y527602D01*
X89963Y527697D01*
X90028Y527790D01*
X90096Y527880D01*
X90167Y527968D01*
X90242Y528054D01*
X90319Y528137D01*
X90399Y528217D01*
X90482Y528294D01*
X90568Y528369D01*
X90656Y528440D01*
X90746Y528508D01*
X90839Y528573D01*
X90934Y528635D01*
X91031Y528693D01*
X91130Y528748D01*
X91231Y528799D01*
X91334Y528847D01*
X91438Y528892D01*
X91544Y528932D01*
X91651Y528969D01*
X91759Y529002D01*
X91869Y529032D01*
X91979Y529057D01*
X92090Y529079D01*
X92202Y529096D01*
X92315Y529110D01*
X92428Y529120D01*
X92541Y529126D01*
X92654Y529128D01*
X92767Y529126D01*
X92880Y529120D01*
X92993Y529110D01*
X93106Y529096D01*
X93218Y529079D01*
X93329Y529057D01*
X93439Y529032D01*
X93549Y529002D01*
X93657Y528969D01*
X93764Y528932D01*
X93870Y528892D01*
X93974Y528847D01*
X94077Y528799D01*
X94178Y528748D01*
X94277Y528693D01*
X94374Y528635D01*
X94469Y528573D01*
X94562Y528508D01*
X94652Y528440D01*
X94740Y528369D01*
X94826Y528294D01*
X94909Y528217D01*
X94989Y528137D01*
X95066Y528054D01*
X95141Y527968D01*
X95212Y527880D01*
X95280Y527790D01*
X95345Y527697D01*
X95407Y527602D01*
X95465Y527505D01*
X95520Y527406D01*
X95571Y527305D01*
X95619Y527202D01*
X95664Y527098D01*
X95704Y526992D01*
X95741Y526885D01*
X95774Y526777D01*
X95804Y526667D01*
X95829Y526557D01*
X95851Y526446D01*
X95868Y526334D01*
X95882Y526221D01*
X95892Y526108D01*
X95898Y525995D01*
X95900Y525882D01*
X95899Y525882D02*
X95899Y522636D01*
X95899Y526531D02*
X101092Y529127D01*
D11*
X143800Y84800D02*
X143800Y28800D01*
X143800Y14800D01*
X213800Y14800D01*
X213800Y28800D01*
X213800Y84800D01*
X143800Y84800D01*
X143800Y28800D02*
X213800Y28800D01*
D12*
X195528Y91204D02*
X195528Y100292D01*
X195527Y91204D02*
X195525Y91105D01*
X195519Y91005D01*
X195510Y90906D01*
X195497Y90808D01*
X195480Y90710D01*
X195459Y90612D01*
X195434Y90516D01*
X195406Y90421D01*
X195374Y90327D01*
X195339Y90234D01*
X195300Y90142D01*
X195257Y90052D01*
X195212Y89964D01*
X195162Y89877D01*
X195110Y89793D01*
X195054Y89710D01*
X194996Y89630D01*
X194934Y89552D01*
X194869Y89477D01*
X194801Y89404D01*
X194731Y89334D01*
X194658Y89266D01*
X194583Y89201D01*
X194505Y89139D01*
X194425Y89081D01*
X194342Y89025D01*
X194258Y88973D01*
X194171Y88923D01*
X194083Y88878D01*
X193993Y88835D01*
X193901Y88796D01*
X193808Y88761D01*
X193714Y88729D01*
X193619Y88701D01*
X193523Y88676D01*
X193425Y88655D01*
X193327Y88638D01*
X193229Y88625D01*
X193130Y88616D01*
X193030Y88610D01*
X192931Y88608D01*
X191633Y88608D01*
X204371Y100292D02*
X204478Y100290D01*
X204584Y100284D01*
X204690Y100274D01*
X204796Y100261D01*
X204902Y100243D01*
X205006Y100222D01*
X205110Y100197D01*
X205213Y100168D01*
X205314Y100136D01*
X205414Y100099D01*
X205513Y100059D01*
X205611Y100016D01*
X205707Y99969D01*
X205801Y99918D01*
X205893Y99864D01*
X205983Y99807D01*
X206071Y99747D01*
X206156Y99683D01*
X206239Y99616D01*
X206320Y99546D01*
X206398Y99474D01*
X206474Y99398D01*
X206546Y99320D01*
X206616Y99239D01*
X206683Y99156D01*
X206747Y99071D01*
X206807Y98983D01*
X206864Y98893D01*
X206918Y98801D01*
X206969Y98707D01*
X207016Y98611D01*
X207059Y98513D01*
X207099Y98414D01*
X207136Y98314D01*
X207168Y98213D01*
X207197Y98110D01*
X207222Y98006D01*
X207243Y97902D01*
X207261Y97796D01*
X207274Y97690D01*
X207284Y97584D01*
X207290Y97478D01*
X207292Y97371D01*
X204371Y100292D02*
X204250Y100290D01*
X204129Y100284D01*
X204009Y100274D01*
X203888Y100261D01*
X203769Y100243D01*
X203649Y100222D01*
X203531Y100197D01*
X203414Y100168D01*
X203297Y100135D01*
X203182Y100099D01*
X203068Y100058D01*
X202955Y100015D01*
X202843Y99967D01*
X202734Y99916D01*
X202626Y99861D01*
X202519Y99803D01*
X202415Y99742D01*
X202313Y99677D01*
X202213Y99609D01*
X202115Y99538D01*
X202019Y99464D01*
X201926Y99387D01*
X201836Y99306D01*
X201748Y99223D01*
X201663Y99137D01*
X201580Y99048D01*
X201501Y98957D01*
X201424Y98863D01*
X201351Y98767D01*
X201281Y98669D01*
X201214Y98568D01*
X201150Y98465D01*
X201090Y98360D01*
X201033Y98253D01*
X200979Y98145D01*
X200929Y98035D01*
X200883Y97923D01*
X200840Y97810D01*
X200801Y97695D01*
X206319Y95099D02*
X206398Y95176D01*
X206474Y95257D01*
X206547Y95340D01*
X206617Y95425D01*
X206684Y95513D01*
X206748Y95603D01*
X206808Y95695D01*
X206865Y95790D01*
X206919Y95886D01*
X206970Y95984D01*
X207017Y96084D01*
X207061Y96186D01*
X207101Y96289D01*
X207137Y96393D01*
X207169Y96499D01*
X207198Y96605D01*
X207223Y96713D01*
X207245Y96821D01*
X207262Y96931D01*
X207276Y97040D01*
X207285Y97150D01*
X207291Y97261D01*
X207293Y97371D01*
X206318Y95099D02*
X200801Y88608D01*
X207292Y88608D01*
D11*
X220000Y84800D02*
X220000Y28800D01*
X220000Y14800D01*
X290000Y14800D01*
X290000Y28800D01*
X290000Y84800D01*
X220000Y84800D01*
X220000Y28800D02*
X290000Y28800D01*
D12*
X271728Y91204D02*
X271728Y100292D01*
X271727Y91204D02*
X271725Y91105D01*
X271719Y91005D01*
X271710Y90906D01*
X271697Y90808D01*
X271680Y90710D01*
X271659Y90612D01*
X271634Y90516D01*
X271606Y90421D01*
X271574Y90327D01*
X271539Y90234D01*
X271500Y90142D01*
X271457Y90052D01*
X271412Y89964D01*
X271362Y89877D01*
X271310Y89793D01*
X271254Y89710D01*
X271196Y89630D01*
X271134Y89552D01*
X271069Y89477D01*
X271001Y89404D01*
X270931Y89334D01*
X270858Y89266D01*
X270783Y89201D01*
X270705Y89139D01*
X270625Y89081D01*
X270542Y89025D01*
X270458Y88973D01*
X270371Y88923D01*
X270283Y88878D01*
X270193Y88835D01*
X270101Y88796D01*
X270008Y88761D01*
X269914Y88729D01*
X269819Y88701D01*
X269723Y88676D01*
X269625Y88655D01*
X269527Y88638D01*
X269429Y88625D01*
X269330Y88616D01*
X269230Y88610D01*
X269131Y88608D01*
X267833Y88608D01*
X277001Y88608D02*
X280246Y88608D01*
X280359Y88610D01*
X280472Y88616D01*
X280585Y88626D01*
X280698Y88640D01*
X280810Y88657D01*
X280921Y88679D01*
X281031Y88704D01*
X281141Y88734D01*
X281249Y88767D01*
X281356Y88804D01*
X281462Y88844D01*
X281566Y88889D01*
X281669Y88937D01*
X281770Y88988D01*
X281869Y89043D01*
X281966Y89101D01*
X282061Y89163D01*
X282154Y89228D01*
X282244Y89296D01*
X282332Y89367D01*
X282418Y89442D01*
X282501Y89519D01*
X282581Y89599D01*
X282658Y89682D01*
X282733Y89768D01*
X282804Y89856D01*
X282872Y89946D01*
X282937Y90039D01*
X282999Y90134D01*
X283057Y90231D01*
X283112Y90330D01*
X283163Y90431D01*
X283211Y90534D01*
X283256Y90638D01*
X283296Y90744D01*
X283333Y90851D01*
X283366Y90959D01*
X283396Y91069D01*
X283421Y91179D01*
X283443Y91290D01*
X283460Y91402D01*
X283474Y91515D01*
X283484Y91628D01*
X283490Y91741D01*
X283492Y91854D01*
X283490Y91967D01*
X283484Y92080D01*
X283474Y92193D01*
X283460Y92306D01*
X283443Y92418D01*
X283421Y92529D01*
X283396Y92639D01*
X283366Y92749D01*
X283333Y92857D01*
X283296Y92964D01*
X283256Y93070D01*
X283211Y93174D01*
X283163Y93277D01*
X283112Y93378D01*
X283057Y93477D01*
X282999Y93574D01*
X282937Y93669D01*
X282872Y93762D01*
X282804Y93852D01*
X282733Y93940D01*
X282658Y94026D01*
X282581Y94109D01*
X282501Y94189D01*
X282418Y94266D01*
X282332Y94341D01*
X282244Y94412D01*
X282154Y94480D01*
X282061Y94545D01*
X281966Y94607D01*
X281869Y94665D01*
X281770Y94720D01*
X281669Y94771D01*
X281566Y94819D01*
X281462Y94864D01*
X281356Y94904D01*
X281249Y94941D01*
X281141Y94974D01*
X281031Y95004D01*
X280921Y95029D01*
X280810Y95051D01*
X280698Y95068D01*
X280585Y95082D01*
X280472Y95092D01*
X280359Y95098D01*
X280246Y95100D01*
X280896Y100292D02*
X277001Y100292D01*
X280896Y100292D02*
X280997Y100290D01*
X281097Y100284D01*
X281197Y100274D01*
X281297Y100261D01*
X281396Y100243D01*
X281495Y100222D01*
X281592Y100197D01*
X281689Y100168D01*
X281784Y100135D01*
X281878Y100099D01*
X281970Y100059D01*
X282061Y100016D01*
X282150Y99969D01*
X282237Y99919D01*
X282323Y99865D01*
X282406Y99808D01*
X282486Y99748D01*
X282565Y99685D01*
X282641Y99618D01*
X282714Y99549D01*
X282784Y99477D01*
X282852Y99403D01*
X282917Y99326D01*
X282978Y99246D01*
X283037Y99164D01*
X283092Y99080D01*
X283144Y98994D01*
X283193Y98906D01*
X283238Y98816D01*
X283280Y98724D01*
X283318Y98631D01*
X283352Y98536D01*
X283383Y98441D01*
X283410Y98344D01*
X283433Y98246D01*
X283453Y98147D01*
X283468Y98047D01*
X283480Y97947D01*
X283488Y97847D01*
X283492Y97746D01*
X283492Y97646D01*
X283488Y97545D01*
X283480Y97445D01*
X283468Y97345D01*
X283453Y97245D01*
X283433Y97146D01*
X283410Y97048D01*
X283383Y96951D01*
X283352Y96856D01*
X283318Y96761D01*
X283280Y96668D01*
X283238Y96576D01*
X283193Y96486D01*
X283144Y96398D01*
X283092Y96312D01*
X283037Y96228D01*
X282978Y96146D01*
X282917Y96066D01*
X282852Y95989D01*
X282784Y95915D01*
X282714Y95843D01*
X282641Y95774D01*
X282565Y95707D01*
X282486Y95644D01*
X282406Y95584D01*
X282323Y95527D01*
X282237Y95473D01*
X282150Y95423D01*
X282061Y95376D01*
X281970Y95333D01*
X281878Y95293D01*
X281784Y95257D01*
X281689Y95224D01*
X281592Y95195D01*
X281495Y95170D01*
X281396Y95149D01*
X281297Y95131D01*
X281197Y95118D01*
X281097Y95108D01*
X280997Y95102D01*
X280896Y95100D01*
X280896Y95099D02*
X278299Y95099D01*
D11*
X296200Y84800D02*
X296200Y28800D01*
X296200Y14800D01*
X366200Y14800D01*
X366200Y28800D01*
X366200Y84800D01*
X296200Y84800D01*
X296200Y28800D02*
X366200Y28800D01*
D12*
X347928Y91204D02*
X347928Y100292D01*
X347927Y91204D02*
X347925Y91105D01*
X347919Y91005D01*
X347910Y90906D01*
X347897Y90808D01*
X347880Y90710D01*
X347859Y90612D01*
X347834Y90516D01*
X347806Y90421D01*
X347774Y90327D01*
X347739Y90234D01*
X347700Y90142D01*
X347657Y90052D01*
X347612Y89964D01*
X347562Y89877D01*
X347510Y89793D01*
X347454Y89710D01*
X347396Y89630D01*
X347334Y89552D01*
X347269Y89477D01*
X347201Y89404D01*
X347131Y89334D01*
X347058Y89266D01*
X346983Y89201D01*
X346905Y89139D01*
X346825Y89081D01*
X346742Y89025D01*
X346658Y88973D01*
X346571Y88923D01*
X346483Y88878D01*
X346393Y88835D01*
X346301Y88796D01*
X346208Y88761D01*
X346114Y88729D01*
X346019Y88701D01*
X345923Y88676D01*
X345825Y88655D01*
X345727Y88638D01*
X345629Y88625D01*
X345530Y88616D01*
X345430Y88610D01*
X345331Y88608D01*
X344033Y88608D01*
X353201Y91204D02*
X355797Y100292D01*
X353201Y91204D02*
X359692Y91204D01*
X357745Y93801D02*
X357745Y88608D01*
D11*
X211800Y804200D02*
X211800Y860200D01*
X211800Y874200D01*
X141800Y874200D01*
X141800Y860200D01*
X141800Y804200D01*
X211800Y804200D01*
X211800Y860200D02*
X141800Y860200D01*
D12*
X103999Y791304D02*
X103997Y791205D01*
X103991Y791105D01*
X103982Y791006D01*
X103969Y790908D01*
X103952Y790810D01*
X103931Y790712D01*
X103906Y790616D01*
X103878Y790521D01*
X103846Y790427D01*
X103811Y790334D01*
X103772Y790242D01*
X103729Y790152D01*
X103684Y790064D01*
X103634Y789977D01*
X103582Y789893D01*
X103526Y789810D01*
X103468Y789730D01*
X103406Y789652D01*
X103341Y789577D01*
X103273Y789504D01*
X103203Y789434D01*
X103130Y789366D01*
X103055Y789301D01*
X102977Y789239D01*
X102897Y789181D01*
X102814Y789125D01*
X102730Y789073D01*
X102643Y789023D01*
X102555Y788978D01*
X102465Y788935D01*
X102373Y788896D01*
X102280Y788861D01*
X102186Y788829D01*
X102091Y788801D01*
X101995Y788776D01*
X101897Y788755D01*
X101799Y788738D01*
X101701Y788725D01*
X101602Y788716D01*
X101502Y788710D01*
X101403Y788708D01*
X101259Y788710D01*
X101114Y788716D01*
X100970Y788725D01*
X100827Y788738D01*
X100683Y788755D01*
X100540Y788776D01*
X100398Y788801D01*
X100257Y788829D01*
X100116Y788861D01*
X99976Y788897D01*
X99837Y788936D01*
X99699Y788979D01*
X99563Y789026D01*
X99427Y789076D01*
X99293Y789130D01*
X99161Y789187D01*
X99030Y789248D01*
X98901Y789312D01*
X98773Y789380D01*
X98647Y789450D01*
X98523Y789525D01*
X98402Y789602D01*
X98282Y789683D01*
X98164Y789766D01*
X98049Y789853D01*
X97936Y789943D01*
X97825Y790036D01*
X97717Y790131D01*
X97611Y790230D01*
X97508Y790331D01*
X97833Y797796D02*
X97835Y797895D01*
X97841Y797995D01*
X97850Y798094D01*
X97863Y798192D01*
X97880Y798290D01*
X97901Y798388D01*
X97926Y798484D01*
X97954Y798579D01*
X97986Y798673D01*
X98021Y798766D01*
X98060Y798858D01*
X98103Y798948D01*
X98148Y799036D01*
X98198Y799123D01*
X98250Y799207D01*
X98306Y799290D01*
X98364Y799370D01*
X98426Y799448D01*
X98491Y799523D01*
X98559Y799596D01*
X98629Y799666D01*
X98702Y799734D01*
X98777Y799799D01*
X98855Y799861D01*
X98935Y799919D01*
X99018Y799975D01*
X99102Y800027D01*
X99189Y800077D01*
X99277Y800122D01*
X99367Y800165D01*
X99459Y800204D01*
X99552Y800239D01*
X99646Y800271D01*
X99741Y800299D01*
X99838Y800324D01*
X99935Y800345D01*
X100033Y800362D01*
X100131Y800375D01*
X100230Y800384D01*
X100330Y800390D01*
X100429Y800392D01*
X100565Y800390D01*
X100701Y800384D01*
X100837Y800375D01*
X100973Y800362D01*
X101108Y800344D01*
X101242Y800324D01*
X101376Y800299D01*
X101510Y800271D01*
X101642Y800238D01*
X101773Y800203D01*
X101904Y800163D01*
X102033Y800120D01*
X102161Y800074D01*
X102287Y800023D01*
X102413Y799970D01*
X102536Y799912D01*
X102658Y799852D01*
X102778Y799788D01*
X102897Y799720D01*
X103013Y799650D01*
X103127Y799576D01*
X103240Y799499D01*
X103350Y799418D01*
X99131Y795524D02*
X99045Y795577D01*
X98961Y795634D01*
X98879Y795693D01*
X98799Y795756D01*
X98722Y795822D01*
X98647Y795890D01*
X98575Y795962D01*
X98506Y796036D01*
X98440Y796113D01*
X98377Y796192D01*
X98317Y796274D01*
X98260Y796358D01*
X98206Y796444D01*
X98156Y796532D01*
X98109Y796622D01*
X98065Y796713D01*
X98026Y796807D01*
X97989Y796901D01*
X97957Y796997D01*
X97928Y797095D01*
X97903Y797193D01*
X97882Y797292D01*
X97864Y797392D01*
X97851Y797492D01*
X97841Y797593D01*
X97835Y797695D01*
X97833Y797796D01*
X102701Y793576D02*
X102787Y793523D01*
X102871Y793466D01*
X102953Y793407D01*
X103033Y793344D01*
X103110Y793278D01*
X103185Y793210D01*
X103257Y793138D01*
X103326Y793064D01*
X103392Y792987D01*
X103455Y792908D01*
X103515Y792826D01*
X103572Y792742D01*
X103626Y792656D01*
X103676Y792568D01*
X103723Y792478D01*
X103767Y792387D01*
X103806Y792293D01*
X103843Y792199D01*
X103875Y792103D01*
X103904Y792005D01*
X103929Y791907D01*
X103950Y791808D01*
X103968Y791708D01*
X103981Y791608D01*
X103991Y791507D01*
X103997Y791405D01*
X103999Y791304D01*
X102701Y793576D02*
X99131Y795524D01*
X108961Y788708D02*
X114153Y788708D01*
X108961Y788708D02*
X108961Y800392D01*
X114153Y800392D01*
X112855Y795199D02*
X108961Y795199D01*
X118918Y800392D02*
X118918Y788708D01*
X118918Y800392D02*
X122163Y800392D01*
X122276Y800390D01*
X122389Y800384D01*
X122502Y800374D01*
X122615Y800360D01*
X122727Y800343D01*
X122838Y800321D01*
X122948Y800296D01*
X123058Y800266D01*
X123166Y800233D01*
X123273Y800196D01*
X123379Y800156D01*
X123483Y800111D01*
X123586Y800063D01*
X123687Y800012D01*
X123786Y799957D01*
X123883Y799899D01*
X123978Y799837D01*
X124071Y799772D01*
X124161Y799704D01*
X124249Y799633D01*
X124335Y799558D01*
X124418Y799481D01*
X124498Y799401D01*
X124575Y799318D01*
X124650Y799232D01*
X124721Y799144D01*
X124789Y799054D01*
X124854Y798961D01*
X124916Y798866D01*
X124974Y798769D01*
X125029Y798670D01*
X125080Y798569D01*
X125128Y798466D01*
X125173Y798362D01*
X125213Y798256D01*
X125250Y798149D01*
X125283Y798041D01*
X125313Y797931D01*
X125338Y797821D01*
X125360Y797710D01*
X125377Y797598D01*
X125391Y797485D01*
X125401Y797372D01*
X125407Y797259D01*
X125409Y797146D01*
X125407Y797033D01*
X125401Y796920D01*
X125391Y796807D01*
X125377Y796694D01*
X125360Y796582D01*
X125338Y796471D01*
X125313Y796361D01*
X125283Y796251D01*
X125250Y796143D01*
X125213Y796036D01*
X125173Y795930D01*
X125128Y795826D01*
X125080Y795723D01*
X125029Y795622D01*
X124974Y795523D01*
X124916Y795426D01*
X124854Y795331D01*
X124789Y795238D01*
X124721Y795148D01*
X124650Y795060D01*
X124575Y794974D01*
X124498Y794891D01*
X124418Y794811D01*
X124335Y794734D01*
X124249Y794659D01*
X124161Y794588D01*
X124071Y794520D01*
X123978Y794455D01*
X123883Y794393D01*
X123786Y794335D01*
X123687Y794280D01*
X123586Y794229D01*
X123483Y794181D01*
X123379Y794136D01*
X123273Y794096D01*
X123166Y794059D01*
X123058Y794026D01*
X122948Y793996D01*
X122838Y793971D01*
X122727Y793949D01*
X122615Y793932D01*
X122502Y793918D01*
X122389Y793908D01*
X122276Y793902D01*
X122163Y793900D01*
X122163Y793901D02*
X118918Y793901D01*
X122812Y793901D02*
X125409Y788708D01*
X133520Y788708D02*
X129625Y800392D01*
X137414Y800392D02*
X133520Y788708D01*
X141704Y791954D02*
X141704Y797146D01*
X141703Y797146D02*
X141705Y797259D01*
X141711Y797372D01*
X141721Y797485D01*
X141735Y797598D01*
X141752Y797710D01*
X141774Y797821D01*
X141799Y797931D01*
X141829Y798041D01*
X141862Y798149D01*
X141899Y798256D01*
X141939Y798362D01*
X141984Y798466D01*
X142032Y798569D01*
X142083Y798670D01*
X142138Y798769D01*
X142196Y798866D01*
X142258Y798961D01*
X142323Y799054D01*
X142391Y799144D01*
X142462Y799232D01*
X142537Y799318D01*
X142614Y799401D01*
X142694Y799481D01*
X142777Y799558D01*
X142863Y799633D01*
X142951Y799704D01*
X143041Y799772D01*
X143134Y799837D01*
X143229Y799899D01*
X143326Y799957D01*
X143425Y800012D01*
X143526Y800063D01*
X143629Y800111D01*
X143733Y800156D01*
X143839Y800196D01*
X143946Y800233D01*
X144054Y800266D01*
X144164Y800296D01*
X144274Y800321D01*
X144385Y800343D01*
X144497Y800360D01*
X144610Y800374D01*
X144723Y800384D01*
X144836Y800390D01*
X144949Y800392D01*
X145062Y800390D01*
X145175Y800384D01*
X145288Y800374D01*
X145401Y800360D01*
X145513Y800343D01*
X145624Y800321D01*
X145734Y800296D01*
X145844Y800266D01*
X145952Y800233D01*
X146059Y800196D01*
X146165Y800156D01*
X146269Y800111D01*
X146372Y800063D01*
X146473Y800012D01*
X146572Y799957D01*
X146669Y799899D01*
X146764Y799837D01*
X146857Y799772D01*
X146947Y799704D01*
X147035Y799633D01*
X147121Y799558D01*
X147204Y799481D01*
X147284Y799401D01*
X147361Y799318D01*
X147436Y799232D01*
X147507Y799144D01*
X147575Y799054D01*
X147640Y798961D01*
X147702Y798866D01*
X147760Y798769D01*
X147815Y798670D01*
X147866Y798569D01*
X147914Y798466D01*
X147959Y798362D01*
X147999Y798256D01*
X148036Y798149D01*
X148069Y798041D01*
X148099Y797931D01*
X148124Y797821D01*
X148146Y797710D01*
X148163Y797598D01*
X148177Y797485D01*
X148187Y797372D01*
X148193Y797259D01*
X148195Y797146D01*
X148195Y791954D01*
X148193Y791841D01*
X148187Y791728D01*
X148177Y791615D01*
X148163Y791502D01*
X148146Y791390D01*
X148124Y791279D01*
X148099Y791169D01*
X148069Y791059D01*
X148036Y790951D01*
X147999Y790844D01*
X147959Y790738D01*
X147914Y790634D01*
X147866Y790531D01*
X147815Y790430D01*
X147760Y790331D01*
X147702Y790234D01*
X147640Y790139D01*
X147575Y790046D01*
X147507Y789956D01*
X147436Y789868D01*
X147361Y789782D01*
X147284Y789699D01*
X147204Y789619D01*
X147121Y789542D01*
X147035Y789467D01*
X146947Y789396D01*
X146857Y789328D01*
X146764Y789263D01*
X146669Y789201D01*
X146572Y789143D01*
X146473Y789088D01*
X146372Y789037D01*
X146269Y788989D01*
X146165Y788944D01*
X146059Y788904D01*
X145952Y788867D01*
X145844Y788834D01*
X145734Y788804D01*
X145624Y788779D01*
X145513Y788757D01*
X145401Y788740D01*
X145288Y788726D01*
X145175Y788716D01*
X145062Y788710D01*
X144949Y788708D01*
X144836Y788710D01*
X144723Y788716D01*
X144610Y788726D01*
X144497Y788740D01*
X144385Y788757D01*
X144274Y788779D01*
X144164Y788804D01*
X144054Y788834D01*
X143946Y788867D01*
X143839Y788904D01*
X143733Y788944D01*
X143629Y788989D01*
X143526Y789037D01*
X143425Y789088D01*
X143326Y789143D01*
X143229Y789201D01*
X143134Y789263D01*
X143041Y789328D01*
X142951Y789396D01*
X142863Y789467D01*
X142777Y789542D01*
X142694Y789619D01*
X142614Y789699D01*
X142537Y789782D01*
X142462Y789868D01*
X142391Y789956D01*
X142323Y790046D01*
X142258Y790139D01*
X142196Y790234D01*
X142138Y790331D01*
X142083Y790430D01*
X142032Y790531D01*
X141984Y790634D01*
X141939Y790738D01*
X141899Y790844D01*
X141862Y790951D01*
X141829Y791059D01*
X141799Y791169D01*
X141774Y791279D01*
X141752Y791390D01*
X141735Y791502D01*
X141721Y791615D01*
X141711Y791728D01*
X141705Y791841D01*
X141703Y791954D01*
X152640Y787410D02*
X157833Y787410D01*
X162828Y788708D02*
X162828Y800392D01*
X166074Y800392D01*
X166187Y800390D01*
X166300Y800384D01*
X166413Y800374D01*
X166526Y800360D01*
X166638Y800343D01*
X166749Y800321D01*
X166859Y800296D01*
X166969Y800266D01*
X167077Y800233D01*
X167184Y800196D01*
X167290Y800156D01*
X167394Y800111D01*
X167497Y800063D01*
X167598Y800012D01*
X167697Y799957D01*
X167794Y799899D01*
X167889Y799837D01*
X167982Y799772D01*
X168072Y799704D01*
X168160Y799633D01*
X168246Y799558D01*
X168329Y799481D01*
X168409Y799401D01*
X168486Y799318D01*
X168561Y799232D01*
X168632Y799144D01*
X168700Y799054D01*
X168765Y798961D01*
X168827Y798866D01*
X168885Y798769D01*
X168940Y798670D01*
X168991Y798569D01*
X169039Y798466D01*
X169084Y798362D01*
X169124Y798256D01*
X169161Y798149D01*
X169194Y798041D01*
X169224Y797931D01*
X169249Y797821D01*
X169271Y797710D01*
X169288Y797598D01*
X169302Y797485D01*
X169312Y797372D01*
X169318Y797259D01*
X169320Y797146D01*
X169318Y797033D01*
X169312Y796920D01*
X169302Y796807D01*
X169288Y796694D01*
X169271Y796582D01*
X169249Y796471D01*
X169224Y796361D01*
X169194Y796251D01*
X169161Y796143D01*
X169124Y796036D01*
X169084Y795930D01*
X169039Y795826D01*
X168991Y795723D01*
X168940Y795622D01*
X168885Y795523D01*
X168827Y795426D01*
X168765Y795331D01*
X168700Y795238D01*
X168632Y795148D01*
X168561Y795060D01*
X168486Y794974D01*
X168409Y794891D01*
X168329Y794811D01*
X168246Y794734D01*
X168160Y794659D01*
X168072Y794588D01*
X167982Y794520D01*
X167889Y794455D01*
X167794Y794393D01*
X167697Y794335D01*
X167598Y794280D01*
X167497Y794229D01*
X167394Y794181D01*
X167290Y794136D01*
X167184Y794096D01*
X167077Y794059D01*
X166969Y794026D01*
X166859Y793996D01*
X166749Y793971D01*
X166638Y793949D01*
X166526Y793932D01*
X166413Y793918D01*
X166300Y793908D01*
X166187Y793902D01*
X166074Y793900D01*
X166074Y793901D02*
X162828Y793901D01*
X173285Y800392D02*
X175881Y788708D01*
X178477Y796497D01*
X181074Y788708D01*
X183670Y800392D01*
X188641Y800392D02*
X188641Y788708D01*
X188641Y800392D02*
X191886Y800392D01*
X191999Y800390D01*
X192112Y800384D01*
X192225Y800374D01*
X192338Y800360D01*
X192450Y800343D01*
X192561Y800321D01*
X192671Y800296D01*
X192781Y800266D01*
X192889Y800233D01*
X192996Y800196D01*
X193102Y800156D01*
X193206Y800111D01*
X193309Y800063D01*
X193410Y800012D01*
X193509Y799957D01*
X193606Y799899D01*
X193701Y799837D01*
X193794Y799772D01*
X193884Y799704D01*
X193972Y799633D01*
X194058Y799558D01*
X194141Y799481D01*
X194221Y799401D01*
X194298Y799318D01*
X194373Y799232D01*
X194444Y799144D01*
X194512Y799054D01*
X194577Y798961D01*
X194639Y798866D01*
X194697Y798769D01*
X194752Y798670D01*
X194803Y798569D01*
X194851Y798466D01*
X194896Y798362D01*
X194936Y798256D01*
X194973Y798149D01*
X195006Y798041D01*
X195036Y797931D01*
X195061Y797821D01*
X195083Y797710D01*
X195100Y797598D01*
X195114Y797485D01*
X195124Y797372D01*
X195130Y797259D01*
X195132Y797146D01*
X195130Y797033D01*
X195124Y796920D01*
X195114Y796807D01*
X195100Y796694D01*
X195083Y796582D01*
X195061Y796471D01*
X195036Y796361D01*
X195006Y796251D01*
X194973Y796143D01*
X194936Y796036D01*
X194896Y795930D01*
X194851Y795826D01*
X194803Y795723D01*
X194752Y795622D01*
X194697Y795523D01*
X194639Y795426D01*
X194577Y795331D01*
X194512Y795238D01*
X194444Y795148D01*
X194373Y795060D01*
X194298Y794974D01*
X194221Y794891D01*
X194141Y794811D01*
X194058Y794734D01*
X193972Y794659D01*
X193884Y794588D01*
X193794Y794520D01*
X193701Y794455D01*
X193606Y794393D01*
X193509Y794335D01*
X193410Y794280D01*
X193309Y794229D01*
X193206Y794181D01*
X193102Y794136D01*
X192996Y794096D01*
X192889Y794059D01*
X192781Y794026D01*
X192671Y793996D01*
X192561Y793971D01*
X192450Y793949D01*
X192338Y793932D01*
X192225Y793918D01*
X192112Y793908D01*
X191999Y793902D01*
X191886Y793900D01*
X191886Y793901D02*
X188641Y793901D01*
X192535Y793901D02*
X195132Y788708D01*
D11*
X288000Y804200D02*
X288000Y860200D01*
X288000Y874200D01*
X218000Y874200D01*
X218000Y860200D01*
X218000Y804200D01*
X288000Y804200D01*
X288000Y860200D02*
X218000Y860200D01*
D12*
X225919Y791304D02*
X225917Y791205D01*
X225911Y791105D01*
X225902Y791006D01*
X225889Y790908D01*
X225872Y790810D01*
X225851Y790712D01*
X225826Y790616D01*
X225798Y790521D01*
X225766Y790427D01*
X225731Y790334D01*
X225692Y790242D01*
X225649Y790152D01*
X225604Y790064D01*
X225554Y789977D01*
X225502Y789893D01*
X225446Y789810D01*
X225388Y789730D01*
X225326Y789652D01*
X225261Y789577D01*
X225193Y789504D01*
X225123Y789434D01*
X225050Y789366D01*
X224975Y789301D01*
X224897Y789239D01*
X224817Y789181D01*
X224734Y789125D01*
X224650Y789073D01*
X224563Y789023D01*
X224475Y788978D01*
X224385Y788935D01*
X224293Y788896D01*
X224200Y788861D01*
X224106Y788829D01*
X224011Y788801D01*
X223915Y788776D01*
X223817Y788755D01*
X223719Y788738D01*
X223621Y788725D01*
X223522Y788716D01*
X223422Y788710D01*
X223323Y788708D01*
X223179Y788710D01*
X223034Y788716D01*
X222890Y788725D01*
X222747Y788738D01*
X222603Y788755D01*
X222460Y788776D01*
X222318Y788801D01*
X222177Y788829D01*
X222036Y788861D01*
X221896Y788897D01*
X221757Y788936D01*
X221619Y788979D01*
X221483Y789026D01*
X221347Y789076D01*
X221213Y789130D01*
X221081Y789187D01*
X220950Y789248D01*
X220821Y789312D01*
X220693Y789380D01*
X220567Y789450D01*
X220443Y789525D01*
X220322Y789602D01*
X220202Y789683D01*
X220084Y789766D01*
X219969Y789853D01*
X219856Y789943D01*
X219745Y790036D01*
X219637Y790131D01*
X219531Y790230D01*
X219428Y790331D01*
X219753Y797796D02*
X219755Y797895D01*
X219761Y797995D01*
X219770Y798094D01*
X219783Y798192D01*
X219800Y798290D01*
X219821Y798388D01*
X219846Y798484D01*
X219874Y798579D01*
X219906Y798673D01*
X219941Y798766D01*
X219980Y798858D01*
X220023Y798948D01*
X220068Y799036D01*
X220118Y799123D01*
X220170Y799207D01*
X220226Y799290D01*
X220284Y799370D01*
X220346Y799448D01*
X220411Y799523D01*
X220479Y799596D01*
X220549Y799666D01*
X220622Y799734D01*
X220697Y799799D01*
X220775Y799861D01*
X220855Y799919D01*
X220938Y799975D01*
X221022Y800027D01*
X221109Y800077D01*
X221197Y800122D01*
X221287Y800165D01*
X221379Y800204D01*
X221472Y800239D01*
X221566Y800271D01*
X221661Y800299D01*
X221758Y800324D01*
X221855Y800345D01*
X221953Y800362D01*
X222051Y800375D01*
X222150Y800384D01*
X222250Y800390D01*
X222349Y800392D01*
X222485Y800390D01*
X222621Y800384D01*
X222757Y800375D01*
X222893Y800362D01*
X223028Y800344D01*
X223162Y800324D01*
X223296Y800299D01*
X223430Y800271D01*
X223562Y800238D01*
X223693Y800203D01*
X223824Y800163D01*
X223953Y800120D01*
X224081Y800074D01*
X224207Y800023D01*
X224333Y799970D01*
X224456Y799912D01*
X224578Y799852D01*
X224698Y799788D01*
X224817Y799720D01*
X224933Y799650D01*
X225047Y799576D01*
X225160Y799499D01*
X225270Y799418D01*
X221051Y795524D02*
X220965Y795577D01*
X220881Y795634D01*
X220799Y795693D01*
X220719Y795756D01*
X220642Y795822D01*
X220567Y795890D01*
X220495Y795962D01*
X220426Y796036D01*
X220360Y796113D01*
X220297Y796192D01*
X220237Y796274D01*
X220180Y796358D01*
X220126Y796444D01*
X220076Y796532D01*
X220029Y796622D01*
X219985Y796713D01*
X219946Y796807D01*
X219909Y796901D01*
X219877Y796997D01*
X219848Y797095D01*
X219823Y797193D01*
X219802Y797292D01*
X219784Y797392D01*
X219771Y797492D01*
X219761Y797593D01*
X219755Y797695D01*
X219753Y797796D01*
X224621Y793576D02*
X224707Y793523D01*
X224791Y793466D01*
X224873Y793407D01*
X224953Y793344D01*
X225030Y793278D01*
X225105Y793210D01*
X225177Y793138D01*
X225246Y793064D01*
X225312Y792987D01*
X225375Y792908D01*
X225435Y792826D01*
X225492Y792742D01*
X225546Y792656D01*
X225596Y792568D01*
X225643Y792478D01*
X225687Y792387D01*
X225726Y792293D01*
X225763Y792199D01*
X225795Y792103D01*
X225824Y792005D01*
X225849Y791907D01*
X225870Y791808D01*
X225888Y791708D01*
X225901Y791608D01*
X225911Y791507D01*
X225917Y791405D01*
X225919Y791304D01*
X224621Y793576D02*
X221051Y795524D01*
X230881Y788708D02*
X236073Y788708D01*
X230881Y788708D02*
X230881Y800392D01*
X236073Y800392D01*
X234775Y795199D02*
X230881Y795199D01*
X240838Y800392D02*
X240838Y788708D01*
X240838Y800392D02*
X244083Y800392D01*
X244196Y800390D01*
X244309Y800384D01*
X244422Y800374D01*
X244535Y800360D01*
X244647Y800343D01*
X244758Y800321D01*
X244868Y800296D01*
X244978Y800266D01*
X245086Y800233D01*
X245193Y800196D01*
X245299Y800156D01*
X245403Y800111D01*
X245506Y800063D01*
X245607Y800012D01*
X245706Y799957D01*
X245803Y799899D01*
X245898Y799837D01*
X245991Y799772D01*
X246081Y799704D01*
X246169Y799633D01*
X246255Y799558D01*
X246338Y799481D01*
X246418Y799401D01*
X246495Y799318D01*
X246570Y799232D01*
X246641Y799144D01*
X246709Y799054D01*
X246774Y798961D01*
X246836Y798866D01*
X246894Y798769D01*
X246949Y798670D01*
X247000Y798569D01*
X247048Y798466D01*
X247093Y798362D01*
X247133Y798256D01*
X247170Y798149D01*
X247203Y798041D01*
X247233Y797931D01*
X247258Y797821D01*
X247280Y797710D01*
X247297Y797598D01*
X247311Y797485D01*
X247321Y797372D01*
X247327Y797259D01*
X247329Y797146D01*
X247327Y797033D01*
X247321Y796920D01*
X247311Y796807D01*
X247297Y796694D01*
X247280Y796582D01*
X247258Y796471D01*
X247233Y796361D01*
X247203Y796251D01*
X247170Y796143D01*
X247133Y796036D01*
X247093Y795930D01*
X247048Y795826D01*
X247000Y795723D01*
X246949Y795622D01*
X246894Y795523D01*
X246836Y795426D01*
X246774Y795331D01*
X246709Y795238D01*
X246641Y795148D01*
X246570Y795060D01*
X246495Y794974D01*
X246418Y794891D01*
X246338Y794811D01*
X246255Y794734D01*
X246169Y794659D01*
X246081Y794588D01*
X245991Y794520D01*
X245898Y794455D01*
X245803Y794393D01*
X245706Y794335D01*
X245607Y794280D01*
X245506Y794229D01*
X245403Y794181D01*
X245299Y794136D01*
X245193Y794096D01*
X245086Y794059D01*
X244978Y794026D01*
X244868Y793996D01*
X244758Y793971D01*
X244647Y793949D01*
X244535Y793932D01*
X244422Y793918D01*
X244309Y793908D01*
X244196Y793902D01*
X244083Y793900D01*
X244083Y793901D02*
X240838Y793901D01*
X244732Y793901D02*
X247329Y788708D01*
X255440Y788708D02*
X251545Y800392D01*
X259334Y800392D02*
X255440Y788708D01*
X263624Y791954D02*
X263624Y797146D01*
X263623Y797146D02*
X263625Y797259D01*
X263631Y797372D01*
X263641Y797485D01*
X263655Y797598D01*
X263672Y797710D01*
X263694Y797821D01*
X263719Y797931D01*
X263749Y798041D01*
X263782Y798149D01*
X263819Y798256D01*
X263859Y798362D01*
X263904Y798466D01*
X263952Y798569D01*
X264003Y798670D01*
X264058Y798769D01*
X264116Y798866D01*
X264178Y798961D01*
X264243Y799054D01*
X264311Y799144D01*
X264382Y799232D01*
X264457Y799318D01*
X264534Y799401D01*
X264614Y799481D01*
X264697Y799558D01*
X264783Y799633D01*
X264871Y799704D01*
X264961Y799772D01*
X265054Y799837D01*
X265149Y799899D01*
X265246Y799957D01*
X265345Y800012D01*
X265446Y800063D01*
X265549Y800111D01*
X265653Y800156D01*
X265759Y800196D01*
X265866Y800233D01*
X265974Y800266D01*
X266084Y800296D01*
X266194Y800321D01*
X266305Y800343D01*
X266417Y800360D01*
X266530Y800374D01*
X266643Y800384D01*
X266756Y800390D01*
X266869Y800392D01*
X266982Y800390D01*
X267095Y800384D01*
X267208Y800374D01*
X267321Y800360D01*
X267433Y800343D01*
X267544Y800321D01*
X267654Y800296D01*
X267764Y800266D01*
X267872Y800233D01*
X267979Y800196D01*
X268085Y800156D01*
X268189Y800111D01*
X268292Y800063D01*
X268393Y800012D01*
X268492Y799957D01*
X268589Y799899D01*
X268684Y799837D01*
X268777Y799772D01*
X268867Y799704D01*
X268955Y799633D01*
X269041Y799558D01*
X269124Y799481D01*
X269204Y799401D01*
X269281Y799318D01*
X269356Y799232D01*
X269427Y799144D01*
X269495Y799054D01*
X269560Y798961D01*
X269622Y798866D01*
X269680Y798769D01*
X269735Y798670D01*
X269786Y798569D01*
X269834Y798466D01*
X269879Y798362D01*
X269919Y798256D01*
X269956Y798149D01*
X269989Y798041D01*
X270019Y797931D01*
X270044Y797821D01*
X270066Y797710D01*
X270083Y797598D01*
X270097Y797485D01*
X270107Y797372D01*
X270113Y797259D01*
X270115Y797146D01*
X270115Y791954D01*
X270113Y791841D01*
X270107Y791728D01*
X270097Y791615D01*
X270083Y791502D01*
X270066Y791390D01*
X270044Y791279D01*
X270019Y791169D01*
X269989Y791059D01*
X269956Y790951D01*
X269919Y790844D01*
X269879Y790738D01*
X269834Y790634D01*
X269786Y790531D01*
X269735Y790430D01*
X269680Y790331D01*
X269622Y790234D01*
X269560Y790139D01*
X269495Y790046D01*
X269427Y789956D01*
X269356Y789868D01*
X269281Y789782D01*
X269204Y789699D01*
X269124Y789619D01*
X269041Y789542D01*
X268955Y789467D01*
X268867Y789396D01*
X268777Y789328D01*
X268684Y789263D01*
X268589Y789201D01*
X268492Y789143D01*
X268393Y789088D01*
X268292Y789037D01*
X268189Y788989D01*
X268085Y788944D01*
X267979Y788904D01*
X267872Y788867D01*
X267764Y788834D01*
X267654Y788804D01*
X267544Y788779D01*
X267433Y788757D01*
X267321Y788740D01*
X267208Y788726D01*
X267095Y788716D01*
X266982Y788710D01*
X266869Y788708D01*
X266756Y788710D01*
X266643Y788716D01*
X266530Y788726D01*
X266417Y788740D01*
X266305Y788757D01*
X266194Y788779D01*
X266084Y788804D01*
X265974Y788834D01*
X265866Y788867D01*
X265759Y788904D01*
X265653Y788944D01*
X265549Y788989D01*
X265446Y789037D01*
X265345Y789088D01*
X265246Y789143D01*
X265149Y789201D01*
X265054Y789263D01*
X264961Y789328D01*
X264871Y789396D01*
X264783Y789467D01*
X264697Y789542D01*
X264614Y789619D01*
X264534Y789699D01*
X264457Y789782D01*
X264382Y789868D01*
X264311Y789956D01*
X264243Y790046D01*
X264178Y790139D01*
X264116Y790234D01*
X264058Y790331D01*
X264003Y790430D01*
X263952Y790531D01*
X263904Y790634D01*
X263859Y790738D01*
X263819Y790844D01*
X263782Y790951D01*
X263749Y791059D01*
X263719Y791169D01*
X263694Y791279D01*
X263672Y791390D01*
X263655Y791502D01*
X263641Y791615D01*
X263631Y791728D01*
X263625Y791841D01*
X263623Y791954D01*
X274560Y787410D02*
X279753Y787410D01*
X287712Y788708D02*
X287811Y788710D01*
X287911Y788716D01*
X288010Y788725D01*
X288108Y788738D01*
X288206Y788755D01*
X288304Y788776D01*
X288400Y788801D01*
X288495Y788829D01*
X288589Y788861D01*
X288682Y788896D01*
X288774Y788935D01*
X288864Y788978D01*
X288952Y789023D01*
X289039Y789073D01*
X289123Y789125D01*
X289206Y789181D01*
X289286Y789239D01*
X289364Y789301D01*
X289439Y789366D01*
X289512Y789434D01*
X289582Y789504D01*
X289650Y789577D01*
X289715Y789652D01*
X289777Y789730D01*
X289835Y789810D01*
X289891Y789893D01*
X289943Y789977D01*
X289993Y790064D01*
X290038Y790152D01*
X290081Y790242D01*
X290120Y790334D01*
X290155Y790427D01*
X290187Y790521D01*
X290215Y790616D01*
X290240Y790712D01*
X290261Y790810D01*
X290278Y790908D01*
X290291Y791006D01*
X290300Y791105D01*
X290306Y791205D01*
X290308Y791304D01*
X287712Y788708D02*
X287568Y788710D01*
X287423Y788716D01*
X287279Y788725D01*
X287136Y788738D01*
X286992Y788755D01*
X286849Y788776D01*
X286707Y788801D01*
X286566Y788829D01*
X286425Y788861D01*
X286285Y788897D01*
X286146Y788936D01*
X286008Y788979D01*
X285872Y789026D01*
X285736Y789076D01*
X285602Y789130D01*
X285470Y789187D01*
X285339Y789248D01*
X285210Y789312D01*
X285082Y789380D01*
X284956Y789450D01*
X284832Y789525D01*
X284711Y789602D01*
X284591Y789683D01*
X284473Y789766D01*
X284358Y789853D01*
X284245Y789943D01*
X284134Y790036D01*
X284026Y790131D01*
X283920Y790230D01*
X283817Y790331D01*
X284142Y797796D02*
X284144Y797895D01*
X284150Y797995D01*
X284159Y798094D01*
X284172Y798192D01*
X284189Y798290D01*
X284210Y798388D01*
X284235Y798484D01*
X284263Y798579D01*
X284295Y798673D01*
X284330Y798766D01*
X284369Y798858D01*
X284412Y798948D01*
X284457Y799036D01*
X284507Y799123D01*
X284559Y799207D01*
X284615Y799290D01*
X284673Y799370D01*
X284735Y799448D01*
X284800Y799523D01*
X284868Y799596D01*
X284938Y799666D01*
X285011Y799734D01*
X285086Y799799D01*
X285164Y799861D01*
X285244Y799919D01*
X285327Y799975D01*
X285411Y800027D01*
X285498Y800077D01*
X285586Y800122D01*
X285676Y800165D01*
X285768Y800204D01*
X285861Y800239D01*
X285955Y800271D01*
X286050Y800299D01*
X286147Y800324D01*
X286244Y800345D01*
X286342Y800362D01*
X286440Y800375D01*
X286539Y800384D01*
X286639Y800390D01*
X286738Y800392D01*
X286874Y800390D01*
X287010Y800384D01*
X287146Y800375D01*
X287282Y800362D01*
X287417Y800344D01*
X287551Y800324D01*
X287685Y800299D01*
X287819Y800271D01*
X287951Y800238D01*
X288082Y800203D01*
X288213Y800163D01*
X288342Y800120D01*
X288470Y800074D01*
X288596Y800023D01*
X288722Y799970D01*
X288845Y799912D01*
X288967Y799852D01*
X289087Y799788D01*
X289206Y799720D01*
X289322Y799650D01*
X289436Y799576D01*
X289549Y799499D01*
X289659Y799418D01*
X285439Y795524D02*
X285353Y795577D01*
X285269Y795634D01*
X285187Y795693D01*
X285107Y795756D01*
X285030Y795822D01*
X284955Y795890D01*
X284883Y795962D01*
X284814Y796036D01*
X284748Y796113D01*
X284685Y796192D01*
X284625Y796274D01*
X284568Y796358D01*
X284514Y796444D01*
X284464Y796532D01*
X284417Y796622D01*
X284373Y796713D01*
X284334Y796807D01*
X284297Y796901D01*
X284265Y796997D01*
X284236Y797095D01*
X284211Y797193D01*
X284190Y797292D01*
X284172Y797392D01*
X284159Y797492D01*
X284149Y797593D01*
X284143Y797695D01*
X284141Y797796D01*
X289010Y793576D02*
X289096Y793523D01*
X289180Y793466D01*
X289262Y793407D01*
X289342Y793344D01*
X289419Y793278D01*
X289494Y793210D01*
X289566Y793138D01*
X289635Y793064D01*
X289701Y792987D01*
X289764Y792908D01*
X289824Y792826D01*
X289881Y792742D01*
X289935Y792656D01*
X289985Y792568D01*
X290032Y792478D01*
X290076Y792387D01*
X290115Y792293D01*
X290152Y792199D01*
X290184Y792103D01*
X290213Y792005D01*
X290238Y791907D01*
X290259Y791808D01*
X290277Y791708D01*
X290290Y791608D01*
X290300Y791507D01*
X290306Y791405D01*
X290308Y791304D01*
X289010Y793576D02*
X285440Y795524D01*
X295825Y800392D02*
X295825Y788708D01*
X294527Y788708D02*
X297124Y788708D01*
X297124Y800392D02*
X294527Y800392D01*
X306649Y795199D02*
X308596Y795199D01*
X308596Y788708D01*
X304701Y788708D01*
X304602Y788710D01*
X304502Y788716D01*
X304403Y788725D01*
X304305Y788738D01*
X304207Y788755D01*
X304109Y788776D01*
X304013Y788801D01*
X303918Y788829D01*
X303824Y788861D01*
X303731Y788896D01*
X303639Y788935D01*
X303549Y788978D01*
X303461Y789023D01*
X303374Y789073D01*
X303290Y789125D01*
X303207Y789181D01*
X303127Y789239D01*
X303049Y789301D01*
X302974Y789366D01*
X302901Y789434D01*
X302831Y789504D01*
X302763Y789577D01*
X302698Y789652D01*
X302636Y789730D01*
X302578Y789810D01*
X302522Y789893D01*
X302470Y789977D01*
X302420Y790064D01*
X302375Y790152D01*
X302332Y790242D01*
X302293Y790334D01*
X302258Y790427D01*
X302226Y790521D01*
X302198Y790616D01*
X302173Y790712D01*
X302152Y790810D01*
X302135Y790908D01*
X302122Y791006D01*
X302113Y791105D01*
X302107Y791205D01*
X302105Y791304D01*
X302105Y797796D01*
X302107Y797895D01*
X302113Y797995D01*
X302122Y798094D01*
X302135Y798192D01*
X302152Y798290D01*
X302173Y798388D01*
X302198Y798484D01*
X302226Y798579D01*
X302258Y798673D01*
X302293Y798766D01*
X302332Y798858D01*
X302375Y798948D01*
X302420Y799036D01*
X302470Y799123D01*
X302522Y799207D01*
X302578Y799290D01*
X302636Y799370D01*
X302698Y799448D01*
X302763Y799523D01*
X302831Y799596D01*
X302901Y799666D01*
X302974Y799734D01*
X303049Y799799D01*
X303127Y799861D01*
X303207Y799919D01*
X303290Y799975D01*
X303374Y800027D01*
X303461Y800077D01*
X303549Y800122D01*
X303639Y800165D01*
X303731Y800204D01*
X303823Y800239D01*
X303918Y800271D01*
X304013Y800299D01*
X304109Y800324D01*
X304207Y800345D01*
X304305Y800362D01*
X304403Y800375D01*
X304502Y800384D01*
X304602Y800390D01*
X304701Y800392D01*
X308596Y800392D01*
D11*
X84800Y440400D02*
X28800Y440400D01*
X14800Y440400D01*
X14800Y370400D01*
X28800Y370400D01*
X84800Y370400D01*
X84800Y440400D01*
X28800Y440400D02*
X28800Y370400D01*
D12*
X89408Y368808D02*
X101092Y368808D01*
X101092Y374001D01*
X101092Y378714D02*
X101092Y383907D01*
X101092Y378714D02*
X89408Y378714D01*
X89408Y383907D01*
X94601Y382609D02*
X94601Y378714D01*
X89408Y388597D02*
X101092Y388597D01*
X89408Y388597D02*
X89408Y391843D01*
X89410Y391956D01*
X89416Y392069D01*
X89426Y392182D01*
X89440Y392295D01*
X89457Y392407D01*
X89479Y392518D01*
X89504Y392628D01*
X89534Y392738D01*
X89567Y392846D01*
X89604Y392953D01*
X89644Y393059D01*
X89689Y393163D01*
X89737Y393266D01*
X89788Y393367D01*
X89843Y393466D01*
X89901Y393563D01*
X89963Y393658D01*
X90028Y393751D01*
X90096Y393841D01*
X90167Y393929D01*
X90242Y394015D01*
X90319Y394098D01*
X90399Y394178D01*
X90482Y394255D01*
X90568Y394330D01*
X90656Y394401D01*
X90746Y394469D01*
X90839Y394534D01*
X90934Y394596D01*
X91031Y394654D01*
X91130Y394709D01*
X91231Y394760D01*
X91334Y394808D01*
X91438Y394853D01*
X91544Y394893D01*
X91651Y394930D01*
X91759Y394963D01*
X91869Y394993D01*
X91979Y395018D01*
X92090Y395040D01*
X92202Y395057D01*
X92315Y395071D01*
X92428Y395081D01*
X92541Y395087D01*
X92654Y395089D01*
X97846Y395089D01*
X97959Y395087D01*
X98072Y395081D01*
X98185Y395071D01*
X98298Y395057D01*
X98410Y395040D01*
X98521Y395018D01*
X98631Y394993D01*
X98741Y394963D01*
X98849Y394930D01*
X98956Y394893D01*
X99062Y394853D01*
X99166Y394808D01*
X99269Y394760D01*
X99370Y394709D01*
X99469Y394654D01*
X99566Y394596D01*
X99661Y394534D01*
X99754Y394469D01*
X99844Y394401D01*
X99932Y394330D01*
X100018Y394255D01*
X100101Y394178D01*
X100181Y394098D01*
X100258Y394015D01*
X100333Y393929D01*
X100404Y393841D01*
X100472Y393751D01*
X100537Y393658D01*
X100599Y393563D01*
X100657Y393466D01*
X100712Y393367D01*
X100763Y393266D01*
X100811Y393163D01*
X100856Y393059D01*
X100896Y392953D01*
X100933Y392846D01*
X100966Y392738D01*
X100996Y392628D01*
X101021Y392518D01*
X101043Y392407D01*
X101060Y392295D01*
X101074Y392182D01*
X101084Y392069D01*
X101090Y391956D01*
X101092Y391843D01*
X101092Y388597D01*
X102390Y399915D02*
X102390Y405107D01*
X101092Y410103D02*
X89408Y410103D01*
X89408Y413348D01*
X89410Y413461D01*
X89416Y413574D01*
X89426Y413687D01*
X89440Y413800D01*
X89457Y413912D01*
X89479Y414023D01*
X89504Y414133D01*
X89534Y414243D01*
X89567Y414351D01*
X89604Y414458D01*
X89644Y414564D01*
X89689Y414668D01*
X89737Y414771D01*
X89788Y414872D01*
X89843Y414971D01*
X89901Y415068D01*
X89963Y415163D01*
X90028Y415256D01*
X90096Y415346D01*
X90167Y415434D01*
X90242Y415520D01*
X90319Y415603D01*
X90399Y415683D01*
X90482Y415760D01*
X90568Y415835D01*
X90656Y415906D01*
X90746Y415974D01*
X90839Y416039D01*
X90934Y416101D01*
X91031Y416159D01*
X91130Y416214D01*
X91231Y416265D01*
X91334Y416313D01*
X91438Y416358D01*
X91544Y416398D01*
X91651Y416435D01*
X91759Y416468D01*
X91869Y416498D01*
X91979Y416523D01*
X92090Y416545D01*
X92202Y416562D01*
X92315Y416576D01*
X92428Y416586D01*
X92541Y416592D01*
X92654Y416594D01*
X92767Y416592D01*
X92880Y416586D01*
X92993Y416576D01*
X93106Y416562D01*
X93218Y416545D01*
X93329Y416523D01*
X93439Y416498D01*
X93549Y416468D01*
X93657Y416435D01*
X93764Y416398D01*
X93870Y416358D01*
X93974Y416313D01*
X94077Y416265D01*
X94178Y416214D01*
X94277Y416159D01*
X94374Y416101D01*
X94469Y416039D01*
X94562Y415974D01*
X94652Y415906D01*
X94740Y415835D01*
X94826Y415760D01*
X94909Y415683D01*
X94989Y415603D01*
X95066Y415520D01*
X95141Y415434D01*
X95212Y415346D01*
X95280Y415256D01*
X95345Y415163D01*
X95407Y415068D01*
X95465Y414971D01*
X95520Y414872D01*
X95571Y414771D01*
X95619Y414668D01*
X95664Y414564D01*
X95704Y414458D01*
X95741Y414351D01*
X95774Y414243D01*
X95804Y414133D01*
X95829Y414023D01*
X95851Y413912D01*
X95868Y413800D01*
X95882Y413687D01*
X95892Y413574D01*
X95898Y413461D01*
X95900Y413348D01*
X95899Y413348D02*
X95899Y410103D01*
X89408Y420559D02*
X101092Y423155D01*
X93303Y425752D01*
X101092Y428348D01*
X89408Y430945D01*
X89408Y435915D02*
X101092Y435915D01*
X89408Y435915D02*
X89408Y439161D01*
X89410Y439274D01*
X89416Y439387D01*
X89426Y439500D01*
X89440Y439613D01*
X89457Y439725D01*
X89479Y439836D01*
X89504Y439946D01*
X89534Y440056D01*
X89567Y440164D01*
X89604Y440271D01*
X89644Y440377D01*
X89689Y440481D01*
X89737Y440584D01*
X89788Y440685D01*
X89843Y440784D01*
X89901Y440881D01*
X89963Y440976D01*
X90028Y441069D01*
X90096Y441159D01*
X90167Y441247D01*
X90242Y441333D01*
X90319Y441416D01*
X90399Y441496D01*
X90482Y441573D01*
X90568Y441648D01*
X90656Y441719D01*
X90746Y441787D01*
X90839Y441852D01*
X90934Y441914D01*
X91031Y441972D01*
X91130Y442027D01*
X91231Y442078D01*
X91334Y442126D01*
X91438Y442171D01*
X91544Y442211D01*
X91651Y442248D01*
X91759Y442281D01*
X91869Y442311D01*
X91979Y442336D01*
X92090Y442358D01*
X92202Y442375D01*
X92315Y442389D01*
X92428Y442399D01*
X92541Y442405D01*
X92654Y442407D01*
X92767Y442405D01*
X92880Y442399D01*
X92993Y442389D01*
X93106Y442375D01*
X93218Y442358D01*
X93329Y442336D01*
X93439Y442311D01*
X93549Y442281D01*
X93657Y442248D01*
X93764Y442211D01*
X93870Y442171D01*
X93974Y442126D01*
X94077Y442078D01*
X94178Y442027D01*
X94277Y441972D01*
X94374Y441914D01*
X94469Y441852D01*
X94562Y441787D01*
X94652Y441719D01*
X94740Y441648D01*
X94826Y441573D01*
X94909Y441496D01*
X94989Y441416D01*
X95066Y441333D01*
X95141Y441247D01*
X95212Y441159D01*
X95280Y441069D01*
X95345Y440976D01*
X95407Y440881D01*
X95465Y440784D01*
X95520Y440685D01*
X95571Y440584D01*
X95619Y440481D01*
X95664Y440377D01*
X95704Y440271D01*
X95741Y440164D01*
X95774Y440056D01*
X95804Y439946D01*
X95829Y439836D01*
X95851Y439725D01*
X95868Y439613D01*
X95882Y439500D01*
X95892Y439387D01*
X95898Y439274D01*
X95900Y439161D01*
X95899Y439161D02*
X95899Y435915D01*
X95899Y439810D02*
X101092Y442406D01*
D11*
X84800Y364200D02*
X28800Y364200D01*
X14800Y364200D01*
X14800Y294200D01*
X28800Y294200D01*
X84800Y294200D01*
X84800Y364200D01*
X28800Y364200D02*
X28800Y294200D01*
D12*
X89408Y279908D02*
X101092Y279908D01*
X101092Y285101D01*
X101092Y289814D02*
X101092Y295007D01*
X101092Y289814D02*
X89408Y289814D01*
X89408Y295007D01*
X94601Y293709D02*
X94601Y289814D01*
X89408Y299697D02*
X101092Y299697D01*
X89408Y299697D02*
X89408Y302943D01*
X89410Y303056D01*
X89416Y303169D01*
X89426Y303282D01*
X89440Y303395D01*
X89457Y303507D01*
X89479Y303618D01*
X89504Y303728D01*
X89534Y303838D01*
X89567Y303946D01*
X89604Y304053D01*
X89644Y304159D01*
X89689Y304263D01*
X89737Y304366D01*
X89788Y304467D01*
X89843Y304566D01*
X89901Y304663D01*
X89963Y304758D01*
X90028Y304851D01*
X90096Y304941D01*
X90167Y305029D01*
X90242Y305115D01*
X90319Y305198D01*
X90399Y305278D01*
X90482Y305355D01*
X90568Y305430D01*
X90656Y305501D01*
X90746Y305569D01*
X90839Y305634D01*
X90934Y305696D01*
X91031Y305754D01*
X91130Y305809D01*
X91231Y305860D01*
X91334Y305908D01*
X91438Y305953D01*
X91544Y305993D01*
X91651Y306030D01*
X91759Y306063D01*
X91869Y306093D01*
X91979Y306118D01*
X92090Y306140D01*
X92202Y306157D01*
X92315Y306171D01*
X92428Y306181D01*
X92541Y306187D01*
X92654Y306189D01*
X97846Y306189D01*
X97959Y306187D01*
X98072Y306181D01*
X98185Y306171D01*
X98298Y306157D01*
X98410Y306140D01*
X98521Y306118D01*
X98631Y306093D01*
X98741Y306063D01*
X98849Y306030D01*
X98956Y305993D01*
X99062Y305953D01*
X99166Y305908D01*
X99269Y305860D01*
X99370Y305809D01*
X99469Y305754D01*
X99566Y305696D01*
X99661Y305634D01*
X99754Y305569D01*
X99844Y305501D01*
X99932Y305430D01*
X100018Y305355D01*
X100101Y305278D01*
X100181Y305198D01*
X100258Y305115D01*
X100333Y305029D01*
X100404Y304941D01*
X100472Y304851D01*
X100537Y304758D01*
X100599Y304663D01*
X100657Y304566D01*
X100712Y304467D01*
X100763Y304366D01*
X100811Y304263D01*
X100856Y304159D01*
X100896Y304053D01*
X100933Y303946D01*
X100966Y303838D01*
X100996Y303728D01*
X101021Y303618D01*
X101043Y303507D01*
X101060Y303395D01*
X101074Y303282D01*
X101084Y303169D01*
X101090Y303056D01*
X101092Y302943D01*
X101092Y299697D01*
X102390Y311015D02*
X102390Y316207D01*
X101092Y324166D02*
X101090Y324265D01*
X101084Y324365D01*
X101075Y324464D01*
X101062Y324562D01*
X101045Y324660D01*
X101024Y324758D01*
X100999Y324854D01*
X100971Y324949D01*
X100939Y325043D01*
X100904Y325136D01*
X100865Y325228D01*
X100822Y325318D01*
X100777Y325406D01*
X100727Y325493D01*
X100675Y325577D01*
X100619Y325660D01*
X100561Y325740D01*
X100499Y325818D01*
X100434Y325893D01*
X100366Y325966D01*
X100296Y326036D01*
X100223Y326104D01*
X100148Y326169D01*
X100070Y326231D01*
X99990Y326289D01*
X99907Y326345D01*
X99823Y326397D01*
X99736Y326447D01*
X99648Y326492D01*
X99558Y326535D01*
X99466Y326574D01*
X99373Y326609D01*
X99279Y326641D01*
X99184Y326669D01*
X99088Y326694D01*
X98990Y326715D01*
X98892Y326732D01*
X98794Y326745D01*
X98695Y326754D01*
X98595Y326760D01*
X98496Y326762D01*
X101092Y324166D02*
X101090Y324022D01*
X101084Y323877D01*
X101075Y323733D01*
X101062Y323590D01*
X101045Y323446D01*
X101024Y323303D01*
X100999Y323161D01*
X100971Y323020D01*
X100939Y322879D01*
X100903Y322739D01*
X100864Y322600D01*
X100821Y322462D01*
X100774Y322326D01*
X100724Y322190D01*
X100670Y322056D01*
X100613Y321924D01*
X100552Y321793D01*
X100488Y321664D01*
X100420Y321536D01*
X100350Y321410D01*
X100275Y321286D01*
X100198Y321165D01*
X100117Y321045D01*
X100034Y320927D01*
X99947Y320812D01*
X99857Y320699D01*
X99764Y320588D01*
X99669Y320480D01*
X99570Y320374D01*
X99469Y320271D01*
X92004Y320596D02*
X91905Y320598D01*
X91805Y320604D01*
X91706Y320613D01*
X91608Y320626D01*
X91510Y320643D01*
X91412Y320664D01*
X91316Y320689D01*
X91221Y320717D01*
X91127Y320749D01*
X91034Y320784D01*
X90942Y320823D01*
X90852Y320866D01*
X90764Y320911D01*
X90677Y320961D01*
X90593Y321013D01*
X90510Y321069D01*
X90430Y321127D01*
X90352Y321189D01*
X90277Y321254D01*
X90204Y321322D01*
X90134Y321392D01*
X90066Y321465D01*
X90001Y321540D01*
X89939Y321618D01*
X89881Y321698D01*
X89825Y321781D01*
X89773Y321865D01*
X89723Y321952D01*
X89678Y322040D01*
X89635Y322130D01*
X89596Y322222D01*
X89561Y322315D01*
X89529Y322409D01*
X89501Y322504D01*
X89476Y322600D01*
X89455Y322698D01*
X89438Y322796D01*
X89425Y322894D01*
X89416Y322993D01*
X89410Y323093D01*
X89408Y323192D01*
X89410Y323328D01*
X89416Y323464D01*
X89425Y323600D01*
X89438Y323736D01*
X89456Y323871D01*
X89476Y324005D01*
X89501Y324139D01*
X89529Y324273D01*
X89562Y324405D01*
X89597Y324536D01*
X89637Y324667D01*
X89680Y324796D01*
X89726Y324924D01*
X89777Y325050D01*
X89830Y325176D01*
X89888Y325299D01*
X89948Y325421D01*
X90012Y325541D01*
X90080Y325660D01*
X90150Y325776D01*
X90224Y325890D01*
X90301Y326003D01*
X90382Y326113D01*
X94276Y321894D02*
X94223Y321808D01*
X94166Y321724D01*
X94107Y321642D01*
X94044Y321562D01*
X93978Y321485D01*
X93910Y321410D01*
X93838Y321338D01*
X93764Y321269D01*
X93687Y321203D01*
X93608Y321140D01*
X93526Y321080D01*
X93442Y321023D01*
X93356Y320969D01*
X93268Y320919D01*
X93178Y320872D01*
X93087Y320828D01*
X92993Y320789D01*
X92899Y320752D01*
X92803Y320720D01*
X92705Y320691D01*
X92607Y320666D01*
X92508Y320645D01*
X92408Y320627D01*
X92308Y320614D01*
X92207Y320604D01*
X92105Y320598D01*
X92004Y320596D01*
X96224Y325464D02*
X96277Y325550D01*
X96334Y325634D01*
X96393Y325716D01*
X96456Y325796D01*
X96522Y325873D01*
X96590Y325948D01*
X96662Y326020D01*
X96736Y326089D01*
X96813Y326155D01*
X96892Y326218D01*
X96974Y326278D01*
X97058Y326335D01*
X97144Y326389D01*
X97232Y326439D01*
X97322Y326486D01*
X97413Y326530D01*
X97507Y326569D01*
X97601Y326606D01*
X97697Y326638D01*
X97795Y326667D01*
X97893Y326692D01*
X97992Y326713D01*
X98092Y326731D01*
X98192Y326744D01*
X98293Y326754D01*
X98395Y326760D01*
X98496Y326762D01*
X96224Y325464D02*
X94276Y321894D01*
X89408Y332280D02*
X101092Y332280D01*
X101092Y330982D02*
X101092Y333578D01*
X89408Y333578D02*
X89408Y330982D01*
X94601Y343103D02*
X94601Y345050D01*
X101092Y345050D01*
X101092Y341156D01*
X101090Y341057D01*
X101084Y340957D01*
X101075Y340858D01*
X101062Y340760D01*
X101045Y340662D01*
X101024Y340564D01*
X100999Y340468D01*
X100971Y340373D01*
X100939Y340279D01*
X100904Y340186D01*
X100865Y340094D01*
X100822Y340004D01*
X100777Y339916D01*
X100727Y339829D01*
X100675Y339745D01*
X100619Y339662D01*
X100561Y339582D01*
X100499Y339504D01*
X100434Y339429D01*
X100366Y339356D01*
X100296Y339286D01*
X100223Y339218D01*
X100148Y339153D01*
X100070Y339091D01*
X99990Y339033D01*
X99907Y338977D01*
X99823Y338925D01*
X99736Y338875D01*
X99648Y338830D01*
X99558Y338787D01*
X99466Y338748D01*
X99373Y338713D01*
X99279Y338681D01*
X99184Y338653D01*
X99088Y338628D01*
X98990Y338607D01*
X98892Y338590D01*
X98794Y338577D01*
X98695Y338568D01*
X98595Y338562D01*
X98496Y338560D01*
X98496Y338559D02*
X92004Y338559D01*
X91905Y338561D01*
X91805Y338567D01*
X91706Y338576D01*
X91608Y338589D01*
X91510Y338607D01*
X91412Y338627D01*
X91316Y338652D01*
X91220Y338680D01*
X91126Y338712D01*
X91033Y338747D01*
X90942Y338786D01*
X90852Y338829D01*
X90763Y338874D01*
X90677Y338924D01*
X90592Y338976D01*
X90510Y339032D01*
X90430Y339091D01*
X90352Y339152D01*
X90276Y339217D01*
X90203Y339285D01*
X90133Y339355D01*
X90065Y339428D01*
X90000Y339504D01*
X89939Y339582D01*
X89880Y339662D01*
X89824Y339744D01*
X89772Y339829D01*
X89723Y339915D01*
X89677Y340004D01*
X89634Y340094D01*
X89595Y340185D01*
X89560Y340278D01*
X89528Y340372D01*
X89500Y340468D01*
X89475Y340564D01*
X89455Y340662D01*
X89437Y340760D01*
X89424Y340858D01*
X89415Y340957D01*
X89409Y341056D01*
X89407Y341156D01*
X89408Y341156D02*
X89408Y345050D01*
D10*
X577850Y444500D02*
X590550Y444500D01*
X596900Y438150D01*
X596900Y425450D01*
X590550Y419100D01*
X596900Y438150D02*
X603250Y444500D01*
X615950Y444500D01*
X622300Y438150D01*
X622300Y425450D01*
X615950Y419100D01*
X603250Y419100D01*
X596900Y425450D01*
X552450Y444500D02*
X546100Y438150D01*
X552450Y444500D02*
X565150Y444500D01*
X571500Y438150D01*
X571500Y425450D01*
X565150Y419100D01*
X552450Y419100D01*
X546100Y425450D01*
X571500Y438150D02*
X577850Y444500D01*
X571500Y425450D02*
X577850Y419100D01*
X590550Y419100D01*
X514350Y444500D02*
X501650Y444500D01*
X514350Y444500D02*
X520700Y438150D01*
X520700Y425450D01*
X514350Y419100D01*
X520700Y438150D02*
X527050Y444500D01*
X539750Y444500D01*
X546100Y438150D01*
X546100Y425450D01*
X539750Y419100D01*
X527050Y419100D01*
X520700Y425450D01*
X476250Y444500D02*
X469900Y438150D01*
X476250Y444500D02*
X488950Y444500D01*
X495300Y438150D01*
X495300Y425450D01*
X488950Y419100D01*
X476250Y419100D01*
X469900Y425450D01*
X495300Y438150D02*
X501650Y444500D01*
X495300Y425450D02*
X501650Y419100D01*
X514350Y419100D01*
X438150Y444500D02*
X425450Y444500D01*
X438150Y444500D02*
X444500Y438150D01*
X444500Y425450D01*
X438150Y419100D01*
X444500Y438150D02*
X450850Y444500D01*
X463550Y444500D01*
X469900Y438150D01*
X469900Y425450D01*
X463550Y419100D01*
X450850Y419100D01*
X444500Y425450D01*
X400050Y444500D02*
X393700Y438150D01*
X400050Y444500D02*
X412750Y444500D01*
X419100Y438150D01*
X419100Y425450D01*
X412750Y419100D01*
X400050Y419100D01*
X393700Y425450D01*
X419100Y438150D02*
X425450Y444500D01*
X419100Y425450D02*
X425450Y419100D01*
X438150Y419100D01*
X361950Y444500D02*
X349250Y444500D01*
X361950Y444500D02*
X368300Y438150D01*
X368300Y425450D01*
X361950Y419100D01*
X368300Y438150D02*
X374650Y444500D01*
X387350Y444500D01*
X393700Y438150D01*
X393700Y425450D01*
X387350Y419100D01*
X374650Y419100D01*
X368300Y425450D01*
X323850Y444500D02*
X317500Y438150D01*
X323850Y444500D02*
X336550Y444500D01*
X342900Y438150D01*
X342900Y425450D01*
X336550Y419100D01*
X323850Y419100D01*
X317500Y425450D01*
X342900Y438150D02*
X349250Y444500D01*
X342900Y425450D02*
X349250Y419100D01*
X361950Y419100D01*
X285750Y444500D02*
X273050Y444500D01*
X285750Y444500D02*
X292100Y438150D01*
X292100Y425450D01*
X285750Y419100D01*
X292100Y438150D02*
X298450Y444500D01*
X311150Y444500D01*
X317500Y438150D01*
X317500Y425450D01*
X311150Y419100D01*
X298450Y419100D01*
X292100Y425450D01*
X266700Y425450D02*
X266700Y438150D01*
X273050Y444500D01*
X266700Y425450D02*
X273050Y419100D01*
X285750Y419100D01*
X622300Y438150D02*
X628650Y444500D01*
X641350Y444500D01*
X647700Y438150D01*
X647700Y425450D01*
X641350Y419100D01*
X628650Y419100D01*
X622300Y425450D01*
D11*
X270383Y453263D02*
X270383Y462153D01*
X270383Y453263D02*
X270381Y453163D01*
X270375Y453064D01*
X270365Y452964D01*
X270352Y452866D01*
X270334Y452767D01*
X270313Y452670D01*
X270288Y452574D01*
X270259Y452478D01*
X270226Y452384D01*
X270190Y452291D01*
X270150Y452200D01*
X270106Y452110D01*
X270059Y452022D01*
X270009Y451936D01*
X269955Y451852D01*
X269898Y451770D01*
X269838Y451691D01*
X269774Y451613D01*
X269708Y451539D01*
X269639Y451467D01*
X269567Y451398D01*
X269493Y451332D01*
X269415Y451268D01*
X269336Y451208D01*
X269254Y451151D01*
X269170Y451097D01*
X269084Y451047D01*
X268996Y451000D01*
X268906Y450956D01*
X268815Y450916D01*
X268722Y450880D01*
X268628Y450847D01*
X268532Y450818D01*
X268436Y450793D01*
X268339Y450772D01*
X268240Y450754D01*
X268142Y450741D01*
X268042Y450731D01*
X267943Y450725D01*
X267843Y450723D01*
X266573Y450723D01*
X276363Y450723D02*
X276363Y462153D01*
X279538Y462153D01*
X279649Y462151D01*
X279759Y462145D01*
X279870Y462136D01*
X279980Y462122D01*
X280089Y462105D01*
X280198Y462084D01*
X280306Y462059D01*
X280413Y462030D01*
X280519Y461998D01*
X280624Y461962D01*
X280727Y461922D01*
X280829Y461879D01*
X280930Y461832D01*
X281029Y461781D01*
X281126Y461728D01*
X281220Y461671D01*
X281313Y461610D01*
X281404Y461547D01*
X281493Y461480D01*
X281579Y461410D01*
X281662Y461337D01*
X281744Y461262D01*
X281822Y461184D01*
X281897Y461102D01*
X281970Y461019D01*
X282040Y460933D01*
X282107Y460844D01*
X282170Y460753D01*
X282231Y460660D01*
X282288Y460565D01*
X282341Y460469D01*
X282392Y460370D01*
X282439Y460269D01*
X282482Y460167D01*
X282522Y460064D01*
X282558Y459959D01*
X282590Y459853D01*
X282619Y459746D01*
X282644Y459638D01*
X282665Y459529D01*
X282682Y459420D01*
X282696Y459310D01*
X282705Y459199D01*
X282711Y459089D01*
X282713Y458978D01*
X282711Y458867D01*
X282705Y458757D01*
X282696Y458646D01*
X282682Y458536D01*
X282665Y458427D01*
X282644Y458318D01*
X282619Y458210D01*
X282590Y458103D01*
X282558Y457997D01*
X282522Y457892D01*
X282482Y457789D01*
X282439Y457687D01*
X282392Y457586D01*
X282341Y457487D01*
X282288Y457390D01*
X282231Y457296D01*
X282170Y457203D01*
X282107Y457112D01*
X282040Y457023D01*
X281970Y456937D01*
X281897Y456854D01*
X281822Y456772D01*
X281744Y456694D01*
X281662Y456619D01*
X281579Y456546D01*
X281493Y456476D01*
X281404Y456409D01*
X281313Y456346D01*
X281220Y456285D01*
X281126Y456228D01*
X281029Y456175D01*
X280930Y456124D01*
X280829Y456077D01*
X280727Y456034D01*
X280624Y455994D01*
X280519Y455958D01*
X280413Y455926D01*
X280306Y455897D01*
X280198Y455872D01*
X280089Y455851D01*
X279980Y455834D01*
X279870Y455820D01*
X279759Y455811D01*
X279649Y455805D01*
X279538Y455803D01*
X276363Y455803D01*
X287222Y459613D02*
X290397Y462153D01*
X290397Y450723D01*
X287222Y450723D02*
X293572Y450723D01*
D10*
X577850Y596900D02*
X590550Y596900D01*
X596900Y590550D01*
X596900Y577850D01*
X590550Y571500D01*
X596900Y590550D02*
X603250Y596900D01*
X615950Y596900D01*
X622300Y590550D01*
X622300Y577850D01*
X615950Y571500D01*
X603250Y571500D01*
X596900Y577850D01*
X552450Y596900D02*
X546100Y590550D01*
X552450Y596900D02*
X565150Y596900D01*
X571500Y590550D01*
X571500Y577850D01*
X565150Y571500D01*
X552450Y571500D01*
X546100Y577850D01*
X571500Y590550D02*
X577850Y596900D01*
X571500Y577850D02*
X577850Y571500D01*
X590550Y571500D01*
X514350Y596900D02*
X501650Y596900D01*
X514350Y596900D02*
X520700Y590550D01*
X520700Y577850D01*
X514350Y571500D01*
X520700Y590550D02*
X527050Y596900D01*
X539750Y596900D01*
X546100Y590550D01*
X546100Y577850D01*
X539750Y571500D01*
X527050Y571500D01*
X520700Y577850D01*
X476250Y596900D02*
X469900Y590550D01*
X476250Y596900D02*
X488950Y596900D01*
X495300Y590550D01*
X495300Y577850D01*
X488950Y571500D01*
X476250Y571500D01*
X469900Y577850D01*
X495300Y590550D02*
X501650Y596900D01*
X495300Y577850D02*
X501650Y571500D01*
X514350Y571500D01*
X438150Y596900D02*
X425450Y596900D01*
X438150Y596900D02*
X444500Y590550D01*
X444500Y577850D01*
X438150Y571500D01*
X444500Y590550D02*
X450850Y596900D01*
X463550Y596900D01*
X469900Y590550D01*
X469900Y577850D01*
X463550Y571500D01*
X450850Y571500D01*
X444500Y577850D01*
X400050Y596900D02*
X393700Y590550D01*
X400050Y596900D02*
X412750Y596900D01*
X419100Y590550D01*
X419100Y577850D01*
X412750Y571500D01*
X400050Y571500D01*
X393700Y577850D01*
X419100Y590550D02*
X425450Y596900D01*
X419100Y577850D02*
X425450Y571500D01*
X438150Y571500D01*
X361950Y596900D02*
X349250Y596900D01*
X361950Y596900D02*
X368300Y590550D01*
X368300Y577850D01*
X361950Y571500D01*
X368300Y590550D02*
X374650Y596900D01*
X387350Y596900D01*
X393700Y590550D01*
X393700Y577850D01*
X387350Y571500D01*
X374650Y571500D01*
X368300Y577850D01*
X323850Y596900D02*
X317500Y590550D01*
X323850Y596900D02*
X336550Y596900D01*
X342900Y590550D01*
X342900Y577850D01*
X336550Y571500D01*
X323850Y571500D01*
X317500Y577850D01*
X342900Y590550D02*
X349250Y596900D01*
X342900Y577850D02*
X349250Y571500D01*
X361950Y571500D01*
X285750Y596900D02*
X273050Y596900D01*
X285750Y596900D02*
X292100Y590550D01*
X292100Y577850D01*
X285750Y571500D01*
X292100Y590550D02*
X298450Y596900D01*
X311150Y596900D01*
X317500Y590550D01*
X317500Y577850D01*
X311150Y571500D01*
X298450Y571500D01*
X292100Y577850D01*
X266700Y577850D02*
X266700Y590550D01*
X273050Y596900D01*
X266700Y577850D02*
X273050Y571500D01*
X285750Y571500D01*
X622300Y590550D02*
X628650Y596900D01*
X641350Y596900D01*
X647700Y590550D01*
X647700Y577850D01*
X641350Y571500D01*
X628650Y571500D01*
X622300Y577850D01*
D11*
X270383Y605663D02*
X270383Y614553D01*
X270383Y605663D02*
X270381Y605563D01*
X270375Y605464D01*
X270365Y605364D01*
X270352Y605266D01*
X270334Y605167D01*
X270313Y605070D01*
X270288Y604974D01*
X270259Y604878D01*
X270226Y604784D01*
X270190Y604691D01*
X270150Y604600D01*
X270106Y604510D01*
X270059Y604422D01*
X270009Y604336D01*
X269955Y604252D01*
X269898Y604170D01*
X269838Y604091D01*
X269774Y604013D01*
X269708Y603939D01*
X269639Y603867D01*
X269567Y603798D01*
X269493Y603732D01*
X269415Y603668D01*
X269336Y603608D01*
X269254Y603551D01*
X269170Y603497D01*
X269084Y603447D01*
X268996Y603400D01*
X268906Y603356D01*
X268815Y603316D01*
X268722Y603280D01*
X268628Y603247D01*
X268532Y603218D01*
X268436Y603193D01*
X268339Y603172D01*
X268240Y603154D01*
X268142Y603141D01*
X268042Y603131D01*
X267943Y603125D01*
X267843Y603123D01*
X266573Y603123D01*
X276363Y603123D02*
X276363Y614553D01*
X279538Y614553D01*
X279649Y614551D01*
X279759Y614545D01*
X279870Y614536D01*
X279980Y614522D01*
X280089Y614505D01*
X280198Y614484D01*
X280306Y614459D01*
X280413Y614430D01*
X280519Y614398D01*
X280624Y614362D01*
X280727Y614322D01*
X280829Y614279D01*
X280930Y614232D01*
X281029Y614181D01*
X281126Y614128D01*
X281220Y614071D01*
X281313Y614010D01*
X281404Y613947D01*
X281493Y613880D01*
X281579Y613810D01*
X281662Y613737D01*
X281744Y613662D01*
X281822Y613584D01*
X281897Y613502D01*
X281970Y613419D01*
X282040Y613333D01*
X282107Y613244D01*
X282170Y613153D01*
X282231Y613060D01*
X282288Y612965D01*
X282341Y612869D01*
X282392Y612770D01*
X282439Y612669D01*
X282482Y612567D01*
X282522Y612464D01*
X282558Y612359D01*
X282590Y612253D01*
X282619Y612146D01*
X282644Y612038D01*
X282665Y611929D01*
X282682Y611820D01*
X282696Y611710D01*
X282705Y611599D01*
X282711Y611489D01*
X282713Y611378D01*
X282711Y611267D01*
X282705Y611157D01*
X282696Y611046D01*
X282682Y610936D01*
X282665Y610827D01*
X282644Y610718D01*
X282619Y610610D01*
X282590Y610503D01*
X282558Y610397D01*
X282522Y610292D01*
X282482Y610189D01*
X282439Y610087D01*
X282392Y609986D01*
X282341Y609887D01*
X282288Y609791D01*
X282231Y609696D01*
X282170Y609603D01*
X282107Y609512D01*
X282040Y609423D01*
X281970Y609337D01*
X281897Y609254D01*
X281822Y609172D01*
X281744Y609094D01*
X281662Y609019D01*
X281579Y608946D01*
X281493Y608876D01*
X281404Y608809D01*
X281313Y608746D01*
X281220Y608685D01*
X281126Y608628D01*
X281029Y608575D01*
X280930Y608524D01*
X280829Y608477D01*
X280727Y608434D01*
X280624Y608394D01*
X280519Y608358D01*
X280413Y608326D01*
X280306Y608297D01*
X280198Y608272D01*
X280089Y608251D01*
X279980Y608234D01*
X279870Y608220D01*
X279759Y608211D01*
X279649Y608205D01*
X279538Y608203D01*
X276363Y608203D01*
X290714Y614554D02*
X290818Y614552D01*
X290923Y614546D01*
X291027Y614537D01*
X291130Y614524D01*
X291233Y614506D01*
X291335Y614486D01*
X291437Y614461D01*
X291537Y614433D01*
X291637Y614401D01*
X291735Y614365D01*
X291832Y614326D01*
X291927Y614284D01*
X292021Y614238D01*
X292113Y614188D01*
X292203Y614136D01*
X292291Y614080D01*
X292377Y614020D01*
X292461Y613958D01*
X292542Y613893D01*
X292621Y613825D01*
X292698Y613753D01*
X292771Y613680D01*
X292843Y613603D01*
X292911Y613524D01*
X292976Y613443D01*
X293038Y613359D01*
X293098Y613273D01*
X293154Y613185D01*
X293206Y613095D01*
X293256Y613003D01*
X293302Y612909D01*
X293344Y612814D01*
X293383Y612717D01*
X293419Y612619D01*
X293451Y612519D01*
X293479Y612419D01*
X293504Y612317D01*
X293524Y612215D01*
X293542Y612112D01*
X293555Y612009D01*
X293564Y611905D01*
X293570Y611800D01*
X293572Y611696D01*
X290714Y614553D02*
X290596Y614551D01*
X290477Y614545D01*
X290359Y614536D01*
X290242Y614523D01*
X290125Y614505D01*
X290008Y614485D01*
X289892Y614460D01*
X289777Y614432D01*
X289664Y614399D01*
X289551Y614364D01*
X289439Y614324D01*
X289329Y614282D01*
X289220Y614235D01*
X289112Y614185D01*
X289007Y614132D01*
X288903Y614075D01*
X288801Y614015D01*
X288701Y613952D01*
X288603Y613885D01*
X288507Y613816D01*
X288414Y613743D01*
X288323Y613667D01*
X288234Y613589D01*
X288148Y613507D01*
X288065Y613423D01*
X287984Y613337D01*
X287907Y613247D01*
X287832Y613156D01*
X287760Y613062D01*
X287691Y612965D01*
X287626Y612867D01*
X287563Y612766D01*
X287504Y612663D01*
X287448Y612559D01*
X287396Y612453D01*
X287347Y612345D01*
X287302Y612236D01*
X287260Y612125D01*
X287222Y612013D01*
X292620Y609474D02*
X292696Y609549D01*
X292771Y609628D01*
X292842Y609709D01*
X292911Y609793D01*
X292976Y609879D01*
X293038Y609967D01*
X293098Y610057D01*
X293154Y610149D01*
X293207Y610244D01*
X293256Y610340D01*
X293302Y610438D01*
X293345Y610537D01*
X293384Y610638D01*
X293419Y610740D01*
X293451Y610843D01*
X293479Y610947D01*
X293504Y611052D01*
X293525Y611159D01*
X293542Y611265D01*
X293555Y611372D01*
X293564Y611480D01*
X293570Y611588D01*
X293572Y611696D01*
X292619Y609473D02*
X287222Y603123D01*
X293572Y603123D01*
D12*
X295148Y149352D02*
X295148Y137668D01*
X295148Y149352D02*
X298394Y149352D01*
X298507Y149350D01*
X298620Y149344D01*
X298733Y149334D01*
X298846Y149320D01*
X298958Y149303D01*
X299069Y149281D01*
X299179Y149256D01*
X299289Y149226D01*
X299397Y149193D01*
X299504Y149156D01*
X299610Y149116D01*
X299714Y149071D01*
X299817Y149023D01*
X299918Y148972D01*
X300017Y148917D01*
X300114Y148859D01*
X300209Y148797D01*
X300302Y148732D01*
X300392Y148664D01*
X300480Y148593D01*
X300566Y148518D01*
X300649Y148441D01*
X300729Y148361D01*
X300806Y148278D01*
X300881Y148192D01*
X300952Y148104D01*
X301020Y148014D01*
X301085Y147921D01*
X301147Y147826D01*
X301205Y147729D01*
X301260Y147630D01*
X301311Y147529D01*
X301359Y147426D01*
X301404Y147322D01*
X301444Y147216D01*
X301481Y147109D01*
X301514Y147001D01*
X301544Y146891D01*
X301569Y146781D01*
X301591Y146670D01*
X301608Y146558D01*
X301622Y146445D01*
X301632Y146332D01*
X301638Y146219D01*
X301640Y146106D01*
X301638Y145993D01*
X301632Y145880D01*
X301622Y145767D01*
X301608Y145654D01*
X301591Y145542D01*
X301569Y145431D01*
X301544Y145321D01*
X301514Y145211D01*
X301481Y145103D01*
X301444Y144996D01*
X301404Y144890D01*
X301359Y144786D01*
X301311Y144683D01*
X301260Y144582D01*
X301205Y144483D01*
X301147Y144386D01*
X301085Y144291D01*
X301020Y144198D01*
X300952Y144108D01*
X300881Y144020D01*
X300806Y143934D01*
X300729Y143851D01*
X300649Y143771D01*
X300566Y143694D01*
X300480Y143619D01*
X300392Y143548D01*
X300302Y143480D01*
X300209Y143415D01*
X300114Y143353D01*
X300017Y143295D01*
X299918Y143240D01*
X299817Y143189D01*
X299714Y143141D01*
X299610Y143096D01*
X299504Y143056D01*
X299397Y143019D01*
X299289Y142986D01*
X299179Y142956D01*
X299069Y142931D01*
X298958Y142909D01*
X298846Y142892D01*
X298733Y142878D01*
X298620Y142868D01*
X298507Y142862D01*
X298394Y142860D01*
X298394Y142861D02*
X295148Y142861D01*
X299043Y142861D02*
X301639Y137668D01*
X306504Y146756D02*
X309750Y149352D01*
X309750Y137668D01*
X312995Y137668D02*
X306504Y137668D01*
X244348Y137668D02*
X244348Y149352D01*
X247594Y149352D01*
X247707Y149350D01*
X247820Y149344D01*
X247933Y149334D01*
X248046Y149320D01*
X248158Y149303D01*
X248269Y149281D01*
X248379Y149256D01*
X248489Y149226D01*
X248597Y149193D01*
X248704Y149156D01*
X248810Y149116D01*
X248914Y149071D01*
X249017Y149023D01*
X249118Y148972D01*
X249217Y148917D01*
X249314Y148859D01*
X249409Y148797D01*
X249502Y148732D01*
X249592Y148664D01*
X249680Y148593D01*
X249766Y148518D01*
X249849Y148441D01*
X249929Y148361D01*
X250006Y148278D01*
X250081Y148192D01*
X250152Y148104D01*
X250220Y148014D01*
X250285Y147921D01*
X250347Y147826D01*
X250405Y147729D01*
X250460Y147630D01*
X250511Y147529D01*
X250559Y147426D01*
X250604Y147322D01*
X250644Y147216D01*
X250681Y147109D01*
X250714Y147001D01*
X250744Y146891D01*
X250769Y146781D01*
X250791Y146670D01*
X250808Y146558D01*
X250822Y146445D01*
X250832Y146332D01*
X250838Y146219D01*
X250840Y146106D01*
X250838Y145993D01*
X250832Y145880D01*
X250822Y145767D01*
X250808Y145654D01*
X250791Y145542D01*
X250769Y145431D01*
X250744Y145321D01*
X250714Y145211D01*
X250681Y145103D01*
X250644Y144996D01*
X250604Y144890D01*
X250559Y144786D01*
X250511Y144683D01*
X250460Y144582D01*
X250405Y144483D01*
X250347Y144386D01*
X250285Y144291D01*
X250220Y144198D01*
X250152Y144108D01*
X250081Y144020D01*
X250006Y143934D01*
X249929Y143851D01*
X249849Y143771D01*
X249766Y143694D01*
X249680Y143619D01*
X249592Y143548D01*
X249502Y143480D01*
X249409Y143415D01*
X249314Y143353D01*
X249217Y143295D01*
X249118Y143240D01*
X249017Y143189D01*
X248914Y143141D01*
X248810Y143096D01*
X248704Y143056D01*
X248597Y143019D01*
X248489Y142986D01*
X248379Y142956D01*
X248269Y142931D01*
X248158Y142909D01*
X248046Y142892D01*
X247933Y142878D01*
X247820Y142868D01*
X247707Y142862D01*
X247594Y142860D01*
X247594Y142861D02*
X244348Y142861D01*
X248243Y142861D02*
X250839Y137668D01*
X262195Y146431D02*
X262193Y146538D01*
X262187Y146644D01*
X262177Y146750D01*
X262164Y146856D01*
X262146Y146962D01*
X262125Y147066D01*
X262100Y147170D01*
X262071Y147273D01*
X262039Y147374D01*
X262002Y147474D01*
X261962Y147573D01*
X261919Y147671D01*
X261872Y147767D01*
X261821Y147861D01*
X261767Y147953D01*
X261710Y148043D01*
X261650Y148131D01*
X261586Y148216D01*
X261519Y148299D01*
X261449Y148380D01*
X261377Y148458D01*
X261301Y148534D01*
X261223Y148606D01*
X261142Y148676D01*
X261059Y148743D01*
X260974Y148807D01*
X260886Y148867D01*
X260796Y148924D01*
X260704Y148978D01*
X260610Y149029D01*
X260514Y149076D01*
X260416Y149119D01*
X260317Y149159D01*
X260217Y149196D01*
X260116Y149228D01*
X260013Y149257D01*
X259909Y149282D01*
X259805Y149303D01*
X259699Y149321D01*
X259593Y149334D01*
X259487Y149344D01*
X259381Y149350D01*
X259274Y149352D01*
X259153Y149350D01*
X259032Y149344D01*
X258912Y149334D01*
X258791Y149321D01*
X258672Y149303D01*
X258552Y149282D01*
X258434Y149257D01*
X258317Y149228D01*
X258200Y149195D01*
X258085Y149159D01*
X257971Y149118D01*
X257858Y149075D01*
X257746Y149027D01*
X257637Y148976D01*
X257529Y148921D01*
X257422Y148863D01*
X257318Y148802D01*
X257216Y148737D01*
X257116Y148669D01*
X257018Y148598D01*
X256922Y148524D01*
X256829Y148447D01*
X256739Y148366D01*
X256651Y148283D01*
X256566Y148197D01*
X256483Y148108D01*
X256404Y148017D01*
X256327Y147923D01*
X256254Y147827D01*
X256184Y147729D01*
X256117Y147628D01*
X256053Y147525D01*
X255993Y147420D01*
X255936Y147313D01*
X255882Y147205D01*
X255832Y147095D01*
X255786Y146983D01*
X255743Y146870D01*
X255704Y146755D01*
X261222Y144159D02*
X261301Y144236D01*
X261377Y144317D01*
X261450Y144400D01*
X261520Y144485D01*
X261587Y144573D01*
X261651Y144663D01*
X261711Y144755D01*
X261768Y144850D01*
X261822Y144946D01*
X261873Y145044D01*
X261920Y145144D01*
X261964Y145246D01*
X262004Y145349D01*
X262040Y145453D01*
X262072Y145559D01*
X262101Y145665D01*
X262126Y145773D01*
X262148Y145881D01*
X262165Y145991D01*
X262179Y146100D01*
X262188Y146210D01*
X262194Y146321D01*
X262196Y146431D01*
X261222Y144159D02*
X255704Y137668D01*
X262195Y137668D01*
X168148Y137668D02*
X168148Y149352D01*
X171394Y149352D01*
X171507Y149350D01*
X171620Y149344D01*
X171733Y149334D01*
X171846Y149320D01*
X171958Y149303D01*
X172069Y149281D01*
X172179Y149256D01*
X172289Y149226D01*
X172397Y149193D01*
X172504Y149156D01*
X172610Y149116D01*
X172714Y149071D01*
X172817Y149023D01*
X172918Y148972D01*
X173017Y148917D01*
X173114Y148859D01*
X173209Y148797D01*
X173302Y148732D01*
X173392Y148664D01*
X173480Y148593D01*
X173566Y148518D01*
X173649Y148441D01*
X173729Y148361D01*
X173806Y148278D01*
X173881Y148192D01*
X173952Y148104D01*
X174020Y148014D01*
X174085Y147921D01*
X174147Y147826D01*
X174205Y147729D01*
X174260Y147630D01*
X174311Y147529D01*
X174359Y147426D01*
X174404Y147322D01*
X174444Y147216D01*
X174481Y147109D01*
X174514Y147001D01*
X174544Y146891D01*
X174569Y146781D01*
X174591Y146670D01*
X174608Y146558D01*
X174622Y146445D01*
X174632Y146332D01*
X174638Y146219D01*
X174640Y146106D01*
X174638Y145993D01*
X174632Y145880D01*
X174622Y145767D01*
X174608Y145654D01*
X174591Y145542D01*
X174569Y145431D01*
X174544Y145321D01*
X174514Y145211D01*
X174481Y145103D01*
X174444Y144996D01*
X174404Y144890D01*
X174359Y144786D01*
X174311Y144683D01*
X174260Y144582D01*
X174205Y144483D01*
X174147Y144386D01*
X174085Y144291D01*
X174020Y144198D01*
X173952Y144108D01*
X173881Y144020D01*
X173806Y143934D01*
X173729Y143851D01*
X173649Y143771D01*
X173566Y143694D01*
X173480Y143619D01*
X173392Y143548D01*
X173302Y143480D01*
X173209Y143415D01*
X173114Y143353D01*
X173017Y143295D01*
X172918Y143240D01*
X172817Y143189D01*
X172714Y143141D01*
X172610Y143096D01*
X172504Y143056D01*
X172397Y143019D01*
X172289Y142986D01*
X172179Y142956D01*
X172069Y142931D01*
X171958Y142909D01*
X171846Y142892D01*
X171733Y142878D01*
X171620Y142868D01*
X171507Y142862D01*
X171394Y142860D01*
X171394Y142861D02*
X168148Y142861D01*
X172043Y142861D02*
X174639Y137668D01*
X179504Y137668D02*
X182750Y137668D01*
X182863Y137670D01*
X182976Y137676D01*
X183089Y137686D01*
X183202Y137700D01*
X183314Y137717D01*
X183425Y137739D01*
X183535Y137764D01*
X183645Y137794D01*
X183753Y137827D01*
X183860Y137864D01*
X183966Y137904D01*
X184070Y137949D01*
X184173Y137997D01*
X184274Y138048D01*
X184373Y138103D01*
X184470Y138161D01*
X184565Y138223D01*
X184658Y138288D01*
X184748Y138356D01*
X184836Y138427D01*
X184922Y138502D01*
X185005Y138579D01*
X185085Y138659D01*
X185162Y138742D01*
X185237Y138828D01*
X185308Y138916D01*
X185376Y139006D01*
X185441Y139099D01*
X185503Y139194D01*
X185561Y139291D01*
X185616Y139390D01*
X185667Y139491D01*
X185715Y139594D01*
X185760Y139698D01*
X185800Y139804D01*
X185837Y139911D01*
X185870Y140019D01*
X185900Y140129D01*
X185925Y140239D01*
X185947Y140350D01*
X185964Y140462D01*
X185978Y140575D01*
X185988Y140688D01*
X185994Y140801D01*
X185996Y140914D01*
X185994Y141027D01*
X185988Y141140D01*
X185978Y141253D01*
X185964Y141366D01*
X185947Y141478D01*
X185925Y141589D01*
X185900Y141699D01*
X185870Y141809D01*
X185837Y141917D01*
X185800Y142024D01*
X185760Y142130D01*
X185715Y142234D01*
X185667Y142337D01*
X185616Y142438D01*
X185561Y142537D01*
X185503Y142634D01*
X185441Y142729D01*
X185376Y142822D01*
X185308Y142912D01*
X185237Y143000D01*
X185162Y143086D01*
X185085Y143169D01*
X185005Y143249D01*
X184922Y143326D01*
X184836Y143401D01*
X184748Y143472D01*
X184658Y143540D01*
X184565Y143605D01*
X184470Y143667D01*
X184373Y143725D01*
X184274Y143780D01*
X184173Y143831D01*
X184070Y143879D01*
X183966Y143924D01*
X183860Y143964D01*
X183753Y144001D01*
X183645Y144034D01*
X183535Y144064D01*
X183425Y144089D01*
X183314Y144111D01*
X183202Y144128D01*
X183089Y144142D01*
X182976Y144152D01*
X182863Y144158D01*
X182750Y144160D01*
X183399Y149352D02*
X179504Y149352D01*
X183399Y149352D02*
X183500Y149350D01*
X183600Y149344D01*
X183700Y149334D01*
X183800Y149321D01*
X183899Y149303D01*
X183998Y149282D01*
X184095Y149257D01*
X184192Y149228D01*
X184287Y149195D01*
X184381Y149159D01*
X184473Y149119D01*
X184564Y149076D01*
X184653Y149029D01*
X184740Y148979D01*
X184826Y148925D01*
X184909Y148868D01*
X184989Y148808D01*
X185068Y148745D01*
X185144Y148678D01*
X185217Y148609D01*
X185287Y148537D01*
X185355Y148463D01*
X185420Y148386D01*
X185481Y148306D01*
X185540Y148224D01*
X185595Y148140D01*
X185647Y148054D01*
X185696Y147966D01*
X185741Y147876D01*
X185783Y147784D01*
X185821Y147691D01*
X185855Y147596D01*
X185886Y147501D01*
X185913Y147404D01*
X185936Y147306D01*
X185956Y147207D01*
X185971Y147107D01*
X185983Y147007D01*
X185991Y146907D01*
X185995Y146806D01*
X185995Y146706D01*
X185991Y146605D01*
X185983Y146505D01*
X185971Y146405D01*
X185956Y146305D01*
X185936Y146206D01*
X185913Y146108D01*
X185886Y146011D01*
X185855Y145916D01*
X185821Y145821D01*
X185783Y145728D01*
X185741Y145636D01*
X185696Y145546D01*
X185647Y145458D01*
X185595Y145372D01*
X185540Y145288D01*
X185481Y145206D01*
X185420Y145126D01*
X185355Y145049D01*
X185287Y144975D01*
X185217Y144903D01*
X185144Y144834D01*
X185068Y144767D01*
X184989Y144704D01*
X184909Y144644D01*
X184826Y144587D01*
X184740Y144533D01*
X184653Y144483D01*
X184564Y144436D01*
X184473Y144393D01*
X184381Y144353D01*
X184287Y144317D01*
X184192Y144284D01*
X184095Y144255D01*
X183998Y144230D01*
X183899Y144209D01*
X183800Y144191D01*
X183700Y144178D01*
X183600Y144168D01*
X183500Y144162D01*
X183399Y144160D01*
X183399Y144159D02*
X180803Y144159D01*
D11*
X499400Y84800D02*
X499400Y28800D01*
X499400Y14800D01*
X569400Y14800D01*
X569400Y28800D01*
X569400Y84800D01*
X499400Y84800D01*
X499400Y28800D02*
X569400Y28800D01*
D12*
X524801Y88608D02*
X524801Y100292D01*
X524801Y88608D02*
X529993Y88608D01*
X534707Y88608D02*
X539899Y88608D01*
X534707Y88608D02*
X534707Y100292D01*
X539899Y100292D01*
X538601Y95099D02*
X534707Y95099D01*
X544590Y100292D02*
X544590Y88608D01*
X544590Y100292D02*
X547835Y100292D01*
X547948Y100290D01*
X548061Y100284D01*
X548174Y100274D01*
X548287Y100260D01*
X548399Y100243D01*
X548510Y100221D01*
X548620Y100196D01*
X548730Y100166D01*
X548838Y100133D01*
X548945Y100096D01*
X549051Y100056D01*
X549155Y100011D01*
X549258Y99963D01*
X549359Y99912D01*
X549458Y99857D01*
X549555Y99799D01*
X549650Y99737D01*
X549743Y99672D01*
X549833Y99604D01*
X549921Y99533D01*
X550007Y99458D01*
X550090Y99381D01*
X550170Y99301D01*
X550247Y99218D01*
X550322Y99132D01*
X550393Y99044D01*
X550461Y98954D01*
X550526Y98861D01*
X550588Y98766D01*
X550646Y98669D01*
X550701Y98570D01*
X550752Y98469D01*
X550800Y98366D01*
X550845Y98262D01*
X550885Y98156D01*
X550922Y98049D01*
X550955Y97941D01*
X550985Y97831D01*
X551010Y97721D01*
X551032Y97610D01*
X551049Y97498D01*
X551063Y97385D01*
X551073Y97272D01*
X551079Y97159D01*
X551081Y97046D01*
X551081Y91854D01*
X551082Y91854D02*
X551080Y91741D01*
X551074Y91628D01*
X551064Y91515D01*
X551050Y91402D01*
X551033Y91290D01*
X551011Y91179D01*
X550986Y91069D01*
X550956Y90959D01*
X550923Y90851D01*
X550886Y90744D01*
X550846Y90638D01*
X550801Y90534D01*
X550753Y90431D01*
X550702Y90330D01*
X550647Y90231D01*
X550589Y90134D01*
X550527Y90039D01*
X550462Y89946D01*
X550394Y89856D01*
X550323Y89768D01*
X550248Y89682D01*
X550171Y89599D01*
X550091Y89519D01*
X550008Y89442D01*
X549922Y89367D01*
X549834Y89296D01*
X549744Y89228D01*
X549651Y89163D01*
X549556Y89101D01*
X549459Y89043D01*
X549360Y88988D01*
X549259Y88937D01*
X549156Y88889D01*
X549052Y88844D01*
X548946Y88804D01*
X548839Y88767D01*
X548731Y88734D01*
X548621Y88704D01*
X548511Y88679D01*
X548400Y88657D01*
X548288Y88640D01*
X548175Y88626D01*
X548062Y88616D01*
X547949Y88610D01*
X547836Y88608D01*
X547835Y88608D02*
X544590Y88608D01*
X556401Y97696D02*
X559646Y100292D01*
X559646Y88608D01*
X556401Y88608D02*
X562892Y88608D01*
D11*
X575600Y84800D02*
X575600Y28800D01*
X575600Y14800D01*
X645600Y14800D01*
X645600Y28800D01*
X645600Y84800D01*
X575600Y84800D01*
X575600Y28800D02*
X645600Y28800D01*
D12*
X580427Y88608D02*
X580427Y100292D01*
X580427Y88608D02*
X585619Y88608D01*
X590333Y88608D02*
X595525Y88608D01*
X590333Y88608D02*
X590333Y100292D01*
X595525Y100292D01*
X594227Y95099D02*
X590333Y95099D01*
X600216Y100292D02*
X600216Y88608D01*
X600216Y100292D02*
X603462Y100292D01*
X603575Y100290D01*
X603688Y100284D01*
X603801Y100274D01*
X603914Y100260D01*
X604026Y100243D01*
X604137Y100221D01*
X604247Y100196D01*
X604357Y100166D01*
X604465Y100133D01*
X604572Y100096D01*
X604678Y100056D01*
X604782Y100011D01*
X604885Y99963D01*
X604986Y99912D01*
X605085Y99857D01*
X605182Y99799D01*
X605277Y99737D01*
X605370Y99672D01*
X605460Y99604D01*
X605548Y99533D01*
X605634Y99458D01*
X605717Y99381D01*
X605797Y99301D01*
X605874Y99218D01*
X605949Y99132D01*
X606020Y99044D01*
X606088Y98954D01*
X606153Y98861D01*
X606215Y98766D01*
X606273Y98669D01*
X606328Y98570D01*
X606379Y98469D01*
X606427Y98366D01*
X606472Y98262D01*
X606512Y98156D01*
X606549Y98049D01*
X606582Y97941D01*
X606612Y97831D01*
X606637Y97721D01*
X606659Y97610D01*
X606676Y97498D01*
X606690Y97385D01*
X606700Y97272D01*
X606706Y97159D01*
X606708Y97046D01*
X606707Y97046D02*
X606707Y91854D01*
X606708Y91854D02*
X606706Y91741D01*
X606700Y91628D01*
X606690Y91515D01*
X606676Y91402D01*
X606659Y91290D01*
X606637Y91179D01*
X606612Y91069D01*
X606582Y90959D01*
X606549Y90851D01*
X606512Y90744D01*
X606472Y90638D01*
X606427Y90534D01*
X606379Y90431D01*
X606328Y90330D01*
X606273Y90231D01*
X606215Y90134D01*
X606153Y90039D01*
X606088Y89946D01*
X606020Y89856D01*
X605949Y89768D01*
X605874Y89682D01*
X605797Y89599D01*
X605717Y89519D01*
X605634Y89442D01*
X605548Y89367D01*
X605460Y89296D01*
X605370Y89228D01*
X605277Y89163D01*
X605182Y89101D01*
X605085Y89043D01*
X604986Y88988D01*
X604885Y88937D01*
X604782Y88889D01*
X604678Y88844D01*
X604572Y88804D01*
X604465Y88767D01*
X604357Y88734D01*
X604247Y88704D01*
X604137Y88679D01*
X604026Y88657D01*
X603914Y88640D01*
X603801Y88626D01*
X603688Y88616D01*
X603575Y88610D01*
X603462Y88608D01*
X600216Y88608D01*
X615597Y100292D02*
X615704Y100290D01*
X615810Y100284D01*
X615916Y100274D01*
X616022Y100261D01*
X616128Y100243D01*
X616232Y100222D01*
X616336Y100197D01*
X616439Y100168D01*
X616540Y100136D01*
X616640Y100099D01*
X616739Y100059D01*
X616837Y100016D01*
X616933Y99969D01*
X617027Y99918D01*
X617119Y99864D01*
X617209Y99807D01*
X617297Y99747D01*
X617382Y99683D01*
X617465Y99616D01*
X617546Y99546D01*
X617624Y99474D01*
X617700Y99398D01*
X617772Y99320D01*
X617842Y99239D01*
X617909Y99156D01*
X617973Y99071D01*
X618033Y98983D01*
X618090Y98893D01*
X618144Y98801D01*
X618195Y98707D01*
X618242Y98611D01*
X618285Y98513D01*
X618325Y98414D01*
X618362Y98314D01*
X618394Y98213D01*
X618423Y98110D01*
X618448Y98006D01*
X618469Y97902D01*
X618487Y97796D01*
X618500Y97690D01*
X618510Y97584D01*
X618516Y97478D01*
X618518Y97371D01*
X615597Y100292D02*
X615476Y100290D01*
X615355Y100284D01*
X615235Y100274D01*
X615114Y100261D01*
X614995Y100243D01*
X614875Y100222D01*
X614757Y100197D01*
X614640Y100168D01*
X614523Y100135D01*
X614408Y100099D01*
X614294Y100058D01*
X614181Y100015D01*
X614069Y99967D01*
X613960Y99916D01*
X613852Y99861D01*
X613745Y99803D01*
X613641Y99742D01*
X613539Y99677D01*
X613439Y99609D01*
X613341Y99538D01*
X613245Y99464D01*
X613152Y99387D01*
X613062Y99306D01*
X612974Y99223D01*
X612889Y99137D01*
X612806Y99048D01*
X612727Y98957D01*
X612650Y98863D01*
X612577Y98767D01*
X612507Y98669D01*
X612440Y98568D01*
X612376Y98465D01*
X612316Y98360D01*
X612259Y98253D01*
X612205Y98145D01*
X612155Y98035D01*
X612109Y97923D01*
X612066Y97810D01*
X612027Y97695D01*
X617545Y95099D02*
X617624Y95176D01*
X617700Y95257D01*
X617773Y95340D01*
X617843Y95425D01*
X617910Y95513D01*
X617974Y95603D01*
X618034Y95695D01*
X618091Y95790D01*
X618145Y95886D01*
X618196Y95984D01*
X618243Y96084D01*
X618287Y96186D01*
X618327Y96289D01*
X618363Y96393D01*
X618395Y96499D01*
X618424Y96605D01*
X618449Y96713D01*
X618471Y96821D01*
X618488Y96931D01*
X618502Y97040D01*
X618511Y97150D01*
X618517Y97261D01*
X618519Y97371D01*
X617544Y95099D02*
X612027Y88608D01*
X618518Y88608D01*
X622963Y87310D02*
X628156Y87310D01*
X632601Y88608D02*
X635846Y88608D01*
X635959Y88610D01*
X636072Y88616D01*
X636185Y88626D01*
X636298Y88640D01*
X636410Y88657D01*
X636521Y88679D01*
X636631Y88704D01*
X636741Y88734D01*
X636849Y88767D01*
X636956Y88804D01*
X637062Y88844D01*
X637166Y88889D01*
X637269Y88937D01*
X637370Y88988D01*
X637469Y89043D01*
X637566Y89101D01*
X637661Y89163D01*
X637754Y89228D01*
X637844Y89296D01*
X637932Y89367D01*
X638018Y89442D01*
X638101Y89519D01*
X638181Y89599D01*
X638258Y89682D01*
X638333Y89768D01*
X638404Y89856D01*
X638472Y89946D01*
X638537Y90039D01*
X638599Y90134D01*
X638657Y90231D01*
X638712Y90330D01*
X638763Y90431D01*
X638811Y90534D01*
X638856Y90638D01*
X638896Y90744D01*
X638933Y90851D01*
X638966Y90959D01*
X638996Y91069D01*
X639021Y91179D01*
X639043Y91290D01*
X639060Y91402D01*
X639074Y91515D01*
X639084Y91628D01*
X639090Y91741D01*
X639092Y91854D01*
X639090Y91967D01*
X639084Y92080D01*
X639074Y92193D01*
X639060Y92306D01*
X639043Y92418D01*
X639021Y92529D01*
X638996Y92639D01*
X638966Y92749D01*
X638933Y92857D01*
X638896Y92964D01*
X638856Y93070D01*
X638811Y93174D01*
X638763Y93277D01*
X638712Y93378D01*
X638657Y93477D01*
X638599Y93574D01*
X638537Y93669D01*
X638472Y93762D01*
X638404Y93852D01*
X638333Y93940D01*
X638258Y94026D01*
X638181Y94109D01*
X638101Y94189D01*
X638018Y94266D01*
X637932Y94341D01*
X637844Y94412D01*
X637754Y94480D01*
X637661Y94545D01*
X637566Y94607D01*
X637469Y94665D01*
X637370Y94720D01*
X637269Y94771D01*
X637166Y94819D01*
X637062Y94864D01*
X636956Y94904D01*
X636849Y94941D01*
X636741Y94974D01*
X636631Y95004D01*
X636521Y95029D01*
X636410Y95051D01*
X636298Y95068D01*
X636185Y95082D01*
X636072Y95092D01*
X635959Y95098D01*
X635846Y95100D01*
X636496Y100292D02*
X632601Y100292D01*
X636496Y100292D02*
X636597Y100290D01*
X636697Y100284D01*
X636797Y100274D01*
X636897Y100261D01*
X636996Y100243D01*
X637095Y100222D01*
X637192Y100197D01*
X637289Y100168D01*
X637384Y100135D01*
X637478Y100099D01*
X637570Y100059D01*
X637661Y100016D01*
X637750Y99969D01*
X637837Y99919D01*
X637923Y99865D01*
X638006Y99808D01*
X638086Y99748D01*
X638165Y99685D01*
X638241Y99618D01*
X638314Y99549D01*
X638384Y99477D01*
X638452Y99403D01*
X638517Y99326D01*
X638578Y99246D01*
X638637Y99164D01*
X638692Y99080D01*
X638744Y98994D01*
X638793Y98906D01*
X638838Y98816D01*
X638880Y98724D01*
X638918Y98631D01*
X638952Y98536D01*
X638983Y98441D01*
X639010Y98344D01*
X639033Y98246D01*
X639053Y98147D01*
X639068Y98047D01*
X639080Y97947D01*
X639088Y97847D01*
X639092Y97746D01*
X639092Y97646D01*
X639088Y97545D01*
X639080Y97445D01*
X639068Y97345D01*
X639053Y97245D01*
X639033Y97146D01*
X639010Y97048D01*
X638983Y96951D01*
X638952Y96856D01*
X638918Y96761D01*
X638880Y96668D01*
X638838Y96576D01*
X638793Y96486D01*
X638744Y96398D01*
X638692Y96312D01*
X638637Y96228D01*
X638578Y96146D01*
X638517Y96066D01*
X638452Y95989D01*
X638384Y95915D01*
X638314Y95843D01*
X638241Y95774D01*
X638165Y95707D01*
X638086Y95644D01*
X638006Y95584D01*
X637923Y95527D01*
X637837Y95473D01*
X637750Y95423D01*
X637661Y95376D01*
X637570Y95333D01*
X637478Y95293D01*
X637384Y95257D01*
X637289Y95224D01*
X637192Y95195D01*
X637095Y95170D01*
X636996Y95149D01*
X636897Y95131D01*
X636797Y95118D01*
X636697Y95108D01*
X636597Y95102D01*
X636496Y95100D01*
X636496Y95099D02*
X633899Y95099D01*
D11*
X397800Y84800D02*
X397800Y28800D01*
X397800Y14800D01*
X467800Y14800D01*
X467800Y28800D01*
X467800Y84800D01*
X397800Y84800D01*
X397800Y28800D02*
X467800Y28800D01*
D12*
X449528Y91204D02*
X449528Y100292D01*
X449527Y91204D02*
X449525Y91105D01*
X449519Y91005D01*
X449510Y90906D01*
X449497Y90808D01*
X449480Y90710D01*
X449459Y90612D01*
X449434Y90516D01*
X449406Y90421D01*
X449374Y90327D01*
X449339Y90234D01*
X449300Y90142D01*
X449257Y90052D01*
X449212Y89964D01*
X449162Y89877D01*
X449110Y89793D01*
X449054Y89710D01*
X448996Y89630D01*
X448934Y89552D01*
X448869Y89477D01*
X448801Y89404D01*
X448731Y89334D01*
X448658Y89266D01*
X448583Y89201D01*
X448505Y89139D01*
X448425Y89081D01*
X448342Y89025D01*
X448258Y88973D01*
X448171Y88923D01*
X448083Y88878D01*
X447993Y88835D01*
X447901Y88796D01*
X447808Y88761D01*
X447714Y88729D01*
X447619Y88701D01*
X447523Y88676D01*
X447425Y88655D01*
X447327Y88638D01*
X447229Y88625D01*
X447130Y88616D01*
X447030Y88610D01*
X446931Y88608D01*
X445633Y88608D01*
X454801Y97696D02*
X458046Y100292D01*
X458046Y88608D01*
X454801Y88608D02*
X461292Y88608D01*
X422148Y137668D02*
X422148Y149352D01*
X425394Y149352D01*
X425507Y149350D01*
X425620Y149344D01*
X425733Y149334D01*
X425846Y149320D01*
X425958Y149303D01*
X426069Y149281D01*
X426179Y149256D01*
X426289Y149226D01*
X426397Y149193D01*
X426504Y149156D01*
X426610Y149116D01*
X426714Y149071D01*
X426817Y149023D01*
X426918Y148972D01*
X427017Y148917D01*
X427114Y148859D01*
X427209Y148797D01*
X427302Y148732D01*
X427392Y148664D01*
X427480Y148593D01*
X427566Y148518D01*
X427649Y148441D01*
X427729Y148361D01*
X427806Y148278D01*
X427881Y148192D01*
X427952Y148104D01*
X428020Y148014D01*
X428085Y147921D01*
X428147Y147826D01*
X428205Y147729D01*
X428260Y147630D01*
X428311Y147529D01*
X428359Y147426D01*
X428404Y147322D01*
X428444Y147216D01*
X428481Y147109D01*
X428514Y147001D01*
X428544Y146891D01*
X428569Y146781D01*
X428591Y146670D01*
X428608Y146558D01*
X428622Y146445D01*
X428632Y146332D01*
X428638Y146219D01*
X428640Y146106D01*
X428638Y145993D01*
X428632Y145880D01*
X428622Y145767D01*
X428608Y145654D01*
X428591Y145542D01*
X428569Y145431D01*
X428544Y145321D01*
X428514Y145211D01*
X428481Y145103D01*
X428444Y144996D01*
X428404Y144890D01*
X428359Y144786D01*
X428311Y144683D01*
X428260Y144582D01*
X428205Y144483D01*
X428147Y144386D01*
X428085Y144291D01*
X428020Y144198D01*
X427952Y144108D01*
X427881Y144020D01*
X427806Y143934D01*
X427729Y143851D01*
X427649Y143771D01*
X427566Y143694D01*
X427480Y143619D01*
X427392Y143548D01*
X427302Y143480D01*
X427209Y143415D01*
X427114Y143353D01*
X427017Y143295D01*
X426918Y143240D01*
X426817Y143189D01*
X426714Y143141D01*
X426610Y143096D01*
X426504Y143056D01*
X426397Y143019D01*
X426289Y142986D01*
X426179Y142956D01*
X426069Y142931D01*
X425958Y142909D01*
X425846Y142892D01*
X425733Y142878D01*
X425620Y142868D01*
X425507Y142862D01*
X425394Y142860D01*
X425394Y142861D02*
X422148Y142861D01*
X426043Y142861D02*
X428639Y137668D01*
X433504Y140264D02*
X436101Y149352D01*
X433504Y140264D02*
X439995Y140264D01*
X438048Y142861D02*
X438048Y137668D01*
D11*
X84800Y719800D02*
X28800Y719800D01*
X14800Y719800D01*
X14800Y649800D01*
X28800Y649800D01*
X84800Y649800D01*
X84800Y719800D01*
X28800Y719800D02*
X28800Y649800D01*
D12*
X98496Y667399D02*
X98595Y667397D01*
X98695Y667391D01*
X98794Y667382D01*
X98892Y667369D01*
X98990Y667352D01*
X99088Y667331D01*
X99184Y667306D01*
X99279Y667278D01*
X99373Y667246D01*
X99466Y667211D01*
X99558Y667172D01*
X99648Y667129D01*
X99736Y667084D01*
X99823Y667034D01*
X99907Y666982D01*
X99990Y666926D01*
X100070Y666868D01*
X100148Y666806D01*
X100223Y666741D01*
X100296Y666673D01*
X100366Y666603D01*
X100434Y666530D01*
X100499Y666455D01*
X100561Y666377D01*
X100619Y666297D01*
X100675Y666214D01*
X100727Y666130D01*
X100777Y666043D01*
X100822Y665955D01*
X100865Y665865D01*
X100904Y665773D01*
X100939Y665680D01*
X100971Y665586D01*
X100999Y665491D01*
X101024Y665395D01*
X101045Y665297D01*
X101062Y665199D01*
X101075Y665101D01*
X101084Y665002D01*
X101090Y664902D01*
X101092Y664803D01*
X101090Y664659D01*
X101084Y664514D01*
X101075Y664370D01*
X101062Y664227D01*
X101045Y664083D01*
X101024Y663940D01*
X100999Y663798D01*
X100971Y663657D01*
X100939Y663516D01*
X100903Y663376D01*
X100864Y663237D01*
X100821Y663099D01*
X100774Y662963D01*
X100724Y662827D01*
X100670Y662693D01*
X100613Y662561D01*
X100552Y662430D01*
X100488Y662301D01*
X100420Y662173D01*
X100350Y662047D01*
X100275Y661923D01*
X100198Y661802D01*
X100117Y661682D01*
X100034Y661564D01*
X99947Y661449D01*
X99857Y661336D01*
X99764Y661225D01*
X99669Y661117D01*
X99570Y661011D01*
X99469Y660908D01*
X92004Y661233D02*
X91905Y661235D01*
X91805Y661241D01*
X91706Y661250D01*
X91608Y661263D01*
X91510Y661280D01*
X91412Y661301D01*
X91316Y661326D01*
X91221Y661354D01*
X91127Y661386D01*
X91034Y661421D01*
X90942Y661460D01*
X90852Y661503D01*
X90764Y661548D01*
X90677Y661598D01*
X90593Y661650D01*
X90510Y661706D01*
X90430Y661764D01*
X90352Y661826D01*
X90277Y661891D01*
X90204Y661959D01*
X90134Y662029D01*
X90066Y662102D01*
X90001Y662177D01*
X89939Y662255D01*
X89881Y662335D01*
X89825Y662418D01*
X89773Y662502D01*
X89723Y662589D01*
X89678Y662677D01*
X89635Y662767D01*
X89596Y662859D01*
X89561Y662952D01*
X89529Y663046D01*
X89501Y663141D01*
X89476Y663237D01*
X89455Y663335D01*
X89438Y663433D01*
X89425Y663531D01*
X89416Y663630D01*
X89410Y663730D01*
X89408Y663829D01*
X89410Y663965D01*
X89416Y664101D01*
X89425Y664237D01*
X89438Y664373D01*
X89456Y664508D01*
X89476Y664642D01*
X89501Y664776D01*
X89529Y664910D01*
X89562Y665042D01*
X89597Y665173D01*
X89637Y665304D01*
X89680Y665433D01*
X89726Y665561D01*
X89777Y665687D01*
X89830Y665813D01*
X89888Y665936D01*
X89948Y666058D01*
X90012Y666178D01*
X90080Y666297D01*
X90150Y666413D01*
X90224Y666527D01*
X90301Y666640D01*
X90382Y666750D01*
X94276Y662531D02*
X94223Y662445D01*
X94166Y662361D01*
X94107Y662279D01*
X94044Y662199D01*
X93978Y662122D01*
X93910Y662047D01*
X93838Y661975D01*
X93764Y661906D01*
X93687Y661840D01*
X93608Y661777D01*
X93526Y661717D01*
X93442Y661660D01*
X93356Y661606D01*
X93268Y661556D01*
X93178Y661509D01*
X93087Y661465D01*
X92993Y661426D01*
X92899Y661389D01*
X92803Y661357D01*
X92705Y661328D01*
X92607Y661303D01*
X92508Y661282D01*
X92408Y661264D01*
X92308Y661251D01*
X92207Y661241D01*
X92105Y661235D01*
X92004Y661233D01*
X96224Y666101D02*
X96277Y666187D01*
X96334Y666271D01*
X96393Y666353D01*
X96456Y666433D01*
X96522Y666510D01*
X96590Y666585D01*
X96662Y666657D01*
X96736Y666726D01*
X96813Y666792D01*
X96892Y666855D01*
X96974Y666915D01*
X97058Y666972D01*
X97144Y667026D01*
X97232Y667076D01*
X97322Y667123D01*
X97413Y667167D01*
X97507Y667206D01*
X97601Y667243D01*
X97697Y667275D01*
X97795Y667304D01*
X97893Y667329D01*
X97992Y667350D01*
X98092Y667368D01*
X98192Y667381D01*
X98293Y667391D01*
X98395Y667397D01*
X98496Y667399D01*
X96224Y666101D02*
X94276Y662531D01*
X89408Y672507D02*
X101092Y672507D01*
X89408Y672507D02*
X89408Y675753D01*
X89410Y675866D01*
X89416Y675979D01*
X89426Y676092D01*
X89440Y676205D01*
X89457Y676317D01*
X89479Y676428D01*
X89504Y676538D01*
X89534Y676648D01*
X89567Y676756D01*
X89604Y676863D01*
X89644Y676969D01*
X89689Y677073D01*
X89737Y677176D01*
X89788Y677277D01*
X89843Y677376D01*
X89901Y677473D01*
X89963Y677568D01*
X90028Y677661D01*
X90096Y677751D01*
X90167Y677839D01*
X90242Y677925D01*
X90319Y678008D01*
X90399Y678088D01*
X90482Y678165D01*
X90568Y678240D01*
X90656Y678311D01*
X90746Y678379D01*
X90839Y678444D01*
X90934Y678506D01*
X91031Y678564D01*
X91130Y678619D01*
X91231Y678670D01*
X91334Y678718D01*
X91438Y678763D01*
X91544Y678803D01*
X91651Y678840D01*
X91759Y678873D01*
X91869Y678903D01*
X91979Y678928D01*
X92090Y678950D01*
X92202Y678967D01*
X92315Y678981D01*
X92428Y678991D01*
X92541Y678997D01*
X92654Y678999D01*
X92767Y678997D01*
X92880Y678991D01*
X92993Y678981D01*
X93106Y678967D01*
X93218Y678950D01*
X93329Y678928D01*
X93439Y678903D01*
X93549Y678873D01*
X93657Y678840D01*
X93764Y678803D01*
X93870Y678763D01*
X93974Y678718D01*
X94077Y678670D01*
X94178Y678619D01*
X94277Y678564D01*
X94374Y678506D01*
X94469Y678444D01*
X94562Y678379D01*
X94652Y678311D01*
X94740Y678240D01*
X94826Y678165D01*
X94909Y678088D01*
X94989Y678008D01*
X95066Y677925D01*
X95141Y677839D01*
X95212Y677751D01*
X95280Y677661D01*
X95345Y677568D01*
X95407Y677473D01*
X95465Y677376D01*
X95520Y677277D01*
X95571Y677176D01*
X95619Y677073D01*
X95664Y676969D01*
X95704Y676863D01*
X95741Y676756D01*
X95774Y676648D01*
X95804Y676538D01*
X95829Y676428D01*
X95851Y676317D01*
X95868Y676205D01*
X95882Y676092D01*
X95892Y675979D01*
X95898Y675866D01*
X95900Y675753D01*
X95899Y675753D02*
X95899Y672507D01*
X101092Y683937D02*
X89408Y683937D01*
X89408Y690428D02*
X96548Y683937D01*
X93952Y686534D02*
X101092Y690428D01*
X102390Y694323D02*
X102390Y699516D01*
X101092Y707475D02*
X101090Y707574D01*
X101084Y707674D01*
X101075Y707773D01*
X101062Y707871D01*
X101045Y707969D01*
X101024Y708067D01*
X100999Y708163D01*
X100971Y708258D01*
X100939Y708352D01*
X100904Y708445D01*
X100865Y708537D01*
X100822Y708627D01*
X100777Y708715D01*
X100727Y708802D01*
X100675Y708886D01*
X100619Y708969D01*
X100561Y709049D01*
X100499Y709127D01*
X100434Y709202D01*
X100366Y709275D01*
X100296Y709345D01*
X100223Y709413D01*
X100148Y709478D01*
X100070Y709540D01*
X99990Y709598D01*
X99907Y709654D01*
X99823Y709706D01*
X99736Y709756D01*
X99648Y709801D01*
X99558Y709844D01*
X99466Y709883D01*
X99373Y709918D01*
X99279Y709950D01*
X99184Y709978D01*
X99088Y710003D01*
X98990Y710024D01*
X98892Y710041D01*
X98794Y710054D01*
X98695Y710063D01*
X98595Y710069D01*
X98496Y710071D01*
X101092Y707475D02*
X101090Y707331D01*
X101084Y707186D01*
X101075Y707042D01*
X101062Y706899D01*
X101045Y706755D01*
X101024Y706612D01*
X100999Y706470D01*
X100971Y706329D01*
X100939Y706188D01*
X100903Y706048D01*
X100864Y705909D01*
X100821Y705771D01*
X100774Y705635D01*
X100724Y705499D01*
X100670Y705365D01*
X100613Y705233D01*
X100552Y705102D01*
X100488Y704973D01*
X100420Y704845D01*
X100350Y704719D01*
X100275Y704595D01*
X100198Y704474D01*
X100117Y704354D01*
X100034Y704236D01*
X99947Y704121D01*
X99857Y704008D01*
X99764Y703897D01*
X99669Y703789D01*
X99570Y703683D01*
X99469Y703580D01*
X92004Y703905D02*
X91905Y703907D01*
X91805Y703913D01*
X91706Y703922D01*
X91608Y703935D01*
X91510Y703952D01*
X91412Y703973D01*
X91316Y703998D01*
X91221Y704026D01*
X91127Y704058D01*
X91034Y704093D01*
X90942Y704132D01*
X90852Y704175D01*
X90764Y704220D01*
X90677Y704270D01*
X90593Y704322D01*
X90510Y704378D01*
X90430Y704436D01*
X90352Y704498D01*
X90277Y704563D01*
X90204Y704631D01*
X90134Y704701D01*
X90066Y704774D01*
X90001Y704849D01*
X89939Y704927D01*
X89881Y705007D01*
X89825Y705090D01*
X89773Y705174D01*
X89723Y705261D01*
X89678Y705349D01*
X89635Y705439D01*
X89596Y705531D01*
X89561Y705624D01*
X89529Y705718D01*
X89501Y705813D01*
X89476Y705909D01*
X89455Y706007D01*
X89438Y706105D01*
X89425Y706203D01*
X89416Y706302D01*
X89410Y706402D01*
X89408Y706501D01*
X89410Y706637D01*
X89416Y706773D01*
X89425Y706909D01*
X89438Y707045D01*
X89456Y707180D01*
X89476Y707314D01*
X89501Y707448D01*
X89529Y707582D01*
X89562Y707714D01*
X89597Y707845D01*
X89637Y707976D01*
X89680Y708105D01*
X89726Y708233D01*
X89777Y708359D01*
X89830Y708485D01*
X89888Y708608D01*
X89948Y708730D01*
X90012Y708850D01*
X90080Y708969D01*
X90150Y709085D01*
X90224Y709199D01*
X90301Y709312D01*
X90382Y709422D01*
X94276Y705202D02*
X94223Y705116D01*
X94166Y705032D01*
X94107Y704950D01*
X94044Y704870D01*
X93978Y704793D01*
X93910Y704718D01*
X93838Y704646D01*
X93764Y704577D01*
X93687Y704511D01*
X93608Y704448D01*
X93526Y704388D01*
X93442Y704331D01*
X93356Y704277D01*
X93268Y704227D01*
X93178Y704180D01*
X93087Y704136D01*
X92993Y704097D01*
X92899Y704060D01*
X92803Y704028D01*
X92705Y703999D01*
X92607Y703974D01*
X92508Y703953D01*
X92408Y703935D01*
X92308Y703922D01*
X92207Y703912D01*
X92105Y703906D01*
X92004Y703904D01*
X96224Y708773D02*
X96277Y708859D01*
X96334Y708943D01*
X96393Y709025D01*
X96456Y709105D01*
X96522Y709182D01*
X96590Y709257D01*
X96662Y709329D01*
X96736Y709398D01*
X96813Y709464D01*
X96892Y709527D01*
X96974Y709587D01*
X97058Y709644D01*
X97144Y709698D01*
X97232Y709748D01*
X97322Y709795D01*
X97413Y709839D01*
X97507Y709878D01*
X97601Y709915D01*
X97697Y709947D01*
X97795Y709976D01*
X97893Y710001D01*
X97992Y710022D01*
X98092Y710040D01*
X98192Y710053D01*
X98293Y710063D01*
X98395Y710069D01*
X98496Y710071D01*
X96224Y708773D02*
X94276Y705203D01*
X89408Y715588D02*
X101092Y715588D01*
X101092Y714290D02*
X101092Y716887D01*
X89408Y716887D02*
X89408Y714290D01*
X94601Y726412D02*
X94601Y728359D01*
X101092Y728359D01*
X101092Y724464D01*
X101090Y724365D01*
X101084Y724265D01*
X101075Y724166D01*
X101062Y724068D01*
X101045Y723970D01*
X101024Y723872D01*
X100999Y723776D01*
X100971Y723681D01*
X100939Y723587D01*
X100904Y723494D01*
X100865Y723402D01*
X100822Y723312D01*
X100777Y723224D01*
X100727Y723137D01*
X100675Y723053D01*
X100619Y722970D01*
X100561Y722890D01*
X100499Y722812D01*
X100434Y722737D01*
X100366Y722664D01*
X100296Y722594D01*
X100223Y722526D01*
X100148Y722461D01*
X100070Y722399D01*
X99990Y722341D01*
X99907Y722285D01*
X99823Y722233D01*
X99736Y722183D01*
X99648Y722138D01*
X99558Y722095D01*
X99466Y722056D01*
X99373Y722021D01*
X99279Y721989D01*
X99184Y721961D01*
X99088Y721936D01*
X98990Y721915D01*
X98892Y721898D01*
X98794Y721885D01*
X98695Y721876D01*
X98595Y721870D01*
X98496Y721868D01*
X92004Y721868D01*
X92004Y721867D02*
X91905Y721869D01*
X91805Y721875D01*
X91706Y721884D01*
X91608Y721897D01*
X91510Y721915D01*
X91412Y721935D01*
X91316Y721960D01*
X91220Y721988D01*
X91126Y722020D01*
X91033Y722055D01*
X90942Y722094D01*
X90852Y722137D01*
X90763Y722182D01*
X90677Y722232D01*
X90592Y722284D01*
X90510Y722340D01*
X90430Y722399D01*
X90352Y722460D01*
X90276Y722525D01*
X90203Y722593D01*
X90133Y722663D01*
X90065Y722736D01*
X90000Y722812D01*
X89939Y722890D01*
X89880Y722970D01*
X89824Y723052D01*
X89772Y723137D01*
X89723Y723223D01*
X89677Y723312D01*
X89634Y723402D01*
X89595Y723493D01*
X89560Y723586D01*
X89528Y723680D01*
X89500Y723776D01*
X89475Y723872D01*
X89455Y723970D01*
X89437Y724068D01*
X89424Y724166D01*
X89415Y724265D01*
X89409Y724364D01*
X89407Y724464D01*
X89408Y724464D02*
X89408Y728359D01*
D11*
X84800Y643600D02*
X28800Y643600D01*
X14800Y643600D01*
X14800Y573600D01*
X28800Y573600D01*
X84800Y573600D01*
X84800Y643600D01*
X28800Y643600D02*
X28800Y573600D01*
D12*
X98496Y565799D02*
X98595Y565797D01*
X98695Y565791D01*
X98794Y565782D01*
X98892Y565769D01*
X98990Y565752D01*
X99088Y565731D01*
X99184Y565706D01*
X99279Y565678D01*
X99373Y565646D01*
X99466Y565611D01*
X99558Y565572D01*
X99648Y565529D01*
X99736Y565484D01*
X99823Y565434D01*
X99907Y565382D01*
X99990Y565326D01*
X100070Y565268D01*
X100148Y565206D01*
X100223Y565141D01*
X100296Y565073D01*
X100366Y565003D01*
X100434Y564930D01*
X100499Y564855D01*
X100561Y564777D01*
X100619Y564697D01*
X100675Y564614D01*
X100727Y564530D01*
X100777Y564443D01*
X100822Y564355D01*
X100865Y564265D01*
X100904Y564173D01*
X100939Y564080D01*
X100971Y563986D01*
X100999Y563891D01*
X101024Y563795D01*
X101045Y563697D01*
X101062Y563599D01*
X101075Y563501D01*
X101084Y563402D01*
X101090Y563302D01*
X101092Y563203D01*
X101090Y563059D01*
X101084Y562914D01*
X101075Y562770D01*
X101062Y562627D01*
X101045Y562483D01*
X101024Y562340D01*
X100999Y562198D01*
X100971Y562057D01*
X100939Y561916D01*
X100903Y561776D01*
X100864Y561637D01*
X100821Y561499D01*
X100774Y561363D01*
X100724Y561227D01*
X100670Y561093D01*
X100613Y560961D01*
X100552Y560830D01*
X100488Y560701D01*
X100420Y560573D01*
X100350Y560447D01*
X100275Y560323D01*
X100198Y560202D01*
X100117Y560082D01*
X100034Y559964D01*
X99947Y559849D01*
X99857Y559736D01*
X99764Y559625D01*
X99669Y559517D01*
X99570Y559411D01*
X99469Y559308D01*
X92004Y559633D02*
X91905Y559635D01*
X91805Y559641D01*
X91706Y559650D01*
X91608Y559663D01*
X91510Y559680D01*
X91412Y559701D01*
X91316Y559726D01*
X91221Y559754D01*
X91127Y559786D01*
X91034Y559821D01*
X90942Y559860D01*
X90852Y559903D01*
X90764Y559948D01*
X90677Y559998D01*
X90593Y560050D01*
X90510Y560106D01*
X90430Y560164D01*
X90352Y560226D01*
X90277Y560291D01*
X90204Y560359D01*
X90134Y560429D01*
X90066Y560502D01*
X90001Y560577D01*
X89939Y560655D01*
X89881Y560735D01*
X89825Y560818D01*
X89773Y560902D01*
X89723Y560989D01*
X89678Y561077D01*
X89635Y561167D01*
X89596Y561259D01*
X89561Y561352D01*
X89529Y561446D01*
X89501Y561541D01*
X89476Y561637D01*
X89455Y561735D01*
X89438Y561833D01*
X89425Y561931D01*
X89416Y562030D01*
X89410Y562130D01*
X89408Y562229D01*
X89410Y562365D01*
X89416Y562501D01*
X89425Y562637D01*
X89438Y562773D01*
X89456Y562908D01*
X89476Y563042D01*
X89501Y563176D01*
X89529Y563310D01*
X89562Y563442D01*
X89597Y563573D01*
X89637Y563704D01*
X89680Y563833D01*
X89726Y563961D01*
X89777Y564087D01*
X89830Y564213D01*
X89888Y564336D01*
X89948Y564458D01*
X90012Y564578D01*
X90080Y564697D01*
X90150Y564813D01*
X90224Y564927D01*
X90301Y565040D01*
X90382Y565150D01*
X94276Y560931D02*
X94223Y560845D01*
X94166Y560761D01*
X94107Y560679D01*
X94044Y560599D01*
X93978Y560522D01*
X93910Y560447D01*
X93838Y560375D01*
X93764Y560306D01*
X93687Y560240D01*
X93608Y560177D01*
X93526Y560117D01*
X93442Y560060D01*
X93356Y560006D01*
X93268Y559956D01*
X93178Y559909D01*
X93087Y559865D01*
X92993Y559826D01*
X92899Y559789D01*
X92803Y559757D01*
X92705Y559728D01*
X92607Y559703D01*
X92508Y559682D01*
X92408Y559664D01*
X92308Y559651D01*
X92207Y559641D01*
X92105Y559635D01*
X92004Y559633D01*
X96224Y564501D02*
X96277Y564587D01*
X96334Y564671D01*
X96393Y564753D01*
X96456Y564833D01*
X96522Y564910D01*
X96590Y564985D01*
X96662Y565057D01*
X96736Y565126D01*
X96813Y565192D01*
X96892Y565255D01*
X96974Y565315D01*
X97058Y565372D01*
X97144Y565426D01*
X97232Y565476D01*
X97322Y565523D01*
X97413Y565567D01*
X97507Y565606D01*
X97601Y565643D01*
X97697Y565675D01*
X97795Y565704D01*
X97893Y565729D01*
X97992Y565750D01*
X98092Y565768D01*
X98192Y565781D01*
X98293Y565791D01*
X98395Y565797D01*
X98496Y565799D01*
X96224Y564501D02*
X94276Y560931D01*
X89408Y570907D02*
X101092Y570907D01*
X89408Y570907D02*
X89408Y574153D01*
X89410Y574266D01*
X89416Y574379D01*
X89426Y574492D01*
X89440Y574605D01*
X89457Y574717D01*
X89479Y574828D01*
X89504Y574938D01*
X89534Y575048D01*
X89567Y575156D01*
X89604Y575263D01*
X89644Y575369D01*
X89689Y575473D01*
X89737Y575576D01*
X89788Y575677D01*
X89843Y575776D01*
X89901Y575873D01*
X89963Y575968D01*
X90028Y576061D01*
X90096Y576151D01*
X90167Y576239D01*
X90242Y576325D01*
X90319Y576408D01*
X90399Y576488D01*
X90482Y576565D01*
X90568Y576640D01*
X90656Y576711D01*
X90746Y576779D01*
X90839Y576844D01*
X90934Y576906D01*
X91031Y576964D01*
X91130Y577019D01*
X91231Y577070D01*
X91334Y577118D01*
X91438Y577163D01*
X91544Y577203D01*
X91651Y577240D01*
X91759Y577273D01*
X91869Y577303D01*
X91979Y577328D01*
X92090Y577350D01*
X92202Y577367D01*
X92315Y577381D01*
X92428Y577391D01*
X92541Y577397D01*
X92654Y577399D01*
X92767Y577397D01*
X92880Y577391D01*
X92993Y577381D01*
X93106Y577367D01*
X93218Y577350D01*
X93329Y577328D01*
X93439Y577303D01*
X93549Y577273D01*
X93657Y577240D01*
X93764Y577203D01*
X93870Y577163D01*
X93974Y577118D01*
X94077Y577070D01*
X94178Y577019D01*
X94277Y576964D01*
X94374Y576906D01*
X94469Y576844D01*
X94562Y576779D01*
X94652Y576711D01*
X94740Y576640D01*
X94826Y576565D01*
X94909Y576488D01*
X94989Y576408D01*
X95066Y576325D01*
X95141Y576239D01*
X95212Y576151D01*
X95280Y576061D01*
X95345Y575968D01*
X95407Y575873D01*
X95465Y575776D01*
X95520Y575677D01*
X95571Y575576D01*
X95619Y575473D01*
X95664Y575369D01*
X95704Y575263D01*
X95741Y575156D01*
X95774Y575048D01*
X95804Y574938D01*
X95829Y574828D01*
X95851Y574717D01*
X95868Y574605D01*
X95882Y574492D01*
X95892Y574379D01*
X95898Y574266D01*
X95900Y574153D01*
X95899Y574153D02*
X95899Y570907D01*
X101092Y582337D02*
X89408Y582337D01*
X89408Y588828D02*
X96548Y582337D01*
X93952Y584934D02*
X101092Y588828D01*
X102390Y592723D02*
X102390Y597916D01*
X101092Y602911D02*
X89408Y602911D01*
X89408Y606157D01*
X89410Y606270D01*
X89416Y606383D01*
X89426Y606496D01*
X89440Y606609D01*
X89457Y606721D01*
X89479Y606832D01*
X89504Y606942D01*
X89534Y607052D01*
X89567Y607160D01*
X89604Y607267D01*
X89644Y607373D01*
X89689Y607477D01*
X89737Y607580D01*
X89788Y607681D01*
X89843Y607780D01*
X89901Y607877D01*
X89963Y607972D01*
X90028Y608065D01*
X90096Y608155D01*
X90167Y608243D01*
X90242Y608329D01*
X90319Y608412D01*
X90399Y608492D01*
X90482Y608569D01*
X90568Y608644D01*
X90656Y608715D01*
X90746Y608783D01*
X90839Y608848D01*
X90934Y608910D01*
X91031Y608968D01*
X91130Y609023D01*
X91231Y609074D01*
X91334Y609122D01*
X91438Y609167D01*
X91544Y609207D01*
X91651Y609244D01*
X91759Y609277D01*
X91869Y609307D01*
X91979Y609332D01*
X92090Y609354D01*
X92202Y609371D01*
X92315Y609385D01*
X92428Y609395D01*
X92541Y609401D01*
X92654Y609403D01*
X92767Y609401D01*
X92880Y609395D01*
X92993Y609385D01*
X93106Y609371D01*
X93218Y609354D01*
X93329Y609332D01*
X93439Y609307D01*
X93549Y609277D01*
X93657Y609244D01*
X93764Y609207D01*
X93870Y609167D01*
X93974Y609122D01*
X94077Y609074D01*
X94178Y609023D01*
X94277Y608968D01*
X94374Y608910D01*
X94469Y608848D01*
X94562Y608783D01*
X94652Y608715D01*
X94740Y608644D01*
X94826Y608569D01*
X94909Y608492D01*
X94989Y608412D01*
X95066Y608329D01*
X95141Y608243D01*
X95212Y608155D01*
X95280Y608065D01*
X95345Y607972D01*
X95407Y607877D01*
X95465Y607780D01*
X95520Y607681D01*
X95571Y607580D01*
X95619Y607477D01*
X95664Y607373D01*
X95704Y607267D01*
X95741Y607160D01*
X95774Y607052D01*
X95804Y606942D01*
X95829Y606832D01*
X95851Y606721D01*
X95868Y606609D01*
X95882Y606496D01*
X95892Y606383D01*
X95898Y606270D01*
X95900Y606157D01*
X95899Y606157D02*
X95899Y602911D01*
X89408Y613368D02*
X101092Y615964D01*
X93303Y618560D01*
X101092Y621157D01*
X89408Y623753D01*
X89408Y628724D02*
X101092Y628724D01*
X89408Y628724D02*
X89408Y631969D01*
X89410Y632082D01*
X89416Y632195D01*
X89426Y632308D01*
X89440Y632421D01*
X89457Y632533D01*
X89479Y632644D01*
X89504Y632754D01*
X89534Y632864D01*
X89567Y632972D01*
X89604Y633079D01*
X89644Y633185D01*
X89689Y633289D01*
X89737Y633392D01*
X89788Y633493D01*
X89843Y633592D01*
X89901Y633689D01*
X89963Y633784D01*
X90028Y633877D01*
X90096Y633967D01*
X90167Y634055D01*
X90242Y634141D01*
X90319Y634224D01*
X90399Y634304D01*
X90482Y634381D01*
X90568Y634456D01*
X90656Y634527D01*
X90746Y634595D01*
X90839Y634660D01*
X90934Y634722D01*
X91031Y634780D01*
X91130Y634835D01*
X91231Y634886D01*
X91334Y634934D01*
X91438Y634979D01*
X91544Y635019D01*
X91651Y635056D01*
X91759Y635089D01*
X91869Y635119D01*
X91979Y635144D01*
X92090Y635166D01*
X92202Y635183D01*
X92315Y635197D01*
X92428Y635207D01*
X92541Y635213D01*
X92654Y635215D01*
X92767Y635213D01*
X92880Y635207D01*
X92993Y635197D01*
X93106Y635183D01*
X93218Y635166D01*
X93329Y635144D01*
X93439Y635119D01*
X93549Y635089D01*
X93657Y635056D01*
X93764Y635019D01*
X93870Y634979D01*
X93974Y634934D01*
X94077Y634886D01*
X94178Y634835D01*
X94277Y634780D01*
X94374Y634722D01*
X94469Y634660D01*
X94562Y634595D01*
X94652Y634527D01*
X94740Y634456D01*
X94826Y634381D01*
X94909Y634304D01*
X94989Y634224D01*
X95066Y634141D01*
X95141Y634055D01*
X95212Y633967D01*
X95280Y633877D01*
X95345Y633784D01*
X95407Y633689D01*
X95465Y633592D01*
X95520Y633493D01*
X95571Y633392D01*
X95619Y633289D01*
X95664Y633185D01*
X95704Y633079D01*
X95741Y632972D01*
X95774Y632864D01*
X95804Y632754D01*
X95829Y632644D01*
X95851Y632533D01*
X95868Y632421D01*
X95882Y632308D01*
X95892Y632195D01*
X95898Y632082D01*
X95900Y631969D01*
X95899Y631969D02*
X95899Y628724D01*
X95899Y632618D02*
X101092Y635215D01*
D11*
X491200Y804200D02*
X491200Y860200D01*
X491200Y874200D01*
X421200Y874200D01*
X421200Y860200D01*
X421200Y804200D01*
X491200Y804200D01*
X491200Y860200D02*
X421200Y860200D01*
D12*
X430954Y800392D02*
X430954Y788708D01*
X427708Y800392D02*
X434199Y800392D01*
X438376Y797146D02*
X438376Y791954D01*
X438376Y797146D02*
X438378Y797259D01*
X438384Y797372D01*
X438394Y797485D01*
X438408Y797598D01*
X438425Y797710D01*
X438447Y797821D01*
X438472Y797931D01*
X438502Y798041D01*
X438535Y798149D01*
X438572Y798256D01*
X438612Y798362D01*
X438657Y798466D01*
X438705Y798569D01*
X438756Y798670D01*
X438811Y798769D01*
X438869Y798866D01*
X438931Y798961D01*
X438996Y799054D01*
X439064Y799144D01*
X439135Y799232D01*
X439210Y799318D01*
X439287Y799401D01*
X439367Y799481D01*
X439450Y799558D01*
X439536Y799633D01*
X439624Y799704D01*
X439714Y799772D01*
X439807Y799837D01*
X439902Y799899D01*
X439999Y799957D01*
X440098Y800012D01*
X440199Y800063D01*
X440302Y800111D01*
X440406Y800156D01*
X440512Y800196D01*
X440619Y800233D01*
X440727Y800266D01*
X440837Y800296D01*
X440947Y800321D01*
X441058Y800343D01*
X441170Y800360D01*
X441283Y800374D01*
X441396Y800384D01*
X441509Y800390D01*
X441622Y800392D01*
X441735Y800390D01*
X441848Y800384D01*
X441961Y800374D01*
X442074Y800360D01*
X442186Y800343D01*
X442297Y800321D01*
X442407Y800296D01*
X442517Y800266D01*
X442625Y800233D01*
X442732Y800196D01*
X442838Y800156D01*
X442942Y800111D01*
X443045Y800063D01*
X443146Y800012D01*
X443245Y799957D01*
X443342Y799899D01*
X443437Y799837D01*
X443530Y799772D01*
X443620Y799704D01*
X443708Y799633D01*
X443794Y799558D01*
X443877Y799481D01*
X443957Y799401D01*
X444034Y799318D01*
X444109Y799232D01*
X444180Y799144D01*
X444248Y799054D01*
X444313Y798961D01*
X444375Y798866D01*
X444433Y798769D01*
X444488Y798670D01*
X444539Y798569D01*
X444587Y798466D01*
X444632Y798362D01*
X444672Y798256D01*
X444709Y798149D01*
X444742Y798041D01*
X444772Y797931D01*
X444797Y797821D01*
X444819Y797710D01*
X444836Y797598D01*
X444850Y797485D01*
X444860Y797372D01*
X444866Y797259D01*
X444868Y797146D01*
X444867Y797146D02*
X444867Y791954D01*
X444868Y791954D02*
X444866Y791841D01*
X444860Y791728D01*
X444850Y791615D01*
X444836Y791502D01*
X444819Y791390D01*
X444797Y791279D01*
X444772Y791169D01*
X444742Y791059D01*
X444709Y790951D01*
X444672Y790844D01*
X444632Y790738D01*
X444587Y790634D01*
X444539Y790531D01*
X444488Y790430D01*
X444433Y790331D01*
X444375Y790234D01*
X444313Y790139D01*
X444248Y790046D01*
X444180Y789956D01*
X444109Y789868D01*
X444034Y789782D01*
X443957Y789699D01*
X443877Y789619D01*
X443794Y789542D01*
X443708Y789467D01*
X443620Y789396D01*
X443530Y789328D01*
X443437Y789263D01*
X443342Y789201D01*
X443245Y789143D01*
X443146Y789088D01*
X443045Y789037D01*
X442942Y788989D01*
X442838Y788944D01*
X442732Y788904D01*
X442625Y788867D01*
X442517Y788834D01*
X442407Y788804D01*
X442297Y788779D01*
X442186Y788757D01*
X442074Y788740D01*
X441961Y788726D01*
X441848Y788716D01*
X441735Y788710D01*
X441622Y788708D01*
X441509Y788710D01*
X441396Y788716D01*
X441283Y788726D01*
X441170Y788740D01*
X441058Y788757D01*
X440947Y788779D01*
X440837Y788804D01*
X440727Y788834D01*
X440619Y788867D01*
X440512Y788904D01*
X440406Y788944D01*
X440302Y788989D01*
X440199Y789037D01*
X440098Y789088D01*
X439999Y789143D01*
X439902Y789201D01*
X439807Y789263D01*
X439714Y789328D01*
X439624Y789396D01*
X439536Y789467D01*
X439450Y789542D01*
X439367Y789619D01*
X439287Y789699D01*
X439210Y789782D01*
X439135Y789868D01*
X439064Y789956D01*
X438996Y790046D01*
X438931Y790139D01*
X438869Y790234D01*
X438811Y790331D01*
X438756Y790430D01*
X438705Y790531D01*
X438657Y790634D01*
X438612Y790738D01*
X438572Y790844D01*
X438535Y790951D01*
X438502Y791059D01*
X438472Y791169D01*
X438447Y791279D01*
X438425Y791390D01*
X438408Y791502D01*
X438394Y791615D01*
X438384Y791728D01*
X438378Y791841D01*
X438376Y791954D01*
X450210Y788708D02*
X450210Y800392D01*
X455402Y800392D01*
X455402Y795199D02*
X450210Y795199D01*
X459218Y787410D02*
X464411Y787410D01*
X472370Y788708D02*
X472469Y788710D01*
X472569Y788716D01*
X472668Y788725D01*
X472766Y788738D01*
X472864Y788755D01*
X472962Y788776D01*
X473058Y788801D01*
X473153Y788829D01*
X473247Y788861D01*
X473340Y788896D01*
X473432Y788935D01*
X473522Y788978D01*
X473610Y789023D01*
X473697Y789073D01*
X473781Y789125D01*
X473864Y789181D01*
X473944Y789239D01*
X474022Y789301D01*
X474097Y789366D01*
X474170Y789434D01*
X474240Y789504D01*
X474308Y789577D01*
X474373Y789652D01*
X474435Y789730D01*
X474493Y789810D01*
X474549Y789893D01*
X474601Y789977D01*
X474651Y790064D01*
X474696Y790152D01*
X474739Y790242D01*
X474778Y790334D01*
X474813Y790427D01*
X474845Y790521D01*
X474873Y790616D01*
X474898Y790712D01*
X474919Y790810D01*
X474936Y790908D01*
X474949Y791006D01*
X474958Y791105D01*
X474964Y791205D01*
X474966Y791304D01*
X472370Y788708D02*
X472226Y788710D01*
X472081Y788716D01*
X471937Y788725D01*
X471794Y788738D01*
X471650Y788755D01*
X471507Y788776D01*
X471365Y788801D01*
X471224Y788829D01*
X471083Y788861D01*
X470943Y788897D01*
X470804Y788936D01*
X470666Y788979D01*
X470530Y789026D01*
X470394Y789076D01*
X470260Y789130D01*
X470128Y789187D01*
X469997Y789248D01*
X469868Y789312D01*
X469740Y789380D01*
X469614Y789450D01*
X469490Y789525D01*
X469369Y789602D01*
X469249Y789683D01*
X469131Y789766D01*
X469016Y789853D01*
X468903Y789943D01*
X468792Y790036D01*
X468684Y790131D01*
X468578Y790230D01*
X468475Y790331D01*
X468800Y797796D02*
X468802Y797895D01*
X468808Y797995D01*
X468817Y798094D01*
X468830Y798192D01*
X468847Y798290D01*
X468868Y798388D01*
X468893Y798484D01*
X468921Y798579D01*
X468953Y798673D01*
X468988Y798766D01*
X469027Y798858D01*
X469070Y798948D01*
X469115Y799036D01*
X469165Y799123D01*
X469217Y799207D01*
X469273Y799290D01*
X469331Y799370D01*
X469393Y799448D01*
X469458Y799523D01*
X469526Y799596D01*
X469596Y799666D01*
X469669Y799734D01*
X469744Y799799D01*
X469822Y799861D01*
X469902Y799919D01*
X469985Y799975D01*
X470069Y800027D01*
X470156Y800077D01*
X470244Y800122D01*
X470334Y800165D01*
X470426Y800204D01*
X470519Y800239D01*
X470613Y800271D01*
X470708Y800299D01*
X470805Y800324D01*
X470902Y800345D01*
X471000Y800362D01*
X471098Y800375D01*
X471197Y800384D01*
X471297Y800390D01*
X471396Y800392D01*
X471532Y800390D01*
X471668Y800384D01*
X471804Y800375D01*
X471940Y800362D01*
X472075Y800344D01*
X472209Y800324D01*
X472343Y800299D01*
X472477Y800271D01*
X472609Y800238D01*
X472740Y800203D01*
X472871Y800163D01*
X473000Y800120D01*
X473128Y800074D01*
X473254Y800023D01*
X473380Y799970D01*
X473503Y799912D01*
X473625Y799852D01*
X473745Y799788D01*
X473864Y799720D01*
X473980Y799650D01*
X474094Y799576D01*
X474207Y799499D01*
X474317Y799418D01*
X470097Y795524D02*
X470011Y795577D01*
X469927Y795634D01*
X469845Y795693D01*
X469765Y795756D01*
X469688Y795822D01*
X469613Y795890D01*
X469541Y795962D01*
X469472Y796036D01*
X469406Y796113D01*
X469343Y796192D01*
X469283Y796274D01*
X469226Y796358D01*
X469172Y796444D01*
X469122Y796532D01*
X469075Y796622D01*
X469031Y796713D01*
X468992Y796807D01*
X468955Y796901D01*
X468923Y796997D01*
X468894Y797095D01*
X468869Y797193D01*
X468848Y797292D01*
X468830Y797392D01*
X468817Y797492D01*
X468807Y797593D01*
X468801Y797695D01*
X468799Y797796D01*
X473668Y793576D02*
X473754Y793523D01*
X473838Y793466D01*
X473920Y793407D01*
X474000Y793344D01*
X474077Y793278D01*
X474152Y793210D01*
X474224Y793138D01*
X474293Y793064D01*
X474359Y792987D01*
X474422Y792908D01*
X474482Y792826D01*
X474539Y792742D01*
X474593Y792656D01*
X474643Y792568D01*
X474690Y792478D01*
X474734Y792387D01*
X474773Y792293D01*
X474810Y792199D01*
X474842Y792103D01*
X474871Y792005D01*
X474896Y791907D01*
X474917Y791808D01*
X474935Y791708D01*
X474948Y791608D01*
X474958Y791507D01*
X474964Y791405D01*
X474966Y791304D01*
X473668Y793576D02*
X470098Y795524D01*
X480483Y800392D02*
X480483Y788708D01*
X479185Y788708D02*
X481782Y788708D01*
X481782Y800392D02*
X479185Y800392D01*
X491307Y795199D02*
X493254Y795199D01*
X493254Y788708D01*
X489359Y788708D01*
X489260Y788710D01*
X489160Y788716D01*
X489061Y788725D01*
X488963Y788738D01*
X488865Y788755D01*
X488767Y788776D01*
X488671Y788801D01*
X488576Y788829D01*
X488482Y788861D01*
X488389Y788896D01*
X488297Y788935D01*
X488207Y788978D01*
X488119Y789023D01*
X488032Y789073D01*
X487948Y789125D01*
X487865Y789181D01*
X487785Y789239D01*
X487707Y789301D01*
X487632Y789366D01*
X487559Y789434D01*
X487489Y789504D01*
X487421Y789577D01*
X487356Y789652D01*
X487294Y789730D01*
X487236Y789810D01*
X487180Y789893D01*
X487128Y789977D01*
X487078Y790064D01*
X487033Y790152D01*
X486990Y790242D01*
X486951Y790334D01*
X486916Y790427D01*
X486884Y790521D01*
X486856Y790616D01*
X486831Y790712D01*
X486810Y790810D01*
X486793Y790908D01*
X486780Y791006D01*
X486771Y791105D01*
X486765Y791205D01*
X486763Y791304D01*
X486763Y797796D01*
X486765Y797895D01*
X486771Y797995D01*
X486780Y798094D01*
X486793Y798192D01*
X486810Y798290D01*
X486831Y798388D01*
X486856Y798484D01*
X486884Y798579D01*
X486916Y798673D01*
X486951Y798766D01*
X486990Y798858D01*
X487033Y798948D01*
X487078Y799036D01*
X487128Y799123D01*
X487180Y799207D01*
X487236Y799290D01*
X487294Y799370D01*
X487356Y799448D01*
X487421Y799523D01*
X487489Y799596D01*
X487559Y799666D01*
X487632Y799734D01*
X487707Y799799D01*
X487785Y799861D01*
X487865Y799919D01*
X487948Y799975D01*
X488032Y800027D01*
X488119Y800077D01*
X488207Y800122D01*
X488297Y800165D01*
X488389Y800204D01*
X488481Y800239D01*
X488576Y800271D01*
X488671Y800299D01*
X488767Y800324D01*
X488865Y800345D01*
X488963Y800362D01*
X489061Y800375D01*
X489160Y800384D01*
X489260Y800390D01*
X489359Y800392D01*
X493254Y800392D01*
D11*
X415000Y804200D02*
X415000Y860200D01*
X415000Y874200D01*
X345000Y874200D01*
X345000Y860200D01*
X345000Y804200D01*
X415000Y804200D01*
X415000Y860200D02*
X345000Y860200D01*
D12*
X336974Y800392D02*
X336974Y788708D01*
X333728Y800392D02*
X340219Y800392D01*
X344396Y797146D02*
X344396Y791954D01*
X344396Y797146D02*
X344398Y797259D01*
X344404Y797372D01*
X344414Y797485D01*
X344428Y797598D01*
X344445Y797710D01*
X344467Y797821D01*
X344492Y797931D01*
X344522Y798041D01*
X344555Y798149D01*
X344592Y798256D01*
X344632Y798362D01*
X344677Y798466D01*
X344725Y798569D01*
X344776Y798670D01*
X344831Y798769D01*
X344889Y798866D01*
X344951Y798961D01*
X345016Y799054D01*
X345084Y799144D01*
X345155Y799232D01*
X345230Y799318D01*
X345307Y799401D01*
X345387Y799481D01*
X345470Y799558D01*
X345556Y799633D01*
X345644Y799704D01*
X345734Y799772D01*
X345827Y799837D01*
X345922Y799899D01*
X346019Y799957D01*
X346118Y800012D01*
X346219Y800063D01*
X346322Y800111D01*
X346426Y800156D01*
X346532Y800196D01*
X346639Y800233D01*
X346747Y800266D01*
X346857Y800296D01*
X346967Y800321D01*
X347078Y800343D01*
X347190Y800360D01*
X347303Y800374D01*
X347416Y800384D01*
X347529Y800390D01*
X347642Y800392D01*
X347755Y800390D01*
X347868Y800384D01*
X347981Y800374D01*
X348094Y800360D01*
X348206Y800343D01*
X348317Y800321D01*
X348427Y800296D01*
X348537Y800266D01*
X348645Y800233D01*
X348752Y800196D01*
X348858Y800156D01*
X348962Y800111D01*
X349065Y800063D01*
X349166Y800012D01*
X349265Y799957D01*
X349362Y799899D01*
X349457Y799837D01*
X349550Y799772D01*
X349640Y799704D01*
X349728Y799633D01*
X349814Y799558D01*
X349897Y799481D01*
X349977Y799401D01*
X350054Y799318D01*
X350129Y799232D01*
X350200Y799144D01*
X350268Y799054D01*
X350333Y798961D01*
X350395Y798866D01*
X350453Y798769D01*
X350508Y798670D01*
X350559Y798569D01*
X350607Y798466D01*
X350652Y798362D01*
X350692Y798256D01*
X350729Y798149D01*
X350762Y798041D01*
X350792Y797931D01*
X350817Y797821D01*
X350839Y797710D01*
X350856Y797598D01*
X350870Y797485D01*
X350880Y797372D01*
X350886Y797259D01*
X350888Y797146D01*
X350887Y797146D02*
X350887Y791954D01*
X350888Y791954D02*
X350886Y791841D01*
X350880Y791728D01*
X350870Y791615D01*
X350856Y791502D01*
X350839Y791390D01*
X350817Y791279D01*
X350792Y791169D01*
X350762Y791059D01*
X350729Y790951D01*
X350692Y790844D01*
X350652Y790738D01*
X350607Y790634D01*
X350559Y790531D01*
X350508Y790430D01*
X350453Y790331D01*
X350395Y790234D01*
X350333Y790139D01*
X350268Y790046D01*
X350200Y789956D01*
X350129Y789868D01*
X350054Y789782D01*
X349977Y789699D01*
X349897Y789619D01*
X349814Y789542D01*
X349728Y789467D01*
X349640Y789396D01*
X349550Y789328D01*
X349457Y789263D01*
X349362Y789201D01*
X349265Y789143D01*
X349166Y789088D01*
X349065Y789037D01*
X348962Y788989D01*
X348858Y788944D01*
X348752Y788904D01*
X348645Y788867D01*
X348537Y788834D01*
X348427Y788804D01*
X348317Y788779D01*
X348206Y788757D01*
X348094Y788740D01*
X347981Y788726D01*
X347868Y788716D01*
X347755Y788710D01*
X347642Y788708D01*
X347529Y788710D01*
X347416Y788716D01*
X347303Y788726D01*
X347190Y788740D01*
X347078Y788757D01*
X346967Y788779D01*
X346857Y788804D01*
X346747Y788834D01*
X346639Y788867D01*
X346532Y788904D01*
X346426Y788944D01*
X346322Y788989D01*
X346219Y789037D01*
X346118Y789088D01*
X346019Y789143D01*
X345922Y789201D01*
X345827Y789263D01*
X345734Y789328D01*
X345644Y789396D01*
X345556Y789467D01*
X345470Y789542D01*
X345387Y789619D01*
X345307Y789699D01*
X345230Y789782D01*
X345155Y789868D01*
X345084Y789956D01*
X345016Y790046D01*
X344951Y790139D01*
X344889Y790234D01*
X344831Y790331D01*
X344776Y790430D01*
X344725Y790531D01*
X344677Y790634D01*
X344632Y790738D01*
X344592Y790844D01*
X344555Y790951D01*
X344522Y791059D01*
X344492Y791169D01*
X344467Y791279D01*
X344445Y791390D01*
X344428Y791502D01*
X344414Y791615D01*
X344404Y791728D01*
X344398Y791841D01*
X344396Y791954D01*
X356230Y788708D02*
X356230Y800392D01*
X361422Y800392D01*
X361422Y795199D02*
X356230Y795199D01*
X365238Y787410D02*
X370431Y787410D01*
X375426Y788708D02*
X375426Y800392D01*
X378672Y800392D01*
X378785Y800390D01*
X378898Y800384D01*
X379011Y800374D01*
X379124Y800360D01*
X379236Y800343D01*
X379347Y800321D01*
X379457Y800296D01*
X379567Y800266D01*
X379675Y800233D01*
X379782Y800196D01*
X379888Y800156D01*
X379992Y800111D01*
X380095Y800063D01*
X380196Y800012D01*
X380295Y799957D01*
X380392Y799899D01*
X380487Y799837D01*
X380580Y799772D01*
X380670Y799704D01*
X380758Y799633D01*
X380844Y799558D01*
X380927Y799481D01*
X381007Y799401D01*
X381084Y799318D01*
X381159Y799232D01*
X381230Y799144D01*
X381298Y799054D01*
X381363Y798961D01*
X381425Y798866D01*
X381483Y798769D01*
X381538Y798670D01*
X381589Y798569D01*
X381637Y798466D01*
X381682Y798362D01*
X381722Y798256D01*
X381759Y798149D01*
X381792Y798041D01*
X381822Y797931D01*
X381847Y797821D01*
X381869Y797710D01*
X381886Y797598D01*
X381900Y797485D01*
X381910Y797372D01*
X381916Y797259D01*
X381918Y797146D01*
X381916Y797033D01*
X381910Y796920D01*
X381900Y796807D01*
X381886Y796694D01*
X381869Y796582D01*
X381847Y796471D01*
X381822Y796361D01*
X381792Y796251D01*
X381759Y796143D01*
X381722Y796036D01*
X381682Y795930D01*
X381637Y795826D01*
X381589Y795723D01*
X381538Y795622D01*
X381483Y795523D01*
X381425Y795426D01*
X381363Y795331D01*
X381298Y795238D01*
X381230Y795148D01*
X381159Y795060D01*
X381084Y794974D01*
X381007Y794891D01*
X380927Y794811D01*
X380844Y794734D01*
X380758Y794659D01*
X380670Y794588D01*
X380580Y794520D01*
X380487Y794455D01*
X380392Y794393D01*
X380295Y794335D01*
X380196Y794280D01*
X380095Y794229D01*
X379992Y794181D01*
X379888Y794136D01*
X379782Y794096D01*
X379675Y794059D01*
X379567Y794026D01*
X379457Y793996D01*
X379347Y793971D01*
X379236Y793949D01*
X379124Y793932D01*
X379011Y793918D01*
X378898Y793908D01*
X378785Y793902D01*
X378672Y793900D01*
X378672Y793901D02*
X375426Y793901D01*
X385883Y800392D02*
X388479Y788708D01*
X391075Y796497D01*
X393672Y788708D01*
X396268Y800392D01*
X401239Y800392D02*
X401239Y788708D01*
X401239Y800392D02*
X404484Y800392D01*
X404597Y800390D01*
X404710Y800384D01*
X404823Y800374D01*
X404936Y800360D01*
X405048Y800343D01*
X405159Y800321D01*
X405269Y800296D01*
X405379Y800266D01*
X405487Y800233D01*
X405594Y800196D01*
X405700Y800156D01*
X405804Y800111D01*
X405907Y800063D01*
X406008Y800012D01*
X406107Y799957D01*
X406204Y799899D01*
X406299Y799837D01*
X406392Y799772D01*
X406482Y799704D01*
X406570Y799633D01*
X406656Y799558D01*
X406739Y799481D01*
X406819Y799401D01*
X406896Y799318D01*
X406971Y799232D01*
X407042Y799144D01*
X407110Y799054D01*
X407175Y798961D01*
X407237Y798866D01*
X407295Y798769D01*
X407350Y798670D01*
X407401Y798569D01*
X407449Y798466D01*
X407494Y798362D01*
X407534Y798256D01*
X407571Y798149D01*
X407604Y798041D01*
X407634Y797931D01*
X407659Y797821D01*
X407681Y797710D01*
X407698Y797598D01*
X407712Y797485D01*
X407722Y797372D01*
X407728Y797259D01*
X407730Y797146D01*
X407728Y797033D01*
X407722Y796920D01*
X407712Y796807D01*
X407698Y796694D01*
X407681Y796582D01*
X407659Y796471D01*
X407634Y796361D01*
X407604Y796251D01*
X407571Y796143D01*
X407534Y796036D01*
X407494Y795930D01*
X407449Y795826D01*
X407401Y795723D01*
X407350Y795622D01*
X407295Y795523D01*
X407237Y795426D01*
X407175Y795331D01*
X407110Y795238D01*
X407042Y795148D01*
X406971Y795060D01*
X406896Y794974D01*
X406819Y794891D01*
X406739Y794811D01*
X406656Y794734D01*
X406570Y794659D01*
X406482Y794588D01*
X406392Y794520D01*
X406299Y794455D01*
X406204Y794393D01*
X406107Y794335D01*
X406008Y794280D01*
X405907Y794229D01*
X405804Y794181D01*
X405700Y794136D01*
X405594Y794096D01*
X405487Y794059D01*
X405379Y794026D01*
X405269Y793996D01*
X405159Y793971D01*
X405048Y793949D01*
X404936Y793932D01*
X404823Y793918D01*
X404710Y793908D01*
X404597Y793902D01*
X404484Y793900D01*
X404484Y793901D02*
X401239Y793901D01*
X405133Y793901D02*
X407730Y788708D01*
X294132Y625348D02*
X282448Y625348D01*
X282448Y628594D01*
X282450Y628707D01*
X282456Y628820D01*
X282466Y628933D01*
X282480Y629046D01*
X282497Y629158D01*
X282519Y629269D01*
X282544Y629379D01*
X282574Y629489D01*
X282607Y629597D01*
X282644Y629704D01*
X282684Y629810D01*
X282729Y629914D01*
X282777Y630017D01*
X282828Y630118D01*
X282883Y630217D01*
X282941Y630314D01*
X283003Y630409D01*
X283068Y630502D01*
X283136Y630592D01*
X283207Y630680D01*
X283282Y630766D01*
X283359Y630849D01*
X283439Y630929D01*
X283522Y631006D01*
X283608Y631081D01*
X283696Y631152D01*
X283786Y631220D01*
X283879Y631285D01*
X283974Y631347D01*
X284071Y631405D01*
X284170Y631460D01*
X284271Y631511D01*
X284374Y631559D01*
X284478Y631604D01*
X284584Y631644D01*
X284691Y631681D01*
X284799Y631714D01*
X284909Y631744D01*
X285019Y631769D01*
X285130Y631791D01*
X285242Y631808D01*
X285355Y631822D01*
X285468Y631832D01*
X285581Y631838D01*
X285694Y631840D01*
X285807Y631838D01*
X285920Y631832D01*
X286033Y631822D01*
X286146Y631808D01*
X286258Y631791D01*
X286369Y631769D01*
X286479Y631744D01*
X286589Y631714D01*
X286697Y631681D01*
X286804Y631644D01*
X286910Y631604D01*
X287014Y631559D01*
X287117Y631511D01*
X287218Y631460D01*
X287317Y631405D01*
X287414Y631347D01*
X287509Y631285D01*
X287602Y631220D01*
X287692Y631152D01*
X287780Y631081D01*
X287866Y631006D01*
X287949Y630929D01*
X288029Y630849D01*
X288106Y630766D01*
X288181Y630680D01*
X288252Y630592D01*
X288320Y630502D01*
X288385Y630409D01*
X288447Y630314D01*
X288505Y630217D01*
X288560Y630118D01*
X288611Y630017D01*
X288659Y629914D01*
X288704Y629810D01*
X288744Y629704D01*
X288781Y629597D01*
X288814Y629489D01*
X288844Y629379D01*
X288869Y629269D01*
X288891Y629158D01*
X288908Y629046D01*
X288922Y628933D01*
X288932Y628820D01*
X288938Y628707D01*
X288940Y628594D01*
X288939Y628594D02*
X288939Y625348D01*
X288939Y629243D02*
X294132Y631839D01*
X294132Y636704D02*
X294132Y640599D01*
X294130Y640698D01*
X294124Y640798D01*
X294115Y640897D01*
X294102Y640995D01*
X294085Y641093D01*
X294064Y641191D01*
X294039Y641287D01*
X294011Y641382D01*
X293979Y641476D01*
X293944Y641569D01*
X293905Y641661D01*
X293862Y641751D01*
X293817Y641839D01*
X293767Y641926D01*
X293715Y642010D01*
X293659Y642093D01*
X293601Y642173D01*
X293539Y642251D01*
X293474Y642326D01*
X293406Y642399D01*
X293336Y642469D01*
X293263Y642537D01*
X293188Y642602D01*
X293110Y642664D01*
X293030Y642722D01*
X292947Y642778D01*
X292863Y642830D01*
X292776Y642880D01*
X292688Y642925D01*
X292598Y642968D01*
X292506Y643007D01*
X292413Y643042D01*
X292319Y643074D01*
X292224Y643102D01*
X292128Y643127D01*
X292030Y643148D01*
X291932Y643165D01*
X291834Y643178D01*
X291735Y643187D01*
X291635Y643193D01*
X291536Y643195D01*
X290237Y643195D01*
X290138Y643193D01*
X290038Y643187D01*
X289939Y643178D01*
X289841Y643165D01*
X289743Y643148D01*
X289645Y643127D01*
X289549Y643102D01*
X289454Y643074D01*
X289360Y643042D01*
X289267Y643007D01*
X289175Y642968D01*
X289085Y642925D01*
X288997Y642880D01*
X288910Y642830D01*
X288826Y642778D01*
X288743Y642722D01*
X288663Y642664D01*
X288585Y642602D01*
X288510Y642537D01*
X288437Y642469D01*
X288367Y642399D01*
X288299Y642326D01*
X288234Y642251D01*
X288172Y642173D01*
X288114Y642093D01*
X288058Y642010D01*
X288006Y641926D01*
X287956Y641839D01*
X287911Y641751D01*
X287868Y641661D01*
X287829Y641569D01*
X287794Y641476D01*
X287762Y641382D01*
X287734Y641287D01*
X287709Y641191D01*
X287688Y641093D01*
X287671Y640995D01*
X287658Y640897D01*
X287649Y640798D01*
X287643Y640698D01*
X287641Y640599D01*
X287641Y636704D01*
X282448Y636704D01*
X282448Y643195D01*
X296605Y663448D02*
X296605Y675132D01*
X299850Y675132D01*
X299963Y675130D01*
X300076Y675124D01*
X300189Y675114D01*
X300302Y675100D01*
X300414Y675083D01*
X300525Y675061D01*
X300635Y675036D01*
X300745Y675006D01*
X300853Y674973D01*
X300960Y674936D01*
X301066Y674896D01*
X301170Y674851D01*
X301273Y674803D01*
X301374Y674752D01*
X301473Y674697D01*
X301570Y674639D01*
X301665Y674577D01*
X301758Y674512D01*
X301848Y674444D01*
X301936Y674373D01*
X302022Y674298D01*
X302105Y674221D01*
X302185Y674141D01*
X302262Y674058D01*
X302337Y673972D01*
X302408Y673884D01*
X302476Y673794D01*
X302541Y673701D01*
X302603Y673606D01*
X302661Y673509D01*
X302716Y673410D01*
X302767Y673309D01*
X302815Y673206D01*
X302860Y673102D01*
X302900Y672996D01*
X302937Y672889D01*
X302970Y672781D01*
X303000Y672671D01*
X303025Y672561D01*
X303047Y672450D01*
X303064Y672338D01*
X303078Y672225D01*
X303088Y672112D01*
X303094Y671999D01*
X303096Y671886D01*
X303094Y671773D01*
X303088Y671660D01*
X303078Y671547D01*
X303064Y671434D01*
X303047Y671322D01*
X303025Y671211D01*
X303000Y671101D01*
X302970Y670991D01*
X302937Y670883D01*
X302900Y670776D01*
X302860Y670670D01*
X302815Y670566D01*
X302767Y670463D01*
X302716Y670362D01*
X302661Y670263D01*
X302603Y670166D01*
X302541Y670071D01*
X302476Y669978D01*
X302408Y669888D01*
X302337Y669800D01*
X302262Y669714D01*
X302185Y669631D01*
X302105Y669551D01*
X302022Y669474D01*
X301936Y669399D01*
X301848Y669328D01*
X301758Y669260D01*
X301665Y669195D01*
X301570Y669133D01*
X301473Y669075D01*
X301374Y669020D01*
X301273Y668969D01*
X301170Y668921D01*
X301066Y668876D01*
X300960Y668836D01*
X300853Y668799D01*
X300745Y668766D01*
X300635Y668736D01*
X300525Y668711D01*
X300414Y668689D01*
X300302Y668672D01*
X300189Y668658D01*
X300076Y668648D01*
X299963Y668642D01*
X299850Y668640D01*
X299850Y668641D02*
X296605Y668641D01*
X300499Y668641D02*
X303096Y663448D01*
X307961Y669939D02*
X311856Y669939D01*
X311955Y669937D01*
X312055Y669931D01*
X312154Y669922D01*
X312252Y669909D01*
X312350Y669892D01*
X312448Y669871D01*
X312544Y669846D01*
X312639Y669818D01*
X312733Y669786D01*
X312826Y669751D01*
X312918Y669712D01*
X313008Y669669D01*
X313096Y669624D01*
X313183Y669574D01*
X313267Y669522D01*
X313350Y669466D01*
X313430Y669408D01*
X313508Y669346D01*
X313583Y669281D01*
X313656Y669213D01*
X313726Y669143D01*
X313794Y669070D01*
X313859Y668995D01*
X313921Y668917D01*
X313979Y668837D01*
X314035Y668754D01*
X314087Y668670D01*
X314137Y668583D01*
X314182Y668495D01*
X314225Y668405D01*
X314264Y668313D01*
X314299Y668220D01*
X314331Y668126D01*
X314359Y668031D01*
X314384Y667935D01*
X314405Y667837D01*
X314422Y667739D01*
X314435Y667641D01*
X314444Y667542D01*
X314450Y667442D01*
X314452Y667343D01*
X314452Y666694D01*
X314450Y666581D01*
X314444Y666468D01*
X314434Y666355D01*
X314420Y666242D01*
X314403Y666130D01*
X314381Y666019D01*
X314356Y665909D01*
X314326Y665799D01*
X314293Y665691D01*
X314256Y665584D01*
X314216Y665478D01*
X314171Y665374D01*
X314123Y665271D01*
X314072Y665170D01*
X314017Y665071D01*
X313959Y664974D01*
X313897Y664879D01*
X313832Y664786D01*
X313764Y664696D01*
X313693Y664608D01*
X313618Y664522D01*
X313541Y664439D01*
X313461Y664359D01*
X313378Y664282D01*
X313292Y664207D01*
X313204Y664136D01*
X313114Y664068D01*
X313021Y664003D01*
X312926Y663941D01*
X312829Y663883D01*
X312730Y663828D01*
X312629Y663777D01*
X312526Y663729D01*
X312422Y663684D01*
X312316Y663644D01*
X312209Y663607D01*
X312101Y663574D01*
X311991Y663544D01*
X311881Y663519D01*
X311770Y663497D01*
X311658Y663480D01*
X311545Y663466D01*
X311432Y663456D01*
X311319Y663450D01*
X311206Y663448D01*
X311093Y663450D01*
X310980Y663456D01*
X310867Y663466D01*
X310754Y663480D01*
X310642Y663497D01*
X310531Y663519D01*
X310421Y663544D01*
X310311Y663574D01*
X310203Y663607D01*
X310096Y663644D01*
X309990Y663684D01*
X309886Y663729D01*
X309783Y663777D01*
X309682Y663828D01*
X309583Y663883D01*
X309486Y663941D01*
X309391Y664003D01*
X309298Y664068D01*
X309208Y664136D01*
X309120Y664207D01*
X309034Y664282D01*
X308951Y664359D01*
X308871Y664439D01*
X308794Y664522D01*
X308719Y664608D01*
X308648Y664696D01*
X308580Y664786D01*
X308515Y664879D01*
X308453Y664974D01*
X308395Y665071D01*
X308340Y665170D01*
X308289Y665271D01*
X308241Y665374D01*
X308196Y665478D01*
X308156Y665584D01*
X308119Y665691D01*
X308086Y665799D01*
X308056Y665909D01*
X308031Y666019D01*
X308009Y666130D01*
X307992Y666242D01*
X307978Y666355D01*
X307968Y666468D01*
X307962Y666581D01*
X307960Y666694D01*
X307961Y666694D02*
X307961Y669939D01*
X307963Y670082D01*
X307969Y670225D01*
X307979Y670368D01*
X307993Y670510D01*
X308010Y670652D01*
X308032Y670794D01*
X308057Y670935D01*
X308087Y671075D01*
X308120Y671214D01*
X308157Y671352D01*
X308198Y671489D01*
X308242Y671625D01*
X308291Y671760D01*
X308343Y671893D01*
X308398Y672025D01*
X308458Y672155D01*
X308521Y672284D01*
X308587Y672411D01*
X308657Y672535D01*
X308730Y672658D01*
X308807Y672779D01*
X308887Y672898D01*
X308970Y673014D01*
X309056Y673129D01*
X309145Y673240D01*
X309238Y673350D01*
X309333Y673456D01*
X309432Y673560D01*
X309533Y673661D01*
X309637Y673760D01*
X309743Y673855D01*
X309853Y673948D01*
X309964Y674037D01*
X310079Y674123D01*
X310195Y674206D01*
X310314Y674286D01*
X310435Y674363D01*
X310557Y674436D01*
X310682Y674506D01*
X310809Y674572D01*
X310938Y674635D01*
X311068Y674695D01*
X311200Y674750D01*
X311333Y674802D01*
X311468Y674851D01*
X311604Y674895D01*
X311741Y674936D01*
X311879Y674973D01*
X312018Y675006D01*
X312158Y675036D01*
X312299Y675061D01*
X312441Y675083D01*
X312583Y675100D01*
X312725Y675114D01*
X312868Y675124D01*
X313011Y675130D01*
X313154Y675132D01*
M02*
