G04 EAGLE Gerber RS-274X export*
G75*
%MOMM*%
%FSLAX34Y34*%
%LPD*%
%INTop Soldermask*%
%IPPOS*%
%AMOC8*
5,1,8,0,0,1.08239X$1,22.5*%
G01*
%ADD10C,3.703194*%
%ADD11C,1.524000*%
%ADD12C,2.387600*%
%ADD13C,1.727200*%
%ADD14R,1.503200X1.803200*%
%ADD15R,1.803200X1.503200*%
%ADD16C,1.209600*%


D10*
X50800Y50800D03*
X711200Y50800D03*
X711200Y838200D03*
X50800Y838200D03*
D11*
X406400Y247904D02*
X406400Y234696D01*
X431800Y234696D02*
X431800Y247904D01*
X558800Y247904D02*
X558800Y234696D01*
X558800Y310896D02*
X558800Y324104D01*
X457200Y247904D02*
X457200Y234696D01*
X482600Y234696D02*
X482600Y247904D01*
X533400Y247904D02*
X533400Y234696D01*
X508000Y234696D02*
X508000Y247904D01*
X533400Y310896D02*
X533400Y324104D01*
X508000Y324104D02*
X508000Y310896D01*
X482600Y310896D02*
X482600Y324104D01*
X457200Y324104D02*
X457200Y310896D01*
X431800Y310896D02*
X431800Y324104D01*
X406400Y324104D02*
X406400Y310896D01*
D12*
X50800Y490000D03*
X50800Y525000D03*
X195800Y50800D03*
X160800Y50800D03*
X272000Y50800D03*
X237000Y50800D03*
X348200Y50800D03*
X313200Y50800D03*
X159800Y838200D03*
X194800Y838200D03*
X236000Y838200D03*
X271000Y838200D03*
X50800Y388400D03*
X50800Y423400D03*
X50800Y312200D03*
X50800Y347200D03*
D13*
X279400Y424180D02*
X279400Y439420D01*
X304800Y439420D02*
X304800Y424180D01*
X330200Y424180D02*
X330200Y439420D01*
X355600Y439420D02*
X355600Y424180D01*
X381000Y424180D02*
X381000Y439420D01*
X406400Y439420D02*
X406400Y424180D01*
X431800Y424180D02*
X431800Y439420D01*
X457200Y439420D02*
X457200Y424180D01*
X482600Y424180D02*
X482600Y439420D01*
X508000Y439420D02*
X508000Y424180D01*
X533400Y424180D02*
X533400Y439420D01*
X558800Y439420D02*
X558800Y424180D01*
X584200Y424180D02*
X584200Y439420D01*
X609600Y439420D02*
X609600Y424180D01*
X635000Y424180D02*
X635000Y439420D01*
X279400Y576580D02*
X279400Y591820D01*
X304800Y591820D02*
X304800Y576580D01*
X330200Y576580D02*
X330200Y591820D01*
X355600Y591820D02*
X355600Y576580D01*
X381000Y576580D02*
X381000Y591820D01*
X406400Y591820D02*
X406400Y576580D01*
X431800Y576580D02*
X431800Y591820D01*
X457200Y591820D02*
X457200Y576580D01*
X482600Y576580D02*
X482600Y591820D01*
X508000Y591820D02*
X508000Y576580D01*
X533400Y576580D02*
X533400Y591820D01*
X558800Y591820D02*
X558800Y576580D01*
X584200Y576580D02*
X584200Y591820D01*
X609600Y591820D02*
X609600Y576580D01*
X635000Y576580D02*
X635000Y591820D01*
D14*
X295300Y127000D03*
X314300Y127000D03*
X244500Y127000D03*
X263500Y127000D03*
X168300Y127000D03*
X187300Y127000D03*
D12*
X551400Y50800D03*
X516400Y50800D03*
X627600Y50800D03*
X592600Y50800D03*
X449800Y50800D03*
X414800Y50800D03*
D14*
X422300Y127000D03*
X441300Y127000D03*
D12*
X50800Y667800D03*
X50800Y702800D03*
X50800Y591600D03*
X50800Y626600D03*
X439200Y838200D03*
X474200Y838200D03*
X363000Y838200D03*
X398000Y838200D03*
D15*
X304800Y625500D03*
X304800Y644500D03*
D14*
X314300Y685800D03*
X295300Y685800D03*
D16*
X167640Y104140D03*
X243840Y101600D03*
X294640Y162560D03*
X398780Y127000D03*
X508000Y543560D03*
X673100Y271780D03*
M02*
