M48
;GenerationSoftware,Autodesk,EAGLE,9.5.0*%
;CreationDate,2020-10-10T17:43:04Z*%
FMAT,2
ICI,OFF
METRIC,TZ,000.000
T5C0.600
T4C0.813
T3C1.000
T2C1.016
T1C3.500
%
G90
M71
T1
X71120Y83820
X5080Y83820
X5080Y5080
X71120Y5080
T2
X45720Y58420
X43180Y58420
X40640Y58420
X38100Y58420
X35560Y58420
X33020Y58420
X58420Y43180
X30480Y58420
X27940Y58420
X63500Y43180
X60960Y43180
X55880Y43180
X53340Y43180
X50800Y43180
X48260Y43180
X45720Y43180
X43180Y43180
X40640Y43180
X38100Y43180
X35560Y43180
X30480Y43180
X27940Y43180
X33020Y43180
X48260Y58420
X50800Y58420
X53340Y58420
X55880Y58420
X58420Y58420
X60960Y58420
X63500Y58420
T3
X31320Y5080
X19480Y83820
X23600Y83820
X27100Y83820
X5080Y38840
X5080Y42340
X5080Y31220
X5080Y34720
X59260Y5080
X15980Y83820
X5080Y49000
X5080Y52500
X19580Y5080
X16080Y5080
X27200Y5080
X23700Y5080
X34820Y5080
X55140Y5080
X51640Y5080
X62760Y5080
X44980Y5080
X41480Y5080
X5080Y66780
X5080Y70280
X5080Y59160
X5080Y62660
X43920Y83820
X47420Y83820
X36300Y83820
X39800Y83820
T4
X45720Y31750
X50800Y31750
X53340Y31750
X50800Y24130
X53340Y24130
X48260Y24130
X40640Y31750
X45720Y24130
X48260Y31750
X55880Y31750
X55880Y24130
X43180Y24130
X40640Y24130
X43180Y31750
T5
X16764Y10414
X67310Y27178
X50800Y54356
X39878Y12700
X29464Y16256
X24384Y10160
M30