G04 EAGLE Gerber RS-274X export*
G75*
%MOMM*%
%FSLAX34Y34*%
%LPD*%
%INBottom Copper*%
%IPPOS*%
%AMOC8*
5,1,8,0,0,1.08239X$1,22.5*%
G01*
%ADD10C,1.320800*%
%ADD11C,2.184400*%
%ADD12C,1.524000*%
%ADD13C,1.006400*%
%ADD14C,0.304800*%

G36*
X751098Y10164D02*
X751098Y10164D01*
X751117Y10162D01*
X751219Y10184D01*
X751321Y10200D01*
X751338Y10210D01*
X751358Y10214D01*
X751447Y10267D01*
X751538Y10316D01*
X751552Y10330D01*
X751569Y10340D01*
X751636Y10419D01*
X751708Y10494D01*
X751716Y10512D01*
X751729Y10527D01*
X751768Y10623D01*
X751811Y10717D01*
X751813Y10737D01*
X751821Y10755D01*
X751839Y10922D01*
X751839Y878078D01*
X751836Y878098D01*
X751838Y878117D01*
X751816Y878219D01*
X751800Y878321D01*
X751790Y878338D01*
X751786Y878358D01*
X751733Y878447D01*
X751684Y878538D01*
X751670Y878552D01*
X751660Y878569D01*
X751581Y878636D01*
X751506Y878708D01*
X751488Y878716D01*
X751473Y878729D01*
X751377Y878768D01*
X751283Y878811D01*
X751263Y878813D01*
X751245Y878821D01*
X751078Y878839D01*
X10922Y878839D01*
X10902Y878836D01*
X10883Y878838D01*
X10781Y878816D01*
X10679Y878800D01*
X10662Y878790D01*
X10642Y878786D01*
X10553Y878733D01*
X10462Y878684D01*
X10448Y878670D01*
X10431Y878660D01*
X10364Y878581D01*
X10292Y878506D01*
X10284Y878488D01*
X10271Y878473D01*
X10232Y878377D01*
X10189Y878283D01*
X10187Y878263D01*
X10179Y878245D01*
X10161Y878078D01*
X10161Y10922D01*
X10164Y10902D01*
X10162Y10883D01*
X10184Y10781D01*
X10200Y10679D01*
X10210Y10662D01*
X10214Y10642D01*
X10267Y10553D01*
X10316Y10462D01*
X10330Y10448D01*
X10340Y10431D01*
X10419Y10364D01*
X10494Y10292D01*
X10512Y10284D01*
X10527Y10271D01*
X10623Y10232D01*
X10717Y10189D01*
X10737Y10187D01*
X10755Y10179D01*
X10922Y10161D01*
X751078Y10161D01*
X751098Y10164D01*
G37*
%LPC*%
G36*
X429981Y225551D02*
X429981Y225551D01*
X426620Y226943D01*
X424047Y229516D01*
X422655Y232877D01*
X422655Y249723D01*
X424047Y253084D01*
X426620Y255657D01*
X429981Y257049D01*
X433619Y257049D01*
X433641Y257040D01*
X433735Y257017D01*
X433829Y256989D01*
X433855Y256990D01*
X433880Y256984D01*
X433977Y256993D01*
X434074Y256995D01*
X434099Y257004D01*
X434125Y257007D01*
X434214Y257046D01*
X434305Y257080D01*
X434326Y257096D01*
X434350Y257107D01*
X434421Y257172D01*
X434497Y257233D01*
X434512Y257255D01*
X434531Y257273D01*
X434578Y257358D01*
X434630Y257440D01*
X434637Y257466D01*
X434649Y257488D01*
X434667Y257584D01*
X434691Y257679D01*
X434689Y257705D01*
X434693Y257730D01*
X434679Y257827D01*
X434671Y257924D01*
X434661Y257948D01*
X434657Y257974D01*
X434613Y258061D01*
X434575Y258150D01*
X434555Y258176D01*
X434546Y258193D01*
X434522Y258216D01*
X434470Y258281D01*
X420179Y272572D01*
X420105Y272625D01*
X420036Y272685D01*
X420006Y272697D01*
X419980Y272716D01*
X419893Y272743D01*
X419808Y272777D01*
X419767Y272781D01*
X419744Y272788D01*
X419712Y272787D01*
X419641Y272795D01*
X384396Y272795D01*
X247395Y409796D01*
X247395Y598584D01*
X275176Y626365D01*
X522384Y626365D01*
X537465Y611284D01*
X537465Y601643D01*
X537467Y601627D01*
X537466Y601613D01*
X537482Y601539D01*
X537484Y601528D01*
X537501Y601412D01*
X537503Y601406D01*
X537504Y601400D01*
X537517Y601376D01*
X537518Y601372D01*
X537529Y601354D01*
X537559Y601298D01*
X537612Y601193D01*
X537617Y601188D01*
X537620Y601183D01*
X537704Y601103D01*
X537788Y601020D01*
X537794Y601017D01*
X537798Y601013D01*
X537815Y601006D01*
X537935Y600940D01*
X539156Y600434D01*
X542014Y597576D01*
X543561Y593841D01*
X543561Y574559D01*
X542014Y570824D01*
X539156Y567966D01*
X535421Y566419D01*
X531379Y566419D01*
X527644Y567966D01*
X524786Y570824D01*
X523239Y574559D01*
X523239Y593841D01*
X524786Y597576D01*
X527644Y600434D01*
X528865Y600940D01*
X528965Y601001D01*
X529065Y601061D01*
X529069Y601066D01*
X529074Y601069D01*
X529149Y601160D01*
X529225Y601248D01*
X529227Y601254D01*
X529231Y601259D01*
X529273Y601367D01*
X529291Y601413D01*
X529307Y601447D01*
X529308Y601454D01*
X529317Y601476D01*
X529318Y601484D01*
X529319Y601488D01*
X529320Y601507D01*
X529335Y601643D01*
X529335Y607601D01*
X529321Y607691D01*
X529313Y607782D01*
X529301Y607812D01*
X529296Y607844D01*
X529253Y607924D01*
X529217Y608008D01*
X529191Y608040D01*
X529180Y608061D01*
X529157Y608083D01*
X529112Y608139D01*
X519239Y618012D01*
X519165Y618065D01*
X519096Y618125D01*
X519066Y618137D01*
X519040Y618156D01*
X518953Y618183D01*
X518868Y618217D01*
X518827Y618221D01*
X518804Y618228D01*
X518772Y618227D01*
X518701Y618235D01*
X278859Y618235D01*
X278769Y618221D01*
X278678Y618213D01*
X278648Y618201D01*
X278616Y618196D01*
X278536Y618153D01*
X278452Y618117D01*
X278420Y618091D01*
X278399Y618080D01*
X278377Y618057D01*
X278321Y618012D01*
X255748Y595439D01*
X255695Y595365D01*
X255635Y595296D01*
X255623Y595266D01*
X255604Y595240D01*
X255577Y595153D01*
X255543Y595068D01*
X255539Y595027D01*
X255532Y595004D01*
X255533Y594972D01*
X255525Y594901D01*
X255525Y413479D01*
X255539Y413389D01*
X255547Y413298D01*
X255559Y413268D01*
X255564Y413236D01*
X255607Y413156D01*
X255643Y413072D01*
X255669Y413040D01*
X255680Y413019D01*
X255703Y412997D01*
X255748Y412941D01*
X387541Y281148D01*
X387615Y281095D01*
X387684Y281035D01*
X387714Y281023D01*
X387740Y281004D01*
X387827Y280977D01*
X387912Y280943D01*
X387953Y280939D01*
X387976Y280932D01*
X388008Y280933D01*
X388079Y280925D01*
X423324Y280925D01*
X425928Y278321D01*
X449768Y254481D01*
X449784Y254469D01*
X449796Y254454D01*
X449884Y254397D01*
X449967Y254337D01*
X449986Y254331D01*
X450003Y254321D01*
X450104Y254295D01*
X450202Y254265D01*
X450222Y254265D01*
X450242Y254261D01*
X450345Y254269D01*
X450448Y254271D01*
X450467Y254278D01*
X450487Y254280D01*
X450582Y254320D01*
X450679Y254356D01*
X450695Y254368D01*
X450713Y254376D01*
X450844Y254481D01*
X452020Y255657D01*
X455381Y257049D01*
X459019Y257049D01*
X462380Y255657D01*
X464953Y253084D01*
X466345Y249723D01*
X466345Y232877D01*
X464953Y229516D01*
X462380Y226943D01*
X459019Y225551D01*
X455381Y225551D01*
X452020Y226943D01*
X449447Y229516D01*
X448055Y232877D01*
X448055Y244381D01*
X448041Y244471D01*
X448033Y244562D01*
X448021Y244592D01*
X448016Y244624D01*
X447973Y244704D01*
X447937Y244788D01*
X447911Y244820D01*
X447900Y244841D01*
X447877Y244863D01*
X447832Y244919D01*
X442177Y250574D01*
X442098Y250631D01*
X442023Y250693D01*
X441999Y250703D01*
X441978Y250718D01*
X441885Y250746D01*
X441793Y250781D01*
X441767Y250783D01*
X441742Y250790D01*
X441645Y250788D01*
X441548Y250792D01*
X441523Y250785D01*
X441497Y250784D01*
X441405Y250750D01*
X441312Y250723D01*
X441290Y250708D01*
X441266Y250699D01*
X441189Y250638D01*
X441109Y250583D01*
X441094Y250562D01*
X441074Y250546D01*
X441021Y250464D01*
X440963Y250386D01*
X440955Y250361D01*
X440941Y250339D01*
X440917Y250244D01*
X440887Y250152D01*
X440887Y250126D01*
X440880Y250100D01*
X440888Y250003D01*
X440889Y249906D01*
X440898Y249874D01*
X440900Y249855D01*
X440913Y249825D01*
X440936Y249745D01*
X440945Y249723D01*
X440945Y232877D01*
X439553Y229516D01*
X436980Y226943D01*
X433619Y225551D01*
X429981Y225551D01*
G37*
%LPD*%
%LPC*%
G36*
X589922Y37337D02*
X589922Y37337D01*
X584974Y39387D01*
X581187Y43174D01*
X579137Y48122D01*
X579137Y53478D01*
X581187Y58426D01*
X584974Y62213D01*
X589922Y64263D01*
X595278Y64263D01*
X598369Y62982D01*
X598483Y62956D01*
X598596Y62927D01*
X598603Y62928D01*
X598609Y62926D01*
X598725Y62937D01*
X598842Y62946D01*
X598847Y62949D01*
X598854Y62949D01*
X598961Y62997D01*
X599068Y63042D01*
X599074Y63047D01*
X599078Y63049D01*
X599092Y63062D01*
X599199Y63147D01*
X686592Y150541D01*
X686645Y150615D01*
X686705Y150684D01*
X686717Y150714D01*
X686736Y150740D01*
X686763Y150827D01*
X686797Y150912D01*
X686801Y150953D01*
X686808Y150975D01*
X686807Y151008D01*
X686815Y151079D01*
X686815Y452661D01*
X686801Y452751D01*
X686793Y452842D01*
X686781Y452872D01*
X686776Y452904D01*
X686733Y452984D01*
X686697Y453068D01*
X686671Y453100D01*
X686660Y453121D01*
X686637Y453143D01*
X686592Y453199D01*
X643699Y496092D01*
X643625Y496145D01*
X643556Y496205D01*
X643526Y496217D01*
X643500Y496236D01*
X643413Y496263D01*
X643328Y496297D01*
X643287Y496301D01*
X643264Y496308D01*
X643232Y496307D01*
X643161Y496315D01*
X409796Y496315D01*
X402335Y503776D01*
X402335Y566757D01*
X402317Y566871D01*
X402299Y566988D01*
X402297Y566994D01*
X402296Y567000D01*
X402241Y567102D01*
X402188Y567207D01*
X402183Y567212D01*
X402180Y567217D01*
X402096Y567297D01*
X402012Y567380D01*
X402006Y567383D01*
X402002Y567387D01*
X401985Y567394D01*
X401865Y567460D01*
X400644Y567966D01*
X397786Y570824D01*
X396239Y574559D01*
X396239Y593841D01*
X397786Y597576D01*
X400644Y600434D01*
X404379Y601981D01*
X408421Y601981D01*
X412156Y600434D01*
X415014Y597576D01*
X416561Y593841D01*
X416561Y574559D01*
X415014Y570824D01*
X412156Y567966D01*
X410935Y567460D01*
X410835Y567399D01*
X410735Y567339D01*
X410731Y567334D01*
X410726Y567331D01*
X410651Y567240D01*
X410575Y567152D01*
X410573Y567146D01*
X410569Y567141D01*
X410527Y567033D01*
X410483Y566924D01*
X410482Y566916D01*
X410481Y566912D01*
X410480Y566893D01*
X410465Y566757D01*
X410465Y507459D01*
X410479Y507369D01*
X410487Y507278D01*
X410499Y507248D01*
X410504Y507216D01*
X410547Y507136D01*
X410583Y507052D01*
X410609Y507020D01*
X410620Y506999D01*
X410643Y506977D01*
X410688Y506921D01*
X412941Y504668D01*
X413015Y504615D01*
X413084Y504555D01*
X413114Y504543D01*
X413140Y504524D01*
X413227Y504497D01*
X413312Y504463D01*
X413353Y504459D01*
X413376Y504452D01*
X413408Y504453D01*
X413479Y504445D01*
X646844Y504445D01*
X694945Y456344D01*
X694945Y147396D01*
X692341Y144792D01*
X604947Y57399D01*
X604880Y57305D01*
X604809Y57210D01*
X604807Y57204D01*
X604804Y57199D01*
X604769Y57088D01*
X604733Y56976D01*
X604733Y56970D01*
X604731Y56964D01*
X604734Y56847D01*
X604736Y56730D01*
X604738Y56723D01*
X604738Y56718D01*
X604744Y56701D01*
X604782Y56569D01*
X606063Y53478D01*
X606063Y48122D01*
X604013Y43174D01*
X600226Y39387D01*
X595278Y37337D01*
X589922Y37337D01*
G37*
%LPD*%
%LPC*%
G36*
X624922Y37337D02*
X624922Y37337D01*
X619974Y39387D01*
X616187Y43174D01*
X614137Y48122D01*
X614137Y53478D01*
X616187Y58426D01*
X619974Y62213D01*
X624922Y64263D01*
X630278Y64263D01*
X633369Y62982D01*
X633483Y62956D01*
X633596Y62927D01*
X633603Y62928D01*
X633609Y62926D01*
X633725Y62937D01*
X633842Y62946D01*
X633847Y62949D01*
X633854Y62949D01*
X633961Y62997D01*
X634068Y63042D01*
X634074Y63047D01*
X634078Y63049D01*
X634092Y63062D01*
X634199Y63147D01*
X706912Y135861D01*
X706965Y135935D01*
X707025Y136004D01*
X707037Y136034D01*
X707056Y136060D01*
X707083Y136147D01*
X707117Y136232D01*
X707121Y136273D01*
X707128Y136295D01*
X707127Y136328D01*
X707135Y136399D01*
X707135Y455201D01*
X707121Y455291D01*
X707113Y455382D01*
X707101Y455412D01*
X707096Y455444D01*
X707053Y455524D01*
X707017Y455608D01*
X706991Y455640D01*
X706980Y455661D01*
X706957Y455683D01*
X706912Y455739D01*
X651319Y511332D01*
X651245Y511385D01*
X651176Y511445D01*
X651146Y511457D01*
X651120Y511476D01*
X651033Y511503D01*
X650948Y511537D01*
X650907Y511541D01*
X650884Y511548D01*
X650852Y511547D01*
X650781Y511555D01*
X460596Y511555D01*
X457992Y514159D01*
X455739Y516412D01*
X453135Y519016D01*
X453135Y566757D01*
X453117Y566871D01*
X453099Y566988D01*
X453097Y566994D01*
X453096Y567000D01*
X453041Y567102D01*
X452988Y567207D01*
X452983Y567212D01*
X452980Y567217D01*
X452896Y567297D01*
X452812Y567380D01*
X452806Y567383D01*
X452802Y567387D01*
X452785Y567394D01*
X452665Y567460D01*
X451444Y567966D01*
X448586Y570824D01*
X447039Y574559D01*
X447039Y593841D01*
X448586Y597576D01*
X451444Y600434D01*
X455179Y601981D01*
X459221Y601981D01*
X462956Y600434D01*
X465814Y597576D01*
X467361Y593841D01*
X467361Y574559D01*
X465814Y570824D01*
X462956Y567966D01*
X461735Y567460D01*
X461635Y567399D01*
X461535Y567339D01*
X461531Y567334D01*
X461526Y567331D01*
X461451Y567240D01*
X461375Y567152D01*
X461373Y567146D01*
X461369Y567141D01*
X461327Y567033D01*
X461283Y566924D01*
X461282Y566916D01*
X461281Y566912D01*
X461280Y566893D01*
X461265Y566757D01*
X461265Y522699D01*
X461279Y522609D01*
X461287Y522518D01*
X461299Y522488D01*
X461304Y522456D01*
X461347Y522376D01*
X461383Y522292D01*
X461409Y522260D01*
X461420Y522239D01*
X461443Y522217D01*
X461488Y522161D01*
X463741Y519908D01*
X463815Y519855D01*
X463884Y519795D01*
X463914Y519783D01*
X463940Y519764D01*
X464027Y519737D01*
X464112Y519703D01*
X464153Y519699D01*
X464175Y519692D01*
X464208Y519693D01*
X464279Y519685D01*
X654464Y519685D01*
X715265Y458884D01*
X715265Y132716D01*
X712661Y130112D01*
X639947Y57399D01*
X639880Y57305D01*
X639809Y57210D01*
X639807Y57204D01*
X639804Y57199D01*
X639769Y57088D01*
X639733Y56976D01*
X639733Y56970D01*
X639731Y56964D01*
X639734Y56847D01*
X639736Y56730D01*
X639738Y56723D01*
X639738Y56718D01*
X639744Y56701D01*
X639782Y56569D01*
X641063Y53478D01*
X641063Y48122D01*
X639013Y43174D01*
X635226Y39387D01*
X630278Y37337D01*
X624922Y37337D01*
G37*
%LPD*%
%LPC*%
G36*
X707558Y810539D02*
X707558Y810539D01*
X700523Y812424D01*
X694216Y816066D01*
X689066Y821216D01*
X685424Y827523D01*
X683539Y834558D01*
X683539Y841842D01*
X685424Y848877D01*
X689066Y855184D01*
X694216Y860334D01*
X700523Y863976D01*
X707558Y865861D01*
X714842Y865861D01*
X721877Y863976D01*
X728184Y860334D01*
X733334Y855184D01*
X736976Y848877D01*
X738861Y841842D01*
X738861Y834558D01*
X736976Y827523D01*
X733334Y821216D01*
X728184Y816066D01*
X721877Y812424D01*
X714842Y810539D01*
X707558Y810539D01*
G37*
%LPD*%
%LPC*%
G36*
X47158Y810539D02*
X47158Y810539D01*
X40123Y812424D01*
X33816Y816066D01*
X28666Y821216D01*
X25024Y827523D01*
X23139Y834558D01*
X23139Y841842D01*
X25024Y848877D01*
X28666Y855184D01*
X33816Y860334D01*
X40123Y863976D01*
X47158Y865861D01*
X54442Y865861D01*
X61477Y863976D01*
X67784Y860334D01*
X72934Y855184D01*
X76576Y848877D01*
X78461Y841842D01*
X78461Y834558D01*
X76576Y827523D01*
X72934Y821216D01*
X67784Y816066D01*
X61477Y812424D01*
X54442Y810539D01*
X47158Y810539D01*
G37*
%LPD*%
%LPC*%
G36*
X47158Y23139D02*
X47158Y23139D01*
X40123Y25024D01*
X33816Y28666D01*
X28666Y33816D01*
X25024Y40123D01*
X23139Y47158D01*
X23139Y54442D01*
X25024Y61477D01*
X28666Y67784D01*
X33816Y72934D01*
X40123Y76576D01*
X47158Y78461D01*
X54442Y78461D01*
X61477Y76576D01*
X67784Y72934D01*
X72934Y67784D01*
X76576Y61477D01*
X78461Y54442D01*
X78461Y47158D01*
X76576Y40123D01*
X72934Y33816D01*
X67784Y28666D01*
X61477Y25024D01*
X54442Y23139D01*
X47158Y23139D01*
G37*
%LPD*%
%LPC*%
G36*
X707558Y23139D02*
X707558Y23139D01*
X700523Y25024D01*
X694216Y28666D01*
X689066Y33816D01*
X685424Y40123D01*
X683539Y47158D01*
X683539Y54442D01*
X685424Y61477D01*
X689066Y67784D01*
X694216Y72934D01*
X700523Y76576D01*
X707558Y78461D01*
X714842Y78461D01*
X721877Y76576D01*
X728184Y72934D01*
X733334Y67784D01*
X736976Y61477D01*
X738861Y54442D01*
X738861Y47158D01*
X736976Y40123D01*
X733334Y33816D01*
X728184Y28666D01*
X721877Y25024D01*
X714842Y23139D01*
X707558Y23139D01*
G37*
%LPD*%
%LPC*%
G36*
X531581Y225551D02*
X531581Y225551D01*
X528220Y226943D01*
X525647Y229516D01*
X524255Y232877D01*
X524255Y249723D01*
X525647Y253084D01*
X528220Y255657D01*
X528865Y255924D01*
X528965Y255985D01*
X529065Y256045D01*
X529069Y256050D01*
X529074Y256053D01*
X529149Y256144D01*
X529225Y256232D01*
X529227Y256238D01*
X529231Y256243D01*
X529273Y256351D01*
X529317Y256460D01*
X529318Y256468D01*
X529319Y256473D01*
X529320Y256491D01*
X529335Y256627D01*
X529335Y260764D01*
X544416Y275845D01*
X666140Y275845D01*
X666230Y275859D01*
X666321Y275867D01*
X666351Y275879D01*
X666383Y275884D01*
X666463Y275927D01*
X666547Y275963D01*
X666579Y275989D01*
X666600Y276000D01*
X666622Y276023D01*
X666678Y276068D01*
X668810Y278200D01*
X671594Y279353D01*
X674606Y279353D01*
X677390Y278200D01*
X679520Y276070D01*
X680673Y273286D01*
X680673Y270274D01*
X679520Y267490D01*
X677390Y265360D01*
X674606Y264207D01*
X671594Y264207D01*
X668810Y265360D01*
X666678Y267492D01*
X666604Y267545D01*
X666535Y267605D01*
X666505Y267617D01*
X666478Y267636D01*
X666392Y267663D01*
X666307Y267697D01*
X666266Y267701D01*
X666243Y267708D01*
X666211Y267707D01*
X666140Y267715D01*
X548099Y267715D01*
X548009Y267701D01*
X547918Y267693D01*
X547888Y267681D01*
X547856Y267676D01*
X547776Y267633D01*
X547692Y267597D01*
X547660Y267571D01*
X547639Y267560D01*
X547617Y267537D01*
X547561Y267492D01*
X537688Y257619D01*
X537635Y257545D01*
X537575Y257476D01*
X537563Y257446D01*
X537544Y257420D01*
X537517Y257333D01*
X537483Y257248D01*
X537479Y257207D01*
X537472Y257184D01*
X537473Y257152D01*
X537465Y257081D01*
X537465Y256627D01*
X537484Y256512D01*
X537501Y256396D01*
X537503Y256391D01*
X537504Y256384D01*
X537559Y256282D01*
X537612Y256177D01*
X537617Y256173D01*
X537620Y256167D01*
X537704Y256087D01*
X537788Y256005D01*
X537794Y256001D01*
X537798Y255998D01*
X537815Y255990D01*
X537935Y255924D01*
X538580Y255657D01*
X541153Y253084D01*
X542545Y249723D01*
X542545Y232877D01*
X541153Y229516D01*
X538580Y226943D01*
X535219Y225551D01*
X531581Y225551D01*
G37*
%LPD*%
%LPC*%
G36*
X506494Y535987D02*
X506494Y535987D01*
X503710Y537140D01*
X501580Y539270D01*
X500427Y542054D01*
X500427Y545066D01*
X501580Y547850D01*
X503712Y549982D01*
X503765Y550056D01*
X503825Y550125D01*
X503837Y550155D01*
X503856Y550182D01*
X503883Y550268D01*
X503917Y550353D01*
X503921Y550394D01*
X503928Y550417D01*
X503927Y550449D01*
X503935Y550520D01*
X503935Y566757D01*
X503917Y566871D01*
X503899Y566988D01*
X503897Y566994D01*
X503896Y567000D01*
X503841Y567102D01*
X503788Y567207D01*
X503783Y567212D01*
X503780Y567217D01*
X503696Y567297D01*
X503612Y567380D01*
X503606Y567383D01*
X503602Y567387D01*
X503585Y567394D01*
X503465Y567460D01*
X502244Y567966D01*
X499386Y570824D01*
X497839Y574559D01*
X497839Y593841D01*
X499386Y597576D01*
X502244Y600434D01*
X505979Y601981D01*
X510021Y601981D01*
X513756Y600434D01*
X516614Y597576D01*
X518161Y593841D01*
X518161Y574559D01*
X516614Y570824D01*
X513756Y567966D01*
X512535Y567460D01*
X512435Y567399D01*
X512335Y567339D01*
X512331Y567334D01*
X512326Y567331D01*
X512251Y567240D01*
X512175Y567152D01*
X512173Y567146D01*
X512169Y567141D01*
X512127Y567033D01*
X512083Y566924D01*
X512082Y566916D01*
X512081Y566912D01*
X512080Y566893D01*
X512065Y566757D01*
X512065Y550520D01*
X512079Y550430D01*
X512087Y550339D01*
X512099Y550309D01*
X512104Y550277D01*
X512147Y550197D01*
X512183Y550113D01*
X512209Y550081D01*
X512220Y550060D01*
X512243Y550038D01*
X512288Y549982D01*
X514420Y547850D01*
X515573Y545066D01*
X515573Y542054D01*
X514420Y539270D01*
X512290Y537140D01*
X509506Y535987D01*
X506494Y535987D01*
G37*
%LPD*%
%LPC*%
G36*
X328179Y414019D02*
X328179Y414019D01*
X324444Y415566D01*
X321586Y418424D01*
X320039Y422159D01*
X320039Y441441D01*
X321586Y445176D01*
X324444Y448034D01*
X328179Y449581D01*
X332221Y449581D01*
X335956Y448034D01*
X338814Y445176D01*
X340361Y441441D01*
X340361Y422159D01*
X338814Y418424D01*
X335956Y415566D01*
X332221Y414019D01*
X328179Y414019D01*
G37*
%LPD*%
%LPC*%
G36*
X353579Y414019D02*
X353579Y414019D01*
X349844Y415566D01*
X346986Y418424D01*
X345439Y422159D01*
X345439Y441441D01*
X346986Y445176D01*
X349844Y448034D01*
X353579Y449581D01*
X357621Y449581D01*
X361356Y448034D01*
X364214Y445176D01*
X365761Y441441D01*
X365761Y422159D01*
X364214Y418424D01*
X361356Y415566D01*
X357621Y414019D01*
X353579Y414019D01*
G37*
%LPD*%
%LPC*%
G36*
X328179Y566419D02*
X328179Y566419D01*
X324444Y567966D01*
X321586Y570824D01*
X320039Y574559D01*
X320039Y593841D01*
X321586Y597576D01*
X324444Y600434D01*
X328179Y601981D01*
X332221Y601981D01*
X335956Y600434D01*
X338814Y597576D01*
X340361Y593841D01*
X340361Y574559D01*
X338814Y570824D01*
X335956Y567966D01*
X332221Y566419D01*
X328179Y566419D01*
G37*
%LPD*%
%LPC*%
G36*
X556779Y566419D02*
X556779Y566419D01*
X553044Y567966D01*
X550186Y570824D01*
X548639Y574559D01*
X548639Y593841D01*
X550186Y597576D01*
X553044Y600434D01*
X556779Y601981D01*
X560821Y601981D01*
X564556Y600434D01*
X567414Y597576D01*
X568961Y593841D01*
X568961Y574559D01*
X567414Y570824D01*
X564556Y567966D01*
X560821Y566419D01*
X556779Y566419D01*
G37*
%LPD*%
%LPC*%
G36*
X378979Y566419D02*
X378979Y566419D01*
X375244Y567966D01*
X372386Y570824D01*
X370839Y574559D01*
X370839Y593841D01*
X372386Y597576D01*
X375244Y600434D01*
X378979Y601981D01*
X383021Y601981D01*
X386756Y600434D01*
X389614Y597576D01*
X391161Y593841D01*
X391161Y574559D01*
X389614Y570824D01*
X386756Y567966D01*
X383021Y566419D01*
X378979Y566419D01*
G37*
%LPD*%
%LPC*%
G36*
X353579Y566419D02*
X353579Y566419D01*
X349844Y567966D01*
X346986Y570824D01*
X345439Y574559D01*
X345439Y593841D01*
X346986Y597576D01*
X349844Y600434D01*
X353579Y601981D01*
X357621Y601981D01*
X361356Y600434D01*
X364214Y597576D01*
X365761Y593841D01*
X365761Y574559D01*
X364214Y570824D01*
X361356Y567966D01*
X357621Y566419D01*
X353579Y566419D01*
G37*
%LPD*%
%LPC*%
G36*
X582179Y414019D02*
X582179Y414019D01*
X578444Y415566D01*
X575586Y418424D01*
X574039Y422159D01*
X574039Y441441D01*
X575586Y445176D01*
X578444Y448034D01*
X582179Y449581D01*
X586221Y449581D01*
X589956Y448034D01*
X592814Y445176D01*
X594361Y441441D01*
X594361Y422159D01*
X592814Y418424D01*
X589956Y415566D01*
X586221Y414019D01*
X582179Y414019D01*
G37*
%LPD*%
%LPC*%
G36*
X378979Y414019D02*
X378979Y414019D01*
X375244Y415566D01*
X372386Y418424D01*
X370839Y422159D01*
X370839Y441441D01*
X372386Y445176D01*
X375244Y448034D01*
X378979Y449581D01*
X383021Y449581D01*
X386756Y448034D01*
X389614Y445176D01*
X391161Y441441D01*
X391161Y422159D01*
X389614Y418424D01*
X386756Y415566D01*
X383021Y414019D01*
X378979Y414019D01*
G37*
%LPD*%
%LPC*%
G36*
X404379Y414019D02*
X404379Y414019D01*
X400644Y415566D01*
X397786Y418424D01*
X396239Y422159D01*
X396239Y441441D01*
X397786Y445176D01*
X400644Y448034D01*
X404379Y449581D01*
X408421Y449581D01*
X412156Y448034D01*
X415014Y445176D01*
X416561Y441441D01*
X416561Y422159D01*
X415014Y418424D01*
X412156Y415566D01*
X408421Y414019D01*
X404379Y414019D01*
G37*
%LPD*%
%LPC*%
G36*
X302779Y566419D02*
X302779Y566419D01*
X299044Y567966D01*
X296186Y570824D01*
X294639Y574559D01*
X294639Y593841D01*
X296186Y597576D01*
X299044Y600434D01*
X302779Y601981D01*
X306821Y601981D01*
X310556Y600434D01*
X313414Y597576D01*
X314961Y593841D01*
X314961Y574559D01*
X313414Y570824D01*
X310556Y567966D01*
X306821Y566419D01*
X302779Y566419D01*
G37*
%LPD*%
%LPC*%
G36*
X632979Y566419D02*
X632979Y566419D01*
X629244Y567966D01*
X626386Y570824D01*
X624839Y574559D01*
X624839Y593841D01*
X626386Y597576D01*
X629244Y600434D01*
X632979Y601981D01*
X637021Y601981D01*
X640756Y600434D01*
X643614Y597576D01*
X645161Y593841D01*
X645161Y574559D01*
X643614Y570824D01*
X640756Y567966D01*
X637021Y566419D01*
X632979Y566419D01*
G37*
%LPD*%
%LPC*%
G36*
X277379Y566419D02*
X277379Y566419D01*
X273644Y567966D01*
X270786Y570824D01*
X269239Y574559D01*
X269239Y593841D01*
X270786Y597576D01*
X273644Y600434D01*
X277379Y601981D01*
X281421Y601981D01*
X285156Y600434D01*
X288014Y597576D01*
X289561Y593841D01*
X289561Y574559D01*
X288014Y570824D01*
X285156Y567966D01*
X281421Y566419D01*
X277379Y566419D01*
G37*
%LPD*%
%LPC*%
G36*
X607579Y566419D02*
X607579Y566419D01*
X603844Y567966D01*
X600986Y570824D01*
X599439Y574559D01*
X599439Y593841D01*
X600986Y597576D01*
X603844Y600434D01*
X607579Y601981D01*
X611621Y601981D01*
X615356Y600434D01*
X618214Y597576D01*
X619761Y593841D01*
X619761Y574559D01*
X618214Y570824D01*
X615356Y567966D01*
X611621Y566419D01*
X607579Y566419D01*
G37*
%LPD*%
%LPC*%
G36*
X582179Y566419D02*
X582179Y566419D01*
X578444Y567966D01*
X575586Y570824D01*
X574039Y574559D01*
X574039Y593841D01*
X575586Y597576D01*
X578444Y600434D01*
X582179Y601981D01*
X586221Y601981D01*
X589956Y600434D01*
X592814Y597576D01*
X594361Y593841D01*
X594361Y574559D01*
X592814Y570824D01*
X589956Y567966D01*
X586221Y566419D01*
X582179Y566419D01*
G37*
%LPD*%
%LPC*%
G36*
X480579Y566419D02*
X480579Y566419D01*
X476844Y567966D01*
X473986Y570824D01*
X472439Y574559D01*
X472439Y593841D01*
X473986Y597576D01*
X476844Y600434D01*
X480579Y601981D01*
X484621Y601981D01*
X488356Y600434D01*
X491214Y597576D01*
X492761Y593841D01*
X492761Y574559D01*
X491214Y570824D01*
X488356Y567966D01*
X484621Y566419D01*
X480579Y566419D01*
G37*
%LPD*%
%LPC*%
G36*
X429779Y566419D02*
X429779Y566419D01*
X426044Y567966D01*
X423186Y570824D01*
X421639Y574559D01*
X421639Y593841D01*
X423186Y597576D01*
X426044Y600434D01*
X429779Y601981D01*
X433821Y601981D01*
X437556Y600434D01*
X440414Y597576D01*
X441961Y593841D01*
X441961Y574559D01*
X440414Y570824D01*
X437556Y567966D01*
X433821Y566419D01*
X429779Y566419D01*
G37*
%LPD*%
%LPC*%
G36*
X429779Y414019D02*
X429779Y414019D01*
X426044Y415566D01*
X423186Y418424D01*
X421639Y422159D01*
X421639Y441441D01*
X423186Y445176D01*
X426044Y448034D01*
X429779Y449581D01*
X433821Y449581D01*
X437556Y448034D01*
X440414Y445176D01*
X441961Y441441D01*
X441961Y422159D01*
X440414Y418424D01*
X437556Y415566D01*
X433821Y414019D01*
X429779Y414019D01*
G37*
%LPD*%
%LPC*%
G36*
X455179Y414019D02*
X455179Y414019D01*
X451444Y415566D01*
X448586Y418424D01*
X447039Y422159D01*
X447039Y441441D01*
X448586Y445176D01*
X451444Y448034D01*
X455179Y449581D01*
X459221Y449581D01*
X462956Y448034D01*
X465814Y445176D01*
X467361Y441441D01*
X467361Y422159D01*
X465814Y418424D01*
X462956Y415566D01*
X459221Y414019D01*
X455179Y414019D01*
G37*
%LPD*%
%LPC*%
G36*
X480579Y414019D02*
X480579Y414019D01*
X476844Y415566D01*
X473986Y418424D01*
X472439Y422159D01*
X472439Y441441D01*
X473986Y445176D01*
X476844Y448034D01*
X480579Y449581D01*
X484621Y449581D01*
X488356Y448034D01*
X491214Y445176D01*
X492761Y441441D01*
X492761Y422159D01*
X491214Y418424D01*
X488356Y415566D01*
X484621Y414019D01*
X480579Y414019D01*
G37*
%LPD*%
%LPC*%
G36*
X505979Y414019D02*
X505979Y414019D01*
X502244Y415566D01*
X499386Y418424D01*
X497839Y422159D01*
X497839Y441441D01*
X499386Y445176D01*
X502244Y448034D01*
X505979Y449581D01*
X510021Y449581D01*
X513756Y448034D01*
X516614Y445176D01*
X518161Y441441D01*
X518161Y422159D01*
X516614Y418424D01*
X513756Y415566D01*
X510021Y414019D01*
X505979Y414019D01*
G37*
%LPD*%
%LPC*%
G36*
X531379Y414019D02*
X531379Y414019D01*
X527644Y415566D01*
X524786Y418424D01*
X523239Y422159D01*
X523239Y441441D01*
X524786Y445176D01*
X527644Y448034D01*
X531379Y449581D01*
X535421Y449581D01*
X539156Y448034D01*
X542014Y445176D01*
X543561Y441441D01*
X543561Y422159D01*
X542014Y418424D01*
X539156Y415566D01*
X535421Y414019D01*
X531379Y414019D01*
G37*
%LPD*%
%LPC*%
G36*
X302779Y414019D02*
X302779Y414019D01*
X299044Y415566D01*
X296186Y418424D01*
X294639Y422159D01*
X294639Y441441D01*
X296186Y445176D01*
X299044Y448034D01*
X302779Y449581D01*
X306821Y449581D01*
X310556Y448034D01*
X313414Y445176D01*
X314961Y441441D01*
X314961Y422159D01*
X313414Y418424D01*
X310556Y415566D01*
X306821Y414019D01*
X302779Y414019D01*
G37*
%LPD*%
%LPC*%
G36*
X607579Y414019D02*
X607579Y414019D01*
X603844Y415566D01*
X600986Y418424D01*
X599439Y422159D01*
X599439Y441441D01*
X600986Y445176D01*
X603844Y448034D01*
X607579Y449581D01*
X611621Y449581D01*
X615356Y448034D01*
X618214Y445176D01*
X619761Y441441D01*
X619761Y422159D01*
X618214Y418424D01*
X615356Y415566D01*
X611621Y414019D01*
X607579Y414019D01*
G37*
%LPD*%
%LPC*%
G36*
X277379Y414019D02*
X277379Y414019D01*
X273644Y415566D01*
X270786Y418424D01*
X269239Y422159D01*
X269239Y441441D01*
X270786Y445176D01*
X273644Y448034D01*
X277379Y449581D01*
X281421Y449581D01*
X285156Y448034D01*
X288014Y445176D01*
X289561Y441441D01*
X289561Y422159D01*
X288014Y418424D01*
X285156Y415566D01*
X281421Y414019D01*
X277379Y414019D01*
G37*
%LPD*%
%LPC*%
G36*
X556779Y414019D02*
X556779Y414019D01*
X553044Y415566D01*
X550186Y418424D01*
X548639Y422159D01*
X548639Y441441D01*
X550186Y445176D01*
X553044Y448034D01*
X556779Y449581D01*
X560821Y449581D01*
X564556Y448034D01*
X567414Y445176D01*
X568961Y441441D01*
X568961Y422159D01*
X567414Y418424D01*
X564556Y415566D01*
X560821Y414019D01*
X556779Y414019D01*
G37*
%LPD*%
%LPC*%
G36*
X48122Y298737D02*
X48122Y298737D01*
X43174Y300787D01*
X39387Y304574D01*
X37337Y309522D01*
X37337Y314878D01*
X39387Y319826D01*
X43174Y323613D01*
X48122Y325663D01*
X53478Y325663D01*
X58426Y323613D01*
X62213Y319826D01*
X64263Y314878D01*
X64263Y309522D01*
X62213Y304574D01*
X58426Y300787D01*
X53478Y298737D01*
X48122Y298737D01*
G37*
%LPD*%
%LPC*%
G36*
X158122Y37337D02*
X158122Y37337D01*
X153174Y39387D01*
X149387Y43174D01*
X147337Y48122D01*
X147337Y53478D01*
X149387Y58426D01*
X153174Y62213D01*
X158122Y64263D01*
X163478Y64263D01*
X168426Y62213D01*
X172213Y58426D01*
X174263Y53478D01*
X174263Y48122D01*
X172213Y43174D01*
X168426Y39387D01*
X163478Y37337D01*
X158122Y37337D01*
G37*
%LPD*%
%LPC*%
G36*
X48122Y333737D02*
X48122Y333737D01*
X43174Y335787D01*
X39387Y339574D01*
X37337Y344522D01*
X37337Y349878D01*
X39387Y354826D01*
X43174Y358613D01*
X48122Y360663D01*
X53478Y360663D01*
X58426Y358613D01*
X62213Y354826D01*
X64263Y349878D01*
X64263Y344522D01*
X62213Y339574D01*
X58426Y335787D01*
X53478Y333737D01*
X48122Y333737D01*
G37*
%LPD*%
%LPC*%
G36*
X48122Y409937D02*
X48122Y409937D01*
X43174Y411987D01*
X39387Y415774D01*
X37337Y420722D01*
X37337Y426078D01*
X39387Y431026D01*
X43174Y434813D01*
X48122Y436863D01*
X53478Y436863D01*
X58426Y434813D01*
X62213Y431026D01*
X64263Y426078D01*
X64263Y420722D01*
X62213Y415774D01*
X58426Y411987D01*
X53478Y409937D01*
X48122Y409937D01*
G37*
%LPD*%
%LPC*%
G36*
X48122Y689337D02*
X48122Y689337D01*
X43174Y691387D01*
X39387Y695174D01*
X37337Y700122D01*
X37337Y705478D01*
X39387Y710426D01*
X43174Y714213D01*
X48122Y716263D01*
X53478Y716263D01*
X58426Y714213D01*
X62213Y710426D01*
X64263Y705478D01*
X64263Y700122D01*
X62213Y695174D01*
X58426Y691387D01*
X53478Y689337D01*
X48122Y689337D01*
G37*
%LPD*%
%LPC*%
G36*
X48122Y654337D02*
X48122Y654337D01*
X43174Y656387D01*
X39387Y660174D01*
X37337Y665122D01*
X37337Y670478D01*
X39387Y675426D01*
X43174Y679213D01*
X48122Y681263D01*
X53478Y681263D01*
X58426Y679213D01*
X62213Y675426D01*
X64263Y670478D01*
X64263Y665122D01*
X62213Y660174D01*
X58426Y656387D01*
X53478Y654337D01*
X48122Y654337D01*
G37*
%LPD*%
%LPC*%
G36*
X48122Y613137D02*
X48122Y613137D01*
X43174Y615187D01*
X39387Y618974D01*
X37337Y623922D01*
X37337Y629278D01*
X39387Y634226D01*
X43174Y638013D01*
X48122Y640063D01*
X53478Y640063D01*
X58426Y638013D01*
X62213Y634226D01*
X64263Y629278D01*
X64263Y623922D01*
X62213Y618974D01*
X58426Y615187D01*
X53478Y613137D01*
X48122Y613137D01*
G37*
%LPD*%
%LPC*%
G36*
X48122Y511537D02*
X48122Y511537D01*
X43174Y513587D01*
X39387Y517374D01*
X37337Y522322D01*
X37337Y527678D01*
X39387Y532626D01*
X43174Y536413D01*
X48122Y538463D01*
X53478Y538463D01*
X58426Y536413D01*
X62213Y532626D01*
X64263Y527678D01*
X64263Y522322D01*
X62213Y517374D01*
X58426Y513587D01*
X53478Y511537D01*
X48122Y511537D01*
G37*
%LPD*%
%LPC*%
G36*
X268322Y824737D02*
X268322Y824737D01*
X263374Y826787D01*
X259587Y830574D01*
X257537Y835522D01*
X257537Y840878D01*
X259587Y845826D01*
X263374Y849613D01*
X268322Y851663D01*
X273678Y851663D01*
X278626Y849613D01*
X282413Y845826D01*
X284463Y840878D01*
X284463Y835522D01*
X282413Y830574D01*
X278626Y826787D01*
X273678Y824737D01*
X268322Y824737D01*
G37*
%LPD*%
%LPC*%
G36*
X471522Y824737D02*
X471522Y824737D01*
X466574Y826787D01*
X462787Y830574D01*
X460737Y835522D01*
X460737Y840878D01*
X462787Y845826D01*
X466574Y849613D01*
X471522Y851663D01*
X476878Y851663D01*
X481826Y849613D01*
X485613Y845826D01*
X487663Y840878D01*
X487663Y835522D01*
X485613Y830574D01*
X481826Y826787D01*
X476878Y824737D01*
X471522Y824737D01*
G37*
%LPD*%
%LPC*%
G36*
X192122Y824737D02*
X192122Y824737D01*
X187174Y826787D01*
X183387Y830574D01*
X181337Y835522D01*
X181337Y840878D01*
X183387Y845826D01*
X187174Y849613D01*
X192122Y851663D01*
X197478Y851663D01*
X202426Y849613D01*
X206213Y845826D01*
X208263Y840878D01*
X208263Y835522D01*
X206213Y830574D01*
X202426Y826787D01*
X197478Y824737D01*
X192122Y824737D01*
G37*
%LPD*%
%LPC*%
G36*
X436522Y824737D02*
X436522Y824737D01*
X431574Y826787D01*
X427787Y830574D01*
X425737Y835522D01*
X425737Y840878D01*
X427787Y845826D01*
X431574Y849613D01*
X436522Y851663D01*
X441878Y851663D01*
X446826Y849613D01*
X450613Y845826D01*
X452663Y840878D01*
X452663Y835522D01*
X450613Y830574D01*
X446826Y826787D01*
X441878Y824737D01*
X436522Y824737D01*
G37*
%LPD*%
%LPC*%
G36*
X395322Y824737D02*
X395322Y824737D01*
X390374Y826787D01*
X386587Y830574D01*
X384537Y835522D01*
X384537Y840878D01*
X386587Y845826D01*
X390374Y849613D01*
X395322Y851663D01*
X400678Y851663D01*
X405626Y849613D01*
X409413Y845826D01*
X411463Y840878D01*
X411463Y835522D01*
X409413Y830574D01*
X405626Y826787D01*
X400678Y824737D01*
X395322Y824737D01*
G37*
%LPD*%
%LPC*%
G36*
X233322Y824737D02*
X233322Y824737D01*
X228374Y826787D01*
X224587Y830574D01*
X222537Y835522D01*
X222537Y840878D01*
X224587Y845826D01*
X228374Y849613D01*
X233322Y851663D01*
X238678Y851663D01*
X243626Y849613D01*
X247413Y845826D01*
X249463Y840878D01*
X249463Y835522D01*
X247413Y830574D01*
X243626Y826787D01*
X238678Y824737D01*
X233322Y824737D01*
G37*
%LPD*%
%LPC*%
G36*
X548722Y37337D02*
X548722Y37337D01*
X543774Y39387D01*
X539987Y43174D01*
X537937Y48122D01*
X537937Y53478D01*
X539987Y58426D01*
X543774Y62213D01*
X548722Y64263D01*
X554078Y64263D01*
X559026Y62213D01*
X562813Y58426D01*
X564863Y53478D01*
X564863Y48122D01*
X562813Y43174D01*
X559026Y39387D01*
X554078Y37337D01*
X548722Y37337D01*
G37*
%LPD*%
%LPC*%
G36*
X513722Y37337D02*
X513722Y37337D01*
X508774Y39387D01*
X504987Y43174D01*
X502937Y48122D01*
X502937Y53478D01*
X504987Y58426D01*
X508774Y62213D01*
X513722Y64263D01*
X519078Y64263D01*
X524026Y62213D01*
X527813Y58426D01*
X529863Y53478D01*
X529863Y48122D01*
X527813Y43174D01*
X524026Y39387D01*
X519078Y37337D01*
X513722Y37337D01*
G37*
%LPD*%
%LPC*%
G36*
X447122Y37337D02*
X447122Y37337D01*
X442174Y39387D01*
X438387Y43174D01*
X436337Y48122D01*
X436337Y53478D01*
X438387Y58426D01*
X442174Y62213D01*
X447122Y64263D01*
X452478Y64263D01*
X457426Y62213D01*
X461213Y58426D01*
X463263Y53478D01*
X463263Y48122D01*
X461213Y43174D01*
X457426Y39387D01*
X452478Y37337D01*
X447122Y37337D01*
G37*
%LPD*%
%LPC*%
G36*
X412122Y37337D02*
X412122Y37337D01*
X407174Y39387D01*
X403387Y43174D01*
X401337Y48122D01*
X401337Y53478D01*
X403387Y58426D01*
X407174Y62213D01*
X412122Y64263D01*
X417478Y64263D01*
X422426Y62213D01*
X426213Y58426D01*
X428263Y53478D01*
X428263Y48122D01*
X426213Y43174D01*
X422426Y39387D01*
X417478Y37337D01*
X412122Y37337D01*
G37*
%LPD*%
%LPC*%
G36*
X345522Y37337D02*
X345522Y37337D01*
X340574Y39387D01*
X336787Y43174D01*
X334737Y48122D01*
X334737Y53478D01*
X336787Y58426D01*
X340574Y62213D01*
X345522Y64263D01*
X350878Y64263D01*
X355826Y62213D01*
X359613Y58426D01*
X361663Y53478D01*
X361663Y48122D01*
X359613Y43174D01*
X355826Y39387D01*
X350878Y37337D01*
X345522Y37337D01*
G37*
%LPD*%
%LPC*%
G36*
X310522Y37337D02*
X310522Y37337D01*
X305574Y39387D01*
X301787Y43174D01*
X299737Y48122D01*
X299737Y53478D01*
X301787Y58426D01*
X305574Y62213D01*
X310522Y64263D01*
X315878Y64263D01*
X320826Y62213D01*
X324613Y58426D01*
X326663Y53478D01*
X326663Y48122D01*
X324613Y43174D01*
X320826Y39387D01*
X315878Y37337D01*
X310522Y37337D01*
G37*
%LPD*%
%LPC*%
G36*
X269322Y37337D02*
X269322Y37337D01*
X264374Y39387D01*
X260587Y43174D01*
X258537Y48122D01*
X258537Y53478D01*
X260587Y58426D01*
X264374Y62213D01*
X269322Y64263D01*
X274678Y64263D01*
X279626Y62213D01*
X283413Y58426D01*
X285463Y53478D01*
X285463Y48122D01*
X283413Y43174D01*
X279626Y39387D01*
X274678Y37337D01*
X269322Y37337D01*
G37*
%LPD*%
%LPC*%
G36*
X234322Y37337D02*
X234322Y37337D01*
X229374Y39387D01*
X225587Y43174D01*
X223537Y48122D01*
X223537Y53478D01*
X225587Y58426D01*
X229374Y62213D01*
X234322Y64263D01*
X239678Y64263D01*
X244626Y62213D01*
X248413Y58426D01*
X250463Y53478D01*
X250463Y48122D01*
X248413Y43174D01*
X244626Y39387D01*
X239678Y37337D01*
X234322Y37337D01*
G37*
%LPD*%
%LPC*%
G36*
X193122Y37337D02*
X193122Y37337D01*
X188174Y39387D01*
X184387Y43174D01*
X182337Y48122D01*
X182337Y53478D01*
X184387Y58426D01*
X188174Y62213D01*
X193122Y64263D01*
X198478Y64263D01*
X203426Y62213D01*
X207213Y58426D01*
X209263Y53478D01*
X209263Y48122D01*
X207213Y43174D01*
X203426Y39387D01*
X198478Y37337D01*
X193122Y37337D01*
G37*
%LPD*%
%LPC*%
G36*
X480781Y225551D02*
X480781Y225551D01*
X477420Y226943D01*
X474847Y229516D01*
X473455Y232877D01*
X473455Y249723D01*
X474847Y253084D01*
X477420Y255657D01*
X480781Y257049D01*
X484419Y257049D01*
X487780Y255657D01*
X490353Y253084D01*
X491745Y249723D01*
X491745Y232877D01*
X490353Y229516D01*
X487780Y226943D01*
X484419Y225551D01*
X480781Y225551D01*
G37*
%LPD*%
%LPC*%
G36*
X556981Y301751D02*
X556981Y301751D01*
X553620Y303143D01*
X551047Y305716D01*
X549655Y309077D01*
X549655Y325923D01*
X551047Y329284D01*
X553620Y331857D01*
X556981Y333249D01*
X560619Y333249D01*
X563980Y331857D01*
X566553Y329284D01*
X567945Y325923D01*
X567945Y309077D01*
X566553Y305716D01*
X563980Y303143D01*
X560619Y301751D01*
X556981Y301751D01*
G37*
%LPD*%
%LPC*%
G36*
X531581Y301751D02*
X531581Y301751D01*
X528220Y303143D01*
X525647Y305716D01*
X524255Y309077D01*
X524255Y325923D01*
X525647Y329284D01*
X528220Y331857D01*
X531581Y333249D01*
X535219Y333249D01*
X538580Y331857D01*
X541153Y329284D01*
X542545Y325923D01*
X542545Y309077D01*
X541153Y305716D01*
X538580Y303143D01*
X535219Y301751D01*
X531581Y301751D01*
G37*
%LPD*%
%LPC*%
G36*
X506181Y301751D02*
X506181Y301751D01*
X502820Y303143D01*
X500247Y305716D01*
X498855Y309077D01*
X498855Y325923D01*
X500247Y329284D01*
X502820Y331857D01*
X506181Y333249D01*
X509819Y333249D01*
X513180Y331857D01*
X515753Y329284D01*
X517145Y325923D01*
X517145Y309077D01*
X515753Y305716D01*
X513180Y303143D01*
X509819Y301751D01*
X506181Y301751D01*
G37*
%LPD*%
%LPC*%
G36*
X480781Y301751D02*
X480781Y301751D01*
X477420Y303143D01*
X474847Y305716D01*
X473455Y309077D01*
X473455Y325923D01*
X474847Y329284D01*
X477420Y331857D01*
X480781Y333249D01*
X484419Y333249D01*
X487780Y331857D01*
X490353Y329284D01*
X491745Y325923D01*
X491745Y309077D01*
X490353Y305716D01*
X487780Y303143D01*
X484419Y301751D01*
X480781Y301751D01*
G37*
%LPD*%
%LPC*%
G36*
X455381Y301751D02*
X455381Y301751D01*
X452020Y303143D01*
X449447Y305716D01*
X448055Y309077D01*
X448055Y325923D01*
X449447Y329284D01*
X452020Y331857D01*
X455381Y333249D01*
X459019Y333249D01*
X462380Y331857D01*
X464953Y329284D01*
X466345Y325923D01*
X466345Y309077D01*
X464953Y305716D01*
X462380Y303143D01*
X459019Y301751D01*
X455381Y301751D01*
G37*
%LPD*%
%LPC*%
G36*
X429981Y301751D02*
X429981Y301751D01*
X426620Y303143D01*
X424047Y305716D01*
X422655Y309077D01*
X422655Y325923D01*
X424047Y329284D01*
X426620Y331857D01*
X429981Y333249D01*
X433619Y333249D01*
X436980Y331857D01*
X439553Y329284D01*
X440945Y325923D01*
X440945Y309077D01*
X439553Y305716D01*
X436980Y303143D01*
X433619Y301751D01*
X429981Y301751D01*
G37*
%LPD*%
%LPC*%
G36*
X404581Y301751D02*
X404581Y301751D01*
X401220Y303143D01*
X398647Y305716D01*
X397255Y309077D01*
X397255Y325923D01*
X398647Y329284D01*
X401220Y331857D01*
X404581Y333249D01*
X408219Y333249D01*
X411580Y331857D01*
X414153Y329284D01*
X415545Y325923D01*
X415545Y309077D01*
X414153Y305716D01*
X411580Y303143D01*
X408219Y301751D01*
X404581Y301751D01*
G37*
%LPD*%
%LPC*%
G36*
X556981Y225551D02*
X556981Y225551D01*
X553620Y226943D01*
X551047Y229516D01*
X549655Y232877D01*
X549655Y249723D01*
X551047Y253084D01*
X553620Y255657D01*
X556981Y257049D01*
X560619Y257049D01*
X563980Y255657D01*
X566553Y253084D01*
X567945Y249723D01*
X567945Y232877D01*
X566553Y229516D01*
X563980Y226943D01*
X560619Y225551D01*
X556981Y225551D01*
G37*
%LPD*%
%LPC*%
G36*
X506181Y225551D02*
X506181Y225551D01*
X502820Y226943D01*
X500247Y229516D01*
X498855Y232877D01*
X498855Y249723D01*
X500247Y253084D01*
X502820Y255657D01*
X506181Y257049D01*
X509819Y257049D01*
X513180Y255657D01*
X515753Y253084D01*
X517145Y249723D01*
X517145Y232877D01*
X515753Y229516D01*
X513180Y226943D01*
X509819Y225551D01*
X506181Y225551D01*
G37*
%LPD*%
%LPC*%
G36*
X404581Y225551D02*
X404581Y225551D01*
X401220Y226943D01*
X398647Y229516D01*
X397255Y232877D01*
X397255Y249723D01*
X398647Y253084D01*
X401220Y255657D01*
X404581Y257049D01*
X408219Y257049D01*
X411580Y255657D01*
X414153Y253084D01*
X415545Y249723D01*
X415545Y232877D01*
X414153Y229516D01*
X411580Y226943D01*
X408219Y225551D01*
X404581Y225551D01*
G37*
%LPD*%
%LPC*%
G36*
X636523Y433323D02*
X636523Y433323D01*
X636523Y449466D01*
X637379Y449331D01*
X638900Y448836D01*
X640325Y448110D01*
X641619Y447170D01*
X642750Y446039D01*
X643690Y444745D01*
X644416Y443320D01*
X644911Y441799D01*
X645161Y440220D01*
X645161Y433323D01*
X636523Y433323D01*
G37*
%LPD*%
%LPC*%
G36*
X636523Y430277D02*
X636523Y430277D01*
X645161Y430277D01*
X645161Y423380D01*
X644911Y421801D01*
X644416Y420280D01*
X643690Y418855D01*
X642750Y417561D01*
X641619Y416430D01*
X640325Y415490D01*
X638900Y414764D01*
X637379Y414269D01*
X636523Y414134D01*
X636523Y430277D01*
G37*
%LPD*%
%LPC*%
G36*
X624839Y433323D02*
X624839Y433323D01*
X624839Y440220D01*
X625089Y441799D01*
X625584Y443320D01*
X626310Y444745D01*
X627250Y446039D01*
X628381Y447170D01*
X629675Y448110D01*
X631100Y448836D01*
X632621Y449331D01*
X633477Y449466D01*
X633477Y433323D01*
X624839Y433323D01*
G37*
%LPD*%
%LPC*%
G36*
X632621Y414269D02*
X632621Y414269D01*
X631100Y414764D01*
X629675Y415490D01*
X628381Y416430D01*
X627250Y417561D01*
X626310Y418855D01*
X625584Y420280D01*
X625089Y421801D01*
X624839Y423380D01*
X624839Y430277D01*
X633477Y430277D01*
X633477Y414134D01*
X632621Y414269D01*
G37*
%LPD*%
%LPC*%
G36*
X52323Y389923D02*
X52323Y389923D01*
X52323Y401789D01*
X53952Y401531D01*
X55968Y400876D01*
X57856Y399914D01*
X59570Y398669D01*
X61069Y397170D01*
X62314Y395456D01*
X63276Y393568D01*
X63931Y391552D01*
X64189Y389923D01*
X52323Y389923D01*
G37*
%LPD*%
%LPC*%
G36*
X52323Y491523D02*
X52323Y491523D01*
X52323Y503389D01*
X53952Y503131D01*
X55968Y502476D01*
X57856Y501514D01*
X59570Y500269D01*
X61069Y498770D01*
X62314Y497056D01*
X63276Y495168D01*
X63931Y493152D01*
X64189Y491523D01*
X52323Y491523D01*
G37*
%LPD*%
%LPC*%
G36*
X364523Y839723D02*
X364523Y839723D01*
X364523Y851589D01*
X366152Y851331D01*
X368168Y850676D01*
X370056Y849714D01*
X371770Y848469D01*
X373269Y846970D01*
X374514Y845256D01*
X375476Y843368D01*
X376131Y841352D01*
X376389Y839723D01*
X364523Y839723D01*
G37*
%LPD*%
%LPC*%
G36*
X161323Y839723D02*
X161323Y839723D01*
X161323Y851589D01*
X162952Y851331D01*
X164968Y850676D01*
X166856Y849714D01*
X168570Y848469D01*
X170069Y846970D01*
X171314Y845256D01*
X172276Y843368D01*
X172931Y841352D01*
X173189Y839723D01*
X161323Y839723D01*
G37*
%LPD*%
%LPC*%
G36*
X52323Y593123D02*
X52323Y593123D01*
X52323Y604989D01*
X53952Y604731D01*
X55968Y604076D01*
X57856Y603114D01*
X59570Y601869D01*
X61069Y600370D01*
X62314Y598656D01*
X63276Y596768D01*
X63931Y594752D01*
X64189Y593123D01*
X52323Y593123D01*
G37*
%LPD*%
%LPC*%
G36*
X52323Y386877D02*
X52323Y386877D01*
X64189Y386877D01*
X63931Y385248D01*
X63276Y383232D01*
X62314Y381344D01*
X61069Y379630D01*
X59570Y378131D01*
X57856Y376886D01*
X55968Y375924D01*
X53952Y375269D01*
X52323Y375011D01*
X52323Y386877D01*
G37*
%LPD*%
%LPC*%
G36*
X364523Y836677D02*
X364523Y836677D01*
X376389Y836677D01*
X376131Y835048D01*
X375476Y833032D01*
X374514Y831144D01*
X373269Y829430D01*
X371770Y827931D01*
X370056Y826686D01*
X368168Y825724D01*
X366152Y825069D01*
X364523Y824811D01*
X364523Y836677D01*
G37*
%LPD*%
%LPC*%
G36*
X52323Y488477D02*
X52323Y488477D01*
X64189Y488477D01*
X63931Y486848D01*
X63276Y484832D01*
X62314Y482944D01*
X61069Y481230D01*
X59570Y479731D01*
X57856Y478486D01*
X55968Y477524D01*
X53952Y476869D01*
X52323Y476611D01*
X52323Y488477D01*
G37*
%LPD*%
%LPC*%
G36*
X37411Y491523D02*
X37411Y491523D01*
X37669Y493152D01*
X38324Y495168D01*
X39286Y497056D01*
X40531Y498770D01*
X42030Y500269D01*
X43744Y501514D01*
X45632Y502476D01*
X47648Y503131D01*
X49277Y503389D01*
X49277Y491523D01*
X37411Y491523D01*
G37*
%LPD*%
%LPC*%
G36*
X52323Y590077D02*
X52323Y590077D01*
X64189Y590077D01*
X63931Y588448D01*
X63276Y586432D01*
X62314Y584544D01*
X61069Y582830D01*
X59570Y581331D01*
X57856Y580086D01*
X55968Y579124D01*
X53952Y578469D01*
X52323Y578211D01*
X52323Y590077D01*
G37*
%LPD*%
%LPC*%
G36*
X349611Y839723D02*
X349611Y839723D01*
X349869Y841352D01*
X350524Y843368D01*
X351486Y845256D01*
X352731Y846970D01*
X354230Y848469D01*
X355944Y849714D01*
X357832Y850676D01*
X359848Y851331D01*
X361477Y851589D01*
X361477Y839723D01*
X349611Y839723D01*
G37*
%LPD*%
%LPC*%
G36*
X37411Y593123D02*
X37411Y593123D01*
X37669Y594752D01*
X38324Y596768D01*
X39286Y598656D01*
X40531Y600370D01*
X42030Y601869D01*
X43744Y603114D01*
X45632Y604076D01*
X47648Y604731D01*
X49277Y604989D01*
X49277Y593123D01*
X37411Y593123D01*
G37*
%LPD*%
%LPC*%
G36*
X146411Y839723D02*
X146411Y839723D01*
X146669Y841352D01*
X147324Y843368D01*
X148286Y845256D01*
X149531Y846970D01*
X151030Y848469D01*
X152744Y849714D01*
X154632Y850676D01*
X156648Y851331D01*
X158277Y851589D01*
X158277Y839723D01*
X146411Y839723D01*
G37*
%LPD*%
%LPC*%
G36*
X161323Y836677D02*
X161323Y836677D01*
X173189Y836677D01*
X172931Y835048D01*
X172276Y833032D01*
X171314Y831144D01*
X170069Y829430D01*
X168570Y827931D01*
X166856Y826686D01*
X164968Y825724D01*
X162952Y825069D01*
X161323Y824811D01*
X161323Y836677D01*
G37*
%LPD*%
%LPC*%
G36*
X37411Y389923D02*
X37411Y389923D01*
X37669Y391552D01*
X38324Y393568D01*
X39286Y395456D01*
X40531Y397170D01*
X42030Y398669D01*
X43744Y399914D01*
X45632Y400876D01*
X47648Y401531D01*
X49277Y401789D01*
X49277Y389923D01*
X37411Y389923D01*
G37*
%LPD*%
%LPC*%
G36*
X47648Y375269D02*
X47648Y375269D01*
X45632Y375924D01*
X43744Y376886D01*
X42030Y378131D01*
X40531Y379630D01*
X39286Y381344D01*
X38324Y383232D01*
X37669Y385248D01*
X37411Y386877D01*
X49277Y386877D01*
X49277Y375011D01*
X47648Y375269D01*
G37*
%LPD*%
%LPC*%
G36*
X47648Y476869D02*
X47648Y476869D01*
X45632Y477524D01*
X43744Y478486D01*
X42030Y479731D01*
X40531Y481230D01*
X39286Y482944D01*
X38324Y484832D01*
X37669Y486848D01*
X37411Y488477D01*
X49277Y488477D01*
X49277Y476611D01*
X47648Y476869D01*
G37*
%LPD*%
%LPC*%
G36*
X47648Y578469D02*
X47648Y578469D01*
X45632Y579124D01*
X43744Y580086D01*
X42030Y581331D01*
X40531Y582830D01*
X39286Y584544D01*
X38324Y586432D01*
X37669Y588448D01*
X37411Y590077D01*
X49277Y590077D01*
X49277Y578211D01*
X47648Y578469D01*
G37*
%LPD*%
%LPC*%
G36*
X156648Y825069D02*
X156648Y825069D01*
X154632Y825724D01*
X152744Y826686D01*
X151030Y827931D01*
X149531Y829430D01*
X148286Y831144D01*
X147324Y833032D01*
X146669Y835048D01*
X146411Y836677D01*
X158277Y836677D01*
X158277Y824811D01*
X156648Y825069D01*
G37*
%LPD*%
%LPC*%
G36*
X359848Y825069D02*
X359848Y825069D01*
X357832Y825724D01*
X355944Y826686D01*
X354230Y827931D01*
X352731Y829430D01*
X351486Y831144D01*
X350524Y833032D01*
X349869Y835048D01*
X349611Y836677D01*
X361477Y836677D01*
X361477Y824811D01*
X359848Y825069D01*
G37*
%LPD*%
%LPC*%
G36*
X50799Y388399D02*
X50799Y388399D01*
X50799Y388401D01*
X50801Y388401D01*
X50801Y388399D01*
X50799Y388399D01*
G37*
%LPD*%
%LPC*%
G36*
X159799Y838199D02*
X159799Y838199D01*
X159799Y838201D01*
X159801Y838201D01*
X159801Y838199D01*
X159799Y838199D01*
G37*
%LPD*%
%LPC*%
G36*
X50799Y489999D02*
X50799Y489999D01*
X50799Y490001D01*
X50801Y490001D01*
X50801Y489999D01*
X50799Y489999D01*
G37*
%LPD*%
%LPC*%
G36*
X362999Y838199D02*
X362999Y838199D01*
X362999Y838201D01*
X363001Y838201D01*
X363001Y838199D01*
X362999Y838199D01*
G37*
%LPD*%
%LPC*%
G36*
X50799Y591599D02*
X50799Y591599D01*
X50799Y591601D01*
X50801Y591601D01*
X50801Y591599D01*
X50799Y591599D01*
G37*
%LPD*%
%LPC*%
G36*
X634999Y431799D02*
X634999Y431799D01*
X634999Y431801D01*
X635001Y431801D01*
X635001Y431799D01*
X634999Y431799D01*
G37*
%LPD*%
D10*
X406400Y234696D02*
X406400Y247904D01*
X431800Y247904D02*
X431800Y234696D01*
X558800Y234696D02*
X558800Y247904D01*
X558800Y310896D02*
X558800Y324104D01*
X457200Y247904D02*
X457200Y234696D01*
X482600Y234696D02*
X482600Y247904D01*
X533400Y247904D02*
X533400Y234696D01*
X508000Y234696D02*
X508000Y247904D01*
X533400Y310896D02*
X533400Y324104D01*
X508000Y324104D02*
X508000Y310896D01*
X482600Y310896D02*
X482600Y324104D01*
X457200Y324104D02*
X457200Y310896D01*
X431800Y310896D02*
X431800Y324104D01*
X406400Y324104D02*
X406400Y310896D01*
D11*
X50800Y490000D03*
X50800Y525000D03*
X195800Y50800D03*
X160800Y50800D03*
X272000Y50800D03*
X237000Y50800D03*
X348200Y50800D03*
X313200Y50800D03*
X159800Y838200D03*
X194800Y838200D03*
X236000Y838200D03*
X271000Y838200D03*
X50800Y388400D03*
X50800Y423400D03*
X50800Y312200D03*
X50800Y347200D03*
D12*
X279400Y424180D02*
X279400Y439420D01*
X304800Y439420D02*
X304800Y424180D01*
X330200Y424180D02*
X330200Y439420D01*
X355600Y439420D02*
X355600Y424180D01*
X381000Y424180D02*
X381000Y439420D01*
X406400Y439420D02*
X406400Y424180D01*
X431800Y424180D02*
X431800Y439420D01*
X457200Y439420D02*
X457200Y424180D01*
X482600Y424180D02*
X482600Y439420D01*
X508000Y439420D02*
X508000Y424180D01*
X533400Y424180D02*
X533400Y439420D01*
X558800Y439420D02*
X558800Y424180D01*
X584200Y424180D02*
X584200Y439420D01*
X609600Y439420D02*
X609600Y424180D01*
X635000Y424180D02*
X635000Y439420D01*
X279400Y576580D02*
X279400Y591820D01*
X304800Y591820D02*
X304800Y576580D01*
X330200Y576580D02*
X330200Y591820D01*
X355600Y591820D02*
X355600Y576580D01*
X381000Y576580D02*
X381000Y591820D01*
X406400Y591820D02*
X406400Y576580D01*
X431800Y576580D02*
X431800Y591820D01*
X457200Y591820D02*
X457200Y576580D01*
X482600Y576580D02*
X482600Y591820D01*
X508000Y591820D02*
X508000Y576580D01*
X533400Y576580D02*
X533400Y591820D01*
X558800Y591820D02*
X558800Y576580D01*
X584200Y576580D02*
X584200Y591820D01*
X609600Y591820D02*
X609600Y576580D01*
X635000Y576580D02*
X635000Y591820D01*
D11*
X551400Y50800D03*
X516400Y50800D03*
X627600Y50800D03*
X592600Y50800D03*
X449800Y50800D03*
X414800Y50800D03*
X50800Y667800D03*
X50800Y702800D03*
X50800Y591600D03*
X50800Y626600D03*
X439200Y838200D03*
X474200Y838200D03*
X363000Y838200D03*
X398000Y838200D03*
D13*
X167640Y104140D03*
X243840Y101600D03*
X294640Y162560D03*
X398780Y127000D03*
D14*
X411480Y500380D02*
X406400Y505460D01*
X645160Y500380D02*
X690880Y454660D01*
X690880Y149080D01*
X592600Y50800D01*
X645160Y500380D02*
X411480Y500380D01*
X406400Y505460D02*
X406400Y584200D01*
X457200Y520700D02*
X462280Y515620D01*
X711200Y134400D02*
X627600Y50800D01*
X652780Y515620D02*
X462280Y515620D01*
X652780Y515620D02*
X711200Y457200D01*
X711200Y134400D01*
X457200Y520700D02*
X457200Y584200D01*
X508000Y584200D02*
X508000Y543560D01*
D13*
X508000Y543560D03*
X673100Y271780D03*
D14*
X546100Y271780D01*
X533400Y259080D01*
X533400Y241300D01*
X533400Y584200D02*
X533400Y609600D01*
X520700Y622300D01*
X276860Y622300D01*
X251460Y596900D01*
X251460Y411480D01*
X386080Y276860D01*
X421640Y276860D02*
X457200Y241300D01*
X421640Y276860D02*
X386080Y276860D01*
M02*
